<?xml version="1.0" encoding="utf-8" standalone="no"?>
<!DOCTYPE svg PUBLIC "-//W3C//DTD SVG 1.1//EN"
  "http://www.w3.org/Graphics/SVG/1.1/DTD/svg11.dtd">
<svg height="576pt" version="1.1" viewBox="0 0 864 576" width="864pt" xmlns="http://www.w3.org/2000/svg" xmlns:xlink="http://www.w3.org/1999/xlink">
 <metadata>
  <rdf:RDF xmlns:cc="http://creativecommons.org/ns#" xmlns:dc="http://purl.org/dc/elements/1.1/" xmlns:rdf="http://www.w3.org/1999/02/22-rdf-syntax-ns#">
   <cc:Work>
    <dc:type rdf:resource="http://purl.org/dc/dcmitype/StillImage"/>
    <dc:date>2022-07-30T02:15:17.035155</dc:date>
    <dc:format>image/svg+xml</dc:format>
    <dc:creator>
     <cc:Agent>
      <dc:title>Matplotlib v3.4.3, https://matplotlib.org/</dc:title>
     </cc:Agent>
    </dc:creator>
   </cc:Work>
  </rdf:RDF>
 </metadata>
 <defs>
  <style type="text/css">*{stroke-linecap:butt;stroke-linejoin:round;}</style>
 </defs>
 <g id="figure_1">
  <g id="patch_1">
   <path d="M 0 576 
L 864 576 
L 864 0 
L 0 0 
z
" style="fill:#ffffff;"/>
  </g>
  <g id="axes_1">
   <g id="patch_2">
    <path d="M 108 512.64 
L 777.6 512.64 
L 777.6 69.12 
L 108 69.12 
z
" style="fill:#ffffff;"/>
   </g>
   <g id="matplotlib.axis_1">
    <g id="xtick_1">
     <g id="line2d_1">
      <defs>
       <path d="M 0 0 
L 0 3.5 
" id="mb20cf0c282" style="stroke:#000000;stroke-width:0.8;"/>
      </defs>
      <g>
       <use style="stroke:#000000;stroke-width:0.8;" x="138.436364" xlink:href="#mb20cf0c282" y="512.64"/>
      </g>
     </g>
     <g id="text_1">
      <!-- Jan-2022 -->
      <g transform="translate(113.298707 529.608438)scale(0.14 -0.14)">
       <defs>
        <path d="M 1939 4160 
L 282 4160 
L 282 3981 
C 800 3942 851 3898 851 3360 
L 851 1178 
C 851 640 838 269 781 -38 
C 717 -403 525 -698 166 -877 
L 250 -1056 
C 410 -1005 627 -883 845 -685 
C 1267 -294 1395 147 1395 966 
L 1395 3360 
C 1395 3898 1446 3942 1939 3981 
L 1939 4160 
z
" id="MinionPro-Regular-4a" transform="scale(0.015625)"/>
        <path d="M 2771 250 
L 2707 416 
C 2643 378 2554 346 2477 346 
C 2368 346 2253 442 2253 730 
L 2253 1920 
C 2253 2253 2189 2515 1965 2701 
C 1824 2816 1632 2874 1440 2874 
C 1075 2803 659 2554 480 2426 
C 358 2336 275 2266 275 2170 
C 275 2022 442 1894 557 1894 
C 646 1894 717 1939 742 2048 
C 794 2240 851 2381 934 2464 
C 998 2541 1094 2592 1222 2592 
C 1542 2592 1760 2330 1760 1869 
L 1760 1754 
C 1619 1638 1152 1466 768 1338 
C 416 1216 250 1018 250 704 
C 250 301 563 -77 1018 -77 
C 1210 -77 1517 160 1773 333 
C 1805 224 1843 134 1926 45 
C 1997 -19 2131 -77 2227 -77 
L 2771 250 
z
M 1760 538 
C 1638 422 1414 314 1248 307 
C 1050 307 794 467 794 800 
C 794 1030 934 1152 1184 1267 
C 1318 1331 1626 1466 1760 1536 
L 1760 538 
z
" id="MinionPro-Regular-61" transform="scale(0.015625)"/>
        <path d="M 3347 0 
L 3347 166 
C 2976 205 2944 230 2944 666 
L 2944 1901 
C 2944 2522 2624 2874 2118 2874 
C 1933 2874 1766 2797 1587 2682 
C 1427 2573 1286 2477 1158 2381 
L 1158 2893 
C 877 2765 576 2688 269 2630 
L 269 2483 
C 614 2419 653 2400 653 1990 
L 653 666 
C 653 243 621 211 186 166 
L 186 0 
L 1574 0 
L 1574 166 
C 1197 205 1158 230 1158 666 
L 1158 2170 
C 1350 2336 1600 2496 1856 2496 
C 2285 2496 2438 2208 2438 1766 
L 2438 698 
C 2438 256 2394 205 2016 166 
L 2016 0 
L 3347 0 
z
" id="MinionPro-Regular-6e" transform="scale(0.015625)"/>
        <path d="M 1920 1619 
L 454 1619 
L 365 1267 
L 1824 1267 
L 1920 1619 
z
" id="MinionPro-Regular-2d" transform="scale(0.015625)"/>
        <path d="M 2637 896 
C 2445 493 2362 467 2016 467 
L 819 467 
L 1728 1421 
C 2317 2048 2573 2426 2573 2982 
C 2573 3654 2061 4064 1498 4064 
C 1126 4064 826 3898 634 3686 
L 269 3168 
L 410 3040 
C 576 3290 845 3635 1280 3635 
C 1754 3635 2035 3322 2035 2784 
C 2035 2234 1632 1709 1235 1235 
C 915 864 557 499 198 147 
L 198 0 
L 2592 0 
C 2669 288 2733 570 2816 838 
L 2637 896 
z
" id="MinionPro-Regular-32" transform="scale(0.015625)"/>
        <path d="M 1536 4064 
C 576 4064 224 2925 224 1990 
C 224 979 570 -77 1536 -77 
C 2496 -77 2835 1062 2835 1997 
C 2835 2982 2496 4064 1542 4064 
L 1536 4064 
z
M 1530 3853 
C 2106 3853 2266 2906 2266 1997 
C 2266 1101 2112 141 1536 141 
C 979 141 794 1107 794 2003 
C 794 2893 947 3853 1523 3853 
L 1530 3853 
z
" id="MinionPro-Regular-30" transform="scale(0.015625)"/>
       </defs>
       <use xlink:href="#MinionPro-Regular-4a"/>
       <use x="32.899994" xlink:href="#MinionPro-Regular-61"/>
       <use x="76.799988" xlink:href="#MinionPro-Regular-6e"/>
       <use x="131.499985" xlink:href="#MinionPro-Regular-2d"/>
       <use x="167.099976" xlink:href="#MinionPro-Regular-32"/>
       <use x="215.09996" xlink:href="#MinionPro-Regular-30"/>
       <use x="263.099945" xlink:href="#MinionPro-Regular-32"/>
       <use x="311.09993" xlink:href="#MinionPro-Regular-32"/>
      </g>
     </g>
    </g>
    <g id="xtick_2">
     <g id="line2d_2">
      <g>
       <use style="stroke:#000000;stroke-width:0.8;" x="290.618182" xlink:href="#mb20cf0c282" y="512.64"/>
      </g>
     </g>
     <g id="text_2">
      <!-- Jan-2027 -->
      <g transform="translate(265.480526 529.608438)scale(0.14 -0.14)">
       <defs>
        <path d="M 2861 3987 
L 416 3987 
C 390 3712 358 3392 301 3040 
L 486 3040 
C 640 3462 678 3520 1101 3520 
L 2483 3520 
C 1978 2406 1254 1088 582 -6 
L 627 -77 
L 1101 -13 
C 1715 1306 2310 2611 2912 3910 
L 2861 3987 
z
" id="MinionPro-Regular-37" transform="scale(0.015625)"/>
       </defs>
       <use xlink:href="#MinionPro-Regular-4a"/>
       <use x="32.899994" xlink:href="#MinionPro-Regular-61"/>
       <use x="76.799988" xlink:href="#MinionPro-Regular-6e"/>
       <use x="131.499985" xlink:href="#MinionPro-Regular-2d"/>
       <use x="167.099976" xlink:href="#MinionPro-Regular-32"/>
       <use x="215.09996" xlink:href="#MinionPro-Regular-30"/>
       <use x="263.099945" xlink:href="#MinionPro-Regular-32"/>
       <use x="311.09993" xlink:href="#MinionPro-Regular-37"/>
      </g>
     </g>
    </g>
    <g id="xtick_3">
     <g id="line2d_3">
      <g>
       <use style="stroke:#000000;stroke-width:0.8;" x="442.8" xlink:href="#mb20cf0c282" y="512.64"/>
      </g>
     </g>
     <g id="text_3">
      <!-- Jan-2032 -->
      <g transform="translate(417.662344 529.608438)scale(0.14 -0.14)">
       <defs>
        <path d="M 1824 2419 
C 2010 2547 2163 2662 2259 2765 
C 2381 2886 2458 3034 2458 3219 
C 2458 3706 2080 4064 1504 4064 
L 1498 4064 
C 1165 4064 870 3904 691 3706 
L 410 3302 
L 544 3174 
C 704 3411 960 3680 1312 3680 
C 1651 3680 1920 3475 1920 3078 
C 1920 2605 1485 2355 896 2170 
L 941 1984 
C 1043 2016 1197 2054 1350 2054 
C 1715 2054 2163 1818 2163 1229 
C 2163 595 1843 256 1389 256 
C 1024 256 762 435 595 582 
C 544 627 493 621 442 582 
C 384 538 301 454 294 371 
C 282 294 307 224 397 141 
C 480 64 742 -77 1037 -77 
C 1498 -77 2714 397 2714 1434 
C 2714 1901 2387 2298 1824 2406 
L 1824 2419 
z
" id="MinionPro-Regular-33" transform="scale(0.015625)"/>
       </defs>
       <use xlink:href="#MinionPro-Regular-4a"/>
       <use x="32.899994" xlink:href="#MinionPro-Regular-61"/>
       <use x="76.799988" xlink:href="#MinionPro-Regular-6e"/>
       <use x="131.499985" xlink:href="#MinionPro-Regular-2d"/>
       <use x="167.099976" xlink:href="#MinionPro-Regular-32"/>
       <use x="215.09996" xlink:href="#MinionPro-Regular-30"/>
       <use x="263.099945" xlink:href="#MinionPro-Regular-33"/>
       <use x="311.09993" xlink:href="#MinionPro-Regular-32"/>
      </g>
     </g>
    </g>
    <g id="xtick_4">
     <g id="line2d_4">
      <g>
       <use style="stroke:#000000;stroke-width:0.8;" x="594.981818" xlink:href="#mb20cf0c282" y="512.64"/>
      </g>
     </g>
     <g id="text_4">
      <!-- Jan-2037 -->
      <g transform="translate(569.844162 529.608438)scale(0.14 -0.14)">
       <use xlink:href="#MinionPro-Regular-4a"/>
       <use x="32.899994" xlink:href="#MinionPro-Regular-61"/>
       <use x="76.799988" xlink:href="#MinionPro-Regular-6e"/>
       <use x="131.499985" xlink:href="#MinionPro-Regular-2d"/>
       <use x="167.099976" xlink:href="#MinionPro-Regular-32"/>
       <use x="215.09996" xlink:href="#MinionPro-Regular-30"/>
       <use x="263.099945" xlink:href="#MinionPro-Regular-33"/>
       <use x="311.09993" xlink:href="#MinionPro-Regular-37"/>
      </g>
     </g>
    </g>
    <g id="xtick_5">
     <g id="line2d_5">
      <g>
       <use style="stroke:#000000;stroke-width:0.8;" x="747.163636" xlink:href="#mb20cf0c282" y="512.64"/>
      </g>
     </g>
     <g id="text_5">
      <!-- Jan-2042 -->
      <g transform="translate(722.02598 529.608438)scale(0.14 -0.14)">
       <defs>
        <path d="M 2918 1139 
L 2918 1440 
L 2304 1440 
L 2304 4045 
L 2048 4045 
C 1389 3174 736 2227 128 1318 
L 128 1139 
L 1792 1139 
L 1792 678 
C 1792 256 1766 218 1210 173 
L 1210 0 
L 2848 0 
L 2848 173 
C 2330 218 2304 250 2304 678 
L 2304 1139 
L 2918 1139 
z
M 1792 1440 
L 531 1440 
C 954 2150 1370 2758 1779 3334 
L 1792 3334 
L 1792 1440 
z
" id="MinionPro-Regular-34" transform="scale(0.015625)"/>
       </defs>
       <use xlink:href="#MinionPro-Regular-4a"/>
       <use x="32.899994" xlink:href="#MinionPro-Regular-61"/>
       <use x="76.799988" xlink:href="#MinionPro-Regular-6e"/>
       <use x="131.499985" xlink:href="#MinionPro-Regular-2d"/>
       <use x="167.099976" xlink:href="#MinionPro-Regular-32"/>
       <use x="215.09996" xlink:href="#MinionPro-Regular-30"/>
       <use x="263.099945" xlink:href="#MinionPro-Regular-34"/>
       <use x="311.09993" xlink:href="#MinionPro-Regular-32"/>
      </g>
     </g>
    </g>
    <g id="text_6">
     <!-- Months -->
     <g transform="translate(417.5675 548.360937)scale(0.16 -0.16)">
      <defs>
       <path d="M 5510 0 
L 5510 179 
C 4954 230 4934 262 4915 941 
L 4851 3258 
C 4832 3917 4877 3930 5440 3981 
L 5440 4160 
L 4352 4160 
L 2874 960 
L 1414 4160 
L 365 4160 
L 365 3981 
C 947 3923 979 3898 922 3066 
L 832 1734 
C 781 1069 742 787 710 563 
C 666 294 538 224 166 179 
L 166 0 
L 1658 0 
L 1658 179 
C 1235 224 1082 269 1069 576 
C 1062 832 1062 1114 1088 1638 
L 1184 3462 
L 1197 3462 
L 2630 45 
L 2758 45 
L 4320 3552 
L 4346 3552 
L 4365 941 
C 4371 262 4346 230 3827 179 
L 3827 0 
L 5510 0 
z
" id="MinionPro-Regular-4d" transform="scale(0.015625)"/>
       <path d="M 1638 2874 
C 1056 2874 237 2394 237 1338 
C 237 627 762 -77 1638 -77 
C 2272 -77 3027 416 3027 1446 
C 3027 2240 2432 2874 1645 2874 
L 1638 2874 
z
M 1574 2662 
C 2131 2662 2432 2054 2432 1306 
C 2432 429 2106 134 1709 134 
C 1184 134 832 736 832 1542 
C 832 2266 1178 2662 1568 2662 
L 1574 2662 
z
" id="MinionPro-Regular-6f" transform="scale(0.015625)"/>
       <path d="M 1907 230 
L 1850 397 
C 1760 352 1613 288 1453 288 
C 1293 288 1082 384 1082 902 
L 1082 2547 
L 1766 2547 
C 1843 2592 1862 2733 1805 2797 
L 1082 2797 
L 1082 3674 
L 992 3686 
L 576 3264 
L 576 2797 
L 282 2797 
L 109 2611 
L 134 2547 
L 576 2547 
L 576 685 
C 576 179 800 -77 1203 -77 
C 1261 -77 1363 -51 1472 6 
L 1907 230 
z
" id="MinionPro-Regular-74" transform="scale(0.015625)"/>
       <path d="M 3283 0 
L 3283 166 
C 2906 198 2861 237 2861 659 
L 2861 1779 
C 2861 2547 2496 2880 1978 2874 
C 1632 2874 1286 2637 1062 2406 
L 1062 4557 
C 813 4480 429 4378 122 4333 
L 122 4186 
C 544 4147 557 4115 557 3712 
L 557 659 
C 557 237 506 198 122 166 
L 115 0 
L 1472 0 
L 1472 166 
C 1094 205 1062 250 1062 659 
L 1062 2182 
C 1242 2387 1485 2509 1728 2509 
C 2157 2509 2355 2246 2355 1722 
L 2355 659 
C 2355 243 2304 205 1933 166 
L 1933 0 
L 3283 0 
z
" id="MinionPro-Regular-68" transform="scale(0.015625)"/>
       <path d="M 2048 2080 
C 2029 2240 1958 2618 1907 2765 
C 1773 2816 1600 2880 1338 2874 
C 749 2874 365 2496 365 2048 
C 365 1555 781 1344 1165 1165 
C 1485 1018 1670 864 1670 582 
C 1670 314 1453 134 1216 134 
C 832 134 544 506 429 928 
L 262 896 
C 262 666 320 230 365 141 
C 480 45 774 -77 1101 -77 
C 1613 -77 2157 224 2157 806 
C 2157 1248 1830 1478 1350 1677 
C 1062 1798 806 1952 806 2234 
C 806 2483 979 2675 1222 2675 
C 1536 2675 1760 2419 1882 2042 
L 2048 2080 
z
" id="MinionPro-Regular-73" transform="scale(0.015625)"/>
      </defs>
      <use xlink:href="#MinionPro-Regular-4d"/>
      <use x="89.099991" xlink:href="#MinionPro-Regular-6f"/>
      <use x="140.099976" xlink:href="#MinionPro-Regular-6e"/>
      <use x="194.799973" xlink:href="#MinionPro-Regular-74"/>
      <use x="225.299957" xlink:href="#MinionPro-Regular-68"/>
      <use x="278.699951" xlink:href="#MinionPro-Regular-73"/>
     </g>
    </g>
   </g>
   <g id="matplotlib.axis_2">
    <g id="ytick_1">
     <g id="line2d_6">
      <defs>
       <path d="M 0 0 
L -3.5 0 
" id="m4901ab22ed" style="stroke:#000000;stroke-width:0.8;"/>
      </defs>
      <g>
       <use style="stroke:#000000;stroke-width:0.8;" x="108" xlink:href="#m4901ab22ed" y="457.92"/>
      </g>
     </g>
     <g id="text_7">
      <!-- 150 -->
      <g transform="translate(83.72 462.192188)scale(0.12 -0.12)">
       <defs>
        <path d="M 2458 0 
L 2458 173 
C 1875 218 1837 269 1837 730 
L 1837 4064 
C 1485 3923 1107 3802 698 3731 
L 698 3584 
L 1005 3571 
C 1286 3558 1312 3526 1312 3194 
L 1312 730 
C 1312 269 1280 218 698 173 
L 698 0 
L 2458 0 
z
" id="MinionPro-Regular-31" transform="scale(0.015625)"/>
        <path d="M 973 3520 
L 2464 3520 
L 2630 3936 
L 2592 3987 
L 768 3987 
L 518 2035 
C 666 2093 909 2163 1178 2163 
C 1875 2163 2221 1760 2221 1197 
C 2221 717 1952 250 1408 250 
C 1018 250 755 454 621 576 
C 557 627 506 621 448 576 
C 378 512 320 429 314 365 
C 301 288 333 237 416 147 
C 512 58 781 -77 1075 -77 
C 1414 -70 1843 96 2189 378 
C 2579 698 2758 1062 2758 1446 
C 2758 1971 2342 2528 1523 2528 
C 1350 2528 1050 2426 806 2336 
L 973 3520 
z
" id="MinionPro-Regular-35" transform="scale(0.015625)"/>
       </defs>
       <use xlink:href="#MinionPro-Regular-31"/>
       <use x="47.999985" xlink:href="#MinionPro-Regular-35"/>
       <use x="95.999969" xlink:href="#MinionPro-Regular-30"/>
      </g>
     </g>
    </g>
    <g id="ytick_2">
     <g id="line2d_7">
      <g>
       <use style="stroke:#000000;stroke-width:0.8;" x="108" xlink:href="#m4901ab22ed" y="400.32"/>
      </g>
     </g>
     <g id="text_8">
      <!-- 155 -->
      <g transform="translate(83.72 404.592188)scale(0.12 -0.12)">
       <use xlink:href="#MinionPro-Regular-31"/>
       <use x="47.999985" xlink:href="#MinionPro-Regular-35"/>
       <use x="95.999969" xlink:href="#MinionPro-Regular-35"/>
      </g>
     </g>
    </g>
    <g id="ytick_3">
     <g id="line2d_8">
      <g>
       <use style="stroke:#000000;stroke-width:0.8;" x="108" xlink:href="#m4901ab22ed" y="342.72"/>
      </g>
     </g>
     <g id="text_9">
      <!-- 160 -->
      <g transform="translate(83.72 346.992188)scale(0.12 -0.12)">
       <defs>
        <path d="M 877 2195 
C 1069 3085 1664 3488 2054 3674 
C 2291 3782 2541 3859 2752 3898 
L 2707 4102 
C 2451 4058 2144 3987 1888 3898 
C 1210 3648 237 2925 237 1523 
C 237 538 800 -77 1549 -77 
C 2317 -77 2861 570 2861 1331 
C 2861 1990 2394 2515 1709 2515 
C 1581 2515 1446 2470 1306 2406 
L 877 2195 
z
M 1459 2157 
C 2042 2157 2310 1632 2310 1101 
C 2310 678 2157 141 1658 141 
C 1133 141 806 768 806 1536 
C 806 1702 813 1856 845 1978 
C 998 2061 1216 2157 1453 2157 
L 1459 2157 
z
" id="MinionPro-Regular-36" transform="scale(0.015625)"/>
       </defs>
       <use xlink:href="#MinionPro-Regular-31"/>
       <use x="47.999985" xlink:href="#MinionPro-Regular-36"/>
       <use x="95.999969" xlink:href="#MinionPro-Regular-30"/>
      </g>
     </g>
    </g>
    <g id="ytick_4">
     <g id="line2d_9">
      <g>
       <use style="stroke:#000000;stroke-width:0.8;" x="108" xlink:href="#m4901ab22ed" y="285.12"/>
      </g>
     </g>
     <g id="text_10">
      <!-- 165 -->
      <g transform="translate(83.72 289.392188)scale(0.12 -0.12)">
       <use xlink:href="#MinionPro-Regular-31"/>
       <use x="47.999985" xlink:href="#MinionPro-Regular-36"/>
       <use x="95.999969" xlink:href="#MinionPro-Regular-35"/>
      </g>
     </g>
    </g>
    <g id="ytick_5">
     <g id="line2d_10">
      <g>
       <use style="stroke:#000000;stroke-width:0.8;" x="108" xlink:href="#m4901ab22ed" y="227.52"/>
      </g>
     </g>
     <g id="text_11">
      <!-- 170 -->
      <g transform="translate(83.72 231.792188)scale(0.12 -0.12)">
       <use xlink:href="#MinionPro-Regular-31"/>
       <use x="47.999985" xlink:href="#MinionPro-Regular-37"/>
       <use x="95.999969" xlink:href="#MinionPro-Regular-30"/>
      </g>
     </g>
    </g>
    <g id="ytick_6">
     <g id="line2d_11">
      <g>
       <use style="stroke:#000000;stroke-width:0.8;" x="108" xlink:href="#m4901ab22ed" y="169.92"/>
      </g>
     </g>
     <g id="text_12">
      <!-- 175 -->
      <g transform="translate(83.72 174.192188)scale(0.12 -0.12)">
       <use xlink:href="#MinionPro-Regular-31"/>
       <use x="47.999985" xlink:href="#MinionPro-Regular-37"/>
       <use x="95.999969" xlink:href="#MinionPro-Regular-35"/>
      </g>
     </g>
    </g>
    <g id="ytick_7">
     <g id="line2d_12">
      <g>
       <use style="stroke:#000000;stroke-width:0.8;" x="108" xlink:href="#m4901ab22ed" y="112.32"/>
      </g>
     </g>
     <g id="text_13">
      <!-- 180 -->
      <g transform="translate(83.72 116.592188)scale(0.12 -0.12)">
       <defs>
        <path d="M 1587 4064 
C 902 4064 448 3552 448 3014 
C 448 2566 723 2259 1139 2022 
C 922 1882 678 1709 576 1613 
C 435 1478 288 1299 288 1005 
C 288 320 832 -77 1517 -77 
C 2061 -77 2784 333 2784 1082 
C 2784 1638 2381 1946 1939 2195 
C 2227 2394 2400 2547 2445 2605 
C 2566 2746 2630 2931 2630 3117 
C 2630 3635 2195 4064 1594 4064 
L 1587 4064 
z
M 1523 3859 
C 1818 3859 2150 3622 2150 3085 
C 2150 2701 1978 2464 1760 2291 
C 1306 2515 928 2726 928 3200 
C 928 3526 1146 3859 1517 3859 
L 1523 3859 
z
M 1581 128 
C 1178 128 800 454 800 1043 
C 800 1395 1018 1715 1325 1920 
C 1818 1670 2272 1395 2272 915 
C 2272 422 1971 128 1587 128 
L 1581 128 
z
" id="MinionPro-Regular-38" transform="scale(0.015625)"/>
       </defs>
       <use xlink:href="#MinionPro-Regular-31"/>
       <use x="47.999985" xlink:href="#MinionPro-Regular-38"/>
       <use x="95.999969" xlink:href="#MinionPro-Regular-30"/>
      </g>
     </g>
    </g>
    <g id="text_14">
     <!-- Level (masl) -->
     <g transform="translate(75.88 330.0875)rotate(-90)scale(0.16 -0.16)">
      <defs>
       <path d="M 3168 1043 
C 3072 749 2950 544 2842 416 
C 2694 250 2477 218 2125 218 
C 1856 218 1638 230 1510 301 
C 1395 365 1363 493 1363 838 
L 1363 3366 
C 1363 3910 1421 3942 1926 3981 
L 1926 4160 
L 256 4160 
L 256 3981 
C 774 3942 819 3910 819 3366 
L 819 806 
C 819 262 768 218 230 179 
L 230 0 
L 3130 0 
C 3187 198 3322 806 3360 1005 
L 3168 1043 
z
" id="MinionPro-Regular-4c" transform="scale(0.015625)"/>
       <path d="M 2426 678 
C 2195 461 1952 358 1696 358 
C 1248 358 749 717 742 1587 
C 1504 1613 2304 1677 2413 1696 
C 2528 1722 2560 1773 2560 1901 
C 2560 2400 2131 2874 1600 2874 
L 1594 2874 
C 1267 2874 922 2701 659 2406 
C 397 2118 237 1728 237 1286 
C 237 563 698 -77 1485 -77 
C 1683 -77 2125 38 2528 544 
L 2426 678 
z
M 1446 2637 
C 1798 2637 2016 2330 2010 1997 
C 2010 1907 1971 1869 1856 1869 
C 1485 1856 1133 1850 774 1850 
C 870 2368 1152 2637 1440 2637 
L 1446 2637 
z
" id="MinionPro-Regular-65" transform="scale(0.015625)"/>
       <path d="M 3053 2797 
L 1914 2797 
L 1914 2637 
C 2278 2592 2317 2522 2221 2214 
C 2080 1798 1875 1216 1651 685 
C 1466 1146 1210 1818 1043 2266 
C 941 2541 954 2592 1299 2637 
L 1299 2797 
L -13 2797 
L -13 2637 
C 333 2586 384 2541 531 2170 
C 832 1427 1126 698 1414 -70 
L 1587 -70 
C 1939 883 2278 1670 2490 2150 
C 2662 2534 2720 2592 3053 2637 
L 3053 2797 
z
" id="MinionPro-Regular-76" transform="scale(0.015625)"/>
       <path d="M 1523 0 
L 1523 166 
C 1114 205 1062 243 1062 666 
L 1062 4557 
C 845 4480 448 4371 115 4333 
L 115 4179 
C 518 4147 557 4128 557 3693 
L 557 666 
C 557 243 499 205 96 166 
L 96 0 
L 1523 0 
z
" id="MinionPro-Regular-6c" transform="scale(0.015625)"/>
       <path id="MinionPro-Regular-20" transform="scale(0.015625)"/>
       <path d="M 1920 -941 
C 1286 -403 915 627 915 1728 
C 915 2829 1280 3859 1920 4390 
L 1805 4538 
C 870 3904 448 2880 448 1734 
L 448 1728 
C 448 576 870 -454 1805 -1082 
L 1920 -941 
z
" id="MinionPro-Regular-28" transform="scale(0.015625)"/>
       <path d="M 5094 0 
L 5094 166 
C 4730 205 4678 230 4678 659 
L 4678 1894 
C 4678 2522 4365 2874 3866 2874 
C 3686 2874 3520 2797 3386 2707 
C 3226 2611 3040 2490 2854 2349 
C 2726 2682 2451 2874 2144 2874 
C 1939 2874 1786 2803 1619 2701 
C 1427 2579 1286 2464 1152 2374 
L 1152 2893 
C 870 2765 544 2682 262 2630 
L 262 2483 
C 634 2426 653 2394 653 1984 
L 653 659 
C 653 243 595 205 173 166 
L 173 0 
L 1523 0 
L 1523 166 
C 1210 205 1158 243 1158 659 
L 1158 2163 
C 1350 2323 1600 2496 1856 2496 
C 2246 2496 2413 2234 2413 1760 
L 2413 659 
C 2413 237 2355 205 1958 166 
L 1958 0 
L 3328 0 
L 3328 166 
C 2976 205 2918 243 2918 646 
L 2918 1894 
C 2918 2016 2912 2086 2899 2163 
C 3142 2368 3386 2496 3616 2496 
C 4019 2496 4179 2208 4179 1754 
L 4179 685 
C 4179 230 4109 205 3731 166 
L 3731 0 
L 5094 0 
z
" id="MinionPro-Regular-6d" transform="scale(0.015625)"/>
       <path d="M 1760 1728 
C 1760 2880 1363 3898 410 4538 
L 288 4390 
C 928 3866 1299 2829 1299 1728 
C 1299 627 941 -397 288 -941 
L 410 -1082 
C 1363 -435 1760 576 1760 1722 
L 1760 1728 
z
" id="MinionPro-Regular-29" transform="scale(0.015625)"/>
      </defs>
      <use xlink:href="#MinionPro-Regular-4c"/>
      <use x="53.799988" xlink:href="#MinionPro-Regular-65"/>
      <use x="96.299973" xlink:href="#MinionPro-Regular-76"/>
      <use x="142.59996" xlink:href="#MinionPro-Regular-65"/>
      <use x="185.099945" xlink:href="#MinionPro-Regular-6c"/>
      <use x="210.399933" xlink:href="#MinionPro-Regular-20"/>
      <use x="233.09993" xlink:href="#MinionPro-Regular-28"/>
      <use x="267.699921" xlink:href="#MinionPro-Regular-6d"/>
      <use x="349.599915" xlink:href="#MinionPro-Regular-61"/>
      <use x="393.499908" xlink:href="#MinionPro-Regular-73"/>
      <use x="430.199905" xlink:href="#MinionPro-Regular-6c"/>
      <use x="455.499893" xlink:href="#MinionPro-Regular-29"/>
     </g>
    </g>
   </g>
   <g id="LineCollection_1">
    <path clip-path="url(#pf3adcc4828)" d="M 138.436364 492.48 
L 747.163636 492.48 
" style="fill:none;stroke:#c0c0c0;stroke-dasharray:3,4.95;stroke-dashoffset:0;stroke-width:3;"/>
   </g>
   <g id="LineCollection_2">
    <path clip-path="url(#pf3adcc4828)" d="M 138.436364 89.28 
L 747.163636 89.28 
" style="fill:none;stroke:#c0c0c0;stroke-dasharray:3,4.95;stroke-dashoffset:0;stroke-width:3;"/>
   </g>
   <g id="LineCollection_3">
    <path clip-path="url(#pf3adcc4828)" d="M 138.436364 354.24 
L 747.163636 354.24 
" style="fill:none;stroke:#000000;stroke-dasharray:3,4.95;stroke-dashoffset:0;stroke-width:3;"/>
   </g>
   <g id="line2d_13">
    <path clip-path="url(#pf3adcc4828)" d="M 138.436364 145.281471 
L 140.972727 139.428709 
L 143.509091 141.896703 
L 148.581818 160.628123 
L 151.118182 172.66998 
L 153.654545 187.00915 
L 156.190909 192.130271 
L 158.727273 184.613153 
L 163.8 199.178588 
L 166.336364 201.169732 
L 168.872727 193.713182 
L 171.409091 190.720899 
L 176.481818 205.057347 
L 179.018182 210.350587 
L 181.554545 217.061441 
L 184.090909 226.363686 
L 186.627273 234.057982 
L 189.163636 220.025192 
L 194.236364 232.442281 
L 196.772727 240.945809 
L 199.309091 233.407711 
L 201.845455 231.596414 
L 204.381818 236.569263 
L 206.918182 244.129186 
L 209.454545 249.656858 
L 211.990909 256.809182 
L 214.527273 269.015365 
L 217.063636 278.362867 
L 219.6 279.587254 
L 222.136364 271.284565 
L 224.672727 271.557733 
L 227.209091 269.925908 
L 229.745455 258.841195 
L 232.281818 255.31279 
L 234.818182 260.428685 
L 237.354545 266.964895 
L 239.890909 272.940162 
L 242.427273 279.544088 
L 244.963636 291.422787 
L 247.5 304.750021 
L 250.036364 298.318644 
L 252.572727 290.947015 
L 255.109091 284.613051 
L 257.645455 282.812148 
L 260.181818 271.858108 
L 262.718182 265.022944 
L 265.254545 270.794429 
L 267.790909 278.98079 
L 270.327273 284.449761 
L 272.863636 292.274798 
L 275.4 305.794625 
L 277.936364 313.227737 
L 280.472727 302.726922 
L 283.009091 313.076776 
L 285.545455 321.676622 
L 288.081818 327.457415 
L 290.618182 312.76952 
L 293.154545 308.669737 
L 295.690909 320.509159 
L 298.227273 330.449792 
L 300.763636 336.142644 
L 303.3 346.50386 
L 305.836364 361.88151 
L 308.372727 370.963303 
L 310.909091 343.263485 
L 313.445455 347.945608 
L 315.981818 347.18878 
L 318.518182 341.159316 
L 321.054545 329.564931 
L 323.590909 324.346421 
L 326.127273 327.529135 
L 328.663636 337.571844 
L 331.2 341.897575 
L 333.736364 348.747558 
L 336.272727 364.763989 
L 338.809091 375.526566 
L 341.345455 371.619323 
L 343.881818 360.88448 
L 346.418182 358.281985 
L 348.954545 356.599242 
L 351.490909 335.537609 
L 354.027273 329.823198 
L 356.563636 325.493769 
L 359.1 335.580124 
L 361.636364 341.092063 
L 364.172727 353.430379 
L 366.709091 368.617594 
L 369.245455 374.157811 
L 371.781818 361.254163 
L 374.318182 345.704687 
L 376.854545 335.471691 
L 379.390909 322.673998 
L 381.927273 302.345992 
L 384.463636 289.425653 
L 387 292.083549 
L 389.536364 301.401263 
L 392.072727 309.062498 
L 394.609091 318.070068 
L 397.145455 332.951249 
L 399.681818 339.055394 
L 402.218182 327.26972 
L 404.754545 316.591194 
L 407.290909 312.160656 
L 409.827273 306.2315 
L 412.363636 289.794256 
L 414.9 283.250617 
L 417.436364 287.630146 
L 419.972727 294.601601 
L 422.509091 300.897196 
L 425.045455 309.400766 
L 427.581818 323.6796 
L 430.118182 332.812483 
L 432.654545 315.633915 
L 435.190909 317.6681 
L 437.727273 314.794096 
L 440.263636 308.387711 
L 442.8 290.223253 
L 445.336364 275.222788 
L 447.872727 280.302189 
L 455.481818 301.906506 
L 460.554545 329.119233 
L 463.090909 314.492306 
L 465.627273 307.253414 
L 468.163636 308.130786 
L 470.7 300.671175 
L 473.236364 280.287612 
L 475.772727 267.550333 
L 480.845455 286.781696 
L 483.381818 292.480904 
L 485.918182 301.585837 
L 488.454545 314.730961 
L 490.990909 326.516343 
L 493.527273 309.934149 
L 496.063636 296.322333 
L 498.6 299.822726 
L 501.136364 297.743988 
L 503.672727 286.215497 
L 506.209091 279.386828 
L 508.745455 284.9339 
L 511.281818 295.117412 
L 513.818182 299.736248 
L 516.354545 307.625341 
L 518.890909 322.432686 
L 521.427273 331.697007 
L 523.963636 312.742734 
L 526.5 311.719572 
L 529.036364 308.166038 
L 531.572727 306.632748 
L 534.109091 288.31884 
L 536.645455 275.089768 
L 539.181818 270.138323 
L 541.718182 278.287549 
L 544.254545 283.047361 
L 546.790909 291.969521 
L 549.327273 306.630034 
L 551.863636 320.630084 
L 554.4 316.046327 
L 556.936364 318.904495 
L 559.472727 318.68729 
L 562.009091 314.802043 
L 564.545455 296.478482 
L 567.081818 285.139551 
L 569.618182 288.06022 
L 572.154545 296.246588 
L 574.690909 304.018407 
L 577.227273 313.204916 
L 579.763636 328.186743 
L 582.3 336.387725 
L 584.836364 317.435998 
L 587.372727 321.378794 
L 589.909091 320.969894 
L 592.445455 315.552011 
L 594.981818 305.572104 
L 597.518182 301.237571 
L 600.054545 301.66779 
L 602.590909 312.07252 
L 605.127273 318.93686 
L 607.663636 327.705759 
L 610.2 342.117435 
L 612.736364 346.91623 
L 615.272727 328.005908 
L 617.809091 334.560466 
L 620.345455 335.34539 
L 622.881818 338.083111 
L 625.418182 326.343737 
L 627.954545 319.912477 
L 630.490909 327.698483 
L 633.027273 338.58639 
L 635.563636 345.443136 
L 638.1 356.065578 
L 640.636364 373.800758 
L 643.172727 388.402696 
L 645.709091 364.216672 
L 648.245455 383.750023 
L 650.781818 385.787243 
L 653.318182 383.718996 
L 655.854545 367.155953 
L 658.390909 351.966989 
L 660.927273 352.247708 
L 663.463636 363.467912 
L 666 370.018133 
L 668.536364 379.16593 
L 671.072727 396.578987 
L 673.609091 419.043671 
L 676.145455 416.451887 
L 678.681818 417.048076 
L 681.218182 416.404155 
L 683.754545 409.998802 
L 686.290909 389.417895 
L 688.827273 381.901814 
L 691.363636 378.873265 
L 693.9 389.849216 
L 696.436364 396.964347 
L 698.972727 411.833222 
L 701.509091 433.663105 
L 704.045455 441.241344 
L 706.581818 417.075976 
L 711.654545 429.938537 
L 714.190909 430.494956 
L 716.727273 419.549159 
L 719.263636 417.662591 
L 721.8 426.594966 
L 724.336364 441.417662 
L 726.872727 450.530413 
L 729.409091 466.135966 
L 731.945455 486.474953 
L 734.481818 484.376763 
L 737.018182 477.114921 
L 739.554545 474.60619 
L 742.090909 482.850954 
L 744.627273 484.573615 
L 744.627273 484.573615 
" style="fill:none;stroke:#d2691e;stroke-linecap:square;stroke-width:4;"/>
   </g>
   <g id="patch_3">
    <path d="M 108 512.64 
L 108 69.12 
" style="fill:none;stroke:#000000;stroke-linecap:square;stroke-linejoin:miter;stroke-width:0.8;"/>
   </g>
   <g id="patch_4">
    <path d="M 777.6 512.64 
L 777.6 69.12 
" style="fill:none;stroke:#000000;stroke-linecap:square;stroke-linejoin:miter;stroke-width:0.8;"/>
   </g>
   <g id="patch_5">
    <path d="M 108 512.64 
L 777.6 512.64 
" style="fill:none;stroke:#000000;stroke-linecap:square;stroke-linejoin:miter;stroke-width:0.8;"/>
   </g>
   <g id="patch_6">
    <path d="M 108 69.12 
L 777.6 69.12 
" style="fill:none;stroke:#000000;stroke-linecap:square;stroke-linejoin:miter;stroke-width:0.8;"/>
   </g>
   <g id="legend_1">
    <g id="patch_7">
     <path d="M 592.45125 130.993125 
L 769.2 130.993125 
Q 771.6 130.993125 771.6 128.593125 
L 771.6 77.52 
Q 771.6 75.12 769.2 75.12 
L 592.45125 75.12 
Q 590.05125 75.12 590.05125 77.52 
L 590.05125 128.593125 
Q 590.05125 130.993125 592.45125 130.993125 
z
" style="fill:#ffffff;opacity:0.8;stroke:#cccccc;stroke-linejoin:miter;"/>
    </g>
    <g id="line2d_14">
     <path d="M 594.85125 84.264375 
L 618.85125 84.264375 
" style="fill:none;stroke:#d2691e;stroke-linecap:square;stroke-width:4;"/>
    </g>
    <g id="line2d_15"/>
    <g id="text_15">
     <!-- HAD Level -->
     <g transform="translate(628.45125 88.464375)scale(0.12 -0.12)">
      <defs>
       <path d="M 4666 4160 
L 2995 4160 
L 2995 3981 
C 3494 3936 3546 3904 3546 3373 
L 3546 2336 
L 1363 2336 
L 1363 3373 
C 1363 3904 1414 3936 1901 3981 
L 1901 4160 
L 243 4160 
L 243 3981 
C 768 3936 819 3910 819 3373 
L 819 787 
C 819 250 768 218 256 179 
L 256 0 
L 1939 0 
L 1939 179 
C 1414 218 1363 256 1363 787 
L 1363 2067 
L 3546 2067 
L 3546 787 
C 3546 250 3488 218 2944 179 
L 2944 0 
L 4659 0 
L 4659 179 
C 4141 218 4090 250 4090 787 
L 4090 3373 
C 4090 3904 4141 3936 4666 3981 
L 4666 4160 
z
" id="MinionPro-Regular-48" transform="scale(0.015625)"/>
       <path d="M 4307 0 
L 4307 179 
C 3891 218 3808 275 3603 826 
C 3194 1939 2765 3155 2368 4256 
L 2170 4198 
L 845 838 
C 621 275 531 237 128 179 
L 128 0 
L 1517 0 
L 1517 179 
C 1037 224 979 288 1120 691 
C 1203 960 1299 1229 1402 1517 
L 2765 1517 
C 2906 1126 3034 781 3117 531 
C 3200 282 3142 230 2739 179 
L 2739 0 
L 4307 0 
z
M 2675 1792 
L 1498 1792 
C 1690 2317 1894 2874 2099 3424 
L 2112 3424 
L 2675 1792 
z
" id="MinionPro-Regular-41" transform="scale(0.015625)"/>
       <path d="M 269 4160 
L 269 3974 
C 762 3936 813 3910 813 3360 
L 813 794 
C 813 250 762 211 211 173 
L 211 0 
L 1728 0 
C 2515 0 3149 160 3629 531 
C 4122 902 4416 1472 4416 2240 
C 4416 2842 4192 3309 3878 3616 
C 3482 3994 2880 4160 2067 4160 
L 269 4160 
z
M 1363 3501 
C 1363 3750 1382 3821 1446 3866 
C 1510 3910 1677 3942 1946 3942 
C 2374 3942 2746 3866 3034 3680 
C 3546 3379 3789 2810 3789 2150 
C 3789 1126 3238 230 2042 230 
C 1574 230 1363 352 1363 838 
L 1363 3501 
z
" id="MinionPro-Regular-44" transform="scale(0.015625)"/>
      </defs>
      <use xlink:href="#MinionPro-Regular-48"/>
      <use x="76.599991" xlink:href="#MinionPro-Regular-41"/>
      <use x="145.699982" xlink:href="#MinionPro-Regular-44"/>
      <use x="219.199966" xlink:href="#MinionPro-Regular-20"/>
      <use x="241.899963" xlink:href="#MinionPro-Regular-4c"/>
      <use x="295.699951" xlink:href="#MinionPro-Regular-65"/>
      <use x="338.199936" xlink:href="#MinionPro-Regular-76"/>
      <use x="384.499924" xlink:href="#MinionPro-Regular-65"/>
      <use x="426.999908" xlink:href="#MinionPro-Regular-6c"/>
     </g>
    </g>
    <g id="line2d_16">
     <path d="M 594.85125 101.68875 
L 618.85125 101.68875 
" style="fill:none;stroke:#c0c0c0;stroke-dasharray:3,4.95;stroke-dashoffset:0;stroke-width:3;"/>
    </g>
    <g id="text_16">
     <!-- Min/Max Level -->
     <g transform="translate(628.45125 105.88875)scale(0.12 -0.12)">
      <defs>
       <path d="M 864 3430 
C 1050 3430 1190 3584 1190 3757 
C 1190 3949 1050 4090 870 4090 
C 698 4090 544 3949 544 3757 
C 544 3584 698 3430 864 3430 
z
M 1613 0 
L 1613 166 
C 1203 205 1158 243 1158 678 
L 1158 2886 
C 877 2771 576 2688 250 2637 
L 250 2483 
C 634 2426 653 2394 653 2003 
L 653 678 
C 653 243 608 205 205 166 
L 205 0 
L 1613 0 
z
" id="MinionPro-Regular-69" transform="scale(0.015625)"/>
       <path d="M 1907 4256 
L 1549 4256 
L 160 -282 
L 518 -282 
L 1907 4256 
z
" id="MinionPro-Regular-2f" transform="scale(0.015625)"/>
       <path d="M 3040 0 
L 3040 166 
C 2650 218 2573 275 2336 640 
L 1709 1587 
C 1920 1901 2080 2131 2208 2291 
C 2438 2560 2522 2592 2912 2637 
L 2912 2797 
L 1747 2797 
L 1747 2637 
C 2022 2605 2067 2573 1952 2368 
C 1837 2157 1709 1958 1581 1773 
L 1203 2362 
C 1088 2541 1107 2598 1382 2637 
L 1382 2797 
L 102 2797 
L 102 2637 
C 454 2592 538 2541 730 2227 
L 1286 1357 
C 1101 1069 928 813 749 589 
C 493 269 422 218 26 166 
L 26 0 
L 1222 0 
L 1222 166 
C 890 218 877 275 998 493 
C 1120 723 1267 960 1408 1171 
L 1882 422 
C 1990 250 1939 198 1664 166 
L 1664 0 
L 3040 0 
z
" id="MinionPro-Regular-78" transform="scale(0.015625)"/>
      </defs>
      <use xlink:href="#MinionPro-Regular-4d"/>
      <use x="89.099991" xlink:href="#MinionPro-Regular-69"/>
      <use x="115.899979" xlink:href="#MinionPro-Regular-6e"/>
      <use x="170.599976" xlink:href="#MinionPro-Regular-2f"/>
      <use x="203.699966" xlink:href="#MinionPro-Regular-4d"/>
      <use x="292.799957" xlink:href="#MinionPro-Regular-61"/>
      <use x="336.699951" xlink:href="#MinionPro-Regular-78"/>
      <use x="383.899948" xlink:href="#MinionPro-Regular-20"/>
      <use x="406.599945" xlink:href="#MinionPro-Regular-4c"/>
      <use x="460.399933" xlink:href="#MinionPro-Regular-65"/>
      <use x="502.899918" xlink:href="#MinionPro-Regular-76"/>
      <use x="549.199905" xlink:href="#MinionPro-Regular-65"/>
      <use x="591.69989" xlink:href="#MinionPro-Regular-6c"/>
     </g>
    </g>
    <g id="line2d_17">
     <path d="M 594.85125 119.113125 
L 618.85125 119.113125 
" style="fill:none;stroke:#000000;stroke-dasharray:3,4.95;stroke-dashoffset:0;stroke-width:3;"/>
    </g>
    <g id="text_17">
     <!-- Minimum Operational Level -->
     <g transform="translate(628.45125 123.313125)scale(0.12 -0.12)">
      <defs>
       <path d="M 3315 314 
L 3136 326 
C 2893 339 2842 384 2842 704 
L 2842 2842 
C 2746 2822 2592 2797 2413 2778 
C 2227 2752 2010 2733 1837 2726 
L 1837 2579 
L 2067 2541 
C 2278 2509 2336 2470 2336 2125 
L 2336 634 
C 2118 422 1875 326 1645 326 
C 1357 326 1082 480 1082 1043 
L 1082 1907 
C 1082 2342 1082 2643 1101 2842 
C 992 2822 819 2797 646 2771 
C 474 2752 320 2733 186 2726 
L 186 2579 
L 365 2541 
C 525 2502 576 2470 576 2131 
L 576 877 
C 576 186 941 -77 1370 -77 
C 1542 -77 1677 -26 1862 83 
C 2042 192 2189 307 2336 416 
L 2336 -38 
L 2374 -77 
C 2496 -45 2656 6 2822 51 
C 2995 96 3174 134 3315 154 
L 3315 314 
z
" id="MinionPro-Regular-75" transform="scale(0.015625)"/>
       <path d="M 2432 4256 
C 1088 4256 282 3187 282 2035 
C 282 806 1203 -96 2362 -96 
C 3533 -96 4499 749 4499 2131 
C 4499 3411 3520 4256 2438 4256 
L 2432 4256 
z
M 2304 4026 
C 3142 4026 3846 3309 3846 1958 
C 3846 730 3206 134 2496 134 
C 1594 134 934 1011 934 2214 
C 934 3411 1587 4026 2298 4026 
L 2304 4026 
z
" id="MinionPro-Regular-4f" transform="scale(0.015625)"/>
       <path d="M 1082 2432 
L 1082 2938 
C 781 2816 422 2707 154 2662 
L 154 2509 
C 550 2458 576 2445 576 2029 
L 576 -864 
C 576 -1286 518 -1325 109 -1363 
L 109 -1536 
L 1626 -1536 
L 1626 -1363 
C 1126 -1318 1082 -1286 1082 -800 
L 1082 38 
C 1165 -6 1338 -70 1523 -77 
C 2355 77 3117 698 3117 1664 
C 3117 2298 2694 2874 1984 2874 
C 1907 2874 1786 2842 1670 2778 
L 1082 2432 
z
M 1082 2221 
C 1254 2349 1517 2490 1722 2490 
C 2189 2490 2579 2106 2579 1421 
C 2579 698 2221 237 1683 237 
C 1466 237 1222 339 1082 486 
L 1082 2221 
z
" id="MinionPro-Regular-70" transform="scale(0.015625)"/>
       <path d="M 1158 2195 
L 1158 2893 
C 851 2758 570 2682 256 2630 
L 256 2490 
C 621 2438 653 2413 653 1990 
L 653 666 
C 653 243 608 205 211 166 
L 211 0 
L 1683 0 
L 1683 166 
C 1190 205 1158 243 1158 666 
L 1158 1837 
C 1299 2195 1504 2387 1670 2387 
C 1773 2387 1850 2349 1939 2253 
C 1978 2214 2035 2208 2112 2240 
C 2234 2298 2317 2426 2317 2554 
C 2317 2707 2163 2874 1946 2874 
C 1638 2874 1363 2515 1171 2195 
L 1158 2195 
z
" id="MinionPro-Regular-72" transform="scale(0.015625)"/>
      </defs>
      <use xlink:href="#MinionPro-Regular-4d"/>
      <use x="89.099991" xlink:href="#MinionPro-Regular-69"/>
      <use x="115.899979" xlink:href="#MinionPro-Regular-6e"/>
      <use x="170.599976" xlink:href="#MinionPro-Regular-69"/>
      <use x="197.399963" xlink:href="#MinionPro-Regular-6d"/>
      <use x="279.299957" xlink:href="#MinionPro-Regular-75"/>
      <use x="332.399948" xlink:href="#MinionPro-Regular-6d"/>
      <use x="414.299942" xlink:href="#MinionPro-Regular-20"/>
      <use x="436.999939" xlink:href="#MinionPro-Regular-4f"/>
      <use x="511.699921" xlink:href="#MinionPro-Regular-70"/>
      <use x="564.099915" xlink:href="#MinionPro-Regular-65"/>
      <use x="606.599899" xlink:href="#MinionPro-Regular-72"/>
      <use x="643.69989" xlink:href="#MinionPro-Regular-61"/>
      <use x="687.599884" xlink:href="#MinionPro-Regular-74"/>
      <use x="718.099869" xlink:href="#MinionPro-Regular-69"/>
      <use x="744.899857" xlink:href="#MinionPro-Regular-6f"/>
      <use x="795.899841" xlink:href="#MinionPro-Regular-6e"/>
      <use x="850.599838" xlink:href="#MinionPro-Regular-61"/>
      <use x="894.499832" xlink:href="#MinionPro-Regular-6c"/>
      <use x="919.79982" xlink:href="#MinionPro-Regular-20"/>
      <use x="942.499817" xlink:href="#MinionPro-Regular-4c"/>
      <use x="996.299805" xlink:href="#MinionPro-Regular-65"/>
      <use x="1038.799789" xlink:href="#MinionPro-Regular-76"/>
      <use x="1085.099777" xlink:href="#MinionPro-Regular-65"/>
      <use x="1127.599762" xlink:href="#MinionPro-Regular-6c"/>
     </g>
    </g>
   </g>
  </g>
 </g>
 <defs>
  <clipPath id="pf3adcc4828">
   <rect height="443.52" width="669.6" x="108" y="69.12"/>
  </clipPath>
 </defs>
</svg>
