<?xml version="1.0" encoding="utf-8" standalone="no"?>
<!DOCTYPE svg PUBLIC "-//W3C//DTD SVG 1.1//EN"
  "http://www.w3.org/Graphics/SVG/1.1/DTD/svg11.dtd">
<svg height="662.989281pt" version="1.1" viewBox="0 0 695.280864 662.989281" width="695.280864pt" xmlns="http://www.w3.org/2000/svg" xmlns:xlink="http://www.w3.org/1999/xlink">
 <metadata>
  <rdf:RDF xmlns:cc="http://creativecommons.org/ns#" xmlns:dc="http://purl.org/dc/elements/1.1/" xmlns:rdf="http://www.w3.org/1999/02/22-rdf-syntax-ns#">
   <cc:Work>
    <dc:type rdf:resource="http://purl.org/dc/dcmitype/StillImage"/>
    <dc:date>2022-07-30T01:32:06.710984</dc:date>
    <dc:format>image/svg+xml</dc:format>
    <dc:creator>
     <cc:Agent>
      <dc:title>Matplotlib v3.4.3, https://matplotlib.org/</dc:title>
     </cc:Agent>
    </dc:creator>
   </cc:Work>
  </rdf:RDF>
 </metadata>
 <defs>
  <style type="text/css">*{stroke-linecap:butt;stroke-linejoin:round;}</style>
 </defs>
 <g id="figure_1">
  <g id="patch_1">
   <path d="M -0 662.989281 
L 695.280864 662.989281 
L 695.280864 0 
L -0 0 
z
" style="fill:#ffffff;"/>
  </g>
  <g id="axes_1">
   <g id="patch_2">
    <path d="M 155.555281 565.413656 
L 598.998989 565.413656 
L 598.998989 124.830874 
L 155.555281 124.830874 
z
" style="fill:#ffffff;"/>
   </g>
   <g id="PathCollection_1">
    <defs>
     <path d="M 0 11.18034 
C 2.965061 11.18034 5.80908 10.002309 7.905694 7.905694 
C 10.002309 5.80908 11.18034 2.965061 11.18034 0 
C 11.18034 -2.965061 10.002309 -5.80908 7.905694 -7.905694 
C 5.80908 -10.002309 2.965061 -11.18034 0 -11.18034 
C -2.965061 -11.18034 -5.80908 -10.002309 -7.905694 -7.905694 
C -10.002309 -5.80908 -11.18034 -2.965061 -11.18034 0 
C -11.18034 2.965061 -10.002309 5.80908 -7.905694 7.905694 
C -5.80908 10.002309 -2.965061 11.18034 0 11.18034 
z
" id="m5d7f89a766" style="stroke:#41ab5d;"/>
    </defs>
    <g clip-path="url(#p747da013c5)">
     <use style="fill:#41ab5d;stroke:#41ab5d;" x="198.10796" xlink:href="#m5d7f89a766" y="167.10902"/>
    </g>
   </g>
   <g id="PathCollection_2">
    <defs>
     <path d="M 0 10.928916 
C 2.898382 10.928916 5.678445 9.777377 7.727911 7.727911 
C 9.777377 5.678445 10.928916 2.898382 10.928916 0 
C 10.928916 -2.898382 9.777377 -5.678445 7.727911 -7.727911 
C 5.678445 -9.777377 2.898382 -10.928916 0 -10.928916 
C -2.898382 -10.928916 -5.678445 -9.777377 -7.727911 -7.727911 
C -9.777377 -5.678445 -10.928916 -2.898382 -10.928916 0 
C -10.928916 2.898382 -9.777377 5.678445 -7.727911 7.727911 
C -5.678445 9.777377 -2.898382 10.928916 0 10.928916 
z
" id="m991eef77c1" style="stroke:#41ab5d;"/>
    </defs>
    <g clip-path="url(#p747da013c5)">
     <use style="fill:#41ab5d;stroke:#41ab5d;" x="242.900253" xlink:href="#m991eef77c1" y="167.10902"/>
    </g>
   </g>
   <g id="PathCollection_3">
    <defs>
     <path d="M 0 10.598463 
C 2.810745 10.598463 5.506748 9.481742 7.494245 7.494245 
C 9.481742 5.506748 10.598463 2.810745 10.598463 0 
C 10.598463 -2.810745 9.481742 -5.506748 7.494245 -7.494245 
C 5.506748 -9.481742 2.810745 -10.598463 0 -10.598463 
C -2.810745 -10.598463 -5.506748 -9.481742 -7.494245 -7.494245 
C -9.481742 -5.506748 -10.598463 -2.810745 -10.598463 0 
C -10.598463 2.810745 -9.481742 5.506748 -7.494245 7.494245 
C -5.506748 9.481742 -2.810745 10.598463 0 10.598463 
z
" id="mb4a92f7fc9" style="stroke:#41ab5d;"/>
    </defs>
    <g clip-path="url(#p747da013c5)">
     <use style="fill:#41ab5d;stroke:#41ab5d;" x="287.692547" xlink:href="#mb4a92f7fc9" y="167.10902"/>
    </g>
   </g>
   <g id="PathCollection_4">
    <defs>
     <path d="M 0 11.046803 
C 2.929646 11.046803 5.739696 9.882842 7.811269 7.811269 
C 9.882842 5.739696 11.046803 2.929646 11.046803 0 
C 11.046803 -2.929646 9.882842 -5.739696 7.811269 -7.811269 
C 5.739696 -9.882842 2.929646 -11.046803 0 -11.046803 
C -2.929646 -11.046803 -5.739696 -9.882842 -7.811269 -7.811269 
C -9.882842 -5.739696 -11.046803 -2.929646 -11.046803 0 
C -11.046803 2.929646 -9.882842 5.739696 -7.811269 7.811269 
C -5.739696 9.882842 -2.929646 11.046803 0 11.046803 
z
" id="m1fa3227995" style="stroke:#41ab5d;"/>
    </defs>
    <g clip-path="url(#p747da013c5)">
     <use style="fill:#41ab5d;stroke:#41ab5d;" x="332.484841" xlink:href="#m1fa3227995" y="167.10902"/>
    </g>
   </g>
   <g id="PathCollection_5">
    <defs>
     <path d="M 0 11.098622 
C 2.943389 11.098622 5.766621 9.929202 7.847911 7.847911 
C 9.929202 5.766621 11.098622 2.943389 11.098622 0 
C 11.098622 -2.943389 9.929202 -5.766621 7.847911 -7.847911 
C 5.766621 -9.929202 2.943389 -11.098622 0 -11.098622 
C -2.943389 -11.098622 -5.766621 -9.929202 -7.847911 -7.847911 
C -9.929202 -5.766621 -11.098622 -2.943389 -11.098622 0 
C -11.098622 2.943389 -9.929202 5.766621 -7.847911 7.847911 
C -5.766621 9.929202 -2.943389 11.098622 0 11.098622 
z
" id="ma4fb9c0aa6" style="stroke:#41ab5d;"/>
    </defs>
    <g clip-path="url(#p747da013c5)">
     <use style="fill:#41ab5d;stroke:#41ab5d;" x="377.277135" xlink:href="#ma4fb9c0aa6" y="167.10902"/>
    </g>
   </g>
   <g id="PathCollection_6">
    <defs>
     <path d="M 0 10.868064 
C 2.882244 10.868064 5.646827 9.722936 7.684881 7.684881 
C 9.722936 5.646827 10.868064 2.882244 10.868064 0 
C 10.868064 -2.882244 9.722936 -5.646827 7.684881 -7.684881 
C 5.646827 -9.722936 2.882244 -10.868064 0 -10.868064 
C -2.882244 -10.868064 -5.646827 -9.722936 -7.684881 -7.684881 
C -9.722936 -5.646827 -10.868064 -2.882244 -10.868064 0 
C -10.868064 2.882244 -9.722936 5.646827 -7.684881 7.684881 
C -5.646827 9.722936 -2.882244 10.868064 0 10.868064 
z
" id="mda494631ee" style="stroke:#41ab5d;"/>
    </defs>
    <g clip-path="url(#p747da013c5)">
     <use style="fill:#41ab5d;stroke:#41ab5d;" x="422.069429" xlink:href="#mda494631ee" y="167.10902"/>
    </g>
   </g>
   <g id="PathCollection_7">
    <defs>
     <path d="M 0 10.67253 
C 2.830388 10.67253 5.545232 9.548005 7.546618 7.546618 
C 9.548005 5.545232 10.67253 2.830388 10.67253 0 
C 10.67253 -2.830388 9.548005 -5.545232 7.546618 -7.546618 
C 5.545232 -9.548005 2.830388 -10.67253 0 -10.67253 
C -2.830388 -10.67253 -5.545232 -9.548005 -7.546618 -7.546618 
C -9.548005 -5.545232 -10.67253 -2.830388 -10.67253 0 
C -10.67253 2.830388 -9.548005 5.545232 -7.546618 7.546618 
C -5.545232 9.548005 -2.830388 10.67253 0 10.67253 
z
" id="md8c8fd6a5d" style="stroke:#41ab5d;"/>
    </defs>
    <g clip-path="url(#p747da013c5)">
     <use style="fill:#41ab5d;stroke:#41ab5d;" x="466.861722" xlink:href="#md8c8fd6a5d" y="167.10902"/>
    </g>
   </g>
   <g id="PathCollection_8">
    <defs>
     <path d="M 0 11.016124 
C 2.92151 11.016124 5.723756 9.855396 7.789576 7.789576 
C 9.855396 5.723756 11.016124 2.92151 11.016124 0 
C 11.016124 -2.92151 9.855396 -5.723756 7.789576 -7.789576 
C 5.723756 -9.855396 2.92151 -11.016124 0 -11.016124 
C -2.92151 -11.016124 -5.723756 -9.855396 -7.789576 -7.789576 
C -9.855396 -5.723756 -11.016124 -2.92151 -11.016124 0 
C -11.016124 2.92151 -9.855396 5.723756 -7.789576 7.789576 
C -5.723756 9.855396 -2.92151 11.016124 0 11.016124 
z
" id="m09d1c94a62" style="stroke:#41ab5d;"/>
    </defs>
    <g clip-path="url(#p747da013c5)">
     <use style="fill:#41ab5d;stroke:#41ab5d;" x="511.654016" xlink:href="#m09d1c94a62" y="167.10902"/>
    </g>
   </g>
   <g id="PathCollection_9">
    <defs>
     <path d="M 0 10.951971 
C 2.904497 10.951971 5.690424 9.798003 7.744213 7.744213 
C 9.798003 5.690424 10.951971 2.904497 10.951971 0 
C 10.951971 -2.904497 9.798003 -5.690424 7.744213 -7.744213 
C 5.690424 -9.798003 2.904497 -10.951971 0 -10.951971 
C -2.904497 -10.951971 -5.690424 -9.798003 -7.744213 -7.744213 
C -9.798003 -5.690424 -10.951971 -2.904497 -10.951971 0 
C -10.951971 2.904497 -9.798003 5.690424 -7.744213 7.744213 
C -5.690424 9.798003 -2.904497 10.951971 0 10.951971 
z
" id="m31cb2d8a68" style="stroke:#41ab5d;"/>
    </defs>
    <g clip-path="url(#p747da013c5)">
     <use style="fill:#41ab5d;stroke:#41ab5d;" x="556.44631" xlink:href="#m31cb2d8a68" y="167.10902"/>
    </g>
   </g>
   <g id="PathCollection_10">
    <defs>
     <path d="M 0 10.378604 
C 2.752438 10.378604 5.392514 9.285049 7.338781 7.338781 
C 9.285049 5.392514 10.378604 2.752438 10.378604 0 
C 10.378604 -2.752438 9.285049 -5.392514 7.338781 -7.338781 
C 5.392514 -9.285049 2.752438 -10.378604 0 -10.378604 
C -2.752438 -10.378604 -5.392514 -9.285049 -7.338781 -7.338781 
C -9.285049 -5.392514 -10.378604 -2.752438 -10.378604 0 
C -10.378604 2.752438 -9.285049 5.392514 -7.338781 7.338781 
C -5.392514 9.285049 -2.752438 10.378604 0 10.378604 
z
" id="meebab3486b" style="stroke:#41ab5d;"/>
    </defs>
    <g clip-path="url(#p747da013c5)">
     <use style="fill:#41ab5d;stroke:#41ab5d;" x="198.10796" xlink:href="#meebab3486b" y="211.612331"/>
    </g>
   </g>
   <g id="PathCollection_11">
    <defs>
     <path d="M 0 9.453517 
C 2.507102 9.453517 4.911857 8.457435 6.684646 6.684646 
C 8.457435 4.911857 9.453517 2.507102 9.453517 0 
C 9.453517 -2.507102 8.457435 -4.911857 6.684646 -6.684646 
C 4.911857 -8.457435 2.507102 -9.453517 0 -9.453517 
C -2.507102 -9.453517 -4.911857 -8.457435 -6.684646 -6.684646 
C -8.457435 -4.911857 -9.453517 -2.507102 -9.453517 0 
C -9.453517 2.507102 -8.457435 4.911857 -6.684646 6.684646 
C -4.911857 8.457435 -2.507102 9.453517 0 9.453517 
z
" id="mbaff550c74" style="stroke:#41ab5d;"/>
    </defs>
    <g clip-path="url(#p747da013c5)">
     <use style="fill:#41ab5d;stroke:#41ab5d;" x="242.900253" xlink:href="#mbaff550c74" y="211.612331"/>
    </g>
   </g>
   <g id="PathCollection_12">
    <defs>
     <path d="M 0 8.762786 
C 2.323918 8.762786 4.552967 7.839483 6.196225 6.196225 
C 7.839483 4.552967 8.762786 2.323918 8.762786 0 
C 8.762786 -2.323918 7.839483 -4.552967 6.196225 -6.196225 
C 4.552967 -7.839483 2.323918 -8.762786 0 -8.762786 
C -2.323918 -8.762786 -4.552967 -7.839483 -6.196225 -6.196225 
C -7.839483 -4.552967 -8.762786 -2.323918 -8.762786 0 
C -8.762786 2.323918 -7.839483 4.552967 -6.196225 6.196225 
C -4.552967 7.839483 -2.323918 8.762786 0 8.762786 
z
" id="m84a50ff13a" style="stroke:#41ab5d;"/>
    </defs>
    <g clip-path="url(#p747da013c5)">
     <use style="fill:#41ab5d;stroke:#41ab5d;" x="287.692547" xlink:href="#m84a50ff13a" y="211.612331"/>
    </g>
   </g>
   <g id="PathCollection_13">
    <defs>
     <path d="M 0 10.693523 
C 2.835956 10.693523 5.556139 9.566786 7.561463 7.561463 
C 9.566786 5.556139 10.693523 2.835956 10.693523 0 
C 10.693523 -2.835956 9.566786 -5.556139 7.561463 -7.561463 
C 5.556139 -9.566786 2.835956 -10.693523 0 -10.693523 
C -2.835956 -10.693523 -5.556139 -9.566786 -7.561463 -7.561463 
C -9.566786 -5.556139 -10.693523 -2.835956 -10.693523 0 
C -10.693523 2.835956 -9.566786 5.556139 -7.561463 7.561463 
C -5.556139 9.566786 -2.835956 10.693523 0 10.693523 
z
" id="m760b28a644" style="stroke:#41ab5d;"/>
    </defs>
    <g clip-path="url(#p747da013c5)">
     <use style="fill:#41ab5d;stroke:#41ab5d;" x="332.484841" xlink:href="#m760b28a644" y="211.612331"/>
    </g>
   </g>
   <g id="PathCollection_14">
    <defs>
     <path d="M 0 9.840962 
C 2.609854 9.840962 5.113166 8.804056 6.958611 6.958611 
C 8.804056 5.113166 9.840962 2.609854 9.840962 0 
C 9.840962 -2.609854 8.804056 -5.113166 6.958611 -6.958611 
C 5.113166 -8.804056 2.609854 -9.840962 0 -9.840962 
C -2.609854 -9.840962 -5.113166 -8.804056 -6.958611 -6.958611 
C -8.804056 -5.113166 -9.840962 -2.609854 -9.840962 0 
C -9.840962 2.609854 -8.804056 5.113166 -6.958611 6.958611 
C -5.113166 8.804056 -2.609854 9.840962 0 9.840962 
z
" id="ma32bd5037b" style="stroke:#41ab5d;"/>
    </defs>
    <g clip-path="url(#p747da013c5)">
     <use style="fill:#41ab5d;stroke:#41ab5d;" x="377.277135" xlink:href="#ma32bd5037b" y="211.612331"/>
    </g>
   </g>
   <g id="PathCollection_15">
    <defs>
     <path d="M 0 8.514651 
C 2.258112 8.514651 4.424041 7.617494 6.020768 6.020768 
C 7.617494 4.424041 8.514651 2.258112 8.514651 0 
C 8.514651 -2.258112 7.617494 -4.424041 6.020768 -6.020768 
C 4.424041 -7.617494 2.258112 -8.514651 0 -8.514651 
C -2.258112 -8.514651 -4.424041 -7.617494 -6.020768 -6.020768 
C -7.617494 -4.424041 -8.514651 -2.258112 -8.514651 0 
C -8.514651 2.258112 -7.617494 4.424041 -6.020768 6.020768 
C -4.424041 7.617494 -2.258112 8.514651 0 8.514651 
z
" id="m3fdb1973ef" style="stroke:#41ab5d;"/>
    </defs>
    <g clip-path="url(#p747da013c5)">
     <use style="fill:#41ab5d;stroke:#41ab5d;" x="422.069429" xlink:href="#m3fdb1973ef" y="211.612331"/>
    </g>
   </g>
   <g id="PathCollection_16">
    <defs>
     <path d="M 0 10.878822 
C 2.885097 10.878822 5.652417 9.732561 7.692489 7.692489 
C 9.732561 5.652417 10.878822 2.885097 10.878822 0 
C 10.878822 -2.885097 9.732561 -5.652417 7.692489 -7.692489 
C 5.652417 -9.732561 2.885097 -10.878822 0 -10.878822 
C -2.885097 -10.878822 -5.652417 -9.732561 -7.692489 -7.692489 
C -9.732561 -5.652417 -10.878822 -2.885097 -10.878822 0 
C -10.878822 2.885097 -9.732561 5.652417 -7.692489 7.692489 
C -5.652417 9.732561 -2.885097 10.878822 0 10.878822 
z
" id="m017cab706a" style="stroke:#41ab5d;"/>
    </defs>
    <g clip-path="url(#p747da013c5)">
     <use style="fill:#41ab5d;stroke:#41ab5d;" x="466.861722" xlink:href="#m017cab706a" y="211.612331"/>
    </g>
   </g>
   <g id="PathCollection_17">
    <defs>
     <path d="M 0 10.533847 
C 2.793609 10.533847 5.473175 9.423934 7.448554 7.448554 
C 9.423934 5.473175 10.533847 2.793609 10.533847 0 
C 10.533847 -2.793609 9.423934 -5.473175 7.448554 -7.448554 
C 5.473175 -9.423934 2.793609 -10.533847 0 -10.533847 
C -2.793609 -10.533847 -5.473175 -9.423934 -7.448554 -7.448554 
C -9.423934 -5.473175 -10.533847 -2.793609 -10.533847 0 
C -10.533847 2.793609 -9.423934 5.473175 -7.448554 7.448554 
C -5.473175 9.423934 -2.793609 10.533847 0 10.533847 
z
" id="m29135ccb28" style="stroke:#41ab5d;"/>
    </defs>
    <g clip-path="url(#p747da013c5)">
     <use style="fill:#41ab5d;stroke:#41ab5d;" x="511.654016" xlink:href="#m29135ccb28" y="211.612331"/>
    </g>
   </g>
   <g id="PathCollection_18">
    <defs>
     <path d="M 0 9.142455 
C 2.424607 9.142455 4.750236 8.179149 6.464692 6.464692 
C 8.179149 4.750236 9.142455 2.424607 9.142455 0 
C 9.142455 -2.424607 8.179149 -4.750236 6.464692 -6.464692 
C 4.750236 -8.179149 2.424607 -9.142455 0 -9.142455 
C -2.424607 -9.142455 -4.750236 -8.179149 -6.464692 -6.464692 
C -8.179149 -4.750236 -9.142455 -2.424607 -9.142455 0 
C -9.142455 2.424607 -8.179149 4.750236 -6.464692 6.464692 
C -4.750236 8.179149 -2.424607 9.142455 0 9.142455 
z
" id="mcc84571a33" style="stroke:#41ab5d;"/>
    </defs>
    <g clip-path="url(#p747da013c5)">
     <use style="fill:#41ab5d;stroke:#41ab5d;" x="556.44631" xlink:href="#mcc84571a33" y="211.612331"/>
    </g>
   </g>
   <g id="PathCollection_19">
    <defs>
     <path d="M 0 8.713619 
C 2.310879 8.713619 4.527421 7.795497 6.161459 6.161459 
C 7.795497 4.527421 8.713619 2.310879 8.713619 0 
C 8.713619 -2.310879 7.795497 -4.527421 6.161459 -6.161459 
C 4.527421 -7.795497 2.310879 -8.713619 0 -8.713619 
C -2.310879 -8.713619 -4.527421 -7.795497 -6.161459 -6.161459 
C -7.795497 -4.527421 -8.713619 -2.310879 -8.713619 0 
C -8.713619 2.310879 -7.795497 4.527421 -6.161459 6.161459 
C -4.527421 7.795497 -2.310879 8.713619 0 8.713619 
z
" id="m723bfc2178" style="stroke:#41ab5d;"/>
    </defs>
    <g clip-path="url(#p747da013c5)">
     <use style="fill:#41ab5d;stroke:#41ab5d;" x="198.10796" xlink:href="#m723bfc2178" y="256.115642"/>
    </g>
   </g>
   <g id="PathCollection_20">
    <defs>
     <path d="M 0 0 
C 0 0 0 0 0 0 
C 0 0 0 0 0 0 
C 0 0 0 0 0 0 
C 0 0 0 0 0 0 
C 0 0 0 0 0 0 
C 0 0 0 0 0 0 
C 0 0 0 0 0 0 
C 0 0 0 0 0 0 
z
" id="m348e9684a2" style="stroke:#6c0c86;"/>
    </defs>
    <g clip-path="url(#p747da013c5)">
     <use style="fill:#6c0c86;stroke:#6c0c86;" x="242.900253" xlink:href="#m348e9684a2" y="256.115642"/>
    </g>
   </g>
   <g id="PathCollection_21">
    <g clip-path="url(#p747da013c5)">
     <use style="fill:#6c0c86;stroke:#6c0c86;" x="287.692547" xlink:href="#m348e9684a2" y="256.115642"/>
    </g>
   </g>
   <g id="PathCollection_22">
    <defs>
     <path d="M 0 8.853309 
C 2.347925 8.853309 4.600001 7.920468 6.260235 6.260235 
C 7.920468 4.600001 8.853309 2.347925 8.853309 0 
C 8.853309 -2.347925 7.920468 -4.600001 6.260235 -6.260235 
C 4.600001 -7.920468 2.347925 -8.853309 0 -8.853309 
C -2.347925 -8.853309 -4.600001 -7.920468 -6.260235 -6.260235 
C -7.920468 -4.600001 -8.853309 -2.347925 -8.853309 0 
C -8.853309 2.347925 -7.920468 4.600001 -6.260235 6.260235 
C -4.600001 7.920468 -2.347925 8.853309 0 8.853309 
z
" id="m3fe7c45731" style="stroke:#41ab5d;"/>
    </defs>
    <g clip-path="url(#p747da013c5)">
     <use style="fill:#41ab5d;stroke:#41ab5d;" x="332.484841" xlink:href="#m3fe7c45731" y="256.115642"/>
    </g>
   </g>
   <g id="PathCollection_23">
    <g clip-path="url(#p747da013c5)">
     <use style="fill:#6c0c86;stroke:#6c0c86;" x="377.277135" xlink:href="#m348e9684a2" y="256.115642"/>
    </g>
   </g>
   <g id="PathCollection_24">
    <g clip-path="url(#p747da013c5)">
     <use style="fill:#6c0c86;stroke:#6c0c86;" x="422.069429" xlink:href="#m348e9684a2" y="256.115642"/>
    </g>
   </g>
   <g id="PathCollection_25">
    <defs>
     <path d="M 0 8.352219 
C 2.215034 8.352219 4.339645 7.472176 5.90591 5.90591 
C 7.472176 4.339645 8.352219 2.215034 8.352219 0 
C 8.352219 -2.215034 7.472176 -4.339645 5.90591 -5.90591 
C 4.339645 -7.472176 2.215034 -8.352219 0 -8.352219 
C -2.215034 -8.352219 -4.339645 -7.472176 -5.90591 -5.90591 
C -7.472176 -4.339645 -8.352219 -2.215034 -8.352219 0 
C -8.352219 2.215034 -7.472176 4.339645 -5.90591 5.90591 
C -4.339645 7.472176 -2.215034 8.352219 0 8.352219 
z
" id="me27fa7bf04" style="stroke:#41ab5d;"/>
    </defs>
    <g clip-path="url(#p747da013c5)">
     <use style="fill:#41ab5d;stroke:#41ab5d;" x="466.861722" xlink:href="#me27fa7bf04" y="256.115642"/>
    </g>
   </g>
   <g id="PathCollection_26">
    <defs>
     <path d="M 0 8.051213 
C 2.135207 8.051213 4.183248 7.202887 5.693067 5.693067 
C 7.202887 4.183248 8.051213 2.135207 8.051213 0 
C 8.051213 -2.135207 7.202887 -4.183248 5.693067 -5.693067 
C 4.183248 -7.202887 2.135207 -8.051213 0 -8.051213 
C -2.135207 -8.051213 -4.183248 -7.202887 -5.693067 -5.693067 
C -7.202887 -4.183248 -8.051213 -2.135207 -8.051213 0 
C -8.051213 2.135207 -7.202887 4.183248 -5.693067 5.693067 
C -4.183248 7.202887 -2.135207 8.051213 0 8.051213 
z
" id="m665c5c4bac" style="stroke:#41ab5d;"/>
    </defs>
    <g clip-path="url(#p747da013c5)">
     <use style="fill:#41ab5d;stroke:#41ab5d;" x="511.654016" xlink:href="#m665c5c4bac" y="256.115642"/>
    </g>
   </g>
   <g id="PathCollection_27">
    <g clip-path="url(#p747da013c5)">
     <use style="fill:#6c0c86;stroke:#6c0c86;" x="556.44631" xlink:href="#m348e9684a2" y="256.115642"/>
    </g>
   </g>
   <g id="PathCollection_28">
    <defs>
     <path d="M 0 9.720832 
C 2.577995 9.720832 5.050749 8.696584 6.873666 6.873666 
C 8.696584 5.050749 9.720832 2.577995 9.720832 0 
C 9.720832 -2.577995 8.696584 -5.050749 6.873666 -6.873666 
C 5.050749 -8.696584 2.577995 -9.720832 0 -9.720832 
C -2.577995 -9.720832 -5.050749 -8.696584 -6.873666 -6.873666 
C -8.696584 -5.050749 -9.720832 -2.577995 -9.720832 0 
C -9.720832 2.577995 -8.696584 5.050749 -6.873666 6.873666 
C -5.050749 8.696584 -2.577995 9.720832 0 9.720832 
z
" id="m0ac318de9d" style="stroke:#41ab5d;"/>
    </defs>
    <g clip-path="url(#p747da013c5)">
     <use style="fill:#41ab5d;stroke:#41ab5d;" x="198.10796" xlink:href="#m0ac318de9d" y="300.618954"/>
    </g>
   </g>
   <g id="PathCollection_29">
    <defs>
     <path d="M 0 9.082138 
C 2.408611 9.082138 4.718896 8.125187 6.422042 6.422042 
C 8.125187 4.718896 9.082138 2.408611 9.082138 0 
C 9.082138 -2.408611 8.125187 -4.718896 6.422042 -6.422042 
C 4.718896 -8.125187 2.408611 -9.082138 0 -9.082138 
C -2.408611 -9.082138 -4.718896 -8.125187 -6.422042 -6.422042 
C -8.125187 -4.718896 -9.082138 -2.408611 -9.082138 0 
C -9.082138 2.408611 -8.125187 4.718896 -6.422042 6.422042 
C -4.718896 8.125187 -2.408611 9.082138 0 9.082138 
z
" id="m5d7cea1e3a" style="stroke:#41ab5d;"/>
    </defs>
    <g clip-path="url(#p747da013c5)">
     <use style="fill:#41ab5d;stroke:#41ab5d;" x="242.900253" xlink:href="#m5d7cea1e3a" y="300.618954"/>
    </g>
   </g>
   <g id="PathCollection_30">
    <defs>
     <path d="M 0 7.589446 
C 2.012745 7.589446 3.943324 6.789774 5.366549 5.366549 
C 6.789774 3.943324 7.589446 2.012745 7.589446 0 
C 7.589446 -2.012745 6.789774 -3.943324 5.366549 -5.366549 
C 3.943324 -6.789774 2.012745 -7.589446 0 -7.589446 
C -2.012745 -7.589446 -3.943324 -6.789774 -5.366549 -5.366549 
C -6.789774 -3.943324 -7.589446 -2.012745 -7.589446 0 
C -7.589446 2.012745 -6.789774 3.943324 -5.366549 5.366549 
C -3.943324 6.789774 -2.012745 7.589446 0 7.589446 
z
" id="m5b860ec037" style="stroke:#41ab5d;"/>
    </defs>
    <g clip-path="url(#p747da013c5)">
     <use style="fill:#41ab5d;stroke:#41ab5d;" x="287.692547" xlink:href="#m5b860ec037" y="300.618954"/>
    </g>
   </g>
   <g id="PathCollection_31">
    <defs>
     <path d="M 0 10.44569 
C 2.770229 10.44569 5.42737 9.345066 7.386218 7.386218 
C 9.345066 5.42737 10.44569 2.770229 10.44569 0 
C 10.44569 -2.770229 9.345066 -5.42737 7.386218 -7.386218 
C 5.42737 -9.345066 2.770229 -10.44569 0 -10.44569 
C -2.770229 -10.44569 -5.42737 -9.345066 -7.386218 -7.386218 
C -9.345066 -5.42737 -10.44569 -2.770229 -10.44569 0 
C -10.44569 2.770229 -9.345066 5.42737 -7.386218 7.386218 
C -5.42737 9.345066 -2.770229 10.44569 0 10.44569 
z
" id="m71b7ac38b6" style="stroke:#41ab5d;"/>
    </defs>
    <g clip-path="url(#p747da013c5)">
     <use style="fill:#41ab5d;stroke:#41ab5d;" x="332.484841" xlink:href="#m71b7ac38b6" y="300.618954"/>
    </g>
   </g>
   <g id="PathCollection_32">
    <defs>
     <path d="M 0 9.814109 
C 2.602732 9.814109 5.099214 8.780033 6.939623 6.939623 
C 8.780033 5.099214 9.814109 2.602732 9.814109 0 
C 9.814109 -2.602732 8.780033 -5.099214 6.939623 -6.939623 
C 5.099214 -8.780033 2.602732 -9.814109 0 -9.814109 
C -2.602732 -9.814109 -5.099214 -8.780033 -6.939623 -6.939623 
C -8.780033 -5.099214 -9.814109 -2.602732 -9.814109 0 
C -9.814109 2.602732 -8.780033 5.099214 -6.939623 6.939623 
C -5.099214 8.780033 -2.602732 9.814109 0 9.814109 
z
" id="m56666ece79" style="stroke:#41ab5d;"/>
    </defs>
    <g clip-path="url(#p747da013c5)">
     <use style="fill:#41ab5d;stroke:#41ab5d;" x="377.277135" xlink:href="#m56666ece79" y="300.618954"/>
    </g>
   </g>
   <g id="PathCollection_33">
    <defs>
     <path d="M 0 8.196773 
C 2.17381 8.196773 4.258878 7.33311 5.795994 5.795994 
C 7.33311 4.258878 8.196773 2.17381 8.196773 0 
C 8.196773 -2.17381 7.33311 -4.258878 5.795994 -5.795994 
C 4.258878 -7.33311 2.17381 -8.196773 0 -8.196773 
C -2.17381 -8.196773 -4.258878 -7.33311 -5.795994 -5.795994 
C -7.33311 -4.258878 -8.196773 -2.17381 -8.196773 0 
C -8.196773 2.17381 -7.33311 4.258878 -5.795994 5.795994 
C -4.258878 7.33311 -2.17381 8.196773 0 8.196773 
z
" id="mf32f77d8ba" style="stroke:#41ab5d;"/>
    </defs>
    <g clip-path="url(#p747da013c5)">
     <use style="fill:#41ab5d;stroke:#41ab5d;" x="422.069429" xlink:href="#mf32f77d8ba" y="300.618954"/>
    </g>
   </g>
   <g id="PathCollection_34">
    <defs>
     <path d="M 0 10.879738 
C 2.88534 10.879738 5.652893 9.73338 7.693137 7.693137 
C 9.73338 5.652893 10.879738 2.88534 10.879738 0 
C 10.879738 -2.88534 9.73338 -5.652893 7.693137 -7.693137 
C 5.652893 -9.73338 2.88534 -10.879738 0 -10.879738 
C -2.88534 -10.879738 -5.652893 -9.73338 -7.693137 -7.693137 
C -9.73338 -5.652893 -10.879738 -2.88534 -10.879738 0 
C -10.879738 2.88534 -9.73338 5.652893 -7.693137 7.693137 
C -5.652893 9.73338 -2.88534 10.879738 0 10.879738 
z
" id="me2289e3593" style="stroke:#41ab5d;"/>
    </defs>
    <g clip-path="url(#p747da013c5)">
     <use style="fill:#41ab5d;stroke:#41ab5d;" x="466.861722" xlink:href="#me2289e3593" y="300.618954"/>
    </g>
   </g>
   <g id="PathCollection_35">
    <defs>
     <path d="M 0 9.90641 
C 2.627211 9.90641 5.147171 8.862608 7.00489 7.00489 
C 8.862608 5.147171 9.90641 2.627211 9.90641 0 
C 9.90641 -2.627211 8.862608 -5.147171 7.00489 -7.00489 
C 5.147171 -8.862608 2.627211 -9.90641 0 -9.90641 
C -2.627211 -9.90641 -5.147171 -8.862608 -7.00489 -7.00489 
C -8.862608 -5.147171 -9.90641 -2.627211 -9.90641 0 
C -9.90641 2.627211 -8.862608 5.147171 -7.00489 7.00489 
C -5.147171 8.862608 -2.627211 9.90641 0 9.90641 
z
" id="m3166912174" style="stroke:#41ab5d;"/>
    </defs>
    <g clip-path="url(#p747da013c5)">
     <use style="fill:#41ab5d;stroke:#41ab5d;" x="511.654016" xlink:href="#m3166912174" y="300.618954"/>
    </g>
   </g>
   <g id="PathCollection_36">
    <defs>
     <path d="M 0 9.537341 
C 2.529332 9.537341 4.95541 8.532426 6.743918 6.743918 
C 8.532426 4.95541 9.537341 2.529332 9.537341 0 
C 9.537341 -2.529332 8.532426 -4.95541 6.743918 -6.743918 
C 4.95541 -8.532426 2.529332 -9.537341 0 -9.537341 
C -2.529332 -9.537341 -4.95541 -8.532426 -6.743918 -6.743918 
C -8.532426 -4.95541 -9.537341 -2.529332 -9.537341 0 
C -9.537341 2.529332 -8.532426 4.95541 -6.743918 6.743918 
C -4.95541 8.532426 -2.529332 9.537341 0 9.537341 
z
" id="m499fe43c38" style="stroke:#41ab5d;"/>
    </defs>
    <g clip-path="url(#p747da013c5)">
     <use style="fill:#41ab5d;stroke:#41ab5d;" x="556.44631" xlink:href="#m499fe43c38" y="300.618954"/>
    </g>
   </g>
   <g id="PathCollection_37">
    <defs>
     <path d="M 0 5.791523 
C 1.53593 5.791523 3.009159 5.181292 4.095225 4.095225 
C 5.181292 3.009159 5.791523 1.53593 5.791523 0 
C 5.791523 -1.53593 5.181292 -3.009159 4.095225 -4.095225 
C 3.009159 -5.181292 1.53593 -5.791523 0 -5.791523 
C -1.53593 -5.791523 -3.009159 -5.181292 -4.095225 -4.095225 
C -5.181292 -3.009159 -5.791523 -1.53593 -5.791523 0 
C -5.791523 1.53593 -5.181292 3.009159 -4.095225 4.095225 
C -3.009159 5.181292 -1.53593 5.791523 0 5.791523 
z
" id="medf20671c1" style="stroke:#41ab5d;"/>
    </defs>
    <g clip-path="url(#p747da013c5)">
     <use style="fill:#41ab5d;stroke:#41ab5d;" x="198.10796" xlink:href="#medf20671c1" y="345.122265"/>
    </g>
   </g>
   <g id="PathCollection_38">
    <defs>
     <path d="M 0 0 
C 0 0 0 0 0 0 
C 0 0 0 0 0 0 
C 0 0 0 0 0 0 
C 0 0 0 0 0 0 
C 0 0 0 0 0 0 
C 0 0 0 0 0 0 
C 0 0 0 0 0 0 
C 0 0 0 0 0 0 
z
" id="m7fc2e0a096" style="stroke:#fdaa09;"/>
    </defs>
    <g clip-path="url(#p747da013c5)">
     <use style="fill:#fdaa09;stroke:#fdaa09;" x="242.900253" xlink:href="#m7fc2e0a096" y="345.122265"/>
    </g>
   </g>
   <g id="PathCollection_39">
    <g clip-path="url(#p747da013c5)">
     <use style="fill:#fdaa09;stroke:#fdaa09;" x="287.692547" xlink:href="#m7fc2e0a096" y="345.122265"/>
    </g>
   </g>
   <g id="PathCollection_40">
    <defs>
     <path d="M 0 7.955573 
C 2.109843 7.955573 4.133556 7.117324 5.62544 5.62544 
C 7.117324 4.133556 7.955573 2.109843 7.955573 0 
C 7.955573 -2.109843 7.117324 -4.133556 5.62544 -5.62544 
C 4.133556 -7.117324 2.109843 -7.955573 0 -7.955573 
C -2.109843 -7.955573 -4.133556 -7.117324 -5.62544 -5.62544 
C -7.117324 -4.133556 -7.955573 -2.109843 -7.955573 0 
C -7.955573 2.109843 -7.117324 4.133556 -5.62544 5.62544 
C -4.133556 7.117324 -2.109843 7.955573 0 7.955573 
z
" id="m9eca22cee4" style="stroke:#41ab5d;"/>
    </defs>
    <g clip-path="url(#p747da013c5)">
     <use style="fill:#41ab5d;stroke:#41ab5d;" x="332.484841" xlink:href="#m9eca22cee4" y="345.122265"/>
    </g>
   </g>
   <g id="PathCollection_41">
    <defs>
     <path d="M 0 5.293936 
C 1.403968 5.293936 2.750623 4.736134 3.743378 3.743378 
C 4.736134 2.750623 5.293936 1.403968 5.293936 0 
C 5.293936 -1.403968 4.736134 -2.750623 3.743378 -3.743378 
C 2.750623 -4.736134 1.403968 -5.293936 0 -5.293936 
C -1.403968 -5.293936 -2.750623 -4.736134 -3.743378 -3.743378 
C -4.736134 -2.750623 -5.293936 -1.403968 -5.293936 0 
C -5.293936 1.403968 -4.736134 2.750623 -3.743378 3.743378 
C -2.750623 4.736134 -1.403968 5.293936 0 5.293936 
z
" id="mc6c240c1b0" style="stroke:#41ab5d;"/>
    </defs>
    <g clip-path="url(#p747da013c5)">
     <use style="fill:#41ab5d;stroke:#41ab5d;" x="377.277135" xlink:href="#mc6c240c1b0" y="345.122265"/>
    </g>
   </g>
   <g id="PathCollection_42">
    <g clip-path="url(#p747da013c5)">
     <use style="fill:#6c0c86;stroke:#6c0c86;" x="422.069429" xlink:href="#m348e9684a2" y="345.122265"/>
    </g>
   </g>
   <g id="PathCollection_43">
    <defs>
     <path d="M 0 8.680657 
C 2.302137 8.680657 4.510295 7.766008 6.138151 6.138151 
C 7.766008 4.510295 8.680657 2.302137 8.680657 0 
C 8.680657 -2.302137 7.766008 -4.510295 6.138151 -6.138151 
C 4.510295 -7.766008 2.302137 -8.680657 0 -8.680657 
C -2.302137 -8.680657 -4.510295 -7.766008 -6.138151 -6.138151 
C -7.766008 -4.510295 -8.680657 -2.302137 -8.680657 0 
C -8.680657 2.302137 -7.766008 4.510295 -6.138151 6.138151 
C -4.510295 7.766008 -2.302137 8.680657 0 8.680657 
z
" id="mab61726aa6" style="stroke:#41ab5d;"/>
    </defs>
    <g clip-path="url(#p747da013c5)">
     <use style="fill:#41ab5d;stroke:#41ab5d;" x="466.861722" xlink:href="#mab61726aa6" y="345.122265"/>
    </g>
   </g>
   <g id="PathCollection_44">
    <defs>
     <path d="M 0 7.155291 
C 1.897605 7.155291 3.717745 6.401365 5.059555 5.059555 
C 6.401365 3.717745 7.155291 1.897605 7.155291 0 
C 7.155291 -1.897605 6.401365 -3.717745 5.059555 -5.059555 
C 3.717745 -6.401365 1.897605 -7.155291 0 -7.155291 
C -1.897605 -7.155291 -3.717745 -6.401365 -5.059555 -5.059555 
C -6.401365 -3.717745 -7.155291 -1.897605 -7.155291 0 
C -7.155291 1.897605 -6.401365 3.717745 -5.059555 5.059555 
C -3.717745 6.401365 -1.897605 7.155291 0 7.155291 
z
" id="m737c4ba96e" style="stroke:#41ab5d;"/>
    </defs>
    <g clip-path="url(#p747da013c5)">
     <use style="fill:#41ab5d;stroke:#41ab5d;" x="511.654016" xlink:href="#m737c4ba96e" y="345.122265"/>
    </g>
   </g>
   <g id="PathCollection_45">
    <defs>
     <path d="M 0 5.63311 
C 1.493918 5.63311 2.926851 5.03957 3.983211 3.983211 
C 5.03957 2.926851 5.63311 1.493918 5.63311 0 
C 5.63311 -1.493918 5.03957 -2.926851 3.983211 -3.983211 
C 2.926851 -5.03957 1.493918 -5.63311 0 -5.63311 
C -1.493918 -5.63311 -2.926851 -5.03957 -3.983211 -3.983211 
C -5.03957 -2.926851 -5.63311 -1.493918 -5.63311 0 
C -5.63311 1.493918 -5.03957 2.926851 -3.983211 3.983211 
C -2.926851 5.03957 -1.493918 5.63311 0 5.63311 
z
" id="m1571f2e748" style="stroke:#41ab5d;"/>
    </defs>
    <g clip-path="url(#p747da013c5)">
     <use style="fill:#41ab5d;stroke:#41ab5d;" x="556.44631" xlink:href="#m1571f2e748" y="345.122265"/>
    </g>
   </g>
   <g id="PathCollection_46">
    <g clip-path="url(#p747da013c5)">
     <use style="fill:#fdaa09;stroke:#fdaa09;" x="198.10796" xlink:href="#m7fc2e0a096" y="389.625576"/>
    </g>
   </g>
   <g id="PathCollection_47">
    <g clip-path="url(#p747da013c5)">
     <use style="fill:#fdaa09;stroke:#fdaa09;" x="242.900253" xlink:href="#m7fc2e0a096" y="389.625576"/>
    </g>
   </g>
   <g id="PathCollection_48">
    <g clip-path="url(#p747da013c5)">
     <use style="fill:#fdaa09;stroke:#fdaa09;" x="287.692547" xlink:href="#m7fc2e0a096" y="389.625576"/>
    </g>
   </g>
   <g id="PathCollection_49">
    <g clip-path="url(#p747da013c5)">
     <use style="fill:#6c0c86;stroke:#6c0c86;" x="332.484841" xlink:href="#m348e9684a2" y="389.625576"/>
    </g>
   </g>
   <g id="PathCollection_50">
    <g clip-path="url(#p747da013c5)">
     <use style="fill:#fdaa09;stroke:#fdaa09;" x="377.277135" xlink:href="#m7fc2e0a096" y="389.625576"/>
    </g>
   </g>
   <g id="PathCollection_51">
    <g clip-path="url(#p747da013c5)">
     <use style="fill:#fdaa09;stroke:#fdaa09;" x="422.069429" xlink:href="#m7fc2e0a096" y="389.625576"/>
    </g>
   </g>
   <g id="PathCollection_52">
    <g clip-path="url(#p747da013c5)">
     <use style="fill:#6c0c86;stroke:#6c0c86;" x="466.861722" xlink:href="#m348e9684a2" y="389.625576"/>
    </g>
   </g>
   <g id="PathCollection_53">
    <g clip-path="url(#p747da013c5)">
     <use style="fill:#fdaa09;stroke:#fdaa09;" x="511.654016" xlink:href="#m7fc2e0a096" y="389.625576"/>
    </g>
   </g>
   <g id="PathCollection_54">
    <g clip-path="url(#p747da013c5)">
     <use style="fill:#fdaa09;stroke:#fdaa09;" x="556.44631" xlink:href="#m7fc2e0a096" y="389.625576"/>
    </g>
   </g>
   <g id="PathCollection_55">
    <g clip-path="url(#p747da013c5)">
     <use style="fill:#fdaa09;stroke:#fdaa09;" x="198.10796" xlink:href="#m7fc2e0a096" y="434.128887"/>
    </g>
   </g>
   <g id="PathCollection_56">
    <g clip-path="url(#p747da013c5)">
     <use style="fill:#fdaa09;stroke:#fdaa09;" x="242.900253" xlink:href="#m7fc2e0a096" y="434.128887"/>
    </g>
   </g>
   <g id="PathCollection_57">
    <g clip-path="url(#p747da013c5)">
     <use style="fill:#fdaa09;stroke:#fdaa09;" x="287.692547" xlink:href="#m7fc2e0a096" y="434.128887"/>
    </g>
   </g>
   <g id="PathCollection_58">
    <g clip-path="url(#p747da013c5)">
     <use style="fill:#6c0c86;stroke:#6c0c86;" x="332.484841" xlink:href="#m348e9684a2" y="434.128887"/>
    </g>
   </g>
   <g id="PathCollection_59">
    <g clip-path="url(#p747da013c5)">
     <use style="fill:#fdaa09;stroke:#fdaa09;" x="377.277135" xlink:href="#m7fc2e0a096" y="434.128887"/>
    </g>
   </g>
   <g id="PathCollection_60">
    <g clip-path="url(#p747da013c5)">
     <use style="fill:#fdaa09;stroke:#fdaa09;" x="422.069429" xlink:href="#m7fc2e0a096" y="434.128887"/>
    </g>
   </g>
   <g id="PathCollection_61">
    <g clip-path="url(#p747da013c5)">
     <use style="fill:#6c0c86;stroke:#6c0c86;" x="466.861722" xlink:href="#m348e9684a2" y="434.128887"/>
    </g>
   </g>
   <g id="PathCollection_62">
    <g clip-path="url(#p747da013c5)">
     <use style="fill:#6c0c86;stroke:#6c0c86;" x="511.654016" xlink:href="#m348e9684a2" y="434.128887"/>
    </g>
   </g>
   <g id="PathCollection_63">
    <g clip-path="url(#p747da013c5)">
     <use style="fill:#fdaa09;stroke:#fdaa09;" x="556.44631" xlink:href="#m7fc2e0a096" y="434.128887"/>
    </g>
   </g>
   <g id="PathCollection_64">
    <g clip-path="url(#p747da013c5)">
     <use style="fill:#fdaa09;stroke:#fdaa09;" x="198.10796" xlink:href="#m7fc2e0a096" y="478.632199"/>
    </g>
   </g>
   <g id="PathCollection_65">
    <g clip-path="url(#p747da013c5)">
     <use style="fill:#fdaa09;stroke:#fdaa09;" x="242.900253" xlink:href="#m7fc2e0a096" y="478.632199"/>
    </g>
   </g>
   <g id="PathCollection_66">
    <g clip-path="url(#p747da013c5)">
     <use style="fill:#fdaa09;stroke:#fdaa09;" x="287.692547" xlink:href="#m7fc2e0a096" y="478.632199"/>
    </g>
   </g>
   <g id="PathCollection_67">
    <g clip-path="url(#p747da013c5)">
     <use style="fill:#fdaa09;stroke:#fdaa09;" x="332.484841" xlink:href="#m7fc2e0a096" y="478.632199"/>
    </g>
   </g>
   <g id="PathCollection_68">
    <g clip-path="url(#p747da013c5)">
     <use style="fill:#fdaa09;stroke:#fdaa09;" x="377.277135" xlink:href="#m7fc2e0a096" y="478.632199"/>
    </g>
   </g>
   <g id="PathCollection_69">
    <g clip-path="url(#p747da013c5)">
     <use style="fill:#fdaa09;stroke:#fdaa09;" x="422.069429" xlink:href="#m7fc2e0a096" y="478.632199"/>
    </g>
   </g>
   <g id="PathCollection_70">
    <g clip-path="url(#p747da013c5)">
     <use style="fill:#fdaa09;stroke:#fdaa09;" x="466.861722" xlink:href="#m7fc2e0a096" y="478.632199"/>
    </g>
   </g>
   <g id="PathCollection_71">
    <g clip-path="url(#p747da013c5)">
     <use style="fill:#fdaa09;stroke:#fdaa09;" x="511.654016" xlink:href="#m7fc2e0a096" y="478.632199"/>
    </g>
   </g>
   <g id="PathCollection_72">
    <g clip-path="url(#p747da013c5)">
     <use style="fill:#fdaa09;stroke:#fdaa09;" x="556.44631" xlink:href="#m7fc2e0a096" y="478.632199"/>
    </g>
   </g>
   <g id="PathCollection_73">
    <g clip-path="url(#p747da013c5)">
     <use style="fill:#fdaa09;stroke:#fdaa09;" x="198.10796" xlink:href="#m7fc2e0a096" y="523.13551"/>
    </g>
   </g>
   <g id="PathCollection_74">
    <g clip-path="url(#p747da013c5)">
     <use style="fill:#fdaa09;stroke:#fdaa09;" x="242.900253" xlink:href="#m7fc2e0a096" y="523.13551"/>
    </g>
   </g>
   <g id="PathCollection_75">
    <g clip-path="url(#p747da013c5)">
     <use style="fill:#fdaa09;stroke:#fdaa09;" x="287.692547" xlink:href="#m7fc2e0a096" y="523.13551"/>
    </g>
   </g>
   <g id="PathCollection_76">
    <g clip-path="url(#p747da013c5)">
     <use style="fill:#fdaa09;stroke:#fdaa09;" x="332.484841" xlink:href="#m7fc2e0a096" y="523.13551"/>
    </g>
   </g>
   <g id="PathCollection_77">
    <g clip-path="url(#p747da013c5)">
     <use style="fill:#fdaa09;stroke:#fdaa09;" x="377.277135" xlink:href="#m7fc2e0a096" y="523.13551"/>
    </g>
   </g>
   <g id="PathCollection_78">
    <g clip-path="url(#p747da013c5)">
     <use style="fill:#fdaa09;stroke:#fdaa09;" x="422.069429" xlink:href="#m7fc2e0a096" y="523.13551"/>
    </g>
   </g>
   <g id="PathCollection_79">
    <g clip-path="url(#p747da013c5)">
     <use style="fill:#fdaa09;stroke:#fdaa09;" x="466.861722" xlink:href="#m7fc2e0a096" y="523.13551"/>
    </g>
   </g>
   <g id="PathCollection_80">
    <g clip-path="url(#p747da013c5)">
     <use style="fill:#fdaa09;stroke:#fdaa09;" x="511.654016" xlink:href="#m7fc2e0a096" y="523.13551"/>
    </g>
   </g>
   <g id="PathCollection_81">
    <g clip-path="url(#p747da013c5)">
     <use style="fill:#fdaa09;stroke:#fdaa09;" x="556.44631" xlink:href="#m7fc2e0a096" y="523.13551"/>
    </g>
   </g>
   <g id="matplotlib.axis_1"/>
   <g id="matplotlib.axis_2"/>
   <g id="LineCollection_1">
    <path clip-path="url(#p747da013c5)" d="M 175.711813 144.857364 
L 578.842457 144.857364 
" style="fill:none;stroke:#808080;stroke-width:1.5;"/>
    <path clip-path="url(#p747da013c5)" d="M 175.711813 189.360675 
L 578.842457 189.360675 
" style="fill:none;stroke:#808080;stroke-width:1.5;"/>
    <path clip-path="url(#p747da013c5)" d="M 175.711813 233.863987 
L 578.842457 233.863987 
" style="fill:none;stroke:#808080;stroke-width:1.5;"/>
    <path clip-path="url(#p747da013c5)" d="M 175.711813 322.870609 
L 578.842457 322.870609 
" style="fill:none;stroke:#808080;stroke-width:1.5;"/>
    <path clip-path="url(#p747da013c5)" d="M 175.711813 367.373921 
L 578.842457 367.373921 
" style="fill:none;stroke:#808080;stroke-width:1.5;"/>
    <path clip-path="url(#p747da013c5)" d="M 175.711813 456.380543 
L 578.842457 456.380543 
" style="fill:none;stroke:#808080;stroke-width:1.5;"/>
    <path clip-path="url(#p747da013c5)" d="M 175.711813 500.883854 
L 578.842457 500.883854 
" style="fill:none;stroke:#808080;stroke-width:1.5;"/>
    <path clip-path="url(#p747da013c5)" d="M 175.711813 545.387166 
L 578.842457 545.387166 
" style="fill:none;stroke:#808080;stroke-width:1.5;"/>
   </g>
   <g id="LineCollection_2">
    <path clip-path="url(#p747da013c5)" d="M 175.711813 278.367298 
L 578.842457 278.367298 
" style="fill:none;stroke:#808080;stroke-width:3;"/>
    <path clip-path="url(#p747da013c5)" d="M 175.711813 411.877232 
L 578.842457 411.877232 
" style="fill:none;stroke:#808080;stroke-width:3;"/>
   </g>
   <g id="LineCollection_3">
    <path clip-path="url(#p747da013c5)" d="M 175.711813 144.857364 
L 175.711813 545.387166 
" style="fill:none;stroke:#808080;stroke-width:1.5;"/>
    <path clip-path="url(#p747da013c5)" d="M 220.504107 144.857364 
L 220.504107 545.387166 
" style="fill:none;stroke:#808080;stroke-width:1.5;"/>
    <path clip-path="url(#p747da013c5)" d="M 265.2964 144.857364 
L 265.2964 545.387166 
" style="fill:none;stroke:#808080;stroke-width:1.5;"/>
    <path clip-path="url(#p747da013c5)" d="M 354.880988 144.857364 
L 354.880988 545.387166 
" style="fill:none;stroke:#808080;stroke-width:1.5;"/>
    <path clip-path="url(#p747da013c5)" d="M 399.673282 144.857364 
L 399.673282 545.387166 
" style="fill:none;stroke:#808080;stroke-width:1.5;"/>
    <path clip-path="url(#p747da013c5)" d="M 489.257869 144.857364 
L 489.257869 545.387166 
" style="fill:none;stroke:#808080;stroke-width:1.5;"/>
    <path clip-path="url(#p747da013c5)" d="M 534.050163 144.857364 
L 534.050163 545.387166 
" style="fill:none;stroke:#808080;stroke-width:1.5;"/>
    <path clip-path="url(#p747da013c5)" d="M 578.842457 144.857364 
L 578.842457 545.387166 
" style="fill:none;stroke:#808080;stroke-width:1.5;"/>
   </g>
   <g id="LineCollection_4">
    <path clip-path="url(#p747da013c5)" d="M 310.088694 144.857364 
L 310.088694 545.387166 
" style="fill:none;stroke:#808080;stroke-width:3;"/>
    <path clip-path="url(#p747da013c5)" d="M 444.465576 144.857364 
L 444.465576 545.387166 
" style="fill:none;stroke:#808080;stroke-width:3;"/>
   </g>
   <g id="line2d_1">
    <path clip-path="url(#p747da013c5)" d="M 155.555281 189.360675 
L 598.998989 189.360675 
" style="fill:none;stroke:#ffffff;stroke-linecap:square;stroke-width:0.5;"/>
   </g>
   <g id="line2d_2">
    <path clip-path="url(#p747da013c5)" d="M 155.555281 233.863987 
L 598.998989 233.863987 
" style="fill:none;stroke:#ffffff;stroke-linecap:square;stroke-width:0.5;"/>
   </g>
   <g id="line2d_3">
    <path clip-path="url(#p747da013c5)" d="M 155.555281 278.367298 
L 598.998989 278.367298 
" style="fill:none;stroke:#ffffff;stroke-linecap:square;"/>
   </g>
   <g id="line2d_4">
    <path clip-path="url(#p747da013c5)" d="M 155.555281 322.870609 
L 598.998989 322.870609 
" style="fill:none;stroke:#ffffff;stroke-linecap:square;stroke-width:0.5;"/>
   </g>
   <g id="line2d_5">
    <path clip-path="url(#p747da013c5)" d="M 155.555281 367.373921 
L 598.998989 367.373921 
" style="fill:none;stroke:#ffffff;stroke-linecap:square;stroke-width:0.5;"/>
   </g>
   <g id="line2d_6">
    <path clip-path="url(#p747da013c5)" d="M 155.555281 411.877232 
L 598.998989 411.877232 
" style="fill:none;stroke:#ffffff;stroke-linecap:square;"/>
   </g>
   <g id="line2d_7">
    <path clip-path="url(#p747da013c5)" d="M 155.555281 456.380543 
L 598.998989 456.380543 
" style="fill:none;stroke:#ffffff;stroke-linecap:square;stroke-width:0.5;"/>
   </g>
   <g id="line2d_8">
    <path clip-path="url(#p747da013c5)" d="M 155.555281 500.883854 
L 598.998989 500.883854 
" style="fill:none;stroke:#ffffff;stroke-linecap:square;stroke-width:0.5;"/>
   </g>
   <g id="line2d_9">
    <path clip-path="url(#p747da013c5)" d="M 220.504107 565.413656 
L 220.504107 124.830874 
" style="fill:none;stroke:#ffffff;stroke-linecap:square;stroke-width:0.5;"/>
   </g>
   <g id="line2d_10">
    <path clip-path="url(#p747da013c5)" d="M 265.2964 565.413656 
L 265.2964 124.830874 
" style="fill:none;stroke:#ffffff;stroke-linecap:square;stroke-width:0.5;"/>
   </g>
   <g id="line2d_11">
    <path clip-path="url(#p747da013c5)" d="M 310.088694 565.413656 
L 310.088694 124.830874 
" style="fill:none;stroke:#ffffff;stroke-linecap:square;"/>
   </g>
   <g id="line2d_12">
    <path clip-path="url(#p747da013c5)" d="M 354.880988 565.413656 
L 354.880988 124.830874 
" style="fill:none;stroke:#ffffff;stroke-linecap:square;stroke-width:0.5;"/>
   </g>
   <g id="line2d_13">
    <path clip-path="url(#p747da013c5)" d="M 399.673282 565.413656 
L 399.673282 124.830874 
" style="fill:none;stroke:#ffffff;stroke-linecap:square;stroke-width:0.5;"/>
   </g>
   <g id="line2d_14">
    <path clip-path="url(#p747da013c5)" d="M 444.465576 565.413656 
L 444.465576 124.830874 
" style="fill:none;stroke:#ffffff;stroke-linecap:square;"/>
   </g>
   <g id="line2d_15">
    <path clip-path="url(#p747da013c5)" d="M 489.257869 565.413656 
L 489.257869 124.830874 
" style="fill:none;stroke:#ffffff;stroke-linecap:square;stroke-width:0.5;"/>
   </g>
   <g id="line2d_16">
    <path clip-path="url(#p747da013c5)" d="M 534.050163 565.413656 
L 534.050163 124.830874 
" style="fill:none;stroke:#ffffff;stroke-linecap:square;stroke-width:0.5;"/>
   </g>
   <g id="patch_3">
    <path d="M 155.555281 565.413656 
L 155.555281 124.830874 
" style="fill:none;stroke:#000000;stroke-linecap:square;stroke-linejoin:miter;stroke-width:0.8;"/>
   </g>
   <g id="patch_4">
    <path d="M 598.998989 565.413656 
L 598.998989 124.830874 
" style="fill:none;stroke:#000000;stroke-linecap:square;stroke-linejoin:miter;stroke-width:0.8;"/>
   </g>
   <g id="patch_5">
    <path d="M 155.555281 565.413656 
L 598.998989 565.413656 
" style="fill:none;stroke:#000000;stroke-linecap:square;stroke-linejoin:miter;stroke-width:0.8;"/>
   </g>
   <g id="patch_6">
    <path d="M 155.555281 124.830874 
L 598.998989 124.830874 
" style="fill:none;stroke:#000000;stroke-linecap:square;stroke-linejoin:miter;stroke-width:0.8;"/>
   </g>
  </g>
  <g id="axes_2">
   <g id="patch_7">
    <path d="M 40.998989 565.413656 
L 153.707598 565.413656 
L 153.707598 124.830874 
L 40.998989 124.830874 
z
" style="fill:#ffffff;"/>
   </g>
   <g id="matplotlib.axis_3">
    <g id="xtick_1">
     <g id="line2d_17">
      <defs>
       <path d="M 0 0 
L 0 3.5 
" id="m5734792dc4" style="stroke:#000000;stroke-width:0.8;"/>
      </defs>
      <g>
       <use style="stroke:#000000;stroke-width:0.8;" x="69.176141" xlink:href="#m5734792dc4" y="565.413656"/>
      </g>
     </g>
     <g id="text_1">
      <!-- Blue Nile Mean -->
      <g transform="translate(72.008329 647.316156)rotate(-90)scale(0.12 -0.12)">
       <defs>
        <path d="M 2381 2259 
C 2739 2355 3245 2605 3245 3213 
C 3245 3507 3117 3789 2886 3942 
C 2688 4083 2406 4160 1926 4160 
L 282 4160 
L 282 3981 
C 794 3942 819 3904 819 3373 
L 819 794 
C 819 256 781 218 230 179 
L 230 0 
L 1645 0 
C 2150 0 2573 77 2899 256 
C 3277 467 3514 794 3514 1222 
C 3514 1862 3014 2144 2381 2240 
L 2381 2259 
z
M 1357 2317 
L 1357 3571 
C 1357 3782 1382 3853 1440 3891 
C 1504 3930 1645 3955 1805 3955 
C 2413 3955 2656 3571 2656 3136 
C 2656 2598 2362 2317 1658 2317 
L 1357 2317 
z
M 1357 2106 
L 1651 2106 
C 2432 2106 2880 1818 2880 1158 
C 2880 493 2413 224 1888 218 
C 1478 218 1357 339 1357 800 
L 1357 2106 
z
" id="MinionPro-Regular-42" transform="scale(0.015625)"/>
        <path d="M 1523 0 
L 1523 166 
C 1114 205 1062 243 1062 666 
L 1062 4557 
C 845 4480 448 4371 115 4333 
L 115 4179 
C 518 4147 557 4128 557 3693 
L 557 666 
C 557 243 499 205 96 166 
L 96 0 
L 1523 0 
z
" id="MinionPro-Regular-6c" transform="scale(0.015625)"/>
        <path d="M 3315 314 
L 3136 326 
C 2893 339 2842 384 2842 704 
L 2842 2842 
C 2746 2822 2592 2797 2413 2778 
C 2227 2752 2010 2733 1837 2726 
L 1837 2579 
L 2067 2541 
C 2278 2509 2336 2470 2336 2125 
L 2336 634 
C 2118 422 1875 326 1645 326 
C 1357 326 1082 480 1082 1043 
L 1082 1907 
C 1082 2342 1082 2643 1101 2842 
C 992 2822 819 2797 646 2771 
C 474 2752 320 2733 186 2726 
L 186 2579 
L 365 2541 
C 525 2502 576 2470 576 2131 
L 576 877 
C 576 186 941 -77 1370 -77 
C 1542 -77 1677 -26 1862 83 
C 2042 192 2189 307 2336 416 
L 2336 -38 
L 2374 -77 
C 2496 -45 2656 6 2822 51 
C 2995 96 3174 134 3315 154 
L 3315 314 
z
" id="MinionPro-Regular-75" transform="scale(0.015625)"/>
        <path d="M 2426 678 
C 2195 461 1952 358 1696 358 
C 1248 358 749 717 742 1587 
C 1504 1613 2304 1677 2413 1696 
C 2528 1722 2560 1773 2560 1901 
C 2560 2400 2131 2874 1600 2874 
L 1594 2874 
C 1267 2874 922 2701 659 2406 
C 397 2118 237 1728 237 1286 
C 237 563 698 -77 1485 -77 
C 1683 -77 2125 38 2528 544 
L 2426 678 
z
M 1446 2637 
C 1798 2637 2016 2330 2010 1997 
C 2010 1907 1971 1869 1856 1869 
C 1485 1856 1133 1850 774 1850 
C 870 2368 1152 2637 1440 2637 
L 1446 2637 
z
" id="MinionPro-Regular-65" transform="scale(0.015625)"/>
        <path id="MinionPro-Regular-20" transform="scale(0.015625)"/>
        <path d="M 4602 4160 
L 3091 4160 
L 3091 3981 
C 3533 3955 3686 3872 3718 3584 
C 3738 3405 3763 3110 3763 2522 
L 3763 947 
L 3744 947 
L 1075 4160 
L 128 4160 
L 128 3981 
C 429 3955 570 3904 698 3744 
C 813 3590 826 3565 826 3098 
L 826 1690 
C 826 1101 806 794 787 595 
C 755 282 595 198 224 179 
L 224 0 
L 1741 0 
L 1741 179 
C 1306 205 1158 282 1126 608 
C 1107 794 1088 1101 1088 1690 
L 1088 3296 
L 1101 3296 
L 3827 -58 
L 4026 -58 
L 4026 2522 
C 4026 3117 4038 3405 4064 3597 
C 4090 3878 4243 3962 4602 3981 
L 4602 4160 
z
" id="MinionPro-Regular-4e" transform="scale(0.015625)"/>
        <path d="M 864 3430 
C 1050 3430 1190 3584 1190 3757 
C 1190 3949 1050 4090 870 4090 
C 698 4090 544 3949 544 3757 
C 544 3584 698 3430 864 3430 
z
M 1613 0 
L 1613 166 
C 1203 205 1158 243 1158 678 
L 1158 2886 
C 877 2771 576 2688 250 2637 
L 250 2483 
C 634 2426 653 2394 653 2003 
L 653 678 
C 653 243 608 205 205 166 
L 205 0 
L 1613 0 
z
" id="MinionPro-Regular-69" transform="scale(0.015625)"/>
        <path d="M 5510 0 
L 5510 179 
C 4954 230 4934 262 4915 941 
L 4851 3258 
C 4832 3917 4877 3930 5440 3981 
L 5440 4160 
L 4352 4160 
L 2874 960 
L 1414 4160 
L 365 4160 
L 365 3981 
C 947 3923 979 3898 922 3066 
L 832 1734 
C 781 1069 742 787 710 563 
C 666 294 538 224 166 179 
L 166 0 
L 1658 0 
L 1658 179 
C 1235 224 1082 269 1069 576 
C 1062 832 1062 1114 1088 1638 
L 1184 3462 
L 1197 3462 
L 2630 45 
L 2758 45 
L 4320 3552 
L 4346 3552 
L 4365 941 
C 4371 262 4346 230 3827 179 
L 3827 0 
L 5510 0 
z
" id="MinionPro-Regular-4d" transform="scale(0.015625)"/>
        <path d="M 2771 250 
L 2707 416 
C 2643 378 2554 346 2477 346 
C 2368 346 2253 442 2253 730 
L 2253 1920 
C 2253 2253 2189 2515 1965 2701 
C 1824 2816 1632 2874 1440 2874 
C 1075 2803 659 2554 480 2426 
C 358 2336 275 2266 275 2170 
C 275 2022 442 1894 557 1894 
C 646 1894 717 1939 742 2048 
C 794 2240 851 2381 934 2464 
C 998 2541 1094 2592 1222 2592 
C 1542 2592 1760 2330 1760 1869 
L 1760 1754 
C 1619 1638 1152 1466 768 1338 
C 416 1216 250 1018 250 704 
C 250 301 563 -77 1018 -77 
C 1210 -77 1517 160 1773 333 
C 1805 224 1843 134 1926 45 
C 1997 -19 2131 -77 2227 -77 
L 2771 250 
z
M 1760 538 
C 1638 422 1414 314 1248 307 
C 1050 307 794 467 794 800 
C 794 1030 934 1152 1184 1267 
C 1318 1331 1626 1466 1760 1536 
L 1760 538 
z
" id="MinionPro-Regular-61" transform="scale(0.015625)"/>
        <path d="M 3347 0 
L 3347 166 
C 2976 205 2944 230 2944 666 
L 2944 1901 
C 2944 2522 2624 2874 2118 2874 
C 1933 2874 1766 2797 1587 2682 
C 1427 2573 1286 2477 1158 2381 
L 1158 2893 
C 877 2765 576 2688 269 2630 
L 269 2483 
C 614 2419 653 2400 653 1990 
L 653 666 
C 653 243 621 211 186 166 
L 186 0 
L 1574 0 
L 1574 166 
C 1197 205 1158 230 1158 666 
L 1158 2170 
C 1350 2336 1600 2496 1856 2496 
C 2285 2496 2438 2208 2438 1766 
L 2438 698 
C 2438 256 2394 205 2016 166 
L 2016 0 
L 3347 0 
z
" id="MinionPro-Regular-6e" transform="scale(0.015625)"/>
       </defs>
       <use xlink:href="#MinionPro-Regular-42"/>
       <use x="58.799988" xlink:href="#MinionPro-Regular-6c"/>
       <use x="84.099976" xlink:href="#MinionPro-Regular-75"/>
       <use x="137.199966" xlink:href="#MinionPro-Regular-65"/>
       <use x="179.699951" xlink:href="#MinionPro-Regular-20"/>
       <use x="202.399948" xlink:href="#MinionPro-Regular-4e"/>
       <use x="276.699936" xlink:href="#MinionPro-Regular-69"/>
       <use x="303.499924" xlink:href="#MinionPro-Regular-6c"/>
       <use x="328.799911" xlink:href="#MinionPro-Regular-65"/>
       <use x="371.299896" xlink:href="#MinionPro-Regular-20"/>
       <use x="393.999893" xlink:href="#MinionPro-Regular-4d"/>
       <use x="483.099884" xlink:href="#MinionPro-Regular-65"/>
       <use x="525.599869" xlink:href="#MinionPro-Regular-61"/>
       <use x="569.499863" xlink:href="#MinionPro-Regular-6e"/>
      </g>
     </g>
    </g>
    <g id="xtick_2">
     <g id="line2d_18">
      <g>
       <use style="stroke:#000000;stroke-width:0.8;" x="125.530446" xlink:href="#m5734792dc4" y="565.413656"/>
      </g>
     </g>
     <g id="text_2">
      <!-- White Nile Mean -->
      <g transform="translate(128.362634 655.789281)rotate(-90)scale(0.12 -0.12)">
       <defs>
        <path d="M 6118 4160 
L 4704 4160 
L 4704 3981 
C 5210 3923 5235 3853 5146 3469 
C 5043 3014 4691 1760 4422 902 
L 4410 902 
C 4019 2010 3648 3046 3290 4096 
L 3104 4096 
C 2778 3053 2406 1997 2067 909 
L 2054 909 
C 1773 1818 1523 2682 1274 3546 
C 1178 3872 1190 3923 1658 3981 
L 1658 4160 
L 102 4160 
L 102 3981 
C 493 3930 589 3878 749 3354 
C 1101 2214 1459 1088 1798 -70 
L 1997 -70 
C 2323 966 2682 1997 3040 3123 
L 3053 3123 
C 3379 2195 3821 960 4173 -70 
L 4371 -70 
C 4896 1722 5280 2931 5427 3341 
C 5619 3872 5677 3923 6118 3981 
L 6118 4160 
z
" id="MinionPro-Regular-57" transform="scale(0.015625)"/>
        <path d="M 3283 0 
L 3283 166 
C 2906 198 2861 237 2861 659 
L 2861 1779 
C 2861 2547 2496 2880 1978 2874 
C 1632 2874 1286 2637 1062 2406 
L 1062 4557 
C 813 4480 429 4378 122 4333 
L 122 4186 
C 544 4147 557 4115 557 3712 
L 557 659 
C 557 237 506 198 122 166 
L 115 0 
L 1472 0 
L 1472 166 
C 1094 205 1062 250 1062 659 
L 1062 2182 
C 1242 2387 1485 2509 1728 2509 
C 2157 2509 2355 2246 2355 1722 
L 2355 659 
C 2355 243 2304 205 1933 166 
L 1933 0 
L 3283 0 
z
" id="MinionPro-Regular-68" transform="scale(0.015625)"/>
        <path d="M 1907 230 
L 1850 397 
C 1760 352 1613 288 1453 288 
C 1293 288 1082 384 1082 902 
L 1082 2547 
L 1766 2547 
C 1843 2592 1862 2733 1805 2797 
L 1082 2797 
L 1082 3674 
L 992 3686 
L 576 3264 
L 576 2797 
L 282 2797 
L 109 2611 
L 134 2547 
L 576 2547 
L 576 685 
C 576 179 800 -77 1203 -77 
C 1261 -77 1363 -51 1472 6 
L 1907 230 
z
" id="MinionPro-Regular-74" transform="scale(0.015625)"/>
       </defs>
       <use xlink:href="#MinionPro-Regular-57"/>
       <use x="97.099991" xlink:href="#MinionPro-Regular-68"/>
       <use x="150.499985" xlink:href="#MinionPro-Regular-69"/>
       <use x="177.299973" xlink:href="#MinionPro-Regular-74"/>
       <use x="207.799957" xlink:href="#MinionPro-Regular-65"/>
       <use x="250.299942" xlink:href="#MinionPro-Regular-20"/>
       <use x="272.999939" xlink:href="#MinionPro-Regular-4e"/>
       <use x="347.299927" xlink:href="#MinionPro-Regular-69"/>
       <use x="374.099915" xlink:href="#MinionPro-Regular-6c"/>
       <use x="399.399902" xlink:href="#MinionPro-Regular-65"/>
       <use x="441.899887" xlink:href="#MinionPro-Regular-20"/>
       <use x="464.599884" xlink:href="#MinionPro-Regular-4d"/>
       <use x="553.699875" xlink:href="#MinionPro-Regular-65"/>
       <use x="596.19986" xlink:href="#MinionPro-Regular-61"/>
       <use x="640.099854" xlink:href="#MinionPro-Regular-6e"/>
      </g>
     </g>
    </g>
   </g>
   <g id="matplotlib.axis_4"/>
   <g id="line2d_19">
    <path clip-path="url(#p4ad3015638)" d="M 40.998989 144.857364 
L 153.707598 144.857364 
" style="fill:none;stroke:#808080;stroke-linecap:square;"/>
   </g>
   <g id="line2d_20">
    <path clip-path="url(#p4ad3015638)" d="M 40.998989 545.387166 
L 153.707598 545.387166 
" style="fill:none;stroke:#808080;stroke-linecap:square;"/>
   </g>
   <g id="line2d_21">
    <path clip-path="url(#p4ad3015638)" d="M 97.353294 189.360675 
L 153.707598 189.360675 
" style="fill:none;stroke:#808080;stroke-linecap:square;stroke-width:0.5;"/>
   </g>
   <g id="line2d_22">
    <path clip-path="url(#p4ad3015638)" d="M 97.353294 233.863987 
L 153.707598 233.863987 
" style="fill:none;stroke:#808080;stroke-linecap:square;stroke-width:0.5;"/>
   </g>
   <g id="line2d_23">
    <path clip-path="url(#p4ad3015638)" d="M 40.998989 278.367298 
L 153.707598 278.367298 
" style="fill:none;stroke:#808080;stroke-linecap:square;"/>
   </g>
   <g id="line2d_24">
    <path clip-path="url(#p4ad3015638)" d="M 97.353294 322.870609 
L 153.707598 322.870609 
" style="fill:none;stroke:#808080;stroke-linecap:square;stroke-width:0.5;"/>
   </g>
   <g id="line2d_25">
    <path clip-path="url(#p4ad3015638)" d="M 97.353294 367.373921 
L 153.707598 367.373921 
" style="fill:none;stroke:#808080;stroke-linecap:square;stroke-width:0.5;"/>
   </g>
   <g id="line2d_26">
    <path clip-path="url(#p4ad3015638)" d="M 40.998989 411.877232 
L 153.707598 411.877232 
" style="fill:none;stroke:#808080;stroke-linecap:square;"/>
   </g>
   <g id="line2d_27">
    <path clip-path="url(#p4ad3015638)" d="M 97.353294 456.380543 
L 153.707598 456.380543 
" style="fill:none;stroke:#808080;stroke-linecap:square;stroke-width:0.5;"/>
   </g>
   <g id="line2d_28">
    <path clip-path="url(#p4ad3015638)" d="M 97.353294 500.883854 
L 153.707598 500.883854 
" style="fill:none;stroke:#808080;stroke-linecap:square;stroke-width:0.5;"/>
   </g>
   <g id="patch_8">
    <path d="M 40.998989 565.413656 
L 40.998989 124.830874 
" style="fill:none;stroke:#ffffff;stroke-linecap:square;stroke-linejoin:miter;"/>
   </g>
   <g id="patch_9">
    <path d="M 153.707598 565.413656 
L 153.707598 124.830874 
" style="fill:none;stroke:#ffffff;stroke-linecap:square;stroke-linejoin:miter;"/>
   </g>
   <g id="patch_10">
    <path d="M 40.998989 565.413656 
L 153.707598 565.413656 
" style="fill:none;stroke:#808080;stroke-linecap:square;stroke-linejoin:miter;stroke-width:0.8;"/>
   </g>
   <g id="patch_11">
    <path d="M 40.998989 124.830874 
L 153.707598 124.830874 
" style="fill:none;stroke:#000000;stroke-linecap:square;stroke-linejoin:miter;stroke-width:0.8;"/>
   </g>
   <g id="text_3">
    <!-- 0 -->
    <g transform="translate(66.296141 214.444519)scale(0.12 -0.12)">
     <defs>
      <path d="M 1536 4064 
C 576 4064 224 2925 224 1990 
C 224 979 570 -77 1536 -77 
C 2496 -77 2835 1062 2835 1997 
C 2835 2982 2496 4064 1542 4064 
L 1536 4064 
z
M 1530 3853 
C 2106 3853 2266 2906 2266 1997 
C 2266 1101 2112 141 1536 141 
C 979 141 794 1107 794 2003 
C 794 2893 947 3853 1523 3853 
L 1530 3853 
z
" id="MinionPro-Regular-30" transform="scale(0.015625)"/>
     </defs>
     <use xlink:href="#MinionPro-Regular-30"/>
    </g>
   </g>
   <g id="text_4">
    <!-- 0 -->
    <g transform="translate(122.650446 169.941207)scale(0.12 -0.12)">
     <use xlink:href="#MinionPro-Regular-30"/>
    </g>
   </g>
   <g id="text_5">
    <!-- 1 -->
    <g transform="translate(122.650446 214.444519)scale(0.12 -0.12)">
     <defs>
      <path d="M 2458 0 
L 2458 173 
C 1875 218 1837 269 1837 730 
L 1837 4064 
C 1485 3923 1107 3802 698 3731 
L 698 3584 
L 1005 3571 
C 1286 3558 1312 3526 1312 3194 
L 1312 730 
C 1312 269 1280 218 698 173 
L 698 0 
L 2458 0 
z
" id="MinionPro-Regular-31" transform="scale(0.015625)"/>
     </defs>
     <use xlink:href="#MinionPro-Regular-31"/>
    </g>
   </g>
   <g id="text_6">
    <!-- 2 -->
    <g transform="translate(122.650446 258.94783)scale(0.12 -0.12)">
     <defs>
      <path d="M 2637 896 
C 2445 493 2362 467 2016 467 
L 819 467 
L 1728 1421 
C 2317 2048 2573 2426 2573 2982 
C 2573 3654 2061 4064 1498 4064 
C 1126 4064 826 3898 634 3686 
L 269 3168 
L 410 3040 
C 576 3290 845 3635 1280 3635 
C 1754 3635 2035 3322 2035 2784 
C 2035 2234 1632 1709 1235 1235 
C 915 864 557 499 198 147 
L 198 0 
L 2592 0 
C 2669 288 2733 570 2816 838 
L 2637 896 
z
" id="MinionPro-Regular-32" transform="scale(0.015625)"/>
     </defs>
     <use xlink:href="#MinionPro-Regular-32"/>
    </g>
   </g>
   <g id="text_7">
    <!-- 1 -->
    <g transform="translate(66.296141 347.954452)scale(0.12 -0.12)">
     <use xlink:href="#MinionPro-Regular-31"/>
    </g>
   </g>
   <g id="text_8">
    <!-- 0 -->
    <g transform="translate(122.650446 303.451141)scale(0.12 -0.12)">
     <use xlink:href="#MinionPro-Regular-30"/>
    </g>
   </g>
   <g id="text_9">
    <!-- 1 -->
    <g transform="translate(122.650446 347.954452)scale(0.12 -0.12)">
     <use xlink:href="#MinionPro-Regular-31"/>
    </g>
   </g>
   <g id="text_10">
    <!-- 2 -->
    <g transform="translate(122.650446 392.457764)scale(0.12 -0.12)">
     <use xlink:href="#MinionPro-Regular-32"/>
    </g>
   </g>
   <g id="text_11">
    <!-- 2 -->
    <g transform="translate(66.296141 481.464386)scale(0.12 -0.12)">
     <use xlink:href="#MinionPro-Regular-32"/>
    </g>
   </g>
   <g id="text_12">
    <!-- 0 -->
    <g transform="translate(122.650446 436.961075)scale(0.12 -0.12)">
     <use xlink:href="#MinionPro-Regular-30"/>
    </g>
   </g>
   <g id="text_13">
    <!-- 1 -->
    <g transform="translate(122.650446 481.464386)scale(0.12 -0.12)">
     <use xlink:href="#MinionPro-Regular-31"/>
    </g>
   </g>
   <g id="text_14">
    <!-- 2 -->
    <g transform="translate(122.650446 525.967697)scale(0.12 -0.12)">
     <use xlink:href="#MinionPro-Regular-32"/>
    </g>
   </g>
  </g>
  <g id="axes_3">
   <g id="patch_12">
    <path d="M 155.555281 122.995113 
L 598.998989 122.995113 
L 598.998989 11.013656 
L 155.555281 11.013656 
z
" style="fill:#ffffff;"/>
   </g>
   <g id="matplotlib.axis_5"/>
   <g id="matplotlib.axis_6">
    <g id="ytick_1">
     <g id="line2d_29">
      <defs>
       <path d="M 0 0 
L 3.5 0 
" id="me56ed3537d" style="stroke:#000000;stroke-width:0.8;"/>
      </defs>
      <g>
       <use style="stroke:#000000;stroke-width:0.8;" x="598.998989" xlink:href="#me56ed3537d" y="39.00902"/>
      </g>
     </g>
     <g id="text_15">
      <!-- Demand Growth -->
      <g transform="translate(605.998989 43.281207)scale(0.12 -0.12)">
       <defs>
        <path d="M 269 4160 
L 269 3974 
C 762 3936 813 3910 813 3360 
L 813 794 
C 813 250 762 211 211 173 
L 211 0 
L 1728 0 
C 2515 0 3149 160 3629 531 
C 4122 902 4416 1472 4416 2240 
C 4416 2842 4192 3309 3878 3616 
C 3482 3994 2880 4160 2067 4160 
L 269 4160 
z
M 1363 3501 
C 1363 3750 1382 3821 1446 3866 
C 1510 3910 1677 3942 1946 3942 
C 2374 3942 2746 3866 3034 3680 
C 3546 3379 3789 2810 3789 2150 
C 3789 1126 3238 230 2042 230 
C 1574 230 1363 352 1363 838 
L 1363 3501 
z
" id="MinionPro-Regular-44" transform="scale(0.015625)"/>
        <path d="M 5094 0 
L 5094 166 
C 4730 205 4678 230 4678 659 
L 4678 1894 
C 4678 2522 4365 2874 3866 2874 
C 3686 2874 3520 2797 3386 2707 
C 3226 2611 3040 2490 2854 2349 
C 2726 2682 2451 2874 2144 2874 
C 1939 2874 1786 2803 1619 2701 
C 1427 2579 1286 2464 1152 2374 
L 1152 2893 
C 870 2765 544 2682 262 2630 
L 262 2483 
C 634 2426 653 2394 653 1984 
L 653 659 
C 653 243 595 205 173 166 
L 173 0 
L 1523 0 
L 1523 166 
C 1210 205 1158 243 1158 659 
L 1158 2163 
C 1350 2323 1600 2496 1856 2496 
C 2246 2496 2413 2234 2413 1760 
L 2413 659 
C 2413 237 2355 205 1958 166 
L 1958 0 
L 3328 0 
L 3328 166 
C 2976 205 2918 243 2918 646 
L 2918 1894 
C 2918 2016 2912 2086 2899 2163 
C 3142 2368 3386 2496 3616 2496 
C 4019 2496 4179 2208 4179 1754 
L 4179 685 
C 4179 230 4109 205 3731 166 
L 3731 0 
L 5094 0 
z
" id="MinionPro-Regular-6d" transform="scale(0.015625)"/>
        <path d="M 3309 326 
L 3104 346 
C 2867 371 2822 403 2822 736 
L 2822 4557 
C 2586 4474 2157 4378 1824 4333 
L 1824 4179 
C 2285 4147 2317 4128 2317 3706 
L 2317 2803 
C 2170 2854 1984 2874 1894 2874 
C 1024 2874 243 2176 243 1286 
C 243 390 915 -77 1427 -77 
C 1504 -77 1677 -38 1926 109 
L 2317 339 
L 2317 -77 
C 2688 58 3168 141 3309 166 
L 3309 326 
z
M 2317 544 
C 2163 429 1933 326 1702 326 
C 1293 326 826 698 826 1459 
C 826 2387 1363 2637 1658 2637 
C 1901 2637 2163 2534 2317 2310 
L 2317 544 
z
" id="MinionPro-Regular-64" transform="scale(0.015625)"/>
        <path d="M 4429 1926 
L 2803 1926 
L 2803 1754 
C 3430 1702 3475 1664 3475 1203 
L 3475 659 
C 3475 390 3398 314 3270 243 
C 3130 173 2931 128 2714 128 
C 1478 128 934 1203 934 2125 
C 934 3309 1651 4026 2630 4026 
C 3238 4026 3725 3814 3878 3034 
L 4058 3072 
C 4006 3494 3974 3846 3955 4070 
C 3750 4115 3258 4256 2726 4256 
C 1472 4256 282 3533 282 2048 
C 282 781 1222 -96 2630 -96 
C 3142 -96 3667 45 4064 141 
C 4026 314 4019 518 4019 742 
L 4019 1286 
C 4019 1664 4045 1696 4429 1754 
L 4429 1926 
z
" id="MinionPro-Regular-47" transform="scale(0.015625)"/>
        <path d="M 1158 2195 
L 1158 2893 
C 851 2758 570 2682 256 2630 
L 256 2490 
C 621 2438 653 2413 653 1990 
L 653 666 
C 653 243 608 205 211 166 
L 211 0 
L 1683 0 
L 1683 166 
C 1190 205 1158 243 1158 666 
L 1158 1837 
C 1299 2195 1504 2387 1670 2387 
C 1773 2387 1850 2349 1939 2253 
C 1978 2214 2035 2208 2112 2240 
C 2234 2298 2317 2426 2317 2554 
C 2317 2707 2163 2874 1946 2874 
C 1638 2874 1363 2515 1171 2195 
L 1158 2195 
z
" id="MinionPro-Regular-72" transform="scale(0.015625)"/>
        <path d="M 1638 2874 
C 1056 2874 237 2394 237 1338 
C 237 627 762 -77 1638 -77 
C 2272 -77 3027 416 3027 1446 
C 3027 2240 2432 2874 1645 2874 
L 1638 2874 
z
M 1574 2662 
C 2131 2662 2432 2054 2432 1306 
C 2432 429 2106 134 1709 134 
C 1184 134 832 736 832 1542 
C 832 2266 1178 2662 1568 2662 
L 1574 2662 
z
" id="MinionPro-Regular-6f" transform="scale(0.015625)"/>
        <path d="M 4454 2797 
L 3296 2797 
L 3296 2637 
C 3712 2579 3750 2541 3667 2208 
C 3552 1734 3373 1178 3232 736 
L 3219 736 
C 2950 1421 2688 2099 2451 2765 
L 2285 2765 
C 2016 2029 1779 1370 1542 755 
L 1530 755 
C 1370 1248 1210 1754 1062 2246 
C 966 2534 998 2573 1382 2637 
L 1382 2797 
L 58 2797 
L 58 2637 
C 365 2592 422 2547 538 2214 
C 800 1446 1043 691 1274 -70 
L 1459 -70 
C 1709 640 1971 1280 2214 1920 
C 2477 1248 2739 621 2995 -70 
L 3174 -70 
C 3469 800 3750 1651 3942 2157 
C 4077 2509 4134 2586 4454 2637 
L 4454 2797 
z
" id="MinionPro-Regular-77" transform="scale(0.015625)"/>
       </defs>
       <use xlink:href="#MinionPro-Regular-44"/>
       <use x="73.499985" xlink:href="#MinionPro-Regular-65"/>
       <use x="115.999969" xlink:href="#MinionPro-Regular-6d"/>
       <use x="197.899963" xlink:href="#MinionPro-Regular-61"/>
       <use x="241.799957" xlink:href="#MinionPro-Regular-6e"/>
       <use x="296.499954" xlink:href="#MinionPro-Regular-64"/>
       <use x="349.299942" xlink:href="#MinionPro-Regular-20"/>
       <use x="371.999939" xlink:href="#MinionPro-Regular-47"/>
       <use x="443.499924" xlink:href="#MinionPro-Regular-72"/>
       <use x="480.599915" xlink:href="#MinionPro-Regular-6f"/>
       <use x="531.599899" xlink:href="#MinionPro-Regular-77"/>
       <use x="600.099884" xlink:href="#MinionPro-Regular-74"/>
       <use x="630.599869" xlink:href="#MinionPro-Regular-68"/>
      </g>
     </g>
    </g>
    <g id="ytick_2">
     <g id="line2d_30">
      <g>
       <use style="stroke:#000000;stroke-width:0.8;" x="598.998989" xlink:href="#me56ed3537d" y="94.999748"/>
      </g>
     </g>
     <g id="text_16">
      <!-- Atbara Mean -->
      <g transform="translate(605.998989 99.271936)scale(0.12 -0.12)">
       <defs>
        <path d="M 4307 0 
L 4307 179 
C 3891 218 3808 275 3603 826 
C 3194 1939 2765 3155 2368 4256 
L 2170 4198 
L 845 838 
C 621 275 531 237 128 179 
L 128 0 
L 1517 0 
L 1517 179 
C 1037 224 979 288 1120 691 
C 1203 960 1299 1229 1402 1517 
L 2765 1517 
C 2906 1126 3034 781 3117 531 
C 3200 282 3142 230 2739 179 
L 2739 0 
L 4307 0 
z
M 2675 1792 
L 1498 1792 
C 1690 2317 1894 2874 2099 3424 
L 2112 3424 
L 2675 1792 
z
" id="MinionPro-Regular-41" transform="scale(0.015625)"/>
        <path d="M 973 2586 
L 973 4557 
C 736 4467 346 4371 45 4333 
L 45 4186 
C 454 4147 467 4109 467 3712 
L 467 154 
C 819 -13 1146 -77 1408 -77 
C 2266 -77 3014 589 3014 1530 
C 3014 2285 2438 2874 1754 2874 
C 1683 2874 1594 2854 1491 2810 
L 973 2586 
z
M 973 2394 
C 1088 2464 1293 2515 1472 2515 
C 2003 2515 2451 2093 2451 1363 
C 2451 621 2112 166 1581 166 
C 1242 173 1050 397 1011 525 
C 986 582 973 646 973 742 
L 973 2394 
z
" id="MinionPro-Regular-62" transform="scale(0.015625)"/>
       </defs>
       <use xlink:href="#MinionPro-Regular-41"/>
       <use x="69.099991" xlink:href="#MinionPro-Regular-74"/>
       <use x="99.599976" xlink:href="#MinionPro-Regular-62"/>
       <use x="150.399963" xlink:href="#MinionPro-Regular-61"/>
       <use x="194.299957" xlink:href="#MinionPro-Regular-72"/>
       <use x="231.399948" xlink:href="#MinionPro-Regular-61"/>
       <use x="275.299942" xlink:href="#MinionPro-Regular-20"/>
       <use x="297.999939" xlink:href="#MinionPro-Regular-4d"/>
       <use x="387.09993" xlink:href="#MinionPro-Regular-65"/>
       <use x="429.599915" xlink:href="#MinionPro-Regular-61"/>
       <use x="473.499908" xlink:href="#MinionPro-Regular-6e"/>
      </g>
     </g>
    </g>
   </g>
   <g id="line2d_31">
    <path clip-path="url(#p3f2c62c6dc)" d="M 175.711813 11.013656 
L 175.711813 122.995113 
" style="fill:none;stroke:#808080;stroke-linecap:square;"/>
   </g>
   <g id="line2d_32">
    <path clip-path="url(#p3f2c62c6dc)" d="M 578.842457 11.013656 
L 578.842457 122.995113 
" style="fill:none;stroke:#808080;stroke-linecap:square;"/>
   </g>
   <g id="line2d_33">
    <path clip-path="url(#p3f2c62c6dc)" d="M 220.504107 67.004384 
L 220.504107 122.995113 
" style="fill:none;stroke:#808080;stroke-linecap:square;stroke-width:0.5;"/>
   </g>
   <g id="line2d_34">
    <path clip-path="url(#p3f2c62c6dc)" d="M 265.2964 67.004384 
L 265.2964 122.995113 
" style="fill:none;stroke:#808080;stroke-linecap:square;stroke-width:0.5;"/>
   </g>
   <g id="line2d_35">
    <path clip-path="url(#p3f2c62c6dc)" d="M 310.088694 11.013656 
L 310.088694 122.995113 
" style="fill:none;stroke:#808080;stroke-linecap:square;"/>
   </g>
   <g id="line2d_36">
    <path clip-path="url(#p3f2c62c6dc)" d="M 354.880988 67.004384 
L 354.880988 122.995113 
" style="fill:none;stroke:#808080;stroke-linecap:square;stroke-width:0.5;"/>
   </g>
   <g id="line2d_37">
    <path clip-path="url(#p3f2c62c6dc)" d="M 399.673282 67.004384 
L 399.673282 122.995113 
" style="fill:none;stroke:#808080;stroke-linecap:square;stroke-width:0.5;"/>
   </g>
   <g id="line2d_38">
    <path clip-path="url(#p3f2c62c6dc)" d="M 444.465576 11.013656 
L 444.465576 122.995113 
" style="fill:none;stroke:#808080;stroke-linecap:square;"/>
   </g>
   <g id="line2d_39">
    <path clip-path="url(#p3f2c62c6dc)" d="M 489.257869 67.004384 
L 489.257869 122.995113 
" style="fill:none;stroke:#808080;stroke-linecap:square;stroke-width:0.5;"/>
   </g>
   <g id="line2d_40">
    <path clip-path="url(#p3f2c62c6dc)" d="M 534.050163 67.004384 
L 534.050163 122.995113 
" style="fill:none;stroke:#808080;stroke-linecap:square;stroke-width:0.5;"/>
   </g>
   <g id="patch_13">
    <path d="M 155.555281 122.995113 
L 155.555281 11.013656 
" style="fill:none;stroke:#000000;stroke-linecap:square;stroke-linejoin:miter;stroke-width:0.8;"/>
   </g>
   <g id="patch_14">
    <path d="M 598.998989 122.995113 
L 598.998989 11.013656 
" style="fill:none;stroke:#000000;stroke-linecap:square;stroke-linejoin:miter;stroke-width:0.8;"/>
   </g>
   <g id="patch_15">
    <path d="M 155.555281 122.995113 
L 598.998989 122.995113 
" style="fill:none;stroke:#ffffff;stroke-linecap:square;stroke-linejoin:miter;"/>
   </g>
   <g id="patch_16">
    <path d="M 155.555281 11.013656 
L 598.998989 11.013656 
" style="fill:none;stroke:#ffffff;stroke-linecap:square;stroke-linejoin:miter;"/>
   </g>
   <g id="text_17">
    <!-- 0 -->
    <g transform="translate(240.020253 41.841207)scale(0.12 -0.12)">
     <use xlink:href="#MinionPro-Regular-30"/>
    </g>
   </g>
   <g id="text_18">
    <!-- 0 -->
    <g transform="translate(195.22796 97.831936)scale(0.12 -0.12)">
     <use xlink:href="#MinionPro-Regular-30"/>
    </g>
   </g>
   <g id="text_19">
    <!-- 1 -->
    <g transform="translate(240.020253 97.831936)scale(0.12 -0.12)">
     <use xlink:href="#MinionPro-Regular-31"/>
    </g>
   </g>
   <g id="text_20">
    <!-- 2 -->
    <g transform="translate(284.812547 97.831936)scale(0.12 -0.12)">
     <use xlink:href="#MinionPro-Regular-32"/>
    </g>
   </g>
   <g id="text_21">
    <!-- 1 -->
    <g transform="translate(374.397135 41.841207)scale(0.12 -0.12)">
     <use xlink:href="#MinionPro-Regular-31"/>
    </g>
   </g>
   <g id="text_22">
    <!-- 0 -->
    <g transform="translate(329.604841 97.831936)scale(0.12 -0.12)">
     <use xlink:href="#MinionPro-Regular-30"/>
    </g>
   </g>
   <g id="text_23">
    <!-- 1 -->
    <g transform="translate(374.397135 97.831936)scale(0.12 -0.12)">
     <use xlink:href="#MinionPro-Regular-31"/>
    </g>
   </g>
   <g id="text_24">
    <!-- 2 -->
    <g transform="translate(419.189429 97.831936)scale(0.12 -0.12)">
     <use xlink:href="#MinionPro-Regular-32"/>
    </g>
   </g>
   <g id="text_25">
    <!-- 2 -->
    <g transform="translate(508.774016 41.841207)scale(0.12 -0.12)">
     <use xlink:href="#MinionPro-Regular-32"/>
    </g>
   </g>
   <g id="text_26">
    <!-- 0 -->
    <g transform="translate(463.981722 97.831936)scale(0.12 -0.12)">
     <use xlink:href="#MinionPro-Regular-30"/>
    </g>
   </g>
   <g id="text_27">
    <!-- 1 -->
    <g transform="translate(508.774016 97.831936)scale(0.12 -0.12)">
     <use xlink:href="#MinionPro-Regular-31"/>
    </g>
   </g>
   <g id="text_28">
    <!-- 2 -->
    <g transform="translate(553.56631 97.831936)scale(0.12 -0.12)">
     <use xlink:href="#MinionPro-Regular-32"/>
    </g>
   </g>
  </g>
  <g id="axes_4">
   <g id="legend_1">
    <g id="line2d_41">
     <path d="M 11.1984 14.817264 
L 31.1904 14.817264 
" style="fill:none;stroke:#ffffff;stroke-linecap:square;stroke-width:1.5;"/>
    </g>
    <g id="line2d_42">
     <defs>
      <path d="M 0 5 
C 1.326016 5 2.597899 4.473168 3.535534 3.535534 
C 4.473168 2.597899 5 1.326016 5 0 
C 5 -1.326016 4.473168 -2.597899 3.535534 -3.535534 
C 2.597899 -4.473168 1.326016 -5 0 -5 
C -1.326016 -5 -2.597899 -4.473168 -3.535534 -3.535534 
C -4.473168 -2.597899 -5 -1.326016 -5 0 
C -5 1.326016 -4.473168 2.597899 -3.535534 3.535534 
C -2.597899 4.473168 -1.326016 5 0 5 
z
" id="m665bf9fa36" style="stroke:#ffffff;"/>
     </defs>
     <g>
      <use style="fill:#6c0c86;stroke:#ffffff;" x="21.1944" xlink:href="#m665bf9fa36" y="14.817264"/>
     </g>
    </g>
    <g id="text_29">
     <!-- Best Egypt HAD -->
     <g transform="translate(39.1872 18.315864)scale(0.09996 -0.09996)">
      <defs>
       <path d="M 2048 2080 
C 2029 2240 1958 2618 1907 2765 
C 1773 2816 1600 2880 1338 2874 
C 749 2874 365 2496 365 2048 
C 365 1555 781 1344 1165 1165 
C 1485 1018 1670 864 1670 582 
C 1670 314 1453 134 1216 134 
C 832 134 544 506 429 928 
L 262 896 
C 262 666 320 230 365 141 
C 480 45 774 -77 1101 -77 
C 1613 -77 2157 224 2157 806 
C 2157 1248 1830 1478 1350 1677 
C 1062 1798 806 1952 806 2234 
C 806 2483 979 2675 1222 2675 
C 1536 2675 1760 2419 1882 2042 
L 2048 2080 
z
" id="MinionPro-Regular-73" transform="scale(0.015625)"/>
       <path d="M 3302 1037 
C 3219 781 3098 563 2989 435 
C 2848 269 2669 218 2182 218 
C 1862 218 1638 224 1517 301 
C 1402 384 1363 518 1363 819 
L 1363 2029 
L 1971 2029 
C 2528 2029 2573 1990 2656 1530 
L 2842 1530 
L 2842 2758 
L 2656 2758 
C 2573 2330 2541 2278 1965 2278 
L 1363 2278 
L 1363 3731 
C 1363 3923 1376 3936 1574 3936 
L 2061 3936 
C 2522 3936 2694 3891 2784 3757 
C 2867 3616 2931 3475 2989 3206 
L 3174 3238 
C 3155 3565 3123 4000 3123 4160 
L 269 4160 
L 269 3981 
C 768 3936 819 3917 819 3341 
L 819 794 
C 819 275 768 224 186 179 
L 186 0 
L 3270 0 
C 3328 198 3456 800 3494 1011 
L 3302 1037 
z
" id="MinionPro-Regular-45" transform="scale(0.015625)"/>
       <path d="M 2957 2803 
C 2726 2765 2400 2726 2086 2714 
C 1901 2816 1690 2874 1472 2874 
L 1466 2874 
C 979 2874 326 2541 326 1811 
C 326 1376 602 1075 890 954 
C 787 826 582 659 326 563 
C 320 499 339 390 397 294 
C 480 160 640 13 870 -58 
C 717 -173 467 -378 339 -506 
C 243 -602 186 -723 186 -864 
C 192 -1229 582 -1645 1293 -1645 
C 2144 -1645 2893 -1024 2893 -378 
C 2893 250 2368 378 1971 378 
C 1760 378 1530 371 1299 371 
C 1011 371 896 493 896 621 
C 896 710 998 826 1088 883 
C 1190 870 1306 851 1414 851 
C 1958 851 2534 1184 2534 1875 
C 2534 2106 2464 2304 2342 2445 
L 2707 2426 
C 2810 2477 2938 2650 2995 2752 
L 2957 2803 
z
M 1408 2682 
C 1773 2682 2010 2323 2010 1818 
C 2010 1312 1760 1062 1478 1056 
C 1120 1056 877 1414 877 1914 
C 877 2413 1126 2682 1402 2682 
L 1408 2682 
z
M 1549 -70 
C 1818 -70 2003 -90 2163 -154 
C 2349 -230 2458 -390 2458 -608 
C 2458 -1005 2144 -1318 1536 -1318 
C 1062 -1318 691 -1056 691 -710 
C 691 -525 819 -346 986 -211 
C 1101 -109 1242 -70 1542 -70 
L 1549 -70 
z
" id="MinionPro-Regular-67" transform="scale(0.015625)"/>
       <path d="M 3059 2797 
L 1901 2797 
L 1901 2637 
C 2266 2586 2310 2515 2234 2272 
C 2099 1869 1824 1114 1645 678 
L 1062 2285 
C 979 2522 1011 2586 1306 2637 
L 1306 2797 
L 6 2797 
L 6 2637 
C 358 2586 422 2502 557 2150 
C 749 1696 1037 922 1293 192 
C 1331 83 1331 0 1299 -96 
C 1274 -179 1222 -314 1101 -538 
C 954 -826 826 -979 627 -1107 
C 518 -1178 461 -1235 461 -1338 
C 461 -1491 646 -1645 826 -1645 
C 915 -1645 992 -1613 1030 -1491 
C 1120 -1146 1261 -781 1690 243 
C 2131 1299 2330 1830 2490 2170 
C 2662 2534 2720 2586 3059 2637 
L 3059 2797 
z
" id="MinionPro-Regular-79" transform="scale(0.015625)"/>
       <path d="M 1082 2432 
L 1082 2938 
C 781 2816 422 2707 154 2662 
L 154 2509 
C 550 2458 576 2445 576 2029 
L 576 -864 
C 576 -1286 518 -1325 109 -1363 
L 109 -1536 
L 1626 -1536 
L 1626 -1363 
C 1126 -1318 1082 -1286 1082 -800 
L 1082 38 
C 1165 -6 1338 -70 1523 -77 
C 2355 77 3117 698 3117 1664 
C 3117 2298 2694 2874 1984 2874 
C 1907 2874 1786 2842 1670 2778 
L 1082 2432 
z
M 1082 2221 
C 1254 2349 1517 2490 1722 2490 
C 2189 2490 2579 2106 2579 1421 
C 2579 698 2221 237 1683 237 
C 1466 237 1222 339 1082 486 
L 1082 2221 
z
" id="MinionPro-Regular-70" transform="scale(0.015625)"/>
       <path d="M 4666 4160 
L 2995 4160 
L 2995 3981 
C 3494 3936 3546 3904 3546 3373 
L 3546 2336 
L 1363 2336 
L 1363 3373 
C 1363 3904 1414 3936 1901 3981 
L 1901 4160 
L 243 4160 
L 243 3981 
C 768 3936 819 3910 819 3373 
L 819 787 
C 819 250 768 218 256 179 
L 256 0 
L 1939 0 
L 1939 179 
C 1414 218 1363 256 1363 787 
L 1363 2067 
L 3546 2067 
L 3546 787 
C 3546 250 3488 218 2944 179 
L 2944 0 
L 4659 0 
L 4659 179 
C 4141 218 4090 250 4090 787 
L 4090 3373 
C 4090 3904 4141 3936 4666 3981 
L 4666 4160 
z
" id="MinionPro-Regular-48" transform="scale(0.015625)"/>
      </defs>
      <use xlink:href="#MinionPro-Regular-42"/>
      <use x="58.799988" xlink:href="#MinionPro-Regular-65"/>
      <use x="101.299973" xlink:href="#MinionPro-Regular-73"/>
      <use x="137.999969" xlink:href="#MinionPro-Regular-74"/>
      <use x="168.499954" xlink:href="#MinionPro-Regular-20"/>
      <use x="191.199951" xlink:href="#MinionPro-Regular-45"/>
      <use x="247.999939" xlink:href="#MinionPro-Regular-67"/>
      <use x="294.799927" xlink:href="#MinionPro-Regular-79"/>
      <use x="340.699921" xlink:href="#MinionPro-Regular-70"/>
      <use x="393.099915" xlink:href="#MinionPro-Regular-74"/>
      <use x="423.599899" xlink:href="#MinionPro-Regular-20"/>
      <use x="446.299896" xlink:href="#MinionPro-Regular-48"/>
      <use x="522.899887" xlink:href="#MinionPro-Regular-41"/>
      <use x="591.999878" xlink:href="#MinionPro-Regular-44"/>
     </g>
    </g>
    <g id="line2d_43">
     <path d="M 11.1984 36.499213 
L 31.1904 36.499213 
" style="fill:none;stroke:#ffffff;stroke-linecap:square;stroke-width:1.5;"/>
    </g>
    <g id="line2d_44">
     <defs>
      <path d="M 0 5 
C 1.326016 5 2.597899 4.473168 3.535534 3.535534 
C 4.473168 2.597899 5 1.326016 5 0 
C 5 -1.326016 4.473168 -2.597899 3.535534 -3.535534 
C 2.597899 -4.473168 1.326016 -5 0 -5 
C -1.326016 -5 -2.597899 -4.473168 -3.535534 -3.535534 
C -4.473168 -2.597899 -5 -1.326016 -5 0 
C -5 1.326016 -4.473168 2.597899 -3.535534 3.535534 
C -2.597899 4.473168 -1.326016 5 0 5 
z
" id="mc33a361223" style="stroke:#ffffff;"/>
     </defs>
     <g>
      <use style="fill:#41ab5d;stroke:#ffffff;" x="21.1944" xlink:href="#mc33a361223" y="36.499213"/>
     </g>
    </g>
    <g id="text_30">
     <!-- Best Ethiopia Hydropower -->
     <g transform="translate(39.1872 39.997813)scale(0.09996 -0.09996)">
      <use xlink:href="#MinionPro-Regular-42"/>
      <use x="58.799988" xlink:href="#MinionPro-Regular-65"/>
      <use x="101.299973" xlink:href="#MinionPro-Regular-73"/>
      <use x="137.999969" xlink:href="#MinionPro-Regular-74"/>
      <use x="168.499954" xlink:href="#MinionPro-Regular-20"/>
      <use x="191.199951" xlink:href="#MinionPro-Regular-45"/>
      <use x="247.999939" xlink:href="#MinionPro-Regular-74"/>
      <use x="278.499924" xlink:href="#MinionPro-Regular-68"/>
      <use x="331.899918" xlink:href="#MinionPro-Regular-69"/>
      <use x="358.699905" xlink:href="#MinionPro-Regular-6f"/>
      <use x="409.69989" xlink:href="#MinionPro-Regular-70"/>
      <use x="462.099884" xlink:href="#MinionPro-Regular-69"/>
      <use x="488.899872" xlink:href="#MinionPro-Regular-61"/>
      <use x="532.799866" xlink:href="#MinionPro-Regular-20"/>
      <use x="555.499863" xlink:href="#MinionPro-Regular-48"/>
      <use x="632.099854" xlink:href="#MinionPro-Regular-79"/>
      <use x="677.999847" xlink:href="#MinionPro-Regular-64"/>
      <use x="730.799835" xlink:href="#MinionPro-Regular-72"/>
      <use x="767.899826" xlink:href="#MinionPro-Regular-6f"/>
      <use x="818.899811" xlink:href="#MinionPro-Regular-70"/>
      <use x="871.299805" xlink:href="#MinionPro-Regular-6f"/>
      <use x="922.299789" xlink:href="#MinionPro-Regular-77"/>
      <use x="990.799774" xlink:href="#MinionPro-Regular-65"/>
      <use x="1033.299759" xlink:href="#MinionPro-Regular-72"/>
     </g>
    </g>
    <g id="line2d_45">
     <path d="M 11.1984 58.181162 
L 31.1904 58.181162 
" style="fill:none;stroke:#ffffff;stroke-linecap:square;stroke-width:1.5;"/>
    </g>
    <g id="line2d_46">
     <defs>
      <path d="M 0 5 
C 1.326016 5 2.597899 4.473168 3.535534 3.535534 
C 4.473168 2.597899 5 1.326016 5 0 
C 5 -1.326016 4.473168 -2.597899 3.535534 -3.535534 
C 2.597899 -4.473168 1.326016 -5 0 -5 
C -1.326016 -5 -2.597899 -4.473168 -3.535534 -3.535534 
C -4.473168 -2.597899 -5 -1.326016 -5 0 
C -5 1.326016 -4.473168 2.597899 -3.535534 3.535534 
C -2.597899 4.473168 -1.326016 5 0 5 
z
" id="m30e9e57aeb" style="stroke:#ffffff;"/>
     </defs>
     <g>
      <use style="fill:#fdaa09;stroke:#ffffff;" x="21.1944" xlink:href="#m30e9e57aeb" y="58.181162"/>
     </g>
    </g>
    <g id="text_31">
     <!-- Best Egypt Irr. -->
     <g transform="translate(39.1872 61.679762)scale(0.09996 -0.09996)">
      <defs>
       <path d="M 1939 0 
L 1939 179 
C 1414 218 1363 250 1363 800 
L 1363 3360 
C 1363 3904 1414 3942 1939 3981 
L 1939 4160 
L 243 4160 
L 243 3981 
C 768 3942 819 3904 819 3360 
L 819 800 
C 819 256 768 218 243 179 
L 243 0 
L 1939 0 
z
" id="MinionPro-Regular-49" transform="scale(0.015625)"/>
       <path d="M 730 -77 
C 934 -77 1088 70 1088 294 
C 1088 499 934 659 730 659 
C 525 659 371 499 371 294 
C 371 70 525 -77 723 -77 
L 730 -77 
z
" id="MinionPro-Regular-2e" transform="scale(0.015625)"/>
      </defs>
      <use xlink:href="#MinionPro-Regular-42"/>
      <use x="58.799988" xlink:href="#MinionPro-Regular-65"/>
      <use x="101.299973" xlink:href="#MinionPro-Regular-73"/>
      <use x="137.999969" xlink:href="#MinionPro-Regular-74"/>
      <use x="168.499954" xlink:href="#MinionPro-Regular-20"/>
      <use x="191.199951" xlink:href="#MinionPro-Regular-45"/>
      <use x="247.999939" xlink:href="#MinionPro-Regular-67"/>
      <use x="294.799927" xlink:href="#MinionPro-Regular-79"/>
      <use x="340.699921" xlink:href="#MinionPro-Regular-70"/>
      <use x="393.099915" xlink:href="#MinionPro-Regular-74"/>
      <use x="423.599899" xlink:href="#MinionPro-Regular-20"/>
      <use x="446.299896" xlink:href="#MinionPro-Regular-49"/>
      <use x="480.399887" xlink:href="#MinionPro-Regular-72"/>
      <use x="517.499878" xlink:href="#MinionPro-Regular-72"/>
      <use x="554.599869" xlink:href="#MinionPro-Regular-2e"/>
     </g>
    </g>
    <g id="line2d_47">
     <path d="M 11.1984 79.863111 
L 31.1904 79.863111 
" style="fill:none;stroke:#ffffff;stroke-linecap:square;stroke-width:1.5;"/>
    </g>
    <g id="line2d_48">
     <defs>
      <path d="M 0 11.18034 
C 2.965061 11.18034 5.80908 10.002309 7.905694 7.905694 
C 10.002309 5.80908 11.18034 2.965061 11.18034 0 
C 11.18034 -2.965061 10.002309 -5.80908 7.905694 -7.905694 
C 5.80908 -10.002309 2.965061 -11.18034 0 -11.18034 
C -2.965061 -11.18034 -5.80908 -10.002309 -7.905694 -7.905694 
C -10.002309 -5.80908 -11.18034 -2.965061 -11.18034 0 
C -11.18034 2.965061 -10.002309 5.80908 -7.905694 7.905694 
C -5.80908 10.002309 -2.965061 11.18034 0 11.18034 
z
" id="md078584b55" style="stroke:#ffffff;"/>
     </defs>
     <g>
      <use style="stroke:#ffffff;" x="21.1944" xlink:href="#md078584b55" y="79.863111"/>
     </g>
    </g>
    <g id="text_32">
     <!-- 0.78 % -->
     <g transform="translate(39.1872 83.361711)scale(0.09996 -0.09996)">
      <defs>
       <path d="M 2861 3987 
L 416 3987 
C 390 3712 358 3392 301 3040 
L 486 3040 
C 640 3462 678 3520 1101 3520 
L 2483 3520 
C 1978 2406 1254 1088 582 -6 
L 627 -77 
L 1101 -13 
C 1715 1306 2310 2611 2912 3910 
L 2861 3987 
z
" id="MinionPro-Regular-37" transform="scale(0.015625)"/>
       <path d="M 1587 4064 
C 902 4064 448 3552 448 3014 
C 448 2566 723 2259 1139 2022 
C 922 1882 678 1709 576 1613 
C 435 1478 288 1299 288 1005 
C 288 320 832 -77 1517 -77 
C 2061 -77 2784 333 2784 1082 
C 2784 1638 2381 1946 1939 2195 
C 2227 2394 2400 2547 2445 2605 
C 2566 2746 2630 2931 2630 3117 
C 2630 3635 2195 4064 1594 4064 
L 1587 4064 
z
M 1523 3859 
C 1818 3859 2150 3622 2150 3085 
C 2150 2701 1978 2464 1760 2291 
C 1306 2515 928 2726 928 3200 
C 928 3526 1146 3859 1517 3859 
L 1523 3859 
z
M 1581 128 
C 1178 128 800 454 800 1043 
C 800 1395 1018 1715 1325 1920 
C 1818 1670 2272 1395 2272 915 
C 2272 422 1971 128 1587 128 
L 1581 128 
z
" id="MinionPro-Regular-38" transform="scale(0.015625)"/>
       <path d="M 3802 4026 
L 3590 4173 
L 1024 -58 
L 1216 -205 
L 3802 4026 
z
M 1242 4064 
C 589 4064 314 3418 314 2899 
C 314 2394 589 1741 1242 1741 
C 1894 1741 2163 2394 2163 2906 
C 2163 3418 1888 4064 1248 4064 
L 1242 4064 
z
M 1248 3872 
C 1645 3872 1702 3226 1702 2899 
C 1702 2592 1645 1933 1248 1933 
C 851 1933 781 2579 781 2906 
C 781 3232 851 3872 1242 3872 
L 1248 3872 
z
M 3622 2253 
C 2970 2253 2694 1600 2694 1082 
C 2694 576 2970 -77 3622 -77 
C 4269 -77 4544 576 4544 1088 
C 4544 1600 4269 2253 3629 2253 
L 3622 2253 
z
M 3622 2061 
C 4019 2061 4077 1414 4077 1088 
C 4077 774 4019 115 3629 115 
C 3232 115 3162 768 3162 1088 
C 3162 1427 3232 2061 3616 2061 
L 3622 2061 
z
" id="MinionPro-Regular-25" transform="scale(0.015625)"/>
      </defs>
      <use xlink:href="#MinionPro-Regular-30"/>
      <use x="47.999985" xlink:href="#MinionPro-Regular-2e"/>
      <use x="70.799973" xlink:href="#MinionPro-Regular-37"/>
      <use x="118.799957" xlink:href="#MinionPro-Regular-38"/>
      <use x="166.799942" xlink:href="#MinionPro-Regular-20"/>
      <use x="189.499939" xlink:href="#MinionPro-Regular-25"/>
     </g>
    </g>
    <g id="line2d_49">
     <path d="M 11.1984 101.374815 
L 31.1904 101.374815 
" style="fill:none;stroke:#ffffff;stroke-linecap:square;stroke-width:1.5;"/>
    </g>
    <g id="line2d_50"/>
    <g id="text_33">
     <!-- 0.0 % -->
     <g transform="translate(39.1872 104.873415)scale(0.09996 -0.09996)">
      <use xlink:href="#MinionPro-Regular-30"/>
      <use x="47.999985" xlink:href="#MinionPro-Regular-2e"/>
      <use x="70.799973" xlink:href="#MinionPro-Regular-30"/>
      <use x="118.799957" xlink:href="#MinionPro-Regular-20"/>
      <use x="141.499954" xlink:href="#MinionPro-Regular-25"/>
     </g>
    </g>
   </g>
  </g>
 </g>
 <defs>
  <clipPath id="p747da013c5">
   <rect height="440.582781" width="443.443709" x="155.555281" y="124.830874"/>
  </clipPath>
  <clipPath id="p4ad3015638">
   <rect height="440.582781" width="112.708609" x="40.998989" y="124.830874"/>
  </clipPath>
  <clipPath id="p3f2c62c6dc">
   <rect height="111.981457" width="443.443709" x="155.555281" y="11.013656"/>
  </clipPath>
 </defs>
</svg>
