<?xml version="1.0" encoding="utf-8" standalone="no"?>
<!DOCTYPE svg PUBLIC "-//W3C//DTD SVG 1.1//EN"
  "http://www.w3.org/Graphics/SVG/1.1/DTD/svg11.dtd">
<svg height="680.612592pt" version="1.1" viewBox="0 0 690.452328 680.612592" width="690.452328pt" xmlns="http://www.w3.org/2000/svg" xmlns:xlink="http://www.w3.org/1999/xlink">
 <metadata>
  <rdf:RDF xmlns:cc="http://creativecommons.org/ns#" xmlns:dc="http://purl.org/dc/elements/1.1/" xmlns:rdf="http://www.w3.org/1999/02/22-rdf-syntax-ns#">
   <cc:Work>
    <dc:type rdf:resource="http://purl.org/dc/dcmitype/StillImage"/>
    <dc:date>2022-07-30T01:32:09.870151</dc:date>
    <dc:format>image/svg+xml</dc:format>
    <dc:creator>
     <cc:Agent>
      <dc:title>Matplotlib v3.4.3, https://matplotlib.org/</dc:title>
     </cc:Agent>
    </dc:creator>
   </cc:Work>
  </rdf:RDF>
 </metadata>
 <defs>
  <style type="text/css">*{stroke-linecap:butt;stroke-linejoin:round;}</style>
 </defs>
 <g id="figure_1">
  <g id="patch_1">
   <path d="M 0 680.612592 
L 690.452328 680.612592 
L 690.452328 0 
L 0 0 
z
" style="fill:#ffffff;"/>
  </g>
  <g id="axes_1">
   <g id="patch_2">
    <path d="M 150.726744 583.036967 
L 594.170453 583.036967 
L 594.170453 142.454185 
L 150.726744 142.454185 
z
" style="fill:#ffffff;"/>
   </g>
   <g id="PathCollection_1">
    <defs>
     <path d="M 0 4.934372 
C 1.308611 4.934372 2.5638 4.414455 3.489128 3.489128 
C 4.414455 2.5638 4.934372 1.308611 4.934372 0 
C 4.934372 -1.308611 4.414455 -2.5638 3.489128 -3.489128 
C 2.5638 -4.414455 1.308611 -4.934372 0 -4.934372 
C -1.308611 -4.934372 -2.5638 -4.414455 -3.489128 -3.489128 
C -4.414455 -2.5638 -4.934372 -1.308611 -4.934372 0 
C -4.934372 1.308611 -4.414455 2.5638 -3.489128 3.489128 
C -2.5638 4.414455 -1.308611 4.934372 0 4.934372 
z
" id="me15ca63c53" style="stroke:#d2691e;"/>
    </defs>
    <g clip-path="url(#p0d672c6b03)">
     <use style="fill:#d2691e;stroke:#d2691e;" x="193.279423" xlink:href="#me15ca63c53" y="184.732331"/>
    </g>
   </g>
   <g id="PathCollection_2">
    <defs>
     <path d="M 0 4.526926 
C 1.200555 4.526926 2.352099 4.04994 3.20102 3.20102 
C 4.04994 2.352099 4.526926 1.200555 4.526926 0 
C 4.526926 -1.200555 4.04994 -2.352099 3.20102 -3.20102 
C 2.352099 -4.04994 1.200555 -4.526926 0 -4.526926 
C -1.200555 -4.526926 -2.352099 -4.04994 -3.20102 -3.20102 
C -4.04994 -2.352099 -4.526926 -1.200555 -4.526926 0 
C -4.526926 1.200555 -4.04994 2.352099 -3.20102 3.20102 
C -2.352099 4.04994 -1.200555 4.526926 0 4.526926 
z
" id="m45369f1250" style="stroke:#d2691e;"/>
    </defs>
    <g clip-path="url(#p0d672c6b03)">
     <use style="fill:#d2691e;stroke:#d2691e;" x="238.071717" xlink:href="#m45369f1250" y="184.732331"/>
    </g>
   </g>
   <g id="PathCollection_3">
    <defs>
     <path d="M 0 4.440302 
C 1.177582 4.440302 2.307092 3.972444 3.139768 3.139768 
C 3.972444 2.307092 4.440302 1.177582 4.440302 0 
C 4.440302 -1.177582 3.972444 -2.307092 3.139768 -3.139768 
C 2.307092 -3.972444 1.177582 -4.440302 0 -4.440302 
C -1.177582 -4.440302 -2.307092 -3.972444 -3.139768 -3.139768 
C -3.972444 -2.307092 -4.440302 -1.177582 -4.440302 0 
C -4.440302 1.177582 -3.972444 2.307092 -3.139768 3.139768 
C -2.307092 3.972444 -1.177582 4.440302 0 4.440302 
z
" id="m281dfb92c1" style="stroke:#d2691e;"/>
    </defs>
    <g clip-path="url(#p0d672c6b03)">
     <use style="fill:#d2691e;stroke:#d2691e;" x="282.864011" xlink:href="#m281dfb92c1" y="184.732331"/>
    </g>
   </g>
   <g id="PathCollection_4">
    <defs>
     <path d="M 0 4.252638 
C 1.127813 4.252638 2.209585 3.804553 3.007069 3.007069 
C 3.804553 2.209585 4.252638 1.127813 4.252638 0 
C 4.252638 -1.127813 3.804553 -2.209585 3.007069 -3.007069 
C 2.209585 -3.804553 1.127813 -4.252638 0 -4.252638 
C -1.127813 -4.252638 -2.209585 -3.804553 -3.007069 -3.007069 
C -3.804553 -2.209585 -4.252638 -1.127813 -4.252638 0 
C -4.252638 1.127813 -3.804553 2.209585 -3.007069 3.007069 
C -2.209585 3.804553 -1.127813 4.252638 0 4.252638 
z
" id="mcb2a2c36b1" style="stroke:#d2691e;"/>
    </defs>
    <g clip-path="url(#p0d672c6b03)">
     <use style="fill:#d2691e;stroke:#d2691e;" x="327.656304" xlink:href="#mcb2a2c36b1" y="184.732331"/>
    </g>
   </g>
   <g id="PathCollection_5">
    <defs>
     <path d="M 0 4.664513 
C 1.237043 4.664513 2.423587 4.17303 3.298309 3.298309 
C 4.17303 2.423587 4.664513 1.237043 4.664513 0 
C 4.664513 -1.237043 4.17303 -2.423587 3.298309 -3.298309 
C 2.423587 -4.17303 1.237043 -4.664513 0 -4.664513 
C -1.237043 -4.664513 -2.423587 -4.17303 -3.298309 -3.298309 
C -4.17303 -2.423587 -4.664513 -1.237043 -4.664513 0 
C -4.664513 1.237043 -4.17303 2.423587 -3.298309 3.298309 
C -2.423587 4.17303 -1.237043 4.664513 0 4.664513 
z
" id="mfd6f0e1038" style="stroke:#d2691e;"/>
    </defs>
    <g clip-path="url(#p0d672c6b03)">
     <use style="fill:#d2691e;stroke:#d2691e;" x="372.448598" xlink:href="#mfd6f0e1038" y="184.732331"/>
    </g>
   </g>
   <g id="PathCollection_6">
    <defs>
     <path d="M 0 4.031769 
C 1.069238 4.031769 2.094826 3.606956 2.850891 2.850891 
C 3.606956 2.094826 4.031769 1.069238 4.031769 0 
C 4.031769 -1.069238 3.606956 -2.094826 2.850891 -2.850891 
C 2.094826 -3.606956 1.069238 -4.031769 0 -4.031769 
C -1.069238 -4.031769 -2.094826 -3.606956 -2.850891 -2.850891 
C -3.606956 -2.094826 -4.031769 -1.069238 -4.031769 0 
C -4.031769 1.069238 -3.606956 2.094826 -2.850891 2.850891 
C -2.094826 3.606956 -1.069238 4.031769 0 4.031769 
z
" id="m462865e595" style="stroke:#d2691e;"/>
    </defs>
    <g clip-path="url(#p0d672c6b03)">
     <use style="fill:#d2691e;stroke:#d2691e;" x="417.240892" xlink:href="#m462865e595" y="184.732331"/>
    </g>
   </g>
   <g id="PathCollection_7">
    <defs>
     <path d="M 0 11.18034 
C 2.965061 11.18034 5.80908 10.002309 7.905694 7.905694 
C 10.002309 5.80908 11.18034 2.965061 11.18034 0 
C 11.18034 -2.965061 10.002309 -5.80908 7.905694 -7.905694 
C 5.80908 -10.002309 2.965061 -11.18034 0 -11.18034 
C -2.965061 -11.18034 -5.80908 -10.002309 -7.905694 -7.905694 
C -10.002309 -5.80908 -11.18034 -2.965061 -11.18034 0 
C -11.18034 2.965061 -10.002309 5.80908 -7.905694 7.905694 
C -5.80908 10.002309 -2.965061 11.18034 0 11.18034 
z
" id="mcdb2f50481" style="stroke:#da70d6;"/>
    </defs>
    <g clip-path="url(#p0d672c6b03)">
     <use style="fill:#da70d6;stroke:#da70d6;" x="462.033186" xlink:href="#mcdb2f50481" y="184.732331"/>
    </g>
   </g>
   <g id="PathCollection_8">
    <defs>
     <path d="M 0 3.827872 
C 1.015163 3.827872 1.988885 3.424543 2.706714 2.706714 
C 3.424543 1.988885 3.827872 1.015163 3.827872 0 
C 3.827872 -1.015163 3.424543 -1.988885 2.706714 -2.706714 
C 1.988885 -3.424543 1.015163 -3.827872 0 -3.827872 
C -1.015163 -3.827872 -1.988885 -3.424543 -2.706714 -2.706714 
C -3.424543 -1.988885 -3.827872 -1.015163 -3.827872 0 
C -3.827872 1.015163 -3.424543 1.988885 -2.706714 2.706714 
C -1.988885 3.424543 -1.015163 3.827872 0 3.827872 
z
" id="m7bce936320" style="stroke:#d2691e;"/>
    </defs>
    <g clip-path="url(#p0d672c6b03)">
     <use style="fill:#d2691e;stroke:#d2691e;" x="506.82548" xlink:href="#m7bce936320" y="184.732331"/>
    </g>
   </g>
   <g id="PathCollection_9">
    <defs>
     <path d="M 0 10.943968 
C 2.902374 10.943968 5.686265 9.790842 7.738554 7.738554 
C 9.790842 5.686265 10.943968 2.902374 10.943968 0 
C 10.943968 -2.902374 9.790842 -5.686265 7.738554 -7.738554 
C 5.686265 -9.790842 2.902374 -10.943968 0 -10.943968 
C -2.902374 -10.943968 -5.686265 -9.790842 -7.738554 -7.738554 
C -9.790842 -5.686265 -10.943968 -2.902374 -10.943968 0 
C -10.943968 2.902374 -9.790842 5.686265 -7.738554 7.738554 
C -5.686265 9.790842 -2.902374 10.943968 0 10.943968 
z
" id="m0c458c817f" style="stroke:#da70d6;"/>
    </defs>
    <g clip-path="url(#p0d672c6b03)">
     <use style="fill:#da70d6;stroke:#da70d6;" x="551.617773" xlink:href="#m0c458c817f" y="184.732331"/>
    </g>
   </g>
   <g id="PathCollection_10">
    <defs>
     <path d="M 0 4.354503 
C 1.154828 4.354503 2.262512 3.895685 3.079098 3.079098 
C 3.895685 2.262512 4.354503 1.154828 4.354503 0 
C 4.354503 -1.154828 3.895685 -2.262512 3.079098 -3.079098 
C 2.262512 -3.895685 1.154828 -4.354503 0 -4.354503 
C -1.154828 -4.354503 -2.262512 -3.895685 -3.079098 -3.079098 
C -3.895685 -2.262512 -4.354503 -1.154828 -4.354503 0 
C -4.354503 1.154828 -3.895685 2.262512 -3.079098 3.079098 
C -2.262512 3.895685 -1.154828 4.354503 0 4.354503 
z
" id="mdde8d33161" style="stroke:#d2691e;"/>
    </defs>
    <g clip-path="url(#p0d672c6b03)">
     <use style="fill:#d2691e;stroke:#d2691e;" x="193.279423" xlink:href="#mdde8d33161" y="229.235642"/>
    </g>
   </g>
   <g id="PathCollection_11">
    <defs>
     <path d="M 0 4.685406 
C 1.242584 4.685406 2.434442 4.191722 3.313082 3.313082 
C 4.191722 2.434442 4.685406 1.242584 4.685406 0 
C 4.685406 -1.242584 4.191722 -2.434442 3.313082 -3.313082 
C 2.434442 -4.191722 1.242584 -4.685406 0 -4.685406 
C -1.242584 -4.685406 -2.434442 -4.191722 -3.313082 -3.313082 
C -4.191722 -2.434442 -4.685406 -1.242584 -4.685406 0 
C -4.685406 1.242584 -4.191722 2.434442 -3.313082 3.313082 
C -2.434442 4.191722 -1.242584 4.685406 0 4.685406 
z
" id="mada4835f60" style="stroke:#d2691e;"/>
    </defs>
    <g clip-path="url(#p0d672c6b03)">
     <use style="fill:#d2691e;stroke:#d2691e;" x="238.071717" xlink:href="#mada4835f60" y="229.235642"/>
    </g>
   </g>
   <g id="PathCollection_12">
    <defs>
     <path d="M 0 4.051671 
C 1.074516 4.051671 2.105167 3.624762 2.864964 2.864964 
C 3.624762 2.105167 4.051671 1.074516 4.051671 0 
C 4.051671 -1.074516 3.624762 -2.105167 2.864964 -2.864964 
C 2.105167 -3.624762 1.074516 -4.051671 0 -4.051671 
C -1.074516 -4.051671 -2.105167 -3.624762 -2.864964 -2.864964 
C -3.624762 -2.105167 -4.051671 -1.074516 -4.051671 0 
C -4.051671 1.074516 -3.624762 2.105167 -2.864964 2.864964 
C -2.105167 3.624762 -1.074516 4.051671 0 4.051671 
z
" id="md172288ceb" style="stroke:#6c0c86;"/>
    </defs>
    <g clip-path="url(#p0d672c6b03)">
     <use style="fill:#6c0c86;stroke:#6c0c86;" x="282.864011" xlink:href="#md172288ceb" y="229.235642"/>
    </g>
   </g>
   <g id="PathCollection_13">
    <defs>
     <path d="M 0 4.973893 
C 1.319092 4.973893 2.584335 4.449812 3.517073 3.517073 
C 4.449812 2.584335 4.973893 1.319092 4.973893 0 
C 4.973893 -1.319092 4.449812 -2.584335 3.517073 -3.517073 
C 2.584335 -4.449812 1.319092 -4.973893 0 -4.973893 
C -1.319092 -4.973893 -2.584335 -4.449812 -3.517073 -3.517073 
C -4.449812 -2.584335 -4.973893 -1.319092 -4.973893 0 
C -4.973893 1.319092 -4.449812 2.584335 -3.517073 3.517073 
C -2.584335 4.449812 -1.319092 4.973893 0 4.973893 
z
" id="m37d57752fa" style="stroke:#d2691e;"/>
    </defs>
    <g clip-path="url(#p0d672c6b03)">
     <use style="fill:#d2691e;stroke:#d2691e;" x="327.656304" xlink:href="#m37d57752fa" y="229.235642"/>
    </g>
   </g>
   <g id="PathCollection_14">
    <defs>
     <path d="M 0 4.903333 
C 1.300379 4.903333 2.547673 4.386687 3.46718 3.46718 
C 4.386687 2.547673 4.903333 1.300379 4.903333 0 
C 4.903333 -1.300379 4.386687 -2.547673 3.46718 -3.46718 
C 2.547673 -4.386687 1.300379 -4.903333 0 -4.903333 
C -1.300379 -4.903333 -2.547673 -4.386687 -3.46718 -3.46718 
C -4.386687 -2.547673 -4.903333 -1.300379 -4.903333 0 
C -4.903333 1.300379 -4.386687 2.547673 -3.46718 3.46718 
C -2.547673 4.386687 -1.300379 4.903333 0 4.903333 
z
" id="md5b131e08d" style="stroke:#d2691e;"/>
    </defs>
    <g clip-path="url(#p0d672c6b03)">
     <use style="fill:#d2691e;stroke:#d2691e;" x="372.448598" xlink:href="#md5b131e08d" y="229.235642"/>
    </g>
   </g>
   <g id="PathCollection_15">
    <defs>
     <path d="M 0 3.862971 
C 1.024472 3.862971 2.007122 3.455944 2.731533 2.731533 
C 3.455944 2.007122 3.862971 1.024472 3.862971 0 
C 3.862971 -1.024472 3.455944 -2.007122 2.731533 -2.731533 
C 2.007122 -3.455944 1.024472 -3.862971 0 -3.862971 
C -1.024472 -3.862971 -2.007122 -3.455944 -2.731533 -2.731533 
C -3.455944 -2.007122 -3.862971 -1.024472 -3.862971 0 
C -3.862971 1.024472 -3.455944 2.007122 -2.731533 2.731533 
C -2.007122 3.455944 -1.024472 3.862971 0 3.862971 
z
" id="me351617686" style="stroke:#d2691e;"/>
    </defs>
    <g clip-path="url(#p0d672c6b03)">
     <use style="fill:#d2691e;stroke:#d2691e;" x="417.240892" xlink:href="#me351617686" y="229.235642"/>
    </g>
   </g>
   <g id="PathCollection_16">
    <defs>
     <path d="M 0 3.942595 
C 1.045588 3.942595 2.048493 3.527178 2.787836 2.787836 
C 3.527178 2.048493 3.942595 1.045588 3.942595 0 
C 3.942595 -1.045588 3.527178 -2.048493 2.787836 -2.787836 
C 2.048493 -3.527178 1.045588 -3.942595 0 -3.942595 
C -1.045588 -3.942595 -2.048493 -3.527178 -2.787836 -2.787836 
C -3.527178 -2.048493 -3.942595 -1.045588 -3.942595 0 
C -3.942595 1.045588 -3.527178 2.048493 -2.787836 2.787836 
C -2.048493 3.527178 -1.045588 3.942595 0 3.942595 
z
" id="m38d1ffcaf4" style="stroke:#d2691e;"/>
    </defs>
    <g clip-path="url(#p0d672c6b03)">
     <use style="fill:#d2691e;stroke:#d2691e;" x="462.033186" xlink:href="#m38d1ffcaf4" y="229.235642"/>
    </g>
   </g>
   <g id="PathCollection_17">
    <defs>
     <path d="M 0 3.460393 
C 0.917707 3.460393 1.79795 3.095784 2.446867 2.446867 
C 3.095784 1.79795 3.460393 0.917707 3.460393 0 
C 3.460393 -0.917707 3.095784 -1.79795 2.446867 -2.446867 
C 1.79795 -3.095784 0.917707 -3.460393 0 -3.460393 
C -0.917707 -3.460393 -1.79795 -3.095784 -2.446867 -2.446867 
C -3.095784 -1.79795 -3.460393 -0.917707 -3.460393 0 
C -3.460393 0.917707 -3.095784 1.79795 -2.446867 2.446867 
C -1.79795 3.095784 -0.917707 3.460393 0 3.460393 
z
" id="md7351400c0" style="stroke:#d2691e;"/>
    </defs>
    <g clip-path="url(#p0d672c6b03)">
     <use style="fill:#d2691e;stroke:#d2691e;" x="506.82548" xlink:href="#md7351400c0" y="229.235642"/>
    </g>
   </g>
   <g id="PathCollection_18">
    <defs>
     <path d="M 0 4.078178 
C 1.081545 4.078178 2.118939 3.648475 2.883707 2.883707 
C 3.648475 2.118939 4.078178 1.081545 4.078178 0 
C 4.078178 -1.081545 3.648475 -2.118939 2.883707 -2.883707 
C 2.118939 -3.648475 1.081545 -4.078178 0 -4.078178 
C -1.081545 -4.078178 -2.118939 -3.648475 -2.883707 -2.883707 
C -3.648475 -2.118939 -4.078178 -1.081545 -4.078178 0 
C -4.078178 1.081545 -3.648475 2.118939 -2.883707 2.883707 
C -2.118939 3.648475 -1.081545 4.078178 0 4.078178 
z
" id="mf2757ed895" style="stroke:#d2691e;"/>
    </defs>
    <g clip-path="url(#p0d672c6b03)">
     <use style="fill:#d2691e;stroke:#d2691e;" x="551.617773" xlink:href="#mf2757ed895" y="229.235642"/>
    </g>
   </g>
   <g id="PathCollection_19">
    <defs>
     <path d="M 0 3.266996 
C 0.866417 3.266996 1.697465 2.922764 2.310115 2.310115 
C 2.922764 1.697465 3.266996 0.866417 3.266996 0 
C 3.266996 -0.866417 2.922764 -1.697465 2.310115 -2.310115 
C 1.697465 -2.922764 0.866417 -3.266996 0 -3.266996 
C -0.866417 -3.266996 -1.697465 -2.922764 -2.310115 -2.310115 
C -2.922764 -1.697465 -3.266996 -0.866417 -3.266996 0 
C -3.266996 0.866417 -2.922764 1.697465 -2.310115 2.310115 
C -1.697465 2.922764 -0.866417 3.266996 0 3.266996 
z
" id="m537a9b54d7" style="stroke:#6c0c86;"/>
    </defs>
    <g clip-path="url(#p0d672c6b03)">
     <use style="fill:#6c0c86;stroke:#6c0c86;" x="193.279423" xlink:href="#m537a9b54d7" y="273.738954"/>
    </g>
   </g>
   <g id="PathCollection_20">
    <defs>
     <path d="M 0 4.245926 
C 1.126033 4.245926 2.206098 3.798548 3.002323 3.002323 
C 3.798548 2.206098 4.245926 1.126033 4.245926 0 
C 4.245926 -1.126033 3.798548 -2.206098 3.002323 -3.002323 
C 2.206098 -3.798548 1.126033 -4.245926 0 -4.245926 
C -1.126033 -4.245926 -2.206098 -3.798548 -3.002323 -3.002323 
C -3.798548 -2.206098 -4.245926 -1.126033 -4.245926 0 
C -4.245926 1.126033 -3.798548 2.206098 -3.002323 3.002323 
C -2.206098 3.798548 -1.126033 4.245926 0 4.245926 
z
" id="m6c00f55a46" style="stroke:#6c0c86;"/>
    </defs>
    <g clip-path="url(#p0d672c6b03)">
     <use style="fill:#6c0c86;stroke:#6c0c86;" x="238.071717" xlink:href="#m6c00f55a46" y="273.738954"/>
    </g>
   </g>
   <g id="PathCollection_21">
    <defs>
     <path d="M 0 4.158632 
C 1.102882 4.158632 2.160742 3.720452 2.940597 2.940597 
C 3.720452 2.160742 4.158632 1.102882 4.158632 0 
C 4.158632 -1.102882 3.720452 -2.160742 2.940597 -2.940597 
C 2.160742 -3.720452 1.102882 -4.158632 0 -4.158632 
C -1.102882 -4.158632 -2.160742 -3.720452 -2.940597 -2.940597 
C -3.720452 -2.160742 -4.158632 -1.102882 -4.158632 0 
C -4.158632 1.102882 -3.720452 2.160742 -2.940597 2.940597 
C -2.160742 3.720452 -1.102882 4.158632 0 4.158632 
z
" id="m22427d9a5e" style="stroke:#6c0c86;"/>
    </defs>
    <g clip-path="url(#p0d672c6b03)">
     <use style="fill:#6c0c86;stroke:#6c0c86;" x="282.864011" xlink:href="#m22427d9a5e" y="273.738954"/>
    </g>
   </g>
   <g id="PathCollection_22">
    <defs>
     <path d="M 0 5.503669 
C 1.45959 5.503669 2.859596 4.923768 3.891682 3.891682 
C 4.923768 2.859596 5.503669 1.45959 5.503669 0 
C 5.503669 -1.45959 4.923768 -2.859596 3.891682 -3.891682 
C 2.859596 -4.923768 1.45959 -5.503669 0 -5.503669 
C -1.45959 -5.503669 -2.859596 -4.923768 -3.891682 -3.891682 
C -4.923768 -2.859596 -5.503669 -1.45959 -5.503669 0 
C -5.503669 1.45959 -4.923768 2.859596 -3.891682 3.891682 
C -2.859596 4.923768 -1.45959 5.503669 0 5.503669 
z
" id="m9446153fee" style="stroke:#d2691e;"/>
    </defs>
    <g clip-path="url(#p0d672c6b03)">
     <use style="fill:#d2691e;stroke:#d2691e;" x="327.656304" xlink:href="#m9446153fee" y="273.738954"/>
    </g>
   </g>
   <g id="PathCollection_23">
    <defs>
     <path d="M 0 7.260556 
C 1.925522 7.260556 3.772439 6.495538 5.133988 5.133988 
C 6.495538 3.772439 7.260556 1.925522 7.260556 0 
C 7.260556 -1.925522 6.495538 -3.772439 5.133988 -5.133988 
C 3.772439 -6.495538 1.925522 -7.260556 0 -7.260556 
C -1.925522 -7.260556 -3.772439 -6.495538 -5.133988 -5.133988 
C -6.495538 -3.772439 -7.260556 -1.925522 -7.260556 0 
C -7.260556 1.925522 -6.495538 3.772439 -5.133988 5.133988 
C -3.772439 6.495538 -1.925522 7.260556 0 7.260556 
z
" id="m0660dcd6ff" style="stroke:#6c0c86;"/>
    </defs>
    <g clip-path="url(#p0d672c6b03)">
     <use style="fill:#6c0c86;stroke:#6c0c86;" x="372.448598" xlink:href="#m0660dcd6ff" y="273.738954"/>
    </g>
   </g>
   <g id="PathCollection_24">
    <defs>
     <path d="M 0 7.738586 
C 2.052297 7.738586 4.020814 6.9232 5.472007 5.472007 
C 6.9232 4.020814 7.738586 2.052297 7.738586 0 
C 7.738586 -2.052297 6.9232 -4.020814 5.472007 -5.472007 
C 4.020814 -6.9232 2.052297 -7.738586 0 -7.738586 
C -2.052297 -7.738586 -4.020814 -6.9232 -5.472007 -5.472007 
C -6.9232 -4.020814 -7.738586 -2.052297 -7.738586 0 
C -7.738586 2.052297 -6.9232 4.020814 -5.472007 5.472007 
C -4.020814 6.9232 -2.052297 7.738586 0 7.738586 
z
" id="m4230a1526d" style="stroke:#6c0c86;"/>
    </defs>
    <g clip-path="url(#p0d672c6b03)">
     <use style="fill:#6c0c86;stroke:#6c0c86;" x="417.240892" xlink:href="#m4230a1526d" y="273.738954"/>
    </g>
   </g>
   <g id="PathCollection_25">
    <defs>
     <path d="M 0 7.299309 
C 1.935799 7.299309 3.792574 6.530208 5.161391 5.161391 
C 6.530208 3.792574 7.299309 1.935799 7.299309 0 
C 7.299309 -1.935799 6.530208 -3.792574 5.161391 -5.161391 
C 3.792574 -6.530208 1.935799 -7.299309 0 -7.299309 
C -1.935799 -7.299309 -3.792574 -6.530208 -5.161391 -5.161391 
C -6.530208 -3.792574 -7.299309 -1.935799 -7.299309 0 
C -7.299309 1.935799 -6.530208 3.792574 -5.161391 5.161391 
C -3.792574 6.530208 -1.935799 7.299309 0 7.299309 
z
" id="m526a1414f6" style="stroke:#6c0c86;"/>
    </defs>
    <g clip-path="url(#p0d672c6b03)">
     <use style="fill:#6c0c86;stroke:#6c0c86;" x="462.033186" xlink:href="#m526a1414f6" y="273.738954"/>
    </g>
   </g>
   <g id="PathCollection_26">
    <defs>
     <path d="M 0 9.087188 
C 2.40995 9.087188 4.72152 8.129704 6.425612 6.425612 
C 8.129704 4.72152 9.087188 2.40995 9.087188 0 
C 9.087188 -2.40995 8.129704 -4.72152 6.425612 -6.425612 
C 4.72152 -8.129704 2.40995 -9.087188 0 -9.087188 
C -2.40995 -9.087188 -4.72152 -8.129704 -6.425612 -6.425612 
C -8.129704 -4.72152 -9.087188 -2.40995 -9.087188 0 
C -9.087188 2.40995 -8.129704 4.72152 -6.425612 6.425612 
C -4.72152 8.129704 -2.40995 9.087188 0 9.087188 
z
" id="ma6b174aaa5" style="stroke:#6c0c86;"/>
    </defs>
    <g clip-path="url(#p0d672c6b03)">
     <use style="fill:#6c0c86;stroke:#6c0c86;" x="506.82548" xlink:href="#ma6b174aaa5" y="273.738954"/>
    </g>
   </g>
   <g id="PathCollection_27">
    <defs>
     <path d="M 0 9.998736 
C 2.651696 9.998736 5.195142 8.945206 7.070174 7.070174 
C 8.945206 5.195142 9.998736 2.651696 9.998736 0 
C 9.998736 -2.651696 8.945206 -5.195142 7.070174 -7.070174 
C 5.195142 -8.945206 2.651696 -9.998736 0 -9.998736 
C -2.651696 -9.998736 -5.195142 -8.945206 -7.070174 -7.070174 
C -8.945206 -5.195142 -9.998736 -2.651696 -9.998736 0 
C -9.998736 2.651696 -8.945206 5.195142 -7.070174 7.070174 
C -5.195142 8.945206 -2.651696 9.998736 0 9.998736 
z
" id="m6cabd230a6" style="stroke:#6c0c86;"/>
    </defs>
    <g clip-path="url(#p0d672c6b03)">
     <use style="fill:#6c0c86;stroke:#6c0c86;" x="551.617773" xlink:href="#m6cabd230a6" y="273.738954"/>
    </g>
   </g>
   <g id="PathCollection_28">
    <defs>
     <path d="M 0 0 
C 0 0 0 0 0 0 
C 0 0 0 0 0 0 
C 0 0 0 0 0 0 
C 0 0 0 0 0 0 
C 0 0 0 0 0 0 
C 0 0 0 0 0 0 
C 0 0 0 0 0 0 
C 0 0 0 0 0 0 
z
" id="m7eda2979d3" style="stroke:#6c0c86;"/>
    </defs>
    <g clip-path="url(#p0d672c6b03)">
     <use style="fill:#6c0c86;stroke:#6c0c86;" x="193.279423" xlink:href="#m7eda2979d3" y="318.242265"/>
    </g>
   </g>
   <g id="PathCollection_29">
    <g clip-path="url(#p0d672c6b03)">
     <use style="fill:#6c0c86;stroke:#6c0c86;" x="238.071717" xlink:href="#m7eda2979d3" y="318.242265"/>
    </g>
   </g>
   <g id="PathCollection_30">
    <g clip-path="url(#p0d672c6b03)">
     <use style="fill:#6c0c86;stroke:#6c0c86;" x="282.864011" xlink:href="#m7eda2979d3" y="318.242265"/>
    </g>
   </g>
   <g id="PathCollection_31">
    <defs>
     <path d="M 0 3.912748 
C 1.037673 3.912748 2.032985 3.500476 2.766731 2.766731 
C 3.500476 2.032985 3.912748 1.037673 3.912748 0 
C 3.912748 -1.037673 3.500476 -2.032985 2.766731 -2.766731 
C 2.032985 -3.500476 1.037673 -3.912748 0 -3.912748 
C -1.037673 -3.912748 -2.032985 -3.500476 -2.766731 -2.766731 
C -3.500476 -2.032985 -3.912748 -1.037673 -3.912748 0 
C -3.912748 1.037673 -3.500476 2.032985 -2.766731 2.766731 
C -2.032985 3.500476 -1.037673 3.912748 0 3.912748 
z
" id="mb16e044e62" style="stroke:#d2691e;"/>
    </defs>
    <g clip-path="url(#p0d672c6b03)">
     <use style="fill:#d2691e;stroke:#d2691e;" x="327.656304" xlink:href="#mb16e044e62" y="318.242265"/>
    </g>
   </g>
   <g id="PathCollection_32">
    <defs>
     <path d="M 0 4.296282 
C 1.139387 4.296282 2.232262 3.843599 3.03793 3.03793 
C 3.843599 2.232262 4.296282 1.139387 4.296282 0 
C 4.296282 -1.139387 3.843599 -2.232262 3.03793 -3.03793 
C 2.232262 -3.843599 1.139387 -4.296282 0 -4.296282 
C -1.139387 -4.296282 -2.232262 -3.843599 -3.03793 -3.03793 
C -3.843599 -2.232262 -4.296282 -1.139387 -4.296282 0 
C -4.296282 1.139387 -3.843599 2.232262 -3.03793 3.03793 
C -2.232262 3.843599 -1.139387 4.296282 0 4.296282 
z
" id="mfaf19c434b" style="stroke:#d2691e;"/>
    </defs>
    <g clip-path="url(#p0d672c6b03)">
     <use style="fill:#d2691e;stroke:#d2691e;" x="372.448598" xlink:href="#mfaf19c434b" y="318.242265"/>
    </g>
   </g>
   <g id="PathCollection_33">
    <defs>
     <path d="M 0 4.549235 
C 1.206471 4.549235 2.363691 4.069899 3.216795 3.216795 
C 4.069899 2.363691 4.549235 1.206471 4.549235 0 
C 4.549235 -1.206471 4.069899 -2.363691 3.216795 -3.216795 
C 2.363691 -4.069899 1.206471 -4.549235 0 -4.549235 
C -1.206471 -4.549235 -2.363691 -4.069899 -3.216795 -3.216795 
C -4.069899 -2.363691 -4.549235 -1.206471 -4.549235 0 
C -4.549235 1.206471 -4.069899 2.363691 -3.216795 3.216795 
C -2.363691 4.069899 -1.206471 4.549235 0 4.549235 
z
" id="m0561cede37" style="stroke:#d2691e;"/>
    </defs>
    <g clip-path="url(#p0d672c6b03)">
     <use style="fill:#d2691e;stroke:#d2691e;" x="417.240892" xlink:href="#m0561cede37" y="318.242265"/>
    </g>
   </g>
   <g id="PathCollection_34">
    <defs>
     <path d="M 0 5.970389 
C 1.583366 5.970389 3.102094 5.341311 4.221702 4.221702 
C 5.341311 3.102094 5.970389 1.583366 5.970389 0 
C 5.970389 -1.583366 5.341311 -3.102094 4.221702 -4.221702 
C 3.102094 -5.341311 1.583366 -5.970389 0 -5.970389 
C -1.583366 -5.970389 -3.102094 -5.341311 -4.221702 -4.221702 
C -5.341311 -3.102094 -5.970389 -1.583366 -5.970389 0 
C -5.970389 1.583366 -5.341311 3.102094 -4.221702 4.221702 
C -3.102094 5.341311 -1.583366 5.970389 0 5.970389 
z
" id="ma86751023a" style="stroke:#d2691e;"/>
    </defs>
    <g clip-path="url(#p0d672c6b03)">
     <use style="fill:#d2691e;stroke:#d2691e;" x="462.033186" xlink:href="#ma86751023a" y="318.242265"/>
    </g>
   </g>
   <g id="PathCollection_35">
    <defs>
     <path d="M 0 5.75401 
C 1.525981 5.75401 2.989668 5.147731 4.0687 4.0687 
C 5.147731 2.989668 5.75401 1.525981 5.75401 0 
C 5.75401 -1.525981 5.147731 -2.989668 4.0687 -4.0687 
C 2.989668 -5.147731 1.525981 -5.75401 0 -5.75401 
C -1.525981 -5.75401 -2.989668 -5.147731 -4.0687 -4.0687 
C -5.147731 -2.989668 -5.75401 -1.525981 -5.75401 0 
C -5.75401 1.525981 -5.147731 2.989668 -4.0687 4.0687 
C -2.989668 5.147731 -1.525981 5.75401 0 5.75401 
z
" id="m40d4bd9cc3" style="stroke:#d2691e;"/>
    </defs>
    <g clip-path="url(#p0d672c6b03)">
     <use style="fill:#d2691e;stroke:#d2691e;" x="506.82548" xlink:href="#m40d4bd9cc3" y="318.242265"/>
    </g>
   </g>
   <g id="PathCollection_36">
    <defs>
     <path d="M 0 6.559063 
C 1.739484 6.559063 3.407957 5.867958 4.637958 4.637958 
C 5.867958 3.407957 6.559063 1.739484 6.559063 0 
C 6.559063 -1.739484 5.867958 -3.407957 4.637958 -4.637958 
C 3.407957 -5.867958 1.739484 -6.559063 0 -6.559063 
C -1.739484 -6.559063 -3.407957 -5.867958 -4.637958 -4.637958 
C -5.867958 -3.407957 -6.559063 -1.739484 -6.559063 0 
C -6.559063 1.739484 -5.867958 3.407957 -4.637958 4.637958 
C -3.407957 5.867958 -1.739484 6.559063 0 6.559063 
z
" id="m982f19b8b0" style="stroke:#d2691e;"/>
    </defs>
    <g clip-path="url(#p0d672c6b03)">
     <use style="fill:#d2691e;stroke:#d2691e;" x="551.617773" xlink:href="#m982f19b8b0" y="318.242265"/>
    </g>
   </g>
   <g id="PathCollection_37">
    <defs>
     <path d="M 0 0.316438 
C 0.08392 0.316438 0.164415 0.283096 0.223756 0.223756 
C 0.283096 0.164415 0.316438 0.08392 0.316438 0 
C 0.316438 -0.08392 0.283096 -0.164415 0.223756 -0.223756 
C 0.164415 -0.283096 0.08392 -0.316438 0 -0.316438 
C -0.08392 -0.316438 -0.164415 -0.283096 -0.223756 -0.223756 
C -0.283096 -0.164415 -0.316438 -0.08392 -0.316438 0 
C -0.316438 0.08392 -0.283096 0.164415 -0.223756 0.223756 
C -0.164415 0.283096 -0.08392 0.316438 0 0.316438 
z
" id="m9112200958" style="stroke:#6c0c86;"/>
    </defs>
    <g clip-path="url(#p0d672c6b03)">
     <use style="fill:#6c0c86;stroke:#6c0c86;" x="193.279423" xlink:href="#m9112200958" y="362.745576"/>
    </g>
   </g>
   <g id="PathCollection_38">
    <defs>
     <path d="M 0 0.40028 
C 0.106155 0.40028 0.207977 0.358104 0.28304 0.28304 
C 0.358104 0.207977 0.40028 0.106155 0.40028 0 
C 0.40028 -0.106155 0.358104 -0.207977 0.28304 -0.28304 
C 0.207977 -0.358104 0.106155 -0.40028 0 -0.40028 
C -0.106155 -0.40028 -0.207977 -0.358104 -0.28304 -0.28304 
C -0.358104 -0.207977 -0.40028 -0.106155 -0.40028 0 
C -0.40028 0.106155 -0.358104 0.207977 -0.28304 0.28304 
C -0.207977 0.358104 -0.106155 0.40028 0 0.40028 
z
" id="m9af06ab822" style="stroke:#6c0c86;"/>
    </defs>
    <g clip-path="url(#p0d672c6b03)">
     <use style="fill:#6c0c86;stroke:#6c0c86;" x="238.071717" xlink:href="#m9af06ab822" y="362.745576"/>
    </g>
   </g>
   <g id="PathCollection_39">
    <defs>
     <path d="M 0 1.045877 
C 0.27737 1.045877 0.543417 0.935677 0.739547 0.739547 
C 0.935677 0.543417 1.045877 0.27737 1.045877 0 
C 1.045877 -0.27737 0.935677 -0.543417 0.739547 -0.739547 
C 0.543417 -0.935677 0.27737 -1.045877 0 -1.045877 
C -0.27737 -1.045877 -0.543417 -0.935677 -0.739547 -0.739547 
C -0.935677 -0.543417 -1.045877 -0.27737 -1.045877 0 
C -1.045877 0.27737 -0.935677 0.543417 -0.739547 0.739547 
C -0.543417 0.935677 -0.27737 1.045877 0 1.045877 
z
" id="mcce778c9b0" style="stroke:#6c0c86;"/>
    </defs>
    <g clip-path="url(#p0d672c6b03)">
     <use style="fill:#6c0c86;stroke:#6c0c86;" x="282.864011" xlink:href="#mcce778c9b0" y="362.745576"/>
    </g>
   </g>
   <g id="PathCollection_40">
    <g clip-path="url(#p0d672c6b03)">
     <use style="fill:#6c0c86;stroke:#6c0c86;" x="327.656304" xlink:href="#m7eda2979d3" y="362.745576"/>
    </g>
   </g>
   <g id="PathCollection_41">
    <defs>
     <path d="M 0 0.677552 
C 0.179689 0.677552 0.352042 0.606161 0.479102 0.479102 
C 0.606161 0.352042 0.677552 0.179689 0.677552 0 
C 0.677552 -0.179689 0.606161 -0.352042 0.479102 -0.479102 
C 0.352042 -0.606161 0.179689 -0.677552 0 -0.677552 
C -0.179689 -0.677552 -0.352042 -0.606161 -0.479102 -0.479102 
C -0.606161 -0.352042 -0.677552 -0.179689 -0.677552 0 
C -0.677552 0.179689 -0.606161 0.352042 -0.479102 0.479102 
C -0.352042 0.606161 -0.179689 0.677552 0 0.677552 
z
" id="m8f09f31f07" style="stroke:#6c0c86;"/>
    </defs>
    <g clip-path="url(#p0d672c6b03)">
     <use style="fill:#6c0c86;stroke:#6c0c86;" x="372.448598" xlink:href="#m8f09f31f07" y="362.745576"/>
    </g>
   </g>
   <g id="PathCollection_42">
    <defs>
     <path d="M 0 1.420064 
C 0.376605 1.420064 0.737837 1.270437 1.004137 1.004137 
C 1.270437 0.737837 1.420064 0.376605 1.420064 0 
C 1.420064 -0.376605 1.270437 -0.737837 1.004137 -1.004137 
C 0.737837 -1.270437 0.376605 -1.420064 0 -1.420064 
C -0.376605 -1.420064 -0.737837 -1.270437 -1.004137 -1.004137 
C -1.270437 -0.737837 -1.420064 -0.376605 -1.420064 0 
C -1.420064 0.376605 -1.270437 0.737837 -1.004137 1.004137 
C -0.737837 1.270437 -0.376605 1.420064 0 1.420064 
z
" id="mc9fe734cdf" style="stroke:#6c0c86;"/>
    </defs>
    <g clip-path="url(#p0d672c6b03)">
     <use style="fill:#6c0c86;stroke:#6c0c86;" x="417.240892" xlink:href="#mc9fe734cdf" y="362.745576"/>
    </g>
   </g>
   <g id="PathCollection_43">
    <defs>
     <path d="M 0 6.129865 
C 1.625659 6.129865 3.184954 5.483983 4.334469 4.334469 
C 5.483983 3.184954 6.129865 1.625659 6.129865 0 
C 6.129865 -1.625659 5.483983 -3.184954 4.334469 -4.334469 
C 3.184954 -5.483983 1.625659 -6.129865 0 -6.129865 
C -1.625659 -6.129865 -3.184954 -5.483983 -4.334469 -4.334469 
C -5.483983 -3.184954 -6.129865 -1.625659 -6.129865 0 
C -6.129865 1.625659 -5.483983 3.184954 -4.334469 4.334469 
C -3.184954 5.483983 -1.625659 6.129865 0 6.129865 
z
" id="me5de805e6c" style="stroke:#d2691e;"/>
    </defs>
    <g clip-path="url(#p0d672c6b03)">
     <use style="fill:#d2691e;stroke:#d2691e;" x="462.033186" xlink:href="#me5de805e6c" y="362.745576"/>
    </g>
   </g>
   <g id="PathCollection_44">
    <defs>
     <path d="M 0 1.786694 
C 0.473837 1.786694 0.92833 1.598437 1.263384 1.263384 
C 1.598437 0.92833 1.786694 0.473837 1.786694 0 
C 1.786694 -0.473837 1.598437 -0.92833 1.263384 -1.263384 
C 0.92833 -1.598437 0.473837 -1.786694 0 -1.786694 
C -0.473837 -1.786694 -0.92833 -1.598437 -1.263384 -1.263384 
C -1.598437 -0.92833 -1.786694 -0.473837 -1.786694 0 
C -1.786694 0.473837 -1.598437 0.92833 -1.263384 1.263384 
C -0.92833 1.598437 -0.473837 1.786694 0 1.786694 
z
" id="me293872129" style="stroke:#6c0c86;"/>
    </defs>
    <g clip-path="url(#p0d672c6b03)">
     <use style="fill:#6c0c86;stroke:#6c0c86;" x="506.82548" xlink:href="#me293872129" y="362.745576"/>
    </g>
   </g>
   <g id="PathCollection_45">
    <defs>
     <path d="M 0 2.7365 
C 0.725728 2.7365 1.42183 2.448165 1.934998 1.934998 
C 2.448165 1.42183 2.7365 0.725728 2.7365 0 
C 2.7365 -0.725728 2.448165 -1.42183 1.934998 -1.934998 
C 1.42183 -2.448165 0.725728 -2.7365 0 -2.7365 
C -0.725728 -2.7365 -1.42183 -2.448165 -1.934998 -1.934998 
C -2.448165 -1.42183 -2.7365 -0.725728 -2.7365 0 
C -2.7365 0.725728 -2.448165 1.42183 -1.934998 1.934998 
C -1.42183 2.448165 -0.725728 2.7365 0 2.7365 
z
" id="mb7a2d21ae7" style="stroke:#6c0c86;"/>
    </defs>
    <g clip-path="url(#p0d672c6b03)">
     <use style="fill:#6c0c86;stroke:#6c0c86;" x="551.617773" xlink:href="#mb7a2d21ae7" y="362.745576"/>
    </g>
   </g>
   <g id="PathCollection_46">
    <defs>
     <path d="M 0 1.161623 
C 0.308066 1.161623 0.603556 1.039227 0.821392 0.821392 
C 1.039227 0.603556 1.161623 0.308066 1.161623 0 
C 1.161623 -0.308066 1.039227 -0.603556 0.821392 -0.821392 
C 0.603556 -1.039227 0.308066 -1.161623 0 -1.161623 
C -0.308066 -1.161623 -0.603556 -1.039227 -0.821392 -0.821392 
C -1.039227 -0.603556 -1.161623 -0.308066 -1.161623 0 
C -1.161623 0.308066 -1.039227 0.603556 -0.821392 0.821392 
C -0.603556 1.039227 -0.308066 1.161623 0 1.161623 
z
" id="mdbe1e0ea9a" style="stroke:#6c0c86;"/>
    </defs>
    <g clip-path="url(#p0d672c6b03)">
     <use style="fill:#6c0c86;stroke:#6c0c86;" x="193.279423" xlink:href="#mdbe1e0ea9a" y="407.248887"/>
    </g>
   </g>
   <g id="PathCollection_47">
    <g clip-path="url(#p0d672c6b03)">
     <use style="fill:#6c0c86;stroke:#6c0c86;" x="238.071717" xlink:href="#m7eda2979d3" y="407.248887"/>
    </g>
   </g>
   <g id="PathCollection_48">
    <g clip-path="url(#p0d672c6b03)">
     <use style="fill:#6c0c86;stroke:#6c0c86;" x="282.864011" xlink:href="#m7eda2979d3" y="407.248887"/>
    </g>
   </g>
   <g id="PathCollection_49">
    <defs>
     <path d="M 0 1.999616 
C 0.530304 1.999616 1.03896 1.788924 1.413942 1.413942 
C 1.788924 1.03896 1.999616 0.530304 1.999616 0 
C 1.999616 -0.530304 1.788924 -1.03896 1.413942 -1.413942 
C 1.03896 -1.788924 0.530304 -1.999616 0 -1.999616 
C -0.530304 -1.999616 -1.03896 -1.788924 -1.413942 -1.413942 
C -1.788924 -1.03896 -1.999616 -0.530304 -1.999616 0 
C -1.999616 0.530304 -1.788924 1.03896 -1.413942 1.413942 
C -1.03896 1.788924 -0.530304 1.999616 0 1.999616 
z
" id="mad311af7e2" style="stroke:#6c0c86;"/>
    </defs>
    <g clip-path="url(#p0d672c6b03)">
     <use style="fill:#6c0c86;stroke:#6c0c86;" x="327.656304" xlink:href="#mad311af7e2" y="407.248887"/>
    </g>
   </g>
   <g id="PathCollection_50">
    <g clip-path="url(#p0d672c6b03)">
     <use style="fill:#6c0c86;stroke:#6c0c86;" x="372.448598" xlink:href="#m7eda2979d3" y="407.248887"/>
    </g>
   </g>
   <g id="PathCollection_51">
    <defs>
     <path d="M 0 0.796007 
C 0.211103 0.796007 0.413589 0.712135 0.562862 0.562862 
C 0.712135 0.413589 0.796007 0.211103 0.796007 0 
C 0.796007 -0.211103 0.712135 -0.413589 0.562862 -0.562862 
C 0.413589 -0.712135 0.211103 -0.796007 0 -0.796007 
C -0.211103 -0.796007 -0.413589 -0.712135 -0.562862 -0.562862 
C -0.712135 -0.413589 -0.796007 -0.211103 -0.796007 0 
C -0.796007 0.211103 -0.712135 0.413589 -0.562862 0.562862 
C -0.413589 0.712135 -0.211103 0.796007 0 0.796007 
z
" id="m8579fffbd0" style="stroke:#6c0c86;"/>
    </defs>
    <g clip-path="url(#p0d672c6b03)">
     <use style="fill:#6c0c86;stroke:#6c0c86;" x="417.240892" xlink:href="#m8579fffbd0" y="407.248887"/>
    </g>
   </g>
   <g id="PathCollection_52">
    <defs>
     <path d="M 0 2.278684 
C 0.604314 2.278684 1.183958 2.038588 1.611273 1.611273 
C 2.038588 1.183958 2.278684 0.604314 2.278684 0 
C 2.278684 -0.604314 2.038588 -1.183958 1.611273 -1.611273 
C 1.183958 -2.038588 0.604314 -2.278684 0 -2.278684 
C -0.604314 -2.278684 -1.183958 -2.038588 -1.611273 -1.611273 
C -2.038588 -1.183958 -2.278684 -0.604314 -2.278684 0 
C -2.278684 0.604314 -2.038588 1.183958 -1.611273 1.611273 
C -1.183958 2.038588 -0.604314 2.278684 0 2.278684 
z
" id="mc2da7ceade" style="stroke:#6c0c86;"/>
    </defs>
    <g clip-path="url(#p0d672c6b03)">
     <use style="fill:#6c0c86;stroke:#6c0c86;" x="462.033186" xlink:href="#mc2da7ceade" y="407.248887"/>
    </g>
   </g>
   <g id="PathCollection_53">
    <defs>
     <path d="M 0 1.897668 
C 0.503268 1.897668 0.98599 1.697718 1.341854 1.341854 
C 1.697718 0.98599 1.897668 0.503268 1.897668 0 
C 1.897668 -0.503268 1.697718 -0.98599 1.341854 -1.341854 
C 0.98599 -1.697718 0.503268 -1.897668 0 -1.897668 
C -0.503268 -1.897668 -0.98599 -1.697718 -1.341854 -1.341854 
C -1.697718 -0.98599 -1.897668 -0.503268 -1.897668 0 
C -1.897668 0.503268 -1.697718 0.98599 -1.341854 1.341854 
C -0.98599 1.697718 -0.503268 1.897668 0 1.897668 
z
" id="m1ba406216b" style="stroke:#6c0c86;"/>
    </defs>
    <g clip-path="url(#p0d672c6b03)">
     <use style="fill:#6c0c86;stroke:#6c0c86;" x="506.82548" xlink:href="#m1ba406216b" y="407.248887"/>
    </g>
   </g>
   <g id="PathCollection_54">
    <defs>
     <path d="M 0 1.181042 
C 0.313216 1.181042 0.613646 1.0566 0.835123 0.835123 
C 1.0566 0.613646 1.181042 0.313216 1.181042 0 
C 1.181042 -0.313216 1.0566 -0.613646 0.835123 -0.835123 
C 0.613646 -1.0566 0.313216 -1.181042 0 -1.181042 
C -0.313216 -1.181042 -0.613646 -1.0566 -0.835123 -0.835123 
C -1.0566 -0.613646 -1.181042 -0.313216 -1.181042 0 
C -1.181042 0.313216 -1.0566 0.613646 -0.835123 0.835123 
C -0.613646 1.0566 -0.313216 1.181042 0 1.181042 
z
" id="mc2c8a4cf3c" style="stroke:#6c0c86;"/>
    </defs>
    <g clip-path="url(#p0d672c6b03)">
     <use style="fill:#6c0c86;stroke:#6c0c86;" x="551.617773" xlink:href="#mc2c8a4cf3c" y="407.248887"/>
    </g>
   </g>
   <g id="PathCollection_55">
    <defs>
     <path d="M 0 0 
C 0 0 0 0 0 0 
C 0 0 0 0 0 0 
C 0 0 0 0 0 0 
C 0 0 0 0 0 0 
C 0 0 0 0 0 0 
C 0 0 0 0 0 0 
C 0 0 0 0 0 0 
C 0 0 0 0 0 0 
z
" id="mbe14656ae1" style="stroke:#fdaa09;"/>
    </defs>
    <g clip-path="url(#p0d672c6b03)">
     <use style="fill:#fdaa09;stroke:#fdaa09;" x="193.279423" xlink:href="#mbe14656ae1" y="451.752199"/>
    </g>
   </g>
   <g id="PathCollection_56">
    <g clip-path="url(#p0d672c6b03)">
     <use style="fill:#fdaa09;stroke:#fdaa09;" x="238.071717" xlink:href="#mbe14656ae1" y="451.752199"/>
    </g>
   </g>
   <g id="PathCollection_57">
    <g clip-path="url(#p0d672c6b03)">
     <use style="fill:#fdaa09;stroke:#fdaa09;" x="282.864011" xlink:href="#mbe14656ae1" y="451.752199"/>
    </g>
   </g>
   <g id="PathCollection_58">
    <g clip-path="url(#p0d672c6b03)">
     <use style="fill:#fdaa09;stroke:#fdaa09;" x="327.656304" xlink:href="#mbe14656ae1" y="451.752199"/>
    </g>
   </g>
   <g id="PathCollection_59">
    <g clip-path="url(#p0d672c6b03)">
     <use style="fill:#fdaa09;stroke:#fdaa09;" x="372.448598" xlink:href="#mbe14656ae1" y="451.752199"/>
    </g>
   </g>
   <g id="PathCollection_60">
    <g clip-path="url(#p0d672c6b03)">
     <use style="fill:#fdaa09;stroke:#fdaa09;" x="417.240892" xlink:href="#mbe14656ae1" y="451.752199"/>
    </g>
   </g>
   <g id="PathCollection_61">
    <g clip-path="url(#p0d672c6b03)">
     <use style="fill:#6c0c86;stroke:#6c0c86;" x="462.033186" xlink:href="#m7eda2979d3" y="451.752199"/>
    </g>
   </g>
   <g id="PathCollection_62">
    <g clip-path="url(#p0d672c6b03)">
     <use style="fill:#6c0c86;stroke:#6c0c86;" x="506.82548" xlink:href="#m7eda2979d3" y="451.752199"/>
    </g>
   </g>
   <g id="PathCollection_63">
    <g clip-path="url(#p0d672c6b03)">
     <use style="fill:#6c0c86;stroke:#6c0c86;" x="551.617773" xlink:href="#m7eda2979d3" y="451.752199"/>
    </g>
   </g>
   <g id="PathCollection_64">
    <g clip-path="url(#p0d672c6b03)">
     <use style="fill:#fdaa09;stroke:#fdaa09;" x="193.279423" xlink:href="#mbe14656ae1" y="496.25551"/>
    </g>
   </g>
   <g id="PathCollection_65">
    <g clip-path="url(#p0d672c6b03)">
     <use style="fill:#fdaa09;stroke:#fdaa09;" x="238.071717" xlink:href="#mbe14656ae1" y="496.25551"/>
    </g>
   </g>
   <g id="PathCollection_66">
    <g clip-path="url(#p0d672c6b03)">
     <use style="fill:#fdaa09;stroke:#fdaa09;" x="282.864011" xlink:href="#mbe14656ae1" y="496.25551"/>
    </g>
   </g>
   <g id="PathCollection_67">
    <g clip-path="url(#p0d672c6b03)">
     <use style="fill:#fdaa09;stroke:#fdaa09;" x="327.656304" xlink:href="#mbe14656ae1" y="496.25551"/>
    </g>
   </g>
   <g id="PathCollection_68">
    <g clip-path="url(#p0d672c6b03)">
     <use style="fill:#fdaa09;stroke:#fdaa09;" x="372.448598" xlink:href="#mbe14656ae1" y="496.25551"/>
    </g>
   </g>
   <g id="PathCollection_69">
    <g clip-path="url(#p0d672c6b03)">
     <use style="fill:#fdaa09;stroke:#fdaa09;" x="417.240892" xlink:href="#mbe14656ae1" y="496.25551"/>
    </g>
   </g>
   <g id="PathCollection_70">
    <g clip-path="url(#p0d672c6b03)">
     <use style="fill:#6c0c86;stroke:#6c0c86;" x="462.033186" xlink:href="#m7eda2979d3" y="496.25551"/>
    </g>
   </g>
   <g id="PathCollection_71">
    <g clip-path="url(#p0d672c6b03)">
     <use style="fill:#6c0c86;stroke:#6c0c86;" x="506.82548" xlink:href="#m7eda2979d3" y="496.25551"/>
    </g>
   </g>
   <g id="PathCollection_72">
    <g clip-path="url(#p0d672c6b03)">
     <use style="fill:#6c0c86;stroke:#6c0c86;" x="551.617773" xlink:href="#m7eda2979d3" y="496.25551"/>
    </g>
   </g>
   <g id="PathCollection_73">
    <g clip-path="url(#p0d672c6b03)">
     <use style="fill:#fdaa09;stroke:#fdaa09;" x="193.279423" xlink:href="#mbe14656ae1" y="540.758821"/>
    </g>
   </g>
   <g id="PathCollection_74">
    <g clip-path="url(#p0d672c6b03)">
     <use style="fill:#fdaa09;stroke:#fdaa09;" x="238.071717" xlink:href="#mbe14656ae1" y="540.758821"/>
    </g>
   </g>
   <g id="PathCollection_75">
    <g clip-path="url(#p0d672c6b03)">
     <use style="fill:#fdaa09;stroke:#fdaa09;" x="282.864011" xlink:href="#mbe14656ae1" y="540.758821"/>
    </g>
   </g>
   <g id="PathCollection_76">
    <g clip-path="url(#p0d672c6b03)">
     <use style="fill:#fdaa09;stroke:#fdaa09;" x="327.656304" xlink:href="#mbe14656ae1" y="540.758821"/>
    </g>
   </g>
   <g id="PathCollection_77">
    <g clip-path="url(#p0d672c6b03)">
     <use style="fill:#fdaa09;stroke:#fdaa09;" x="372.448598" xlink:href="#mbe14656ae1" y="540.758821"/>
    </g>
   </g>
   <g id="PathCollection_78">
    <g clip-path="url(#p0d672c6b03)">
     <use style="fill:#fdaa09;stroke:#fdaa09;" x="417.240892" xlink:href="#mbe14656ae1" y="540.758821"/>
    </g>
   </g>
   <g id="PathCollection_79">
    <g clip-path="url(#p0d672c6b03)">
     <use style="fill:#6c0c86;stroke:#6c0c86;" x="462.033186" xlink:href="#m7eda2979d3" y="540.758821"/>
    </g>
   </g>
   <g id="PathCollection_80">
    <g clip-path="url(#p0d672c6b03)">
     <use style="fill:#6c0c86;stroke:#6c0c86;" x="506.82548" xlink:href="#m7eda2979d3" y="540.758821"/>
    </g>
   </g>
   <g id="PathCollection_81">
    <g clip-path="url(#p0d672c6b03)">
     <use style="fill:#6c0c86;stroke:#6c0c86;" x="551.617773" xlink:href="#m7eda2979d3" y="540.758821"/>
    </g>
   </g>
   <g id="matplotlib.axis_1"/>
   <g id="matplotlib.axis_2"/>
   <g id="LineCollection_1">
    <path clip-path="url(#p0d672c6b03)" d="M 170.883276 162.480675 
L 574.01392 162.480675 
" style="fill:none;stroke:#808080;stroke-width:1.5;"/>
    <path clip-path="url(#p0d672c6b03)" d="M 170.883276 206.983987 
L 574.01392 206.983987 
" style="fill:none;stroke:#808080;stroke-width:1.5;"/>
    <path clip-path="url(#p0d672c6b03)" d="M 170.883276 251.487298 
L 574.01392 251.487298 
" style="fill:none;stroke:#808080;stroke-width:1.5;"/>
    <path clip-path="url(#p0d672c6b03)" d="M 170.883276 340.493921 
L 574.01392 340.493921 
" style="fill:none;stroke:#808080;stroke-width:1.5;"/>
    <path clip-path="url(#p0d672c6b03)" d="M 170.883276 384.997232 
L 574.01392 384.997232 
" style="fill:none;stroke:#808080;stroke-width:1.5;"/>
    <path clip-path="url(#p0d672c6b03)" d="M 170.883276 474.003854 
L 574.01392 474.003854 
" style="fill:none;stroke:#808080;stroke-width:1.5;"/>
    <path clip-path="url(#p0d672c6b03)" d="M 170.883276 518.507166 
L 574.01392 518.507166 
" style="fill:none;stroke:#808080;stroke-width:1.5;"/>
    <path clip-path="url(#p0d672c6b03)" d="M 170.883276 563.010477 
L 574.01392 563.010477 
" style="fill:none;stroke:#808080;stroke-width:1.5;"/>
   </g>
   <g id="LineCollection_2">
    <path clip-path="url(#p0d672c6b03)" d="M 170.883276 295.990609 
L 574.01392 295.990609 
" style="fill:none;stroke:#808080;stroke-width:3;"/>
    <path clip-path="url(#p0d672c6b03)" d="M 170.883276 429.500543 
L 574.01392 429.500543 
" style="fill:none;stroke:#808080;stroke-width:3;"/>
   </g>
   <g id="LineCollection_3">
    <path clip-path="url(#p0d672c6b03)" d="M 170.883276 162.480675 
L 170.883276 563.010477 
" style="fill:none;stroke:#808080;stroke-width:1.5;"/>
    <path clip-path="url(#p0d672c6b03)" d="M 215.67557 162.480675 
L 215.67557 563.010477 
" style="fill:none;stroke:#808080;stroke-width:1.5;"/>
    <path clip-path="url(#p0d672c6b03)" d="M 260.467864 162.480675 
L 260.467864 563.010477 
" style="fill:none;stroke:#808080;stroke-width:1.5;"/>
    <path clip-path="url(#p0d672c6b03)" d="M 350.052451 162.480675 
L 350.052451 563.010477 
" style="fill:none;stroke:#808080;stroke-width:1.5;"/>
    <path clip-path="url(#p0d672c6b03)" d="M 394.844745 162.480675 
L 394.844745 563.010477 
" style="fill:none;stroke:#808080;stroke-width:1.5;"/>
    <path clip-path="url(#p0d672c6b03)" d="M 484.429333 162.480675 
L 484.429333 563.010477 
" style="fill:none;stroke:#808080;stroke-width:1.5;"/>
    <path clip-path="url(#p0d672c6b03)" d="M 529.221627 162.480675 
L 529.221627 563.010477 
" style="fill:none;stroke:#808080;stroke-width:1.5;"/>
    <path clip-path="url(#p0d672c6b03)" d="M 574.01392 162.480675 
L 574.01392 563.010477 
" style="fill:none;stroke:#808080;stroke-width:1.5;"/>
   </g>
   <g id="LineCollection_4">
    <path clip-path="url(#p0d672c6b03)" d="M 305.260158 162.480675 
L 305.260158 563.010477 
" style="fill:none;stroke:#808080;stroke-width:3;"/>
    <path clip-path="url(#p0d672c6b03)" d="M 439.637039 162.480675 
L 439.637039 563.010477 
" style="fill:none;stroke:#808080;stroke-width:3;"/>
   </g>
   <g id="line2d_1">
    <path clip-path="url(#p0d672c6b03)" d="M 150.726744 206.983987 
L 594.170453 206.983987 
" style="fill:none;stroke:#ffffff;stroke-linecap:square;stroke-width:0.5;"/>
   </g>
   <g id="line2d_2">
    <path clip-path="url(#p0d672c6b03)" d="M 150.726744 251.487298 
L 594.170453 251.487298 
" style="fill:none;stroke:#ffffff;stroke-linecap:square;stroke-width:0.5;"/>
   </g>
   <g id="line2d_3">
    <path clip-path="url(#p0d672c6b03)" d="M 150.726744 295.990609 
L 594.170453 295.990609 
" style="fill:none;stroke:#ffffff;stroke-linecap:square;"/>
   </g>
   <g id="line2d_4">
    <path clip-path="url(#p0d672c6b03)" d="M 150.726744 340.493921 
L 594.170453 340.493921 
" style="fill:none;stroke:#ffffff;stroke-linecap:square;stroke-width:0.5;"/>
   </g>
   <g id="line2d_5">
    <path clip-path="url(#p0d672c6b03)" d="M 150.726744 384.997232 
L 594.170453 384.997232 
" style="fill:none;stroke:#ffffff;stroke-linecap:square;stroke-width:0.5;"/>
   </g>
   <g id="line2d_6">
    <path clip-path="url(#p0d672c6b03)" d="M 150.726744 429.500543 
L 594.170453 429.500543 
" style="fill:none;stroke:#ffffff;stroke-linecap:square;"/>
   </g>
   <g id="line2d_7">
    <path clip-path="url(#p0d672c6b03)" d="M 150.726744 474.003854 
L 594.170453 474.003854 
" style="fill:none;stroke:#ffffff;stroke-linecap:square;stroke-width:0.5;"/>
   </g>
   <g id="line2d_8">
    <path clip-path="url(#p0d672c6b03)" d="M 150.726744 518.507166 
L 594.170453 518.507166 
" style="fill:none;stroke:#ffffff;stroke-linecap:square;stroke-width:0.5;"/>
   </g>
   <g id="line2d_9">
    <path clip-path="url(#p0d672c6b03)" d="M 215.67557 583.036967 
L 215.67557 142.454185 
" style="fill:none;stroke:#ffffff;stroke-linecap:square;stroke-width:0.5;"/>
   </g>
   <g id="line2d_10">
    <path clip-path="url(#p0d672c6b03)" d="M 260.467864 583.036967 
L 260.467864 142.454185 
" style="fill:none;stroke:#ffffff;stroke-linecap:square;stroke-width:0.5;"/>
   </g>
   <g id="line2d_11">
    <path clip-path="url(#p0d672c6b03)" d="M 305.260158 583.036967 
L 305.260158 142.454185 
" style="fill:none;stroke:#ffffff;stroke-linecap:square;"/>
   </g>
   <g id="line2d_12">
    <path clip-path="url(#p0d672c6b03)" d="M 350.052451 583.036967 
L 350.052451 142.454185 
" style="fill:none;stroke:#ffffff;stroke-linecap:square;stroke-width:0.5;"/>
   </g>
   <g id="line2d_13">
    <path clip-path="url(#p0d672c6b03)" d="M 394.844745 583.036967 
L 394.844745 142.454185 
" style="fill:none;stroke:#ffffff;stroke-linecap:square;stroke-width:0.5;"/>
   </g>
   <g id="line2d_14">
    <path clip-path="url(#p0d672c6b03)" d="M 439.637039 583.036967 
L 439.637039 142.454185 
" style="fill:none;stroke:#ffffff;stroke-linecap:square;"/>
   </g>
   <g id="line2d_15">
    <path clip-path="url(#p0d672c6b03)" d="M 484.429333 583.036967 
L 484.429333 142.454185 
" style="fill:none;stroke:#ffffff;stroke-linecap:square;stroke-width:0.5;"/>
   </g>
   <g id="line2d_16">
    <path clip-path="url(#p0d672c6b03)" d="M 529.221627 583.036967 
L 529.221627 142.454185 
" style="fill:none;stroke:#ffffff;stroke-linecap:square;stroke-width:0.5;"/>
   </g>
   <g id="patch_3">
    <path d="M 150.726744 583.036967 
L 150.726744 142.454185 
" style="fill:none;stroke:#000000;stroke-linecap:square;stroke-linejoin:miter;stroke-width:0.8;"/>
   </g>
   <g id="patch_4">
    <path d="M 594.170453 583.036967 
L 594.170453 142.454185 
" style="fill:none;stroke:#000000;stroke-linecap:square;stroke-linejoin:miter;stroke-width:0.8;"/>
   </g>
   <g id="patch_5">
    <path d="M 150.726744 583.036967 
L 594.170453 583.036967 
" style="fill:none;stroke:#000000;stroke-linecap:square;stroke-linejoin:miter;stroke-width:0.8;"/>
   </g>
   <g id="patch_6">
    <path d="M 150.726744 142.454185 
L 594.170453 142.454185 
" style="fill:none;stroke:#000000;stroke-linecap:square;stroke-linejoin:miter;stroke-width:0.8;"/>
   </g>
  </g>
  <g id="axes_2">
   <g id="patch_7">
    <path d="M 36.170453 583.036967 
L 148.879062 583.036967 
L 148.879062 142.454185 
L 36.170453 142.454185 
z
" style="fill:#ffffff;"/>
   </g>
   <g id="matplotlib.axis_3">
    <g id="xtick_1">
     <g id="line2d_17">
      <defs>
       <path d="M 0 0 
L 0 3.5 
" id="mfd493f3bdf" style="stroke:#000000;stroke-width:0.8;"/>
      </defs>
      <g>
       <use style="stroke:#000000;stroke-width:0.8;" x="64.347605" xlink:href="#mfd493f3bdf" y="583.036967"/>
      </g>
     </g>
     <g id="text_1">
      <!-- Blue Nile Mean -->
      <g transform="translate(67.179792 664.939467)rotate(-90)scale(0.12 -0.12)">
       <defs>
        <path d="M 2381 2259 
C 2739 2355 3245 2605 3245 3213 
C 3245 3507 3117 3789 2886 3942 
C 2688 4083 2406 4160 1926 4160 
L 282 4160 
L 282 3981 
C 794 3942 819 3904 819 3373 
L 819 794 
C 819 256 781 218 230 179 
L 230 0 
L 1645 0 
C 2150 0 2573 77 2899 256 
C 3277 467 3514 794 3514 1222 
C 3514 1862 3014 2144 2381 2240 
L 2381 2259 
z
M 1357 2317 
L 1357 3571 
C 1357 3782 1382 3853 1440 3891 
C 1504 3930 1645 3955 1805 3955 
C 2413 3955 2656 3571 2656 3136 
C 2656 2598 2362 2317 1658 2317 
L 1357 2317 
z
M 1357 2106 
L 1651 2106 
C 2432 2106 2880 1818 2880 1158 
C 2880 493 2413 224 1888 218 
C 1478 218 1357 339 1357 800 
L 1357 2106 
z
" id="MinionPro-Regular-42" transform="scale(0.015625)"/>
        <path d="M 1523 0 
L 1523 166 
C 1114 205 1062 243 1062 666 
L 1062 4557 
C 845 4480 448 4371 115 4333 
L 115 4179 
C 518 4147 557 4128 557 3693 
L 557 666 
C 557 243 499 205 96 166 
L 96 0 
L 1523 0 
z
" id="MinionPro-Regular-6c" transform="scale(0.015625)"/>
        <path d="M 3315 314 
L 3136 326 
C 2893 339 2842 384 2842 704 
L 2842 2842 
C 2746 2822 2592 2797 2413 2778 
C 2227 2752 2010 2733 1837 2726 
L 1837 2579 
L 2067 2541 
C 2278 2509 2336 2470 2336 2125 
L 2336 634 
C 2118 422 1875 326 1645 326 
C 1357 326 1082 480 1082 1043 
L 1082 1907 
C 1082 2342 1082 2643 1101 2842 
C 992 2822 819 2797 646 2771 
C 474 2752 320 2733 186 2726 
L 186 2579 
L 365 2541 
C 525 2502 576 2470 576 2131 
L 576 877 
C 576 186 941 -77 1370 -77 
C 1542 -77 1677 -26 1862 83 
C 2042 192 2189 307 2336 416 
L 2336 -38 
L 2374 -77 
C 2496 -45 2656 6 2822 51 
C 2995 96 3174 134 3315 154 
L 3315 314 
z
" id="MinionPro-Regular-75" transform="scale(0.015625)"/>
        <path d="M 2426 678 
C 2195 461 1952 358 1696 358 
C 1248 358 749 717 742 1587 
C 1504 1613 2304 1677 2413 1696 
C 2528 1722 2560 1773 2560 1901 
C 2560 2400 2131 2874 1600 2874 
L 1594 2874 
C 1267 2874 922 2701 659 2406 
C 397 2118 237 1728 237 1286 
C 237 563 698 -77 1485 -77 
C 1683 -77 2125 38 2528 544 
L 2426 678 
z
M 1446 2637 
C 1798 2637 2016 2330 2010 1997 
C 2010 1907 1971 1869 1856 1869 
C 1485 1856 1133 1850 774 1850 
C 870 2368 1152 2637 1440 2637 
L 1446 2637 
z
" id="MinionPro-Regular-65" transform="scale(0.015625)"/>
        <path id="MinionPro-Regular-20" transform="scale(0.015625)"/>
        <path d="M 4602 4160 
L 3091 4160 
L 3091 3981 
C 3533 3955 3686 3872 3718 3584 
C 3738 3405 3763 3110 3763 2522 
L 3763 947 
L 3744 947 
L 1075 4160 
L 128 4160 
L 128 3981 
C 429 3955 570 3904 698 3744 
C 813 3590 826 3565 826 3098 
L 826 1690 
C 826 1101 806 794 787 595 
C 755 282 595 198 224 179 
L 224 0 
L 1741 0 
L 1741 179 
C 1306 205 1158 282 1126 608 
C 1107 794 1088 1101 1088 1690 
L 1088 3296 
L 1101 3296 
L 3827 -58 
L 4026 -58 
L 4026 2522 
C 4026 3117 4038 3405 4064 3597 
C 4090 3878 4243 3962 4602 3981 
L 4602 4160 
z
" id="MinionPro-Regular-4e" transform="scale(0.015625)"/>
        <path d="M 864 3430 
C 1050 3430 1190 3584 1190 3757 
C 1190 3949 1050 4090 870 4090 
C 698 4090 544 3949 544 3757 
C 544 3584 698 3430 864 3430 
z
M 1613 0 
L 1613 166 
C 1203 205 1158 243 1158 678 
L 1158 2886 
C 877 2771 576 2688 250 2637 
L 250 2483 
C 634 2426 653 2394 653 2003 
L 653 678 
C 653 243 608 205 205 166 
L 205 0 
L 1613 0 
z
" id="MinionPro-Regular-69" transform="scale(0.015625)"/>
        <path d="M 5510 0 
L 5510 179 
C 4954 230 4934 262 4915 941 
L 4851 3258 
C 4832 3917 4877 3930 5440 3981 
L 5440 4160 
L 4352 4160 
L 2874 960 
L 1414 4160 
L 365 4160 
L 365 3981 
C 947 3923 979 3898 922 3066 
L 832 1734 
C 781 1069 742 787 710 563 
C 666 294 538 224 166 179 
L 166 0 
L 1658 0 
L 1658 179 
C 1235 224 1082 269 1069 576 
C 1062 832 1062 1114 1088 1638 
L 1184 3462 
L 1197 3462 
L 2630 45 
L 2758 45 
L 4320 3552 
L 4346 3552 
L 4365 941 
C 4371 262 4346 230 3827 179 
L 3827 0 
L 5510 0 
z
" id="MinionPro-Regular-4d" transform="scale(0.015625)"/>
        <path d="M 2771 250 
L 2707 416 
C 2643 378 2554 346 2477 346 
C 2368 346 2253 442 2253 730 
L 2253 1920 
C 2253 2253 2189 2515 1965 2701 
C 1824 2816 1632 2874 1440 2874 
C 1075 2803 659 2554 480 2426 
C 358 2336 275 2266 275 2170 
C 275 2022 442 1894 557 1894 
C 646 1894 717 1939 742 2048 
C 794 2240 851 2381 934 2464 
C 998 2541 1094 2592 1222 2592 
C 1542 2592 1760 2330 1760 1869 
L 1760 1754 
C 1619 1638 1152 1466 768 1338 
C 416 1216 250 1018 250 704 
C 250 301 563 -77 1018 -77 
C 1210 -77 1517 160 1773 333 
C 1805 224 1843 134 1926 45 
C 1997 -19 2131 -77 2227 -77 
L 2771 250 
z
M 1760 538 
C 1638 422 1414 314 1248 307 
C 1050 307 794 467 794 800 
C 794 1030 934 1152 1184 1267 
C 1318 1331 1626 1466 1760 1536 
L 1760 538 
z
" id="MinionPro-Regular-61" transform="scale(0.015625)"/>
        <path d="M 3347 0 
L 3347 166 
C 2976 205 2944 230 2944 666 
L 2944 1901 
C 2944 2522 2624 2874 2118 2874 
C 1933 2874 1766 2797 1587 2682 
C 1427 2573 1286 2477 1158 2381 
L 1158 2893 
C 877 2765 576 2688 269 2630 
L 269 2483 
C 614 2419 653 2400 653 1990 
L 653 666 
C 653 243 621 211 186 166 
L 186 0 
L 1574 0 
L 1574 166 
C 1197 205 1158 230 1158 666 
L 1158 2170 
C 1350 2336 1600 2496 1856 2496 
C 2285 2496 2438 2208 2438 1766 
L 2438 698 
C 2438 256 2394 205 2016 166 
L 2016 0 
L 3347 0 
z
" id="MinionPro-Regular-6e" transform="scale(0.015625)"/>
       </defs>
       <use xlink:href="#MinionPro-Regular-42"/>
       <use x="58.799988" xlink:href="#MinionPro-Regular-6c"/>
       <use x="84.099976" xlink:href="#MinionPro-Regular-75"/>
       <use x="137.199966" xlink:href="#MinionPro-Regular-65"/>
       <use x="179.699951" xlink:href="#MinionPro-Regular-20"/>
       <use x="202.399948" xlink:href="#MinionPro-Regular-4e"/>
       <use x="276.699936" xlink:href="#MinionPro-Regular-69"/>
       <use x="303.499924" xlink:href="#MinionPro-Regular-6c"/>
       <use x="328.799911" xlink:href="#MinionPro-Regular-65"/>
       <use x="371.299896" xlink:href="#MinionPro-Regular-20"/>
       <use x="393.999893" xlink:href="#MinionPro-Regular-4d"/>
       <use x="483.099884" xlink:href="#MinionPro-Regular-65"/>
       <use x="525.599869" xlink:href="#MinionPro-Regular-61"/>
       <use x="569.499863" xlink:href="#MinionPro-Regular-6e"/>
      </g>
     </g>
    </g>
    <g id="xtick_2">
     <g id="line2d_18">
      <g>
       <use style="stroke:#000000;stroke-width:0.8;" x="120.70191" xlink:href="#mfd493f3bdf" y="583.036967"/>
      </g>
     </g>
     <g id="text_2">
      <!-- White Nile Mean -->
      <g transform="translate(123.534097 673.412592)rotate(-90)scale(0.12 -0.12)">
       <defs>
        <path d="M 6118 4160 
L 4704 4160 
L 4704 3981 
C 5210 3923 5235 3853 5146 3469 
C 5043 3014 4691 1760 4422 902 
L 4410 902 
C 4019 2010 3648 3046 3290 4096 
L 3104 4096 
C 2778 3053 2406 1997 2067 909 
L 2054 909 
C 1773 1818 1523 2682 1274 3546 
C 1178 3872 1190 3923 1658 3981 
L 1658 4160 
L 102 4160 
L 102 3981 
C 493 3930 589 3878 749 3354 
C 1101 2214 1459 1088 1798 -70 
L 1997 -70 
C 2323 966 2682 1997 3040 3123 
L 3053 3123 
C 3379 2195 3821 960 4173 -70 
L 4371 -70 
C 4896 1722 5280 2931 5427 3341 
C 5619 3872 5677 3923 6118 3981 
L 6118 4160 
z
" id="MinionPro-Regular-57" transform="scale(0.015625)"/>
        <path d="M 3283 0 
L 3283 166 
C 2906 198 2861 237 2861 659 
L 2861 1779 
C 2861 2547 2496 2880 1978 2874 
C 1632 2874 1286 2637 1062 2406 
L 1062 4557 
C 813 4480 429 4378 122 4333 
L 122 4186 
C 544 4147 557 4115 557 3712 
L 557 659 
C 557 237 506 198 122 166 
L 115 0 
L 1472 0 
L 1472 166 
C 1094 205 1062 250 1062 659 
L 1062 2182 
C 1242 2387 1485 2509 1728 2509 
C 2157 2509 2355 2246 2355 1722 
L 2355 659 
C 2355 243 2304 205 1933 166 
L 1933 0 
L 3283 0 
z
" id="MinionPro-Regular-68" transform="scale(0.015625)"/>
        <path d="M 1907 230 
L 1850 397 
C 1760 352 1613 288 1453 288 
C 1293 288 1082 384 1082 902 
L 1082 2547 
L 1766 2547 
C 1843 2592 1862 2733 1805 2797 
L 1082 2797 
L 1082 3674 
L 992 3686 
L 576 3264 
L 576 2797 
L 282 2797 
L 109 2611 
L 134 2547 
L 576 2547 
L 576 685 
C 576 179 800 -77 1203 -77 
C 1261 -77 1363 -51 1472 6 
L 1907 230 
z
" id="MinionPro-Regular-74" transform="scale(0.015625)"/>
       </defs>
       <use xlink:href="#MinionPro-Regular-57"/>
       <use x="97.099991" xlink:href="#MinionPro-Regular-68"/>
       <use x="150.499985" xlink:href="#MinionPro-Regular-69"/>
       <use x="177.299973" xlink:href="#MinionPro-Regular-74"/>
       <use x="207.799957" xlink:href="#MinionPro-Regular-65"/>
       <use x="250.299942" xlink:href="#MinionPro-Regular-20"/>
       <use x="272.999939" xlink:href="#MinionPro-Regular-4e"/>
       <use x="347.299927" xlink:href="#MinionPro-Regular-69"/>
       <use x="374.099915" xlink:href="#MinionPro-Regular-6c"/>
       <use x="399.399902" xlink:href="#MinionPro-Regular-65"/>
       <use x="441.899887" xlink:href="#MinionPro-Regular-20"/>
       <use x="464.599884" xlink:href="#MinionPro-Regular-4d"/>
       <use x="553.699875" xlink:href="#MinionPro-Regular-65"/>
       <use x="596.19986" xlink:href="#MinionPro-Regular-61"/>
       <use x="640.099854" xlink:href="#MinionPro-Regular-6e"/>
      </g>
     </g>
    </g>
   </g>
   <g id="matplotlib.axis_4"/>
   <g id="line2d_19">
    <path clip-path="url(#pbd9f4eb4b4)" d="M 36.170453 162.480675 
L 148.879062 162.480675 
" style="fill:none;stroke:#808080;stroke-linecap:square;"/>
   </g>
   <g id="line2d_20">
    <path clip-path="url(#pbd9f4eb4b4)" d="M 36.170453 563.010477 
L 148.879062 563.010477 
" style="fill:none;stroke:#808080;stroke-linecap:square;"/>
   </g>
   <g id="line2d_21">
    <path clip-path="url(#pbd9f4eb4b4)" d="M 92.524757 206.983987 
L 148.879062 206.983987 
" style="fill:none;stroke:#808080;stroke-linecap:square;stroke-width:0.5;"/>
   </g>
   <g id="line2d_22">
    <path clip-path="url(#pbd9f4eb4b4)" d="M 92.524757 251.487298 
L 148.879062 251.487298 
" style="fill:none;stroke:#808080;stroke-linecap:square;stroke-width:0.5;"/>
   </g>
   <g id="line2d_23">
    <path clip-path="url(#pbd9f4eb4b4)" d="M 36.170453 295.990609 
L 148.879062 295.990609 
" style="fill:none;stroke:#808080;stroke-linecap:square;"/>
   </g>
   <g id="line2d_24">
    <path clip-path="url(#pbd9f4eb4b4)" d="M 92.524757 340.493921 
L 148.879062 340.493921 
" style="fill:none;stroke:#808080;stroke-linecap:square;stroke-width:0.5;"/>
   </g>
   <g id="line2d_25">
    <path clip-path="url(#pbd9f4eb4b4)" d="M 92.524757 384.997232 
L 148.879062 384.997232 
" style="fill:none;stroke:#808080;stroke-linecap:square;stroke-width:0.5;"/>
   </g>
   <g id="line2d_26">
    <path clip-path="url(#pbd9f4eb4b4)" d="M 36.170453 429.500543 
L 148.879062 429.500543 
" style="fill:none;stroke:#808080;stroke-linecap:square;"/>
   </g>
   <g id="line2d_27">
    <path clip-path="url(#pbd9f4eb4b4)" d="M 92.524757 474.003854 
L 148.879062 474.003854 
" style="fill:none;stroke:#808080;stroke-linecap:square;stroke-width:0.5;"/>
   </g>
   <g id="line2d_28">
    <path clip-path="url(#pbd9f4eb4b4)" d="M 92.524757 518.507166 
L 148.879062 518.507166 
" style="fill:none;stroke:#808080;stroke-linecap:square;stroke-width:0.5;"/>
   </g>
   <g id="patch_8">
    <path d="M 36.170453 583.036967 
L 36.170453 142.454185 
" style="fill:none;stroke:#ffffff;stroke-linecap:square;stroke-linejoin:miter;"/>
   </g>
   <g id="patch_9">
    <path d="M 148.879062 583.036967 
L 148.879062 142.454185 
" style="fill:none;stroke:#ffffff;stroke-linecap:square;stroke-linejoin:miter;"/>
   </g>
   <g id="patch_10">
    <path d="M 36.170453 583.036967 
L 148.879062 583.036967 
" style="fill:none;stroke:#808080;stroke-linecap:square;stroke-linejoin:miter;stroke-width:0.8;"/>
   </g>
   <g id="patch_11">
    <path d="M 36.170453 142.454185 
L 148.879062 142.454185 
" style="fill:none;stroke:#000000;stroke-linecap:square;stroke-linejoin:miter;stroke-width:0.8;"/>
   </g>
   <g id="text_3">
    <!-- 0 -->
    <g transform="translate(61.467605 232.06783)scale(0.12 -0.12)">
     <defs>
      <path d="M 1536 4064 
C 576 4064 224 2925 224 1990 
C 224 979 570 -77 1536 -77 
C 2496 -77 2835 1062 2835 1997 
C 2835 2982 2496 4064 1542 4064 
L 1536 4064 
z
M 1530 3853 
C 2106 3853 2266 2906 2266 1997 
C 2266 1101 2112 141 1536 141 
C 979 141 794 1107 794 2003 
C 794 2893 947 3853 1523 3853 
L 1530 3853 
z
" id="MinionPro-Regular-30" transform="scale(0.015625)"/>
     </defs>
     <use xlink:href="#MinionPro-Regular-30"/>
    </g>
   </g>
   <g id="text_4">
    <!-- 0 -->
    <g transform="translate(117.82191 187.564519)scale(0.12 -0.12)">
     <use xlink:href="#MinionPro-Regular-30"/>
    </g>
   </g>
   <g id="text_5">
    <!-- 1 -->
    <g transform="translate(117.82191 232.06783)scale(0.12 -0.12)">
     <defs>
      <path d="M 2458 0 
L 2458 173 
C 1875 218 1837 269 1837 730 
L 1837 4064 
C 1485 3923 1107 3802 698 3731 
L 698 3584 
L 1005 3571 
C 1286 3558 1312 3526 1312 3194 
L 1312 730 
C 1312 269 1280 218 698 173 
L 698 0 
L 2458 0 
z
" id="MinionPro-Regular-31" transform="scale(0.015625)"/>
     </defs>
     <use xlink:href="#MinionPro-Regular-31"/>
    </g>
   </g>
   <g id="text_6">
    <!-- 2 -->
    <g transform="translate(117.82191 276.571141)scale(0.12 -0.12)">
     <defs>
      <path d="M 2637 896 
C 2445 493 2362 467 2016 467 
L 819 467 
L 1728 1421 
C 2317 2048 2573 2426 2573 2982 
C 2573 3654 2061 4064 1498 4064 
C 1126 4064 826 3898 634 3686 
L 269 3168 
L 410 3040 
C 576 3290 845 3635 1280 3635 
C 1754 3635 2035 3322 2035 2784 
C 2035 2234 1632 1709 1235 1235 
C 915 864 557 499 198 147 
L 198 0 
L 2592 0 
C 2669 288 2733 570 2816 838 
L 2637 896 
z
" id="MinionPro-Regular-32" transform="scale(0.015625)"/>
     </defs>
     <use xlink:href="#MinionPro-Regular-32"/>
    </g>
   </g>
   <g id="text_7">
    <!-- 1 -->
    <g transform="translate(61.467605 365.577764)scale(0.12 -0.12)">
     <use xlink:href="#MinionPro-Regular-31"/>
    </g>
   </g>
   <g id="text_8">
    <!-- 0 -->
    <g transform="translate(117.82191 321.074452)scale(0.12 -0.12)">
     <use xlink:href="#MinionPro-Regular-30"/>
    </g>
   </g>
   <g id="text_9">
    <!-- 1 -->
    <g transform="translate(117.82191 365.577764)scale(0.12 -0.12)">
     <use xlink:href="#MinionPro-Regular-31"/>
    </g>
   </g>
   <g id="text_10">
    <!-- 2 -->
    <g transform="translate(117.82191 410.081075)scale(0.12 -0.12)">
     <use xlink:href="#MinionPro-Regular-32"/>
    </g>
   </g>
   <g id="text_11">
    <!-- 2 -->
    <g transform="translate(61.467605 499.087697)scale(0.12 -0.12)">
     <use xlink:href="#MinionPro-Regular-32"/>
    </g>
   </g>
   <g id="text_12">
    <!-- 0 -->
    <g transform="translate(117.82191 454.584386)scale(0.12 -0.12)">
     <use xlink:href="#MinionPro-Regular-30"/>
    </g>
   </g>
   <g id="text_13">
    <!-- 1 -->
    <g transform="translate(117.82191 499.087697)scale(0.12 -0.12)">
     <use xlink:href="#MinionPro-Regular-31"/>
    </g>
   </g>
   <g id="text_14">
    <!-- 2 -->
    <g transform="translate(117.82191 543.591009)scale(0.12 -0.12)">
     <use xlink:href="#MinionPro-Regular-32"/>
    </g>
   </g>
  </g>
  <g id="axes_3">
   <g id="patch_12">
    <path d="M 150.726744 140.618424 
L 594.170453 140.618424 
L 594.170453 28.636967 
L 150.726744 28.636967 
z
" style="fill:#ffffff;"/>
   </g>
   <g id="matplotlib.axis_5"/>
   <g id="matplotlib.axis_6">
    <g id="ytick_1">
     <g id="line2d_29">
      <defs>
       <path d="M 0 0 
L 3.5 0 
" id="mc000806fac" style="stroke:#000000;stroke-width:0.8;"/>
      </defs>
      <g>
       <use style="stroke:#000000;stroke-width:0.8;" x="594.170453" xlink:href="#mc000806fac" y="56.632331"/>
      </g>
     </g>
     <g id="text_15">
      <!-- Demand Growth -->
      <g transform="translate(601.170453 60.904519)scale(0.12 -0.12)">
       <defs>
        <path d="M 269 4160 
L 269 3974 
C 762 3936 813 3910 813 3360 
L 813 794 
C 813 250 762 211 211 173 
L 211 0 
L 1728 0 
C 2515 0 3149 160 3629 531 
C 4122 902 4416 1472 4416 2240 
C 4416 2842 4192 3309 3878 3616 
C 3482 3994 2880 4160 2067 4160 
L 269 4160 
z
M 1363 3501 
C 1363 3750 1382 3821 1446 3866 
C 1510 3910 1677 3942 1946 3942 
C 2374 3942 2746 3866 3034 3680 
C 3546 3379 3789 2810 3789 2150 
C 3789 1126 3238 230 2042 230 
C 1574 230 1363 352 1363 838 
L 1363 3501 
z
" id="MinionPro-Regular-44" transform="scale(0.015625)"/>
        <path d="M 5094 0 
L 5094 166 
C 4730 205 4678 230 4678 659 
L 4678 1894 
C 4678 2522 4365 2874 3866 2874 
C 3686 2874 3520 2797 3386 2707 
C 3226 2611 3040 2490 2854 2349 
C 2726 2682 2451 2874 2144 2874 
C 1939 2874 1786 2803 1619 2701 
C 1427 2579 1286 2464 1152 2374 
L 1152 2893 
C 870 2765 544 2682 262 2630 
L 262 2483 
C 634 2426 653 2394 653 1984 
L 653 659 
C 653 243 595 205 173 166 
L 173 0 
L 1523 0 
L 1523 166 
C 1210 205 1158 243 1158 659 
L 1158 2163 
C 1350 2323 1600 2496 1856 2496 
C 2246 2496 2413 2234 2413 1760 
L 2413 659 
C 2413 237 2355 205 1958 166 
L 1958 0 
L 3328 0 
L 3328 166 
C 2976 205 2918 243 2918 646 
L 2918 1894 
C 2918 2016 2912 2086 2899 2163 
C 3142 2368 3386 2496 3616 2496 
C 4019 2496 4179 2208 4179 1754 
L 4179 685 
C 4179 230 4109 205 3731 166 
L 3731 0 
L 5094 0 
z
" id="MinionPro-Regular-6d" transform="scale(0.015625)"/>
        <path d="M 3309 326 
L 3104 346 
C 2867 371 2822 403 2822 736 
L 2822 4557 
C 2586 4474 2157 4378 1824 4333 
L 1824 4179 
C 2285 4147 2317 4128 2317 3706 
L 2317 2803 
C 2170 2854 1984 2874 1894 2874 
C 1024 2874 243 2176 243 1286 
C 243 390 915 -77 1427 -77 
C 1504 -77 1677 -38 1926 109 
L 2317 339 
L 2317 -77 
C 2688 58 3168 141 3309 166 
L 3309 326 
z
M 2317 544 
C 2163 429 1933 326 1702 326 
C 1293 326 826 698 826 1459 
C 826 2387 1363 2637 1658 2637 
C 1901 2637 2163 2534 2317 2310 
L 2317 544 
z
" id="MinionPro-Regular-64" transform="scale(0.015625)"/>
        <path d="M 4429 1926 
L 2803 1926 
L 2803 1754 
C 3430 1702 3475 1664 3475 1203 
L 3475 659 
C 3475 390 3398 314 3270 243 
C 3130 173 2931 128 2714 128 
C 1478 128 934 1203 934 2125 
C 934 3309 1651 4026 2630 4026 
C 3238 4026 3725 3814 3878 3034 
L 4058 3072 
C 4006 3494 3974 3846 3955 4070 
C 3750 4115 3258 4256 2726 4256 
C 1472 4256 282 3533 282 2048 
C 282 781 1222 -96 2630 -96 
C 3142 -96 3667 45 4064 141 
C 4026 314 4019 518 4019 742 
L 4019 1286 
C 4019 1664 4045 1696 4429 1754 
L 4429 1926 
z
" id="MinionPro-Regular-47" transform="scale(0.015625)"/>
        <path d="M 1158 2195 
L 1158 2893 
C 851 2758 570 2682 256 2630 
L 256 2490 
C 621 2438 653 2413 653 1990 
L 653 666 
C 653 243 608 205 211 166 
L 211 0 
L 1683 0 
L 1683 166 
C 1190 205 1158 243 1158 666 
L 1158 1837 
C 1299 2195 1504 2387 1670 2387 
C 1773 2387 1850 2349 1939 2253 
C 1978 2214 2035 2208 2112 2240 
C 2234 2298 2317 2426 2317 2554 
C 2317 2707 2163 2874 1946 2874 
C 1638 2874 1363 2515 1171 2195 
L 1158 2195 
z
" id="MinionPro-Regular-72" transform="scale(0.015625)"/>
        <path d="M 1638 2874 
C 1056 2874 237 2394 237 1338 
C 237 627 762 -77 1638 -77 
C 2272 -77 3027 416 3027 1446 
C 3027 2240 2432 2874 1645 2874 
L 1638 2874 
z
M 1574 2662 
C 2131 2662 2432 2054 2432 1306 
C 2432 429 2106 134 1709 134 
C 1184 134 832 736 832 1542 
C 832 2266 1178 2662 1568 2662 
L 1574 2662 
z
" id="MinionPro-Regular-6f" transform="scale(0.015625)"/>
        <path d="M 4454 2797 
L 3296 2797 
L 3296 2637 
C 3712 2579 3750 2541 3667 2208 
C 3552 1734 3373 1178 3232 736 
L 3219 736 
C 2950 1421 2688 2099 2451 2765 
L 2285 2765 
C 2016 2029 1779 1370 1542 755 
L 1530 755 
C 1370 1248 1210 1754 1062 2246 
C 966 2534 998 2573 1382 2637 
L 1382 2797 
L 58 2797 
L 58 2637 
C 365 2592 422 2547 538 2214 
C 800 1446 1043 691 1274 -70 
L 1459 -70 
C 1709 640 1971 1280 2214 1920 
C 2477 1248 2739 621 2995 -70 
L 3174 -70 
C 3469 800 3750 1651 3942 2157 
C 4077 2509 4134 2586 4454 2637 
L 4454 2797 
z
" id="MinionPro-Regular-77" transform="scale(0.015625)"/>
       </defs>
       <use xlink:href="#MinionPro-Regular-44"/>
       <use x="73.499985" xlink:href="#MinionPro-Regular-65"/>
       <use x="115.999969" xlink:href="#MinionPro-Regular-6d"/>
       <use x="197.899963" xlink:href="#MinionPro-Regular-61"/>
       <use x="241.799957" xlink:href="#MinionPro-Regular-6e"/>
       <use x="296.499954" xlink:href="#MinionPro-Regular-64"/>
       <use x="349.299942" xlink:href="#MinionPro-Regular-20"/>
       <use x="371.999939" xlink:href="#MinionPro-Regular-47"/>
       <use x="443.499924" xlink:href="#MinionPro-Regular-72"/>
       <use x="480.599915" xlink:href="#MinionPro-Regular-6f"/>
       <use x="531.599899" xlink:href="#MinionPro-Regular-77"/>
       <use x="600.099884" xlink:href="#MinionPro-Regular-74"/>
       <use x="630.599869" xlink:href="#MinionPro-Regular-68"/>
      </g>
     </g>
    </g>
    <g id="ytick_2">
     <g id="line2d_30">
      <g>
       <use style="stroke:#000000;stroke-width:0.8;" x="594.170453" xlink:href="#mc000806fac" y="112.62306"/>
      </g>
     </g>
     <g id="text_16">
      <!-- Atbara Mean -->
      <g transform="translate(601.170453 116.895247)scale(0.12 -0.12)">
       <defs>
        <path d="M 4307 0 
L 4307 179 
C 3891 218 3808 275 3603 826 
C 3194 1939 2765 3155 2368 4256 
L 2170 4198 
L 845 838 
C 621 275 531 237 128 179 
L 128 0 
L 1517 0 
L 1517 179 
C 1037 224 979 288 1120 691 
C 1203 960 1299 1229 1402 1517 
L 2765 1517 
C 2906 1126 3034 781 3117 531 
C 3200 282 3142 230 2739 179 
L 2739 0 
L 4307 0 
z
M 2675 1792 
L 1498 1792 
C 1690 2317 1894 2874 2099 3424 
L 2112 3424 
L 2675 1792 
z
" id="MinionPro-Regular-41" transform="scale(0.015625)"/>
        <path d="M 973 2586 
L 973 4557 
C 736 4467 346 4371 45 4333 
L 45 4186 
C 454 4147 467 4109 467 3712 
L 467 154 
C 819 -13 1146 -77 1408 -77 
C 2266 -77 3014 589 3014 1530 
C 3014 2285 2438 2874 1754 2874 
C 1683 2874 1594 2854 1491 2810 
L 973 2586 
z
M 973 2394 
C 1088 2464 1293 2515 1472 2515 
C 2003 2515 2451 2093 2451 1363 
C 2451 621 2112 166 1581 166 
C 1242 173 1050 397 1011 525 
C 986 582 973 646 973 742 
L 973 2394 
z
" id="MinionPro-Regular-62" transform="scale(0.015625)"/>
       </defs>
       <use xlink:href="#MinionPro-Regular-41"/>
       <use x="69.099991" xlink:href="#MinionPro-Regular-74"/>
       <use x="99.599976" xlink:href="#MinionPro-Regular-62"/>
       <use x="150.399963" xlink:href="#MinionPro-Regular-61"/>
       <use x="194.299957" xlink:href="#MinionPro-Regular-72"/>
       <use x="231.399948" xlink:href="#MinionPro-Regular-61"/>
       <use x="275.299942" xlink:href="#MinionPro-Regular-20"/>
       <use x="297.999939" xlink:href="#MinionPro-Regular-4d"/>
       <use x="387.09993" xlink:href="#MinionPro-Regular-65"/>
       <use x="429.599915" xlink:href="#MinionPro-Regular-61"/>
       <use x="473.499908" xlink:href="#MinionPro-Regular-6e"/>
      </g>
     </g>
    </g>
   </g>
   <g id="line2d_31">
    <path clip-path="url(#p9e71075010)" d="M 170.883276 28.636967 
L 170.883276 140.618424 
" style="fill:none;stroke:#808080;stroke-linecap:square;"/>
   </g>
   <g id="line2d_32">
    <path clip-path="url(#p9e71075010)" d="M 574.01392 28.636967 
L 574.01392 140.618424 
" style="fill:none;stroke:#808080;stroke-linecap:square;"/>
   </g>
   <g id="line2d_33">
    <path clip-path="url(#p9e71075010)" d="M 215.67557 84.627695 
L 215.67557 140.618424 
" style="fill:none;stroke:#808080;stroke-linecap:square;stroke-width:0.5;"/>
   </g>
   <g id="line2d_34">
    <path clip-path="url(#p9e71075010)" d="M 260.467864 84.627695 
L 260.467864 140.618424 
" style="fill:none;stroke:#808080;stroke-linecap:square;stroke-width:0.5;"/>
   </g>
   <g id="line2d_35">
    <path clip-path="url(#p9e71075010)" d="M 305.260158 28.636967 
L 305.260158 140.618424 
" style="fill:none;stroke:#808080;stroke-linecap:square;"/>
   </g>
   <g id="line2d_36">
    <path clip-path="url(#p9e71075010)" d="M 350.052451 84.627695 
L 350.052451 140.618424 
" style="fill:none;stroke:#808080;stroke-linecap:square;stroke-width:0.5;"/>
   </g>
   <g id="line2d_37">
    <path clip-path="url(#p9e71075010)" d="M 394.844745 84.627695 
L 394.844745 140.618424 
" style="fill:none;stroke:#808080;stroke-linecap:square;stroke-width:0.5;"/>
   </g>
   <g id="line2d_38">
    <path clip-path="url(#p9e71075010)" d="M 439.637039 28.636967 
L 439.637039 140.618424 
" style="fill:none;stroke:#808080;stroke-linecap:square;"/>
   </g>
   <g id="line2d_39">
    <path clip-path="url(#p9e71075010)" d="M 484.429333 84.627695 
L 484.429333 140.618424 
" style="fill:none;stroke:#808080;stroke-linecap:square;stroke-width:0.5;"/>
   </g>
   <g id="line2d_40">
    <path clip-path="url(#p9e71075010)" d="M 529.221627 84.627695 
L 529.221627 140.618424 
" style="fill:none;stroke:#808080;stroke-linecap:square;stroke-width:0.5;"/>
   </g>
   <g id="patch_13">
    <path d="M 150.726744 140.618424 
L 150.726744 28.636967 
" style="fill:none;stroke:#000000;stroke-linecap:square;stroke-linejoin:miter;stroke-width:0.8;"/>
   </g>
   <g id="patch_14">
    <path d="M 594.170453 140.618424 
L 594.170453 28.636967 
" style="fill:none;stroke:#000000;stroke-linecap:square;stroke-linejoin:miter;stroke-width:0.8;"/>
   </g>
   <g id="patch_15">
    <path d="M 150.726744 140.618424 
L 594.170453 140.618424 
" style="fill:none;stroke:#ffffff;stroke-linecap:square;stroke-linejoin:miter;"/>
   </g>
   <g id="patch_16">
    <path d="M 150.726744 28.636967 
L 594.170453 28.636967 
" style="fill:none;stroke:#ffffff;stroke-linecap:square;stroke-linejoin:miter;"/>
   </g>
   <g id="text_17">
    <!-- 0 -->
    <g transform="translate(235.191717 59.464519)scale(0.12 -0.12)">
     <use xlink:href="#MinionPro-Regular-30"/>
    </g>
   </g>
   <g id="text_18">
    <!-- 0 -->
    <g transform="translate(190.399423 115.455247)scale(0.12 -0.12)">
     <use xlink:href="#MinionPro-Regular-30"/>
    </g>
   </g>
   <g id="text_19">
    <!-- 1 -->
    <g transform="translate(235.191717 115.455247)scale(0.12 -0.12)">
     <use xlink:href="#MinionPro-Regular-31"/>
    </g>
   </g>
   <g id="text_20">
    <!-- 2 -->
    <g transform="translate(279.984011 115.455247)scale(0.12 -0.12)">
     <use xlink:href="#MinionPro-Regular-32"/>
    </g>
   </g>
   <g id="text_21">
    <!-- 1 -->
    <g transform="translate(369.568598 59.464519)scale(0.12 -0.12)">
     <use xlink:href="#MinionPro-Regular-31"/>
    </g>
   </g>
   <g id="text_22">
    <!-- 0 -->
    <g transform="translate(324.776304 115.455247)scale(0.12 -0.12)">
     <use xlink:href="#MinionPro-Regular-30"/>
    </g>
   </g>
   <g id="text_23">
    <!-- 1 -->
    <g transform="translate(369.568598 115.455247)scale(0.12 -0.12)">
     <use xlink:href="#MinionPro-Regular-31"/>
    </g>
   </g>
   <g id="text_24">
    <!-- 2 -->
    <g transform="translate(414.360892 115.455247)scale(0.12 -0.12)">
     <use xlink:href="#MinionPro-Regular-32"/>
    </g>
   </g>
   <g id="text_25">
    <!-- 2 -->
    <g transform="translate(503.94548 59.464519)scale(0.12 -0.12)">
     <use xlink:href="#MinionPro-Regular-32"/>
    </g>
   </g>
   <g id="text_26">
    <!-- 0 -->
    <g transform="translate(459.153186 115.455247)scale(0.12 -0.12)">
     <use xlink:href="#MinionPro-Regular-30"/>
    </g>
   </g>
   <g id="text_27">
    <!-- 1 -->
    <g transform="translate(503.94548 115.455247)scale(0.12 -0.12)">
     <use xlink:href="#MinionPro-Regular-31"/>
    </g>
   </g>
   <g id="text_28">
    <!-- 2 -->
    <g transform="translate(548.737773 115.455247)scale(0.12 -0.12)">
     <use xlink:href="#MinionPro-Regular-32"/>
    </g>
   </g>
  </g>
  <g id="axes_4">
   <g id="legend_1">
    <g id="line2d_41">
     <path d="M 11.1984 14.817264 
L 31.1904 14.817264 
" style="fill:none;stroke:#ffffff;stroke-linecap:square;stroke-width:1.5;"/>
    </g>
    <g id="line2d_42">
     <defs>
      <path d="M 0 5 
C 1.326016 5 2.597899 4.473168 3.535534 3.535534 
C 4.473168 2.597899 5 1.326016 5 0 
C 5 -1.326016 4.473168 -2.597899 3.535534 -3.535534 
C 2.597899 -4.473168 1.326016 -5 0 -5 
C -1.326016 -5 -2.597899 -4.473168 -3.535534 -3.535534 
C -4.473168 -2.597899 -5 -1.326016 -5 0 
C -5 1.326016 -4.473168 2.597899 -3.535534 3.535534 
C -2.597899 4.473168 -1.326016 5 0 5 
z
" id="m184a4662c8" style="stroke:#ffffff;"/>
     </defs>
     <g>
      <use style="fill:#6c0c86;stroke:#ffffff;" x="21.1944" xlink:href="#m184a4662c8" y="14.817264"/>
     </g>
    </g>
    <g id="text_29">
     <!-- Best Egypt HAD -->
     <g transform="translate(39.1872 18.315864)scale(0.09996 -0.09996)">
      <defs>
       <path d="M 2048 2080 
C 2029 2240 1958 2618 1907 2765 
C 1773 2816 1600 2880 1338 2874 
C 749 2874 365 2496 365 2048 
C 365 1555 781 1344 1165 1165 
C 1485 1018 1670 864 1670 582 
C 1670 314 1453 134 1216 134 
C 832 134 544 506 429 928 
L 262 896 
C 262 666 320 230 365 141 
C 480 45 774 -77 1101 -77 
C 1613 -77 2157 224 2157 806 
C 2157 1248 1830 1478 1350 1677 
C 1062 1798 806 1952 806 2234 
C 806 2483 979 2675 1222 2675 
C 1536 2675 1760 2419 1882 2042 
L 2048 2080 
z
" id="MinionPro-Regular-73" transform="scale(0.015625)"/>
       <path d="M 3302 1037 
C 3219 781 3098 563 2989 435 
C 2848 269 2669 218 2182 218 
C 1862 218 1638 224 1517 301 
C 1402 384 1363 518 1363 819 
L 1363 2029 
L 1971 2029 
C 2528 2029 2573 1990 2656 1530 
L 2842 1530 
L 2842 2758 
L 2656 2758 
C 2573 2330 2541 2278 1965 2278 
L 1363 2278 
L 1363 3731 
C 1363 3923 1376 3936 1574 3936 
L 2061 3936 
C 2522 3936 2694 3891 2784 3757 
C 2867 3616 2931 3475 2989 3206 
L 3174 3238 
C 3155 3565 3123 4000 3123 4160 
L 269 4160 
L 269 3981 
C 768 3936 819 3917 819 3341 
L 819 794 
C 819 275 768 224 186 179 
L 186 0 
L 3270 0 
C 3328 198 3456 800 3494 1011 
L 3302 1037 
z
" id="MinionPro-Regular-45" transform="scale(0.015625)"/>
       <path d="M 2957 2803 
C 2726 2765 2400 2726 2086 2714 
C 1901 2816 1690 2874 1472 2874 
L 1466 2874 
C 979 2874 326 2541 326 1811 
C 326 1376 602 1075 890 954 
C 787 826 582 659 326 563 
C 320 499 339 390 397 294 
C 480 160 640 13 870 -58 
C 717 -173 467 -378 339 -506 
C 243 -602 186 -723 186 -864 
C 192 -1229 582 -1645 1293 -1645 
C 2144 -1645 2893 -1024 2893 -378 
C 2893 250 2368 378 1971 378 
C 1760 378 1530 371 1299 371 
C 1011 371 896 493 896 621 
C 896 710 998 826 1088 883 
C 1190 870 1306 851 1414 851 
C 1958 851 2534 1184 2534 1875 
C 2534 2106 2464 2304 2342 2445 
L 2707 2426 
C 2810 2477 2938 2650 2995 2752 
L 2957 2803 
z
M 1408 2682 
C 1773 2682 2010 2323 2010 1818 
C 2010 1312 1760 1062 1478 1056 
C 1120 1056 877 1414 877 1914 
C 877 2413 1126 2682 1402 2682 
L 1408 2682 
z
M 1549 -70 
C 1818 -70 2003 -90 2163 -154 
C 2349 -230 2458 -390 2458 -608 
C 2458 -1005 2144 -1318 1536 -1318 
C 1062 -1318 691 -1056 691 -710 
C 691 -525 819 -346 986 -211 
C 1101 -109 1242 -70 1542 -70 
L 1549 -70 
z
" id="MinionPro-Regular-67" transform="scale(0.015625)"/>
       <path d="M 3059 2797 
L 1901 2797 
L 1901 2637 
C 2266 2586 2310 2515 2234 2272 
C 2099 1869 1824 1114 1645 678 
L 1062 2285 
C 979 2522 1011 2586 1306 2637 
L 1306 2797 
L 6 2797 
L 6 2637 
C 358 2586 422 2502 557 2150 
C 749 1696 1037 922 1293 192 
C 1331 83 1331 0 1299 -96 
C 1274 -179 1222 -314 1101 -538 
C 954 -826 826 -979 627 -1107 
C 518 -1178 461 -1235 461 -1338 
C 461 -1491 646 -1645 826 -1645 
C 915 -1645 992 -1613 1030 -1491 
C 1120 -1146 1261 -781 1690 243 
C 2131 1299 2330 1830 2490 2170 
C 2662 2534 2720 2586 3059 2637 
L 3059 2797 
z
" id="MinionPro-Regular-79" transform="scale(0.015625)"/>
       <path d="M 1082 2432 
L 1082 2938 
C 781 2816 422 2707 154 2662 
L 154 2509 
C 550 2458 576 2445 576 2029 
L 576 -864 
C 576 -1286 518 -1325 109 -1363 
L 109 -1536 
L 1626 -1536 
L 1626 -1363 
C 1126 -1318 1082 -1286 1082 -800 
L 1082 38 
C 1165 -6 1338 -70 1523 -77 
C 2355 77 3117 698 3117 1664 
C 3117 2298 2694 2874 1984 2874 
C 1907 2874 1786 2842 1670 2778 
L 1082 2432 
z
M 1082 2221 
C 1254 2349 1517 2490 1722 2490 
C 2189 2490 2579 2106 2579 1421 
C 2579 698 2221 237 1683 237 
C 1466 237 1222 339 1082 486 
L 1082 2221 
z
" id="MinionPro-Regular-70" transform="scale(0.015625)"/>
       <path d="M 4666 4160 
L 2995 4160 
L 2995 3981 
C 3494 3936 3546 3904 3546 3373 
L 3546 2336 
L 1363 2336 
L 1363 3373 
C 1363 3904 1414 3936 1901 3981 
L 1901 4160 
L 243 4160 
L 243 3981 
C 768 3936 819 3910 819 3373 
L 819 787 
C 819 250 768 218 256 179 
L 256 0 
L 1939 0 
L 1939 179 
C 1414 218 1363 256 1363 787 
L 1363 2067 
L 3546 2067 
L 3546 787 
C 3546 250 3488 218 2944 179 
L 2944 0 
L 4659 0 
L 4659 179 
C 4141 218 4090 250 4090 787 
L 4090 3373 
C 4090 3904 4141 3936 4666 3981 
L 4666 4160 
z
" id="MinionPro-Regular-48" transform="scale(0.015625)"/>
      </defs>
      <use xlink:href="#MinionPro-Regular-42"/>
      <use x="58.799988" xlink:href="#MinionPro-Regular-65"/>
      <use x="101.299973" xlink:href="#MinionPro-Regular-73"/>
      <use x="137.999969" xlink:href="#MinionPro-Regular-74"/>
      <use x="168.499954" xlink:href="#MinionPro-Regular-20"/>
      <use x="191.199951" xlink:href="#MinionPro-Regular-45"/>
      <use x="247.999939" xlink:href="#MinionPro-Regular-67"/>
      <use x="294.799927" xlink:href="#MinionPro-Regular-79"/>
      <use x="340.699921" xlink:href="#MinionPro-Regular-70"/>
      <use x="393.099915" xlink:href="#MinionPro-Regular-74"/>
      <use x="423.599899" xlink:href="#MinionPro-Regular-20"/>
      <use x="446.299896" xlink:href="#MinionPro-Regular-48"/>
      <use x="522.899887" xlink:href="#MinionPro-Regular-41"/>
      <use x="591.999878" xlink:href="#MinionPro-Regular-44"/>
     </g>
    </g>
    <g id="line2d_43">
     <path d="M 11.1984 36.499213 
L 31.1904 36.499213 
" style="fill:none;stroke:#ffffff;stroke-linecap:square;stroke-width:1.5;"/>
    </g>
    <g id="line2d_44">
     <defs>
      <path d="M 0 5 
C 1.326016 5 2.597899 4.473168 3.535534 3.535534 
C 4.473168 2.597899 5 1.326016 5 0 
C 5 -1.326016 4.473168 -2.597899 3.535534 -3.535534 
C 2.597899 -4.473168 1.326016 -5 0 -5 
C -1.326016 -5 -2.597899 -4.473168 -3.535534 -3.535534 
C -4.473168 -2.597899 -5 -1.326016 -5 0 
C -5 1.326016 -4.473168 2.597899 -3.535534 3.535534 
C -2.597899 4.473168 -1.326016 5 0 5 
z
" id="mf5f6f3ace2" style="stroke:#ffffff;"/>
     </defs>
     <g>
      <use style="fill:#fdaa09;stroke:#ffffff;" x="21.1944" xlink:href="#mf5f6f3ace2" y="36.499213"/>
     </g>
    </g>
    <g id="text_30">
     <!-- Best Egypt Irr. -->
     <g transform="translate(39.1872 39.997813)scale(0.09996 -0.09996)">
      <defs>
       <path d="M 1939 0 
L 1939 179 
C 1414 218 1363 250 1363 800 
L 1363 3360 
C 1363 3904 1414 3942 1939 3981 
L 1939 4160 
L 243 4160 
L 243 3981 
C 768 3942 819 3904 819 3360 
L 819 800 
C 819 256 768 218 243 179 
L 243 0 
L 1939 0 
z
" id="MinionPro-Regular-49" transform="scale(0.015625)"/>
       <path d="M 730 -77 
C 934 -77 1088 70 1088 294 
C 1088 499 934 659 730 659 
C 525 659 371 499 371 294 
C 371 70 525 -77 723 -77 
L 730 -77 
z
" id="MinionPro-Regular-2e" transform="scale(0.015625)"/>
      </defs>
      <use xlink:href="#MinionPro-Regular-42"/>
      <use x="58.799988" xlink:href="#MinionPro-Regular-65"/>
      <use x="101.299973" xlink:href="#MinionPro-Regular-73"/>
      <use x="137.999969" xlink:href="#MinionPro-Regular-74"/>
      <use x="168.499954" xlink:href="#MinionPro-Regular-20"/>
      <use x="191.199951" xlink:href="#MinionPro-Regular-45"/>
      <use x="247.999939" xlink:href="#MinionPro-Regular-67"/>
      <use x="294.799927" xlink:href="#MinionPro-Regular-79"/>
      <use x="340.699921" xlink:href="#MinionPro-Regular-70"/>
      <use x="393.099915" xlink:href="#MinionPro-Regular-74"/>
      <use x="423.599899" xlink:href="#MinionPro-Regular-20"/>
      <use x="446.299896" xlink:href="#MinionPro-Regular-49"/>
      <use x="480.399887" xlink:href="#MinionPro-Regular-72"/>
      <use x="517.499878" xlink:href="#MinionPro-Regular-72"/>
      <use x="554.599869" xlink:href="#MinionPro-Regular-2e"/>
     </g>
    </g>
    <g id="line2d_45">
     <path d="M 11.1984 58.181162 
L 31.1904 58.181162 
" style="fill:none;stroke:#ffffff;stroke-linecap:square;stroke-width:1.5;"/>
    </g>
    <g id="line2d_46">
     <defs>
      <path d="M 0 5 
C 1.326016 5 2.597899 4.473168 3.535534 3.535534 
C 4.473168 2.597899 5 1.326016 5 0 
C 5 -1.326016 4.473168 -2.597899 3.535534 -3.535534 
C 2.597899 -4.473168 1.326016 -5 0 -5 
C -1.326016 -5 -2.597899 -4.473168 -3.535534 -3.535534 
C -4.473168 -2.597899 -5 -1.326016 -5 0 
C -5 1.326016 -4.473168 2.597899 -3.535534 3.535534 
C -2.597899 4.473168 -1.326016 5 0 5 
z
" id="m1ffa4c0d44" style="stroke:#ffffff;"/>
     </defs>
     <g>
      <use style="fill:#da70d6;stroke:#ffffff;" x="21.1944" xlink:href="#m1ffa4c0d44" y="58.181162"/>
     </g>
    </g>
    <g id="text_31">
     <!-- Compromise: Absolute -->
     <g transform="translate(39.1872 61.679762)scale(0.09996 -0.09996)">
      <defs>
       <path d="M 3930 1126 
C 3610 486 3264 134 2611 134 
C 1638 134 934 954 934 2150 
C 934 3123 1504 4026 2573 4026 
C 3264 4026 3648 3750 3814 3072 
L 4006 3117 
C 3968 3462 3930 3718 3878 4083 
C 3699 4115 3264 4256 2746 4256 
C 1318 4256 282 3366 282 2022 
C 282 1005 979 -96 2573 -96 
C 3034 -96 3571 32 3750 77 
C 3866 288 4026 762 4115 1056 
L 3930 1126 
z
" id="MinionPro-Regular-43" transform="scale(0.015625)"/>
       <path d="M 730 2630 
C 525 2630 378 2483 378 2272 
C 378 2054 525 1901 730 1901 
C 934 1901 1088 2054 1088 2272 
C 1088 2483 934 2630 736 2630 
L 730 2630 
z
M 736 -77 
C 941 -77 1094 70 1094 294 
C 1094 499 941 659 736 659 
C 531 659 378 499 378 294 
C 378 70 531 -77 730 -77 
L 736 -77 
z
" id="MinionPro-Regular-3a" transform="scale(0.015625)"/>
      </defs>
      <use xlink:href="#MinionPro-Regular-43"/>
      <use x="66.499985" xlink:href="#MinionPro-Regular-6f"/>
      <use x="117.499969" xlink:href="#MinionPro-Regular-6d"/>
      <use x="199.399963" xlink:href="#MinionPro-Regular-70"/>
      <use x="251.799957" xlink:href="#MinionPro-Regular-72"/>
      <use x="288.899948" xlink:href="#MinionPro-Regular-6f"/>
      <use x="339.899933" xlink:href="#MinionPro-Regular-6d"/>
      <use x="421.799927" xlink:href="#MinionPro-Regular-69"/>
      <use x="448.599915" xlink:href="#MinionPro-Regular-73"/>
      <use x="485.299911" xlink:href="#MinionPro-Regular-65"/>
      <use x="527.799896" xlink:href="#MinionPro-Regular-3a"/>
      <use x="550.599884" xlink:href="#MinionPro-Regular-20"/>
      <use x="573.299881" xlink:href="#MinionPro-Regular-41"/>
      <use x="642.399872" xlink:href="#MinionPro-Regular-62"/>
      <use x="693.19986" xlink:href="#MinionPro-Regular-73"/>
      <use x="729.899857" xlink:href="#MinionPro-Regular-6f"/>
      <use x="780.899841" xlink:href="#MinionPro-Regular-6c"/>
      <use x="806.199829" xlink:href="#MinionPro-Regular-75"/>
      <use x="859.29982" xlink:href="#MinionPro-Regular-74"/>
      <use x="889.799805" xlink:href="#MinionPro-Regular-65"/>
     </g>
    </g>
    <g id="line2d_47">
     <path d="M 11.1984 79.692866 
L 31.1904 79.692866 
" style="fill:none;stroke:#ffffff;stroke-linecap:square;stroke-width:1.5;"/>
    </g>
    <g id="line2d_48">
     <defs>
      <path d="M 0 5 
C 1.326016 5 2.597899 4.473168 3.535534 3.535534 
C 4.473168 2.597899 5 1.326016 5 0 
C 5 -1.326016 4.473168 -2.597899 3.535534 -3.535534 
C 2.597899 -4.473168 1.326016 -5 0 -5 
C -1.326016 -5 -2.597899 -4.473168 -3.535534 -3.535534 
C -4.473168 -2.597899 -5 -1.326016 -5 0 
C -5 1.326016 -4.473168 2.597899 -3.535534 3.535534 
C -2.597899 4.473168 -1.326016 5 0 5 
z
" id="m11ab8993ca" style="stroke:#ffffff;"/>
     </defs>
     <g>
      <use style="fill:#d2691e;stroke:#ffffff;" x="21.1944" xlink:href="#m11ab8993ca" y="79.692866"/>
     </g>
    </g>
    <g id="text_32">
     <!-- Compromise: Percentile -->
     <g transform="translate(39.1872 83.191466)scale(0.09996 -0.09996)">
      <defs>
       <path d="M 294 4160 
L 294 3981 
C 768 3949 819 3923 819 3360 
L 819 800 
C 819 269 768 218 256 179 
L 256 0 
L 1990 0 
L 1990 179 
C 1414 218 1357 250 1357 794 
L 1357 1798 
L 1830 1677 
C 1901 1670 2022 1670 2118 1677 
C 2739 1760 3366 2163 3366 2989 
C 3366 3411 3200 3706 2950 3891 
C 2694 4083 2330 4160 1875 4160 
L 294 4160 
z
M 1357 3578 
C 1357 3757 1376 3834 1427 3878 
C 1472 3923 1606 3955 1786 3955 
C 2310 3955 2752 3661 2752 2970 
C 2752 2157 2240 1933 1824 1933 
C 1613 1933 1440 1978 1357 2010 
L 1357 3578 
z
" id="MinionPro-Regular-50" transform="scale(0.015625)"/>
       <path d="M 2502 710 
C 2208 435 1997 358 1722 358 
C 1363 358 755 653 755 1542 
C 755 2214 1126 2566 1549 2566 
C 1773 2566 1997 2483 2189 2304 
C 2246 2253 2278 2234 2310 2234 
C 2381 2234 2522 2374 2522 2509 
C 2522 2579 2502 2637 2419 2707 
C 2317 2790 2106 2874 1850 2874 
L 1843 2874 
C 1600 2874 1216 2771 883 2515 
C 454 2182 243 1754 243 1261 
C 243 576 717 -77 1523 -77 
C 1901 -77 2330 205 2611 576 
L 2502 710 
z
" id="MinionPro-Regular-63" transform="scale(0.015625)"/>
      </defs>
      <use xlink:href="#MinionPro-Regular-43"/>
      <use x="66.499985" xlink:href="#MinionPro-Regular-6f"/>
      <use x="117.499969" xlink:href="#MinionPro-Regular-6d"/>
      <use x="199.399963" xlink:href="#MinionPro-Regular-70"/>
      <use x="251.799957" xlink:href="#MinionPro-Regular-72"/>
      <use x="288.899948" xlink:href="#MinionPro-Regular-6f"/>
      <use x="339.899933" xlink:href="#MinionPro-Regular-6d"/>
      <use x="421.799927" xlink:href="#MinionPro-Regular-69"/>
      <use x="448.599915" xlink:href="#MinionPro-Regular-73"/>
      <use x="485.299911" xlink:href="#MinionPro-Regular-65"/>
      <use x="527.799896" xlink:href="#MinionPro-Regular-3a"/>
      <use x="550.599884" xlink:href="#MinionPro-Regular-20"/>
      <use x="573.299881" xlink:href="#MinionPro-Regular-50"/>
      <use x="629.599869" xlink:href="#MinionPro-Regular-65"/>
      <use x="672.099854" xlink:href="#MinionPro-Regular-72"/>
      <use x="709.199844" xlink:href="#MinionPro-Regular-63"/>
      <use x="751.499832" xlink:href="#MinionPro-Regular-65"/>
      <use x="793.999817" xlink:href="#MinionPro-Regular-6e"/>
      <use x="848.699814" xlink:href="#MinionPro-Regular-74"/>
      <use x="879.199799" xlink:href="#MinionPro-Regular-69"/>
      <use x="905.999786" xlink:href="#MinionPro-Regular-6c"/>
      <use x="931.299774" xlink:href="#MinionPro-Regular-65"/>
     </g>
    </g>
    <g id="line2d_49">
     <path d="M 11.1984 101.204571 
L 31.1904 101.204571 
" style="fill:none;stroke:#ffffff;stroke-linecap:square;stroke-width:1.5;"/>
    </g>
    <g id="line2d_50">
     <defs>
      <path d="M 0 11.18034 
C 2.965061 11.18034 5.80908 10.002309 7.905694 7.905694 
C 10.002309 5.80908 11.18034 2.965061 11.18034 0 
C 11.18034 -2.965061 10.002309 -5.80908 7.905694 -7.905694 
C 5.80908 -10.002309 2.965061 -11.18034 0 -11.18034 
C -2.965061 -11.18034 -5.80908 -10.002309 -7.905694 -7.905694 
C -10.002309 -5.80908 -11.18034 -2.965061 -11.18034 0 
C -11.18034 2.965061 -10.002309 5.80908 -7.905694 7.905694 
C -5.80908 10.002309 -2.965061 11.18034 0 11.18034 
z
" id="mee7771e216" style="stroke:#ffffff;"/>
     </defs>
     <g>
      <use style="stroke:#ffffff;" x="21.1944" xlink:href="#mee7771e216" y="101.204571"/>
     </g>
    </g>
    <g id="text_33">
     <!-- 0.06 BCM/year -->
     <g transform="translate(39.1872 104.703171)scale(0.09996 -0.09996)">
      <defs>
       <path d="M 877 2195 
C 1069 3085 1664 3488 2054 3674 
C 2291 3782 2541 3859 2752 3898 
L 2707 4102 
C 2451 4058 2144 3987 1888 3898 
C 1210 3648 237 2925 237 1523 
C 237 538 800 -77 1549 -77 
C 2317 -77 2861 570 2861 1331 
C 2861 1990 2394 2515 1709 2515 
C 1581 2515 1446 2470 1306 2406 
L 877 2195 
z
M 1459 2157 
C 2042 2157 2310 1632 2310 1101 
C 2310 678 2157 141 1658 141 
C 1133 141 806 768 806 1536 
C 806 1702 813 1856 845 1978 
C 998 2061 1216 2157 1453 2157 
L 1459 2157 
z
" id="MinionPro-Regular-36" transform="scale(0.015625)"/>
       <path d="M 1907 4256 
L 1549 4256 
L 160 -282 
L 518 -282 
L 1907 4256 
z
" id="MinionPro-Regular-2f" transform="scale(0.015625)"/>
      </defs>
      <use xlink:href="#MinionPro-Regular-30"/>
      <use x="47.999985" xlink:href="#MinionPro-Regular-2e"/>
      <use x="70.799973" xlink:href="#MinionPro-Regular-30"/>
      <use x="118.799957" xlink:href="#MinionPro-Regular-36"/>
      <use x="166.799942" xlink:href="#MinionPro-Regular-20"/>
      <use x="189.499939" xlink:href="#MinionPro-Regular-42"/>
      <use x="248.299927" xlink:href="#MinionPro-Regular-43"/>
      <use x="314.799911" xlink:href="#MinionPro-Regular-4d"/>
      <use x="403.899902" xlink:href="#MinionPro-Regular-2f"/>
      <use x="436.999893" xlink:href="#MinionPro-Regular-79"/>
      <use x="482.899887" xlink:href="#MinionPro-Regular-65"/>
      <use x="525.399872" xlink:href="#MinionPro-Regular-61"/>
      <use x="569.299866" xlink:href="#MinionPro-Regular-72"/>
     </g>
    </g>
    <g id="line2d_51">
     <path d="M 11.1984 122.886519 
L 31.1904 122.886519 
" style="fill:none;stroke:#ffffff;stroke-linecap:square;stroke-width:1.5;"/>
    </g>
    <g id="line2d_52">
     <defs>
      <path d="M 0 1.420064 
C 0.376605 1.420064 0.737837 1.270437 1.004137 1.004137 
C 1.270437 0.737837 1.420064 0.376605 1.420064 0 
C 1.420064 -0.376605 1.270437 -0.737837 1.004137 -1.004137 
C 0.737837 -1.270437 0.376605 -1.420064 0 -1.420064 
C -0.376605 -1.420064 -0.737837 -1.270437 -1.004137 -1.004137 
C -1.270437 -0.737837 -1.420064 -0.376605 -1.420064 0 
C -1.420064 0.376605 -1.270437 0.737837 -1.004137 1.004137 
C -0.737837 1.270437 -0.376605 1.420064 0 1.420064 
z
" id="m674d65c8d9" style="stroke:#ffffff;"/>
     </defs>
     <g>
      <use style="stroke:#ffffff;" x="21.1944" xlink:href="#m674d65c8d9" y="122.886519"/>
     </g>
    </g>
    <g id="text_34">
     <!-- 0.0 BCM/year -->
     <g transform="translate(39.1872 126.385119)scale(0.09996 -0.09996)">
      <use xlink:href="#MinionPro-Regular-30"/>
      <use x="47.999985" xlink:href="#MinionPro-Regular-2e"/>
      <use x="70.799973" xlink:href="#MinionPro-Regular-30"/>
      <use x="118.799957" xlink:href="#MinionPro-Regular-20"/>
      <use x="141.499954" xlink:href="#MinionPro-Regular-42"/>
      <use x="200.299942" xlink:href="#MinionPro-Regular-43"/>
      <use x="266.799927" xlink:href="#MinionPro-Regular-4d"/>
      <use x="355.899918" xlink:href="#MinionPro-Regular-2f"/>
      <use x="388.999908" xlink:href="#MinionPro-Regular-79"/>
      <use x="434.899902" xlink:href="#MinionPro-Regular-65"/>
      <use x="477.399887" xlink:href="#MinionPro-Regular-61"/>
      <use x="521.299881" xlink:href="#MinionPro-Regular-72"/>
     </g>
    </g>
   </g>
  </g>
 </g>
 <defs>
  <clipPath id="p0d672c6b03">
   <rect height="440.582781" width="443.443709" x="150.726744" y="142.454185"/>
  </clipPath>
  <clipPath id="pbd9f4eb4b4">
   <rect height="440.582781" width="112.708609" x="36.170453" y="142.454185"/>
  </clipPath>
  <clipPath id="p9e71075010">
   <rect height="111.981457" width="443.443709" x="150.726744" y="28.636967"/>
  </clipPath>
 </defs>
</svg>
