<?xml version="1.0" encoding="utf-8" standalone="no"?>
<!DOCTYPE svg PUBLIC "-//W3C//DTD SVG 1.1//EN"
  "http://www.w3.org/Graphics/SVG/1.1/DTD/svg11.dtd">
<svg height="702.376562pt" version="1.1" viewBox="0 0 712.383438 702.376562" width="712.383438pt" xmlns="http://www.w3.org/2000/svg" xmlns:xlink="http://www.w3.org/1999/xlink">
 <metadata>
  <rdf:RDF xmlns:cc="http://creativecommons.org/ns#" xmlns:dc="http://purl.org/dc/elements/1.1/" xmlns:rdf="http://www.w3.org/1999/02/22-rdf-syntax-ns#">
   <cc:Work>
    <dc:type rdf:resource="http://purl.org/dc/dcmitype/StillImage"/>
    <dc:date>2022-07-30T01:31:56.596650</dc:date>
    <dc:format>image/svg+xml</dc:format>
    <dc:creator>
     <cc:Agent>
      <dc:title>Matplotlib v3.4.3, https://matplotlib.org/</dc:title>
     </cc:Agent>
    </dc:creator>
   </cc:Work>
  </rdf:RDF>
 </metadata>
 <defs>
  <style type="text/css">*{stroke-linecap:butt;stroke-linejoin:round;}</style>
 </defs>
 <g id="figure_1">
  <g id="patch_1">
   <path d="M 0 702.376562 
L 712.383438 702.376562 
L 712.383438 0 
L 0 0 
z
" style="fill:#ffffff;"/>
  </g>
  <g id="axes_1">
   <g id="patch_2">
    <path d="M 28.455625 676.752187 
L 698.055625 676.752187 
L 698.055625 11.472187 
L 28.455625 11.472187 
z
" style="fill:#ffffff;"/>
   </g>
   <g id="matplotlib.axis_1">
    <g id="xtick_1">
     <g id="line2d_1">
      <defs>
       <path d="M 0 0 
L 0 3.5 
" id="m0b8805456b" style="stroke:#000000;stroke-width:0.8;"/>
      </defs>
      <g>
       <use style="stroke:#000000;stroke-width:0.8;" x="28.455625" xlink:href="#m0b8805456b" y="676.752187"/>
      </g>
     </g>
     <g id="text_1">
      <!-- 0.0 -->
      <g transform="translate(21.327813 692.296562)scale(0.12 -0.12)">
       <defs>
        <path d="M 1536 4064 
C 576 4064 224 2925 224 1990 
C 224 979 570 -77 1536 -77 
C 2496 -77 2835 1062 2835 1997 
C 2835 2982 2496 4064 1542 4064 
L 1536 4064 
z
M 1530 3853 
C 2106 3853 2266 2906 2266 1997 
C 2266 1101 2112 141 1536 141 
C 979 141 794 1107 794 2003 
C 794 2893 947 3853 1523 3853 
L 1530 3853 
z
" id="MinionPro-Regular-30" transform="scale(0.015625)"/>
        <path d="M 730 -77 
C 934 -77 1088 70 1088 294 
C 1088 499 934 659 730 659 
C 525 659 371 499 371 294 
C 371 70 525 -77 723 -77 
L 730 -77 
z
" id="MinionPro-Regular-2e" transform="scale(0.015625)"/>
       </defs>
       <use xlink:href="#MinionPro-Regular-30"/>
       <use x="47.999985" xlink:href="#MinionPro-Regular-2e"/>
       <use x="70.799973" xlink:href="#MinionPro-Regular-30"/>
      </g>
     </g>
    </g>
    <g id="xtick_2">
     <g id="line2d_2">
      <g>
       <use style="stroke:#000000;stroke-width:0.8;" x="162.375625" xlink:href="#m0b8805456b" y="676.752187"/>
      </g>
     </g>
     <g id="text_2">
      <!-- 0.2 -->
      <g transform="translate(155.247813 692.296562)scale(0.12 -0.12)">
       <defs>
        <path d="M 2637 896 
C 2445 493 2362 467 2016 467 
L 819 467 
L 1728 1421 
C 2317 2048 2573 2426 2573 2982 
C 2573 3654 2061 4064 1498 4064 
C 1126 4064 826 3898 634 3686 
L 269 3168 
L 410 3040 
C 576 3290 845 3635 1280 3635 
C 1754 3635 2035 3322 2035 2784 
C 2035 2234 1632 1709 1235 1235 
C 915 864 557 499 198 147 
L 198 0 
L 2592 0 
C 2669 288 2733 570 2816 838 
L 2637 896 
z
" id="MinionPro-Regular-32" transform="scale(0.015625)"/>
       </defs>
       <use xlink:href="#MinionPro-Regular-30"/>
       <use x="47.999985" xlink:href="#MinionPro-Regular-2e"/>
       <use x="70.799973" xlink:href="#MinionPro-Regular-32"/>
      </g>
     </g>
    </g>
    <g id="xtick_3">
     <g id="line2d_3">
      <g>
       <use style="stroke:#000000;stroke-width:0.8;" x="296.295625" xlink:href="#m0b8805456b" y="676.752187"/>
      </g>
     </g>
     <g id="text_3">
      <!-- 0.4 -->
      <g transform="translate(289.167813 692.296562)scale(0.12 -0.12)">
       <defs>
        <path d="M 2918 1139 
L 2918 1440 
L 2304 1440 
L 2304 4045 
L 2048 4045 
C 1389 3174 736 2227 128 1318 
L 128 1139 
L 1792 1139 
L 1792 678 
C 1792 256 1766 218 1210 173 
L 1210 0 
L 2848 0 
L 2848 173 
C 2330 218 2304 250 2304 678 
L 2304 1139 
L 2918 1139 
z
M 1792 1440 
L 531 1440 
C 954 2150 1370 2758 1779 3334 
L 1792 3334 
L 1792 1440 
z
" id="MinionPro-Regular-34" transform="scale(0.015625)"/>
       </defs>
       <use xlink:href="#MinionPro-Regular-30"/>
       <use x="47.999985" xlink:href="#MinionPro-Regular-2e"/>
       <use x="70.799973" xlink:href="#MinionPro-Regular-34"/>
      </g>
     </g>
    </g>
    <g id="xtick_4">
     <g id="line2d_4">
      <g>
       <use style="stroke:#000000;stroke-width:0.8;" x="430.215625" xlink:href="#m0b8805456b" y="676.752187"/>
      </g>
     </g>
     <g id="text_4">
      <!-- 0.6 -->
      <g transform="translate(423.087813 692.296562)scale(0.12 -0.12)">
       <defs>
        <path d="M 877 2195 
C 1069 3085 1664 3488 2054 3674 
C 2291 3782 2541 3859 2752 3898 
L 2707 4102 
C 2451 4058 2144 3987 1888 3898 
C 1210 3648 237 2925 237 1523 
C 237 538 800 -77 1549 -77 
C 2317 -77 2861 570 2861 1331 
C 2861 1990 2394 2515 1709 2515 
C 1581 2515 1446 2470 1306 2406 
L 877 2195 
z
M 1459 2157 
C 2042 2157 2310 1632 2310 1101 
C 2310 678 2157 141 1658 141 
C 1133 141 806 768 806 1536 
C 806 1702 813 1856 845 1978 
C 998 2061 1216 2157 1453 2157 
L 1459 2157 
z
" id="MinionPro-Regular-36" transform="scale(0.015625)"/>
       </defs>
       <use xlink:href="#MinionPro-Regular-30"/>
       <use x="47.999985" xlink:href="#MinionPro-Regular-2e"/>
       <use x="70.799973" xlink:href="#MinionPro-Regular-36"/>
      </g>
     </g>
    </g>
    <g id="xtick_5">
     <g id="line2d_5">
      <g>
       <use style="stroke:#000000;stroke-width:0.8;" x="564.135625" xlink:href="#m0b8805456b" y="676.752187"/>
      </g>
     </g>
     <g id="text_5">
      <!-- 0.8 -->
      <g transform="translate(557.007813 692.296562)scale(0.12 -0.12)">
       <defs>
        <path d="M 1587 4064 
C 902 4064 448 3552 448 3014 
C 448 2566 723 2259 1139 2022 
C 922 1882 678 1709 576 1613 
C 435 1478 288 1299 288 1005 
C 288 320 832 -77 1517 -77 
C 2061 -77 2784 333 2784 1082 
C 2784 1638 2381 1946 1939 2195 
C 2227 2394 2400 2547 2445 2605 
C 2566 2746 2630 2931 2630 3117 
C 2630 3635 2195 4064 1594 4064 
L 1587 4064 
z
M 1523 3859 
C 1818 3859 2150 3622 2150 3085 
C 2150 2701 1978 2464 1760 2291 
C 1306 2515 928 2726 928 3200 
C 928 3526 1146 3859 1517 3859 
L 1523 3859 
z
M 1581 128 
C 1178 128 800 454 800 1043 
C 800 1395 1018 1715 1325 1920 
C 1818 1670 2272 1395 2272 915 
C 2272 422 1971 128 1587 128 
L 1581 128 
z
" id="MinionPro-Regular-38" transform="scale(0.015625)"/>
       </defs>
       <use xlink:href="#MinionPro-Regular-30"/>
       <use x="47.999985" xlink:href="#MinionPro-Regular-2e"/>
       <use x="70.799973" xlink:href="#MinionPro-Regular-38"/>
      </g>
     </g>
    </g>
    <g id="xtick_6">
     <g id="line2d_6">
      <g>
       <use style="stroke:#000000;stroke-width:0.8;" x="698.055625" xlink:href="#m0b8805456b" y="676.752187"/>
      </g>
     </g>
     <g id="text_6">
      <!-- 1.0 -->
      <g transform="translate(690.927813 692.296562)scale(0.12 -0.12)">
       <defs>
        <path d="M 2458 0 
L 2458 173 
C 1875 218 1837 269 1837 730 
L 1837 4064 
C 1485 3923 1107 3802 698 3731 
L 698 3584 
L 1005 3571 
C 1286 3558 1312 3526 1312 3194 
L 1312 730 
C 1312 269 1280 218 698 173 
L 698 0 
L 2458 0 
z
" id="MinionPro-Regular-31" transform="scale(0.015625)"/>
       </defs>
       <use xlink:href="#MinionPro-Regular-31"/>
       <use x="47.999985" xlink:href="#MinionPro-Regular-2e"/>
       <use x="70.799973" xlink:href="#MinionPro-Regular-30"/>
      </g>
     </g>
    </g>
   </g>
   <g id="matplotlib.axis_2">
    <g id="ytick_1">
     <g id="line2d_7">
      <defs>
       <path d="M 0 0 
L -3.5 0 
" id="m1dff3276b7" style="stroke:#000000;stroke-width:0.8;"/>
      </defs>
      <g>
       <use style="stroke:#000000;stroke-width:0.8;" x="28.455625" xlink:href="#m1dff3276b7" y="11.472187"/>
      </g>
     </g>
     <g id="text_7">
      <!-- 0.0 -->
      <g transform="translate(7.2 15.744375)scale(0.12 -0.12)">
       <use xlink:href="#MinionPro-Regular-30"/>
       <use x="47.999985" xlink:href="#MinionPro-Regular-2e"/>
       <use x="70.799973" xlink:href="#MinionPro-Regular-30"/>
      </g>
     </g>
    </g>
    <g id="ytick_2">
     <g id="line2d_8">
      <g>
       <use style="stroke:#000000;stroke-width:0.8;" x="28.455625" xlink:href="#m1dff3276b7" y="144.528187"/>
      </g>
     </g>
     <g id="text_8">
      <!-- 0.2 -->
      <g transform="translate(7.2 148.800375)scale(0.12 -0.12)">
       <use xlink:href="#MinionPro-Regular-30"/>
       <use x="47.999985" xlink:href="#MinionPro-Regular-2e"/>
       <use x="70.799973" xlink:href="#MinionPro-Regular-32"/>
      </g>
     </g>
    </g>
    <g id="ytick_3">
     <g id="line2d_9">
      <g>
       <use style="stroke:#000000;stroke-width:0.8;" x="28.455625" xlink:href="#m1dff3276b7" y="277.584187"/>
      </g>
     </g>
     <g id="text_9">
      <!-- 0.4 -->
      <g transform="translate(7.2 281.856375)scale(0.12 -0.12)">
       <use xlink:href="#MinionPro-Regular-30"/>
       <use x="47.999985" xlink:href="#MinionPro-Regular-2e"/>
       <use x="70.799973" xlink:href="#MinionPro-Regular-34"/>
      </g>
     </g>
    </g>
    <g id="ytick_4">
     <g id="line2d_10">
      <g>
       <use style="stroke:#000000;stroke-width:0.8;" x="28.455625" xlink:href="#m1dff3276b7" y="410.640187"/>
      </g>
     </g>
     <g id="text_10">
      <!-- 0.6 -->
      <g transform="translate(7.2 414.912375)scale(0.12 -0.12)">
       <use xlink:href="#MinionPro-Regular-30"/>
       <use x="47.999985" xlink:href="#MinionPro-Regular-2e"/>
       <use x="70.799973" xlink:href="#MinionPro-Regular-36"/>
      </g>
     </g>
    </g>
    <g id="ytick_5">
     <g id="line2d_11">
      <g>
       <use style="stroke:#000000;stroke-width:0.8;" x="28.455625" xlink:href="#m1dff3276b7" y="543.696187"/>
      </g>
     </g>
     <g id="text_11">
      <!-- 0.8 -->
      <g transform="translate(7.2 547.968375)scale(0.12 -0.12)">
       <use xlink:href="#MinionPro-Regular-30"/>
       <use x="47.999985" xlink:href="#MinionPro-Regular-2e"/>
       <use x="70.799973" xlink:href="#MinionPro-Regular-38"/>
      </g>
     </g>
    </g>
    <g id="ytick_6">
     <g id="line2d_12">
      <g>
       <use style="stroke:#000000;stroke-width:0.8;" x="28.455625" xlink:href="#m1dff3276b7" y="676.752187"/>
      </g>
     </g>
     <g id="text_12">
      <!-- 1.0 -->
      <g transform="translate(7.2 681.024375)scale(0.12 -0.12)">
       <use xlink:href="#MinionPro-Regular-31"/>
       <use x="47.999985" xlink:href="#MinionPro-Regular-2e"/>
       <use x="70.799973" xlink:href="#MinionPro-Regular-30"/>
      </g>
     </g>
    </g>
   </g>
   <g id="patch_3">
    <path d="M 28.455625 676.752187 
L 28.455625 11.472187 
" style="fill:none;stroke:#000000;stroke-linecap:square;stroke-linejoin:miter;stroke-width:0.8;"/>
   </g>
   <g id="patch_4">
    <path d="M 698.055625 676.752187 
L 698.055625 11.472187 
" style="fill:none;stroke:#000000;stroke-linecap:square;stroke-linejoin:miter;stroke-width:0.8;"/>
   </g>
   <g id="patch_5">
    <path d="M 28.455625 676.752187 
L 698.055625 676.752187 
" style="fill:none;stroke:#000000;stroke-linecap:square;stroke-linejoin:miter;stroke-width:0.8;"/>
   </g>
   <g id="patch_6">
    <path d="M 28.455625 11.472187 
L 698.055625 11.472187 
" style="fill:none;stroke:#000000;stroke-linecap:square;stroke-linejoin:miter;stroke-width:0.8;"/>
   </g>
   <g id="legend_1">
    <g id="patch_7">
     <path d="M 684.855625 20.419387 
L 689.655625 20.419387 
Q 692.055625 20.419387 692.055625 18.019387 
L 692.055625 13.219387 
Q 692.055625 10.819387 689.655625 10.819387 
L 684.855625 10.819387 
Q 682.455625 10.819387 682.455625 13.219387 
L 682.455625 18.019387 
Q 682.455625 20.419387 684.855625 20.419387 
z
" style="fill:#ffffff;opacity:0.8;stroke:#cccccc;stroke-linejoin:miter;"/>
    </g>
   </g>
  </g>
 </g>
</svg>
