<?xml version="1.0" encoding="utf-8" standalone="no"?>
<!DOCTYPE svg PUBLIC "-//W3C//DTD SVG 1.1//EN"
  "http://www.w3.org/Graphics/SVG/1.1/DTD/svg11.dtd">
<svg xmlns:xlink="http://www.w3.org/1999/xlink" width="648pt" height="288pt" viewBox="0 0 648 288" xmlns="http://www.w3.org/2000/svg" version="1.1">
 <metadata>
  <rdf:RDF xmlns:dc="http://purl.org/dc/elements/1.1/" xmlns:cc="http://creativecommons.org/ns#" xmlns:rdf="http://www.w3.org/1999/02/22-rdf-syntax-ns#">
   <cc:Work>
    <dc:type rdf:resource="http://purl.org/dc/dcmitype/StillImage"/>
    <dc:date>2023-05-14T22:53:33.346638</dc:date>
    <dc:format>image/svg+xml</dc:format>
    <dc:creator>
     <cc:Agent>
      <dc:title>Matplotlib v3.7.1, https://matplotlib.org/</dc:title>
     </cc:Agent>
    </dc:creator>
   </cc:Work>
  </rdf:RDF>
 </metadata>
 <defs>
  <style type="text/css">*{stroke-linejoin: round; stroke-linecap: butt}</style>
 </defs>
 <g id="figure_1">
  <g id="patch_1">
   <path d="M 0 288 
L 648 288 
L 648 0 
L 0 0 
z
" style="fill: #ffffff"/>
  </g>
  <g id="axes_1">
   <g id="patch_2">
    <path d="M 62.12 237.0625 
L 310.185135 237.0625 
L 310.185135 12.96 
L 62.12 12.96 
z
" style="fill: #ffffff"/>
   </g>
   <g id="matplotlib.axis_1">
    <g id="xtick_1">
     <g id="line2d_1">
      <defs>
       <path id="me2da98fd18" d="M 0 0 
L 0 3.5 
" style="stroke: #000000; stroke-width: 0.8"/>
      </defs>
      <g>
       <use xlink:href="#me2da98fd18" x="73.395688" y="237.0625" style="stroke: #000000; stroke-width: 0.8"/>
      </g>
     </g>
     <g id="text_1">
      <!-- 0 -->
      <g transform="translate(70.515688 252.606875) scale(0.12 -0.12)">
       <defs>
        <path id="MinionPro-Regular-30" d="M 1536 4064 
C 576 4064 224 2925 224 1990 
C 224 979 570 -77 1536 -77 
C 2496 -77 2835 1062 2835 1997 
C 2835 2982 2496 4064 1542 4064 
L 1536 4064 
z
M 1530 3853 
C 2106 3853 2266 2906 2266 1997 
C 2266 1101 2112 141 1536 141 
C 979 141 794 1107 794 2003 
C 794 2893 947 3853 1523 3853 
L 1530 3853 
z
" transform="scale(0.015625)"/>
       </defs>
       <use xlink:href="#MinionPro-Regular-30"/>
      </g>
     </g>
    </g>
    <g id="xtick_2">
     <g id="line2d_2">
      <g>
       <use xlink:href="#me2da98fd18" x="118.799924" y="237.0625" style="stroke: #000000; stroke-width: 0.8"/>
      </g>
     </g>
     <g id="text_2">
      <!-- 10000 -->
      <g transform="translate(104.399924 252.606875) scale(0.12 -0.12)">
       <defs>
        <path id="MinionPro-Regular-31" d="M 2458 0 
L 2458 173 
C 1875 218 1837 269 1837 730 
L 1837 4064 
C 1485 3923 1107 3802 698 3731 
L 698 3584 
L 1005 3571 
C 1286 3558 1312 3526 1312 3194 
L 1312 730 
C 1312 269 1280 218 698 173 
L 698 0 
L 2458 0 
z
" transform="scale(0.015625)"/>
       </defs>
       <use xlink:href="#MinionPro-Regular-31"/>
       <use xlink:href="#MinionPro-Regular-30" x="47.999985"/>
       <use xlink:href="#MinionPro-Regular-30" x="95.999969"/>
       <use xlink:href="#MinionPro-Regular-30" x="143.999954"/>
       <use xlink:href="#MinionPro-Regular-30" x="191.999939"/>
      </g>
     </g>
    </g>
    <g id="xtick_3">
     <g id="line2d_3">
      <g>
       <use xlink:href="#me2da98fd18" x="164.20416" y="237.0625" style="stroke: #000000; stroke-width: 0.8"/>
      </g>
     </g>
     <g id="text_3">
      <!-- 20000 -->
      <g transform="translate(149.80416 252.606875) scale(0.12 -0.12)">
       <defs>
        <path id="MinionPro-Regular-32" d="M 2637 896 
C 2445 493 2362 467 2016 467 
L 819 467 
L 1728 1421 
C 2317 2048 2573 2426 2573 2982 
C 2573 3654 2061 4064 1498 4064 
C 1126 4064 826 3898 634 3686 
L 269 3168 
L 410 3040 
C 576 3290 845 3635 1280 3635 
C 1754 3635 2035 3322 2035 2784 
C 2035 2234 1632 1709 1235 1235 
C 915 864 557 499 198 147 
L 198 0 
L 2592 0 
C 2669 288 2733 570 2816 838 
L 2637 896 
z
" transform="scale(0.015625)"/>
       </defs>
       <use xlink:href="#MinionPro-Regular-32"/>
       <use xlink:href="#MinionPro-Regular-30" x="47.999985"/>
       <use xlink:href="#MinionPro-Regular-30" x="95.999969"/>
       <use xlink:href="#MinionPro-Regular-30" x="143.999954"/>
       <use xlink:href="#MinionPro-Regular-30" x="191.999939"/>
      </g>
     </g>
    </g>
    <g id="xtick_4">
     <g id="line2d_4">
      <g>
       <use xlink:href="#me2da98fd18" x="209.608396" y="237.0625" style="stroke: #000000; stroke-width: 0.8"/>
      </g>
     </g>
     <g id="text_4">
      <!-- 30000 -->
      <g transform="translate(195.208396 252.606875) scale(0.12 -0.12)">
       <defs>
        <path id="MinionPro-Regular-33" d="M 1824 2419 
C 2010 2547 2163 2662 2259 2765 
C 2381 2886 2458 3034 2458 3219 
C 2458 3706 2080 4064 1504 4064 
L 1498 4064 
C 1165 4064 870 3904 691 3706 
L 410 3302 
L 544 3174 
C 704 3411 960 3680 1312 3680 
C 1651 3680 1920 3475 1920 3078 
C 1920 2605 1485 2355 896 2170 
L 941 1984 
C 1043 2016 1197 2054 1350 2054 
C 1715 2054 2163 1818 2163 1229 
C 2163 595 1843 256 1389 256 
C 1024 256 762 435 595 582 
C 544 627 493 621 442 582 
C 384 538 301 454 294 371 
C 282 294 307 224 397 141 
C 480 64 742 -77 1037 -77 
C 1498 -77 2714 397 2714 1434 
C 2714 1901 2387 2298 1824 2406 
L 1824 2419 
z
" transform="scale(0.015625)"/>
       </defs>
       <use xlink:href="#MinionPro-Regular-33"/>
       <use xlink:href="#MinionPro-Regular-30" x="47.999985"/>
       <use xlink:href="#MinionPro-Regular-30" x="95.999969"/>
       <use xlink:href="#MinionPro-Regular-30" x="143.999954"/>
       <use xlink:href="#MinionPro-Regular-30" x="191.999939"/>
      </g>
     </g>
    </g>
    <g id="xtick_5">
     <g id="line2d_5">
      <g>
       <use xlink:href="#me2da98fd18" x="255.012632" y="237.0625" style="stroke: #000000; stroke-width: 0.8"/>
      </g>
     </g>
     <g id="text_5">
      <!-- 40000 -->
      <g transform="translate(240.612632 252.606875) scale(0.12 -0.12)">
       <defs>
        <path id="MinionPro-Regular-34" d="M 2918 1139 
L 2918 1440 
L 2304 1440 
L 2304 4045 
L 2048 4045 
C 1389 3174 736 2227 128 1318 
L 128 1139 
L 1792 1139 
L 1792 678 
C 1792 256 1766 218 1210 173 
L 1210 0 
L 2848 0 
L 2848 173 
C 2330 218 2304 250 2304 678 
L 2304 1139 
L 2918 1139 
z
M 1792 1440 
L 531 1440 
C 954 2150 1370 2758 1779 3334 
L 1792 3334 
L 1792 1440 
z
" transform="scale(0.015625)"/>
       </defs>
       <use xlink:href="#MinionPro-Regular-34"/>
       <use xlink:href="#MinionPro-Regular-30" x="47.999985"/>
       <use xlink:href="#MinionPro-Regular-30" x="95.999969"/>
       <use xlink:href="#MinionPro-Regular-30" x="143.999954"/>
       <use xlink:href="#MinionPro-Regular-30" x="191.999939"/>
      </g>
     </g>
    </g>
    <g id="xtick_6">
     <g id="line2d_6">
      <g>
       <use xlink:href="#me2da98fd18" x="300.416868" y="237.0625" style="stroke: #000000; stroke-width: 0.8"/>
      </g>
     </g>
     <g id="text_6">
      <!-- 50000 -->
      <g transform="translate(286.016868 252.606875) scale(0.12 -0.12)">
       <defs>
        <path id="MinionPro-Regular-35" d="M 973 3520 
L 2464 3520 
L 2630 3936 
L 2592 3987 
L 768 3987 
L 518 2035 
C 666 2093 909 2163 1178 2163 
C 1875 2163 2221 1760 2221 1197 
C 2221 717 1952 250 1408 250 
C 1018 250 755 454 621 576 
C 557 627 506 621 448 576 
C 378 512 320 429 314 365 
C 301 288 333 237 416 147 
C 512 58 781 -77 1075 -77 
C 1414 -70 1843 96 2189 378 
C 2579 698 2758 1062 2758 1446 
C 2758 1971 2342 2528 1523 2528 
C 1350 2528 1050 2426 806 2336 
L 973 3520 
z
" transform="scale(0.015625)"/>
       </defs>
       <use xlink:href="#MinionPro-Regular-35"/>
       <use xlink:href="#MinionPro-Regular-30" x="47.999985"/>
       <use xlink:href="#MinionPro-Regular-30" x="95.999969"/>
       <use xlink:href="#MinionPro-Regular-30" x="143.999954"/>
       <use xlink:href="#MinionPro-Regular-30" x="191.999939"/>
      </g>
     </g>
    </g>
    <g id="text_7">
     <!-- NFEs -->
     <g transform="translate(169.599833 270.167344) scale(0.15 -0.15)">
      <defs>
       <path id="MinionPro-Regular-4e" d="M 4602 4160 
L 3091 4160 
L 3091 3981 
C 3533 3955 3686 3872 3718 3584 
C 3738 3405 3763 3110 3763 2522 
L 3763 947 
L 3744 947 
L 1075 4160 
L 128 4160 
L 128 3981 
C 429 3955 570 3904 698 3744 
C 813 3590 826 3565 826 3098 
L 826 1690 
C 826 1101 806 794 787 595 
C 755 282 595 198 224 179 
L 224 0 
L 1741 0 
L 1741 179 
C 1306 205 1158 282 1126 608 
C 1107 794 1088 1101 1088 1690 
L 1088 3296 
L 1101 3296 
L 3827 -58 
L 4026 -58 
L 4026 2522 
C 4026 3117 4038 3405 4064 3597 
C 4090 3878 4243 3962 4602 3981 
L 4602 4160 
z
" transform="scale(0.015625)"/>
       <path id="MinionPro-Regular-46" d="M 3155 3219 
C 3123 3520 3091 3930 3091 4160 
L 275 4160 
L 275 3981 
C 768 3942 819 3910 819 3354 
L 819 806 
C 819 256 768 218 256 179 
L 256 0 
L 1997 0 
L 1997 179 
C 1414 218 1363 256 1363 806 
L 1363 1965 
L 2022 1965 
C 2605 1965 2630 1888 2714 1453 
L 2893 1453 
L 2893 2682 
L 2714 2682 
C 2630 2272 2605 2214 2022 2214 
L 1363 2214 
L 1363 3738 
C 1363 3923 1382 3936 1568 3936 
L 2054 3936 
C 2541 3936 2682 3885 2784 3706 
C 2874 3571 2912 3450 2963 3194 
L 3155 3219 
z
" transform="scale(0.015625)"/>
       <path id="MinionPro-Regular-45" d="M 3302 1037 
C 3219 781 3098 563 2989 435 
C 2848 269 2669 218 2182 218 
C 1862 218 1638 224 1517 301 
C 1402 384 1363 518 1363 819 
L 1363 2029 
L 1971 2029 
C 2528 2029 2573 1990 2656 1530 
L 2842 1530 
L 2842 2758 
L 2656 2758 
C 2573 2330 2541 2278 1965 2278 
L 1363 2278 
L 1363 3731 
C 1363 3923 1376 3936 1574 3936 
L 2061 3936 
C 2522 3936 2694 3891 2784 3757 
C 2867 3616 2931 3475 2989 3206 
L 3174 3238 
C 3155 3565 3123 4000 3123 4160 
L 269 4160 
L 269 3981 
C 768 3936 819 3917 819 3341 
L 819 794 
C 819 275 768 224 186 179 
L 186 0 
L 3270 0 
C 3328 198 3456 800 3494 1011 
L 3302 1037 
z
" transform="scale(0.015625)"/>
       <path id="MinionPro-Regular-73" d="M 2048 2080 
C 2029 2240 1958 2618 1907 2765 
C 1773 2816 1600 2880 1338 2874 
C 749 2874 365 2496 365 2048 
C 365 1555 781 1344 1165 1165 
C 1485 1018 1670 864 1670 582 
C 1670 314 1453 134 1216 134 
C 832 134 544 506 429 928 
L 262 896 
C 262 666 320 230 365 141 
C 480 45 774 -77 1101 -77 
C 1613 -77 2157 224 2157 806 
C 2157 1248 1830 1478 1350 1677 
C 1062 1798 806 1952 806 2234 
C 806 2483 979 2675 1222 2675 
C 1536 2675 1760 2419 1882 2042 
L 2048 2080 
z
" transform="scale(0.015625)"/>
      </defs>
      <use xlink:href="#MinionPro-Regular-4e"/>
      <use xlink:href="#MinionPro-Regular-46" x="74.299988"/>
      <use xlink:href="#MinionPro-Regular-45" x="127.199982"/>
      <use xlink:href="#MinionPro-Regular-73" x="183.999969"/>
     </g>
    </g>
   </g>
   <g id="matplotlib.axis_2">
    <g id="ytick_1">
     <g id="line2d_7">
      <defs>
       <path id="m6c6f1f56b7" d="M 0 0 
L -3.5 0 
" style="stroke: #000000; stroke-width: 0.8"/>
      </defs>
      <g>
       <use xlink:href="#m6c6f1f56b7" x="62.12" y="226.876023" style="stroke: #000000; stroke-width: 0.8"/>
      </g>
     </g>
     <g id="text_8">
      <!-- 0 -->
      <g transform="translate(49.36 231.14821) scale(0.12 -0.12)">
       <use xlink:href="#MinionPro-Regular-30"/>
      </g>
     </g>
    </g>
    <g id="ytick_2">
     <g id="line2d_8">
      <g>
       <use xlink:href="#m6c6f1f56b7" x="62.12" y="201.68691" style="stroke: #000000; stroke-width: 0.8"/>
      </g>
     </g>
     <g id="text_9">
      <!-- 250 -->
      <g transform="translate(37.84 205.959097) scale(0.12 -0.12)">
       <use xlink:href="#MinionPro-Regular-32"/>
       <use xlink:href="#MinionPro-Regular-35" x="47.999985"/>
       <use xlink:href="#MinionPro-Regular-30" x="95.999969"/>
      </g>
     </g>
    </g>
    <g id="ytick_3">
     <g id="line2d_9">
      <g>
       <use xlink:href="#m6c6f1f56b7" x="62.12" y="176.497797" style="stroke: #000000; stroke-width: 0.8"/>
      </g>
     </g>
     <g id="text_10">
      <!-- 500 -->
      <g transform="translate(37.84 180.769984) scale(0.12 -0.12)">
       <use xlink:href="#MinionPro-Regular-35"/>
       <use xlink:href="#MinionPro-Regular-30" x="47.999985"/>
       <use xlink:href="#MinionPro-Regular-30" x="95.999969"/>
      </g>
     </g>
    </g>
    <g id="ytick_4">
     <g id="line2d_10">
      <g>
       <use xlink:href="#m6c6f1f56b7" x="62.12" y="151.308684" style="stroke: #000000; stroke-width: 0.8"/>
      </g>
     </g>
     <g id="text_11">
      <!-- 750 -->
      <g transform="translate(37.84 155.580871) scale(0.12 -0.12)">
       <defs>
        <path id="MinionPro-Regular-37" d="M 2861 3987 
L 416 3987 
C 390 3712 358 3392 301 3040 
L 486 3040 
C 640 3462 678 3520 1101 3520 
L 2483 3520 
C 1978 2406 1254 1088 582 -6 
L 627 -77 
L 1101 -13 
C 1715 1306 2310 2611 2912 3910 
L 2861 3987 
z
" transform="scale(0.015625)"/>
       </defs>
       <use xlink:href="#MinionPro-Regular-37"/>
       <use xlink:href="#MinionPro-Regular-35" x="47.999985"/>
       <use xlink:href="#MinionPro-Regular-30" x="95.999969"/>
      </g>
     </g>
    </g>
    <g id="ytick_5">
     <g id="line2d_11">
      <g>
       <use xlink:href="#m6c6f1f56b7" x="62.12" y="126.119571" style="stroke: #000000; stroke-width: 0.8"/>
      </g>
     </g>
     <g id="text_12">
      <!-- 1000 -->
      <g transform="translate(32.08 130.391758) scale(0.12 -0.12)">
       <use xlink:href="#MinionPro-Regular-31"/>
       <use xlink:href="#MinionPro-Regular-30" x="47.999985"/>
       <use xlink:href="#MinionPro-Regular-30" x="95.999969"/>
       <use xlink:href="#MinionPro-Regular-30" x="143.999954"/>
      </g>
     </g>
    </g>
    <g id="ytick_6">
     <g id="line2d_12">
      <g>
       <use xlink:href="#m6c6f1f56b7" x="62.12" y="100.930458" style="stroke: #000000; stroke-width: 0.8"/>
      </g>
     </g>
     <g id="text_13">
      <!-- 1250 -->
      <g transform="translate(32.08 105.202646) scale(0.12 -0.12)">
       <use xlink:href="#MinionPro-Regular-31"/>
       <use xlink:href="#MinionPro-Regular-32" x="47.999985"/>
       <use xlink:href="#MinionPro-Regular-35" x="95.999969"/>
       <use xlink:href="#MinionPro-Regular-30" x="143.999954"/>
      </g>
     </g>
    </g>
    <g id="ytick_7">
     <g id="line2d_13">
      <g>
       <use xlink:href="#m6c6f1f56b7" x="62.12" y="75.741345" style="stroke: #000000; stroke-width: 0.8"/>
      </g>
     </g>
     <g id="text_14">
      <!-- 1500 -->
      <g transform="translate(32.08 80.013533) scale(0.12 -0.12)">
       <use xlink:href="#MinionPro-Regular-31"/>
       <use xlink:href="#MinionPro-Regular-35" x="47.999985"/>
       <use xlink:href="#MinionPro-Regular-30" x="95.999969"/>
       <use xlink:href="#MinionPro-Regular-30" x="143.999954"/>
      </g>
     </g>
    </g>
    <g id="ytick_8">
     <g id="line2d_14">
      <g>
       <use xlink:href="#m6c6f1f56b7" x="62.12" y="50.552232" style="stroke: #000000; stroke-width: 0.8"/>
      </g>
     </g>
     <g id="text_15">
      <!-- 1750 -->
      <g transform="translate(32.08 54.82442) scale(0.12 -0.12)">
       <use xlink:href="#MinionPro-Regular-31"/>
       <use xlink:href="#MinionPro-Regular-37" x="47.999985"/>
       <use xlink:href="#MinionPro-Regular-35" x="95.999969"/>
       <use xlink:href="#MinionPro-Regular-30" x="143.999954"/>
      </g>
     </g>
    </g>
    <g id="ytick_9">
     <g id="line2d_15">
      <g>
       <use xlink:href="#m6c6f1f56b7" x="62.12" y="25.363119" style="stroke: #000000; stroke-width: 0.8"/>
      </g>
     </g>
     <g id="text_16">
      <!-- 2000 -->
      <g transform="translate(32.08 29.635307) scale(0.12 -0.12)">
       <use xlink:href="#MinionPro-Regular-32"/>
       <use xlink:href="#MinionPro-Regular-30" x="47.999985"/>
       <use xlink:href="#MinionPro-Regular-30" x="95.999969"/>
       <use xlink:href="#MinionPro-Regular-30" x="143.999954"/>
      </g>
     </g>
    </g>
    <g id="text_17">
     <!-- $\epsilon$-progress -->
     <g transform="translate(24.18 157.26125) rotate(-90) scale(0.15 -0.15)">
      <defs>
       <path id="DejaVuSans-Oblique-3b5" d="M 1263 1888 
Q 925 1963 778 2166 
Q 669 2309 669 2503 
Q 669 3034 1175 3344 
Q 1575 3588 2188 3588 
Q 2425 3588 2684 3550 
Q 2944 3513 3234 3438 
L 3134 2916 
Q 2847 3006 2606 3047 
Q 2359 3088 2138 3088 
Q 1766 3088 1522 2944 
Q 1228 2772 1228 2522 
Q 1228 2356 1381 2241 
Q 1563 2103 1925 2103 
L 2409 2103 
L 2319 1628 
L 1856 1628 
Q 1425 1628 1172 1469 
Q 828 1253 828 916 
Q 828 703 1013 563 
Q 1244 388 1716 388 
Q 2006 388 2284 444 
Q 2563 503 2806 619 
L 2700 84 
Q 2403 -3 2131 -47 
Q 1859 -91 1609 -91 
Q 866 -91 516 194 
Q 250 413 250 781 
Q 250 1278 600 1584 
Q 859 1813 1263 1888 
z
" transform="scale(0.015625)"/>
       <path id="MinionPro-Regular-2d" d="M 1920 1619 
L 454 1619 
L 365 1267 
L 1824 1267 
L 1920 1619 
z
" transform="scale(0.015625)"/>
       <path id="MinionPro-Regular-70" d="M 1082 2432 
L 1082 2938 
C 781 2816 422 2707 154 2662 
L 154 2509 
C 550 2458 576 2445 576 2029 
L 576 -864 
C 576 -1286 518 -1325 109 -1363 
L 109 -1536 
L 1626 -1536 
L 1626 -1363 
C 1126 -1318 1082 -1286 1082 -800 
L 1082 38 
C 1165 -6 1338 -70 1523 -77 
C 2355 77 3117 698 3117 1664 
C 3117 2298 2694 2874 1984 2874 
C 1907 2874 1786 2842 1670 2778 
L 1082 2432 
z
M 1082 2221 
C 1254 2349 1517 2490 1722 2490 
C 2189 2490 2579 2106 2579 1421 
C 2579 698 2221 237 1683 237 
C 1466 237 1222 339 1082 486 
L 1082 2221 
z
" transform="scale(0.015625)"/>
       <path id="MinionPro-Regular-72" d="M 1158 2195 
L 1158 2893 
C 851 2758 570 2682 256 2630 
L 256 2490 
C 621 2438 653 2413 653 1990 
L 653 666 
C 653 243 608 205 211 166 
L 211 0 
L 1683 0 
L 1683 166 
C 1190 205 1158 243 1158 666 
L 1158 1837 
C 1299 2195 1504 2387 1670 2387 
C 1773 2387 1850 2349 1939 2253 
C 1978 2214 2035 2208 2112 2240 
C 2234 2298 2317 2426 2317 2554 
C 2317 2707 2163 2874 1946 2874 
C 1638 2874 1363 2515 1171 2195 
L 1158 2195 
z
" transform="scale(0.015625)"/>
       <path id="MinionPro-Regular-6f" d="M 1638 2874 
C 1056 2874 237 2394 237 1338 
C 237 627 762 -77 1638 -77 
C 2272 -77 3027 416 3027 1446 
C 3027 2240 2432 2874 1645 2874 
L 1638 2874 
z
M 1574 2662 
C 2131 2662 2432 2054 2432 1306 
C 2432 429 2106 134 1709 134 
C 1184 134 832 736 832 1542 
C 832 2266 1178 2662 1568 2662 
L 1574 2662 
z
" transform="scale(0.015625)"/>
       <path id="MinionPro-Regular-67" d="M 2957 2803 
C 2726 2765 2400 2726 2086 2714 
C 1901 2816 1690 2874 1472 2874 
L 1466 2874 
C 979 2874 326 2541 326 1811 
C 326 1376 602 1075 890 954 
C 787 826 582 659 326 563 
C 320 499 339 390 397 294 
C 480 160 640 13 870 -58 
C 717 -173 467 -378 339 -506 
C 243 -602 186 -723 186 -864 
C 192 -1229 582 -1645 1293 -1645 
C 2144 -1645 2893 -1024 2893 -378 
C 2893 250 2368 378 1971 378 
C 1760 378 1530 371 1299 371 
C 1011 371 896 493 896 621 
C 896 710 998 826 1088 883 
C 1190 870 1306 851 1414 851 
C 1958 851 2534 1184 2534 1875 
C 2534 2106 2464 2304 2342 2445 
L 2707 2426 
C 2810 2477 2938 2650 2995 2752 
L 2957 2803 
z
M 1408 2682 
C 1773 2682 2010 2323 2010 1818 
C 2010 1312 1760 1062 1478 1056 
C 1120 1056 877 1414 877 1914 
C 877 2413 1126 2682 1402 2682 
L 1408 2682 
z
M 1549 -70 
C 1818 -70 2003 -90 2163 -154 
C 2349 -230 2458 -390 2458 -608 
C 2458 -1005 2144 -1318 1536 -1318 
C 1062 -1318 691 -1056 691 -710 
C 691 -525 819 -346 986 -211 
C 1101 -109 1242 -70 1542 -70 
L 1549 -70 
z
" transform="scale(0.015625)"/>
       <path id="MinionPro-Regular-65" d="M 2426 678 
C 2195 461 1952 358 1696 358 
C 1248 358 749 717 742 1587 
C 1504 1613 2304 1677 2413 1696 
C 2528 1722 2560 1773 2560 1901 
C 2560 2400 2131 2874 1600 2874 
L 1594 2874 
C 1267 2874 922 2701 659 2406 
C 397 2118 237 1728 237 1286 
C 237 563 698 -77 1485 -77 
C 1683 -77 2125 38 2528 544 
L 2426 678 
z
M 1446 2637 
C 1798 2637 2016 2330 2010 1997 
C 2010 1907 1971 1869 1856 1869 
C 1485 1856 1133 1850 774 1850 
C 870 2368 1152 2637 1440 2637 
L 1446 2637 
z
" transform="scale(0.015625)"/>
      </defs>
      <use xlink:href="#DejaVuSans-Oblique-3b5" transform="translate(0 0.9375)"/>
      <use xlink:href="#MinionPro-Regular-2d" transform="translate(54.052734 0.9375)"/>
      <use xlink:href="#MinionPro-Regular-70" transform="translate(89.652725 0.9375)"/>
      <use xlink:href="#MinionPro-Regular-72" transform="translate(142.052719 0.9375)"/>
      <use xlink:href="#MinionPro-Regular-6f" transform="translate(179.15271 0.9375)"/>
      <use xlink:href="#MinionPro-Regular-67" transform="translate(230.152695 0.9375)"/>
      <use xlink:href="#MinionPro-Regular-72" transform="translate(276.952682 0.9375)"/>
      <use xlink:href="#MinionPro-Regular-65" transform="translate(314.052673 0.9375)"/>
      <use xlink:href="#MinionPro-Regular-73" transform="translate(356.552658 0.9375)"/>
      <use xlink:href="#MinionPro-Regular-73" transform="translate(393.252655 0.9375)"/>
     </g>
    </g>
   </g>
   <g id="line2d_16">
    <path d="M 73.395688 226.876023 
L 73.84973 224.860894 
L 76.119942 219.319289 
L 78.390154 210.251208 
L 80.660366 204.407334 
L 82.930578 199.369511 
L 85.200789 195.641523 
L 87.471001 193.223368 
L 89.741213 190.402187 
L 92.011425 187.177981 
L 94.281637 184.457557 
L 96.551848 181.031837 
L 98.82206 178.009144 
L 101.092272 175.994015 
L 103.362484 173.777373 
L 105.632696 171.560731 
L 107.902907 169.646358 
L 110.173119 167.933498 
L 112.443331 166.119882 
L 114.713543 163.802484 
L 116.983755 161.787355 
L 121.360723 160.477521 
L 124.775121 157.253315 
L 128.18952 152.820031 
L 131.603918 146.976156 
L 135.018317 141.434552 
L 138.432716 135.993703 
L 141.847114 130.653611 
L 145.261513 126.220327 
L 148.675911 121.8878 
L 152.09031 117.152247 
L 155.504708 113.424258 
L 158.919107 110.200052 
L 162.333505 107.378871 
L 165.747904 103.953152 
L 169.162302 101.43424 
L 172.576701 98.008521 
L 175.9911 95.388853 
L 179.405498 92.769185 
L 182.819897 90.854813 
L 186.234295 87.630606 
L 189.648694 84.910182 
L 193.063092 81.685976 
L 196.477491 79.469334 
L 199.891889 77.454205 
L 203.306288 74.935293 
L 206.720687 73.62546 
L 210.135085 71.207305 
L 213.549484 68.78915 
L 216.963882 66.270239 
L 220.378281 63.751327 
L 223.792679 61.836955 
L 227.207078 59.620313 
L 230.621476 58.108966 
L 234.035875 55.690811 
L 237.450273 54.078708 
L 240.864672 51.358284 
L 244.279071 49.343155 
L 247.693469 47.428782 
L 251.107868 45.816679 
L 254.522266 43.700793 
L 257.936665 41.484151 
L 261.351063 39.771292 
L 264.765462 38.562214 
L 268.17986 36.647842 
L 271.594259 35.237251 
L 275.008657 33.625148 
L 278.423056 32.214558 
L 281.837455 30.602455 
L 285.251853 29.292621 
L 288.666252 28.285056 
L 292.08065 26.572197 
L 295.495049 24.960093 
L 298.909447 23.146477 
" clip-path="url(#p2f3c7dde9b)" style="fill: none; stroke: #1f77b4; stroke-width: 1.5; stroke-linecap: square"/>
   </g>
   <g id="patch_3">
    <path d="M 62.12 237.0625 
L 62.12 12.96 
" style="fill: none; stroke: #000000; stroke-width: 0.8; stroke-linejoin: miter; stroke-linecap: square"/>
   </g>
   <g id="patch_4">
    <path d="M 310.185135 237.0625 
L 310.185135 12.96 
" style="fill: none; stroke: #000000; stroke-width: 0.8; stroke-linejoin: miter; stroke-linecap: square"/>
   </g>
   <g id="patch_5">
    <path d="M 62.12 237.0625 
L 310.185135 237.0625 
" style="fill: none; stroke: #000000; stroke-width: 0.8; stroke-linejoin: miter; stroke-linecap: square"/>
   </g>
   <g id="patch_6">
    <path d="M 62.12 12.96 
L 310.185135 12.96 
" style="fill: none; stroke: #000000; stroke-width: 0.8; stroke-linejoin: miter; stroke-linecap: square"/>
   </g>
  </g>
  <g id="axes_2">
   <g id="patch_7">
    <path d="M 381.56375 237.0625 
L 629.628885 237.0625 
L 629.628885 12.96 
L 381.56375 12.96 
z
" style="fill: #ffffff"/>
   </g>
   <g id="matplotlib.axis_3">
    <g id="xtick_7">
     <g id="line2d_17">
      <g>
       <use xlink:href="#me2da98fd18" x="392.839438" y="237.0625" style="stroke: #000000; stroke-width: 0.8"/>
      </g>
     </g>
     <g id="text_18">
      <!-- 0 -->
      <g transform="translate(389.959438 252.606875) scale(0.12 -0.12)">
       <use xlink:href="#MinionPro-Regular-30"/>
      </g>
     </g>
    </g>
    <g id="xtick_8">
     <g id="line2d_18">
      <g>
       <use xlink:href="#me2da98fd18" x="438.243674" y="237.0625" style="stroke: #000000; stroke-width: 0.8"/>
      </g>
     </g>
     <g id="text_19">
      <!-- 10000 -->
      <g transform="translate(423.843674 252.606875) scale(0.12 -0.12)">
       <use xlink:href="#MinionPro-Regular-31"/>
       <use xlink:href="#MinionPro-Regular-30" x="47.999985"/>
       <use xlink:href="#MinionPro-Regular-30" x="95.999969"/>
       <use xlink:href="#MinionPro-Regular-30" x="143.999954"/>
       <use xlink:href="#MinionPro-Regular-30" x="191.999939"/>
      </g>
     </g>
    </g>
    <g id="xtick_9">
     <g id="line2d_19">
      <g>
       <use xlink:href="#me2da98fd18" x="483.64791" y="237.0625" style="stroke: #000000; stroke-width: 0.8"/>
      </g>
     </g>
     <g id="text_20">
      <!-- 20000 -->
      <g transform="translate(469.24791 252.606875) scale(0.12 -0.12)">
       <use xlink:href="#MinionPro-Regular-32"/>
       <use xlink:href="#MinionPro-Regular-30" x="47.999985"/>
       <use xlink:href="#MinionPro-Regular-30" x="95.999969"/>
       <use xlink:href="#MinionPro-Regular-30" x="143.999954"/>
       <use xlink:href="#MinionPro-Regular-30" x="191.999939"/>
      </g>
     </g>
    </g>
    <g id="xtick_10">
     <g id="line2d_20">
      <g>
       <use xlink:href="#me2da98fd18" x="529.052146" y="237.0625" style="stroke: #000000; stroke-width: 0.8"/>
      </g>
     </g>
     <g id="text_21">
      <!-- 30000 -->
      <g transform="translate(514.652146 252.606875) scale(0.12 -0.12)">
       <use xlink:href="#MinionPro-Regular-33"/>
       <use xlink:href="#MinionPro-Regular-30" x="47.999985"/>
       <use xlink:href="#MinionPro-Regular-30" x="95.999969"/>
       <use xlink:href="#MinionPro-Regular-30" x="143.999954"/>
       <use xlink:href="#MinionPro-Regular-30" x="191.999939"/>
      </g>
     </g>
    </g>
    <g id="xtick_11">
     <g id="line2d_21">
      <g>
       <use xlink:href="#me2da98fd18" x="574.456382" y="237.0625" style="stroke: #000000; stroke-width: 0.8"/>
      </g>
     </g>
     <g id="text_22">
      <!-- 40000 -->
      <g transform="translate(560.056382 252.606875) scale(0.12 -0.12)">
       <use xlink:href="#MinionPro-Regular-34"/>
       <use xlink:href="#MinionPro-Regular-30" x="47.999985"/>
       <use xlink:href="#MinionPro-Regular-30" x="95.999969"/>
       <use xlink:href="#MinionPro-Regular-30" x="143.999954"/>
       <use xlink:href="#MinionPro-Regular-30" x="191.999939"/>
      </g>
     </g>
    </g>
    <g id="xtick_12">
     <g id="line2d_22">
      <g>
       <use xlink:href="#me2da98fd18" x="619.860618" y="237.0625" style="stroke: #000000; stroke-width: 0.8"/>
      </g>
     </g>
     <g id="text_23">
      <!-- 50000 -->
      <g transform="translate(605.460618 252.606875) scale(0.12 -0.12)">
       <use xlink:href="#MinionPro-Regular-35"/>
       <use xlink:href="#MinionPro-Regular-30" x="47.999985"/>
       <use xlink:href="#MinionPro-Regular-30" x="95.999969"/>
       <use xlink:href="#MinionPro-Regular-30" x="143.999954"/>
       <use xlink:href="#MinionPro-Regular-30" x="191.999939"/>
      </g>
     </g>
    </g>
    <g id="text_24">
     <!-- NFEs -->
     <g transform="translate(489.043583 270.167344) scale(0.15 -0.15)">
      <use xlink:href="#MinionPro-Regular-4e"/>
      <use xlink:href="#MinionPro-Regular-46" x="74.299988"/>
      <use xlink:href="#MinionPro-Regular-45" x="127.199982"/>
      <use xlink:href="#MinionPro-Regular-73" x="183.999969"/>
     </g>
    </g>
   </g>
   <g id="matplotlib.axis_4">
    <g id="ytick_10">
     <g id="line2d_23">
      <g>
       <use xlink:href="#m6c6f1f56b7" x="381.56375" y="206.503068" style="stroke: #000000; stroke-width: 0.8"/>
      </g>
     </g>
     <g id="text_25">
      <!-- −0.04 -->
      <g transform="translate(347.588125 210.775256) scale(0.12 -0.12)">
       <defs>
        <path id="MinionPro-Regular-2212" d="M 3386 1466 
L 3386 1786 
L 333 1786 
L 333 1466 
L 3386 1466 
z
" transform="scale(0.015625)"/>
        <path id="MinionPro-Regular-2e" d="M 730 -77 
C 934 -77 1088 70 1088 294 
C 1088 499 934 659 730 659 
C 525 659 371 499 371 294 
C 371 70 525 -77 723 -77 
L 730 -77 
z
" transform="scale(0.015625)"/>
       </defs>
       <use xlink:href="#MinionPro-Regular-2212"/>
       <use xlink:href="#MinionPro-Regular-30" x="57.999985"/>
       <use xlink:href="#MinionPro-Regular-2e" x="105.999969"/>
       <use xlink:href="#MinionPro-Regular-30" x="128.799957"/>
       <use xlink:href="#MinionPro-Regular-34" x="176.799942"/>
      </g>
     </g>
    </g>
    <g id="ytick_11">
     <g id="line2d_24">
      <g>
       <use xlink:href="#m6c6f1f56b7" x="381.56375" y="165.757159" style="stroke: #000000; stroke-width: 0.8"/>
      </g>
     </g>
     <g id="text_26">
      <!-- −0.02 -->
      <g transform="translate(347.588125 170.029347) scale(0.12 -0.12)">
       <use xlink:href="#MinionPro-Regular-2212"/>
       <use xlink:href="#MinionPro-Regular-30" x="57.999985"/>
       <use xlink:href="#MinionPro-Regular-2e" x="105.999969"/>
       <use xlink:href="#MinionPro-Regular-30" x="128.799957"/>
       <use xlink:href="#MinionPro-Regular-32" x="176.799942"/>
      </g>
     </g>
    </g>
    <g id="ytick_12">
     <g id="line2d_25">
      <g>
       <use xlink:href="#m6c6f1f56b7" x="381.56375" y="125.01125" style="stroke: #000000; stroke-width: 0.8"/>
      </g>
     </g>
     <g id="text_27">
      <!-- 0.00 -->
      <g transform="translate(354.548125 129.283438) scale(0.12 -0.12)">
       <use xlink:href="#MinionPro-Regular-30"/>
       <use xlink:href="#MinionPro-Regular-2e" x="47.999985"/>
       <use xlink:href="#MinionPro-Regular-30" x="70.799973"/>
       <use xlink:href="#MinionPro-Regular-30" x="118.799957"/>
      </g>
     </g>
    </g>
    <g id="ytick_13">
     <g id="line2d_26">
      <g>
       <use xlink:href="#m6c6f1f56b7" x="381.56375" y="84.265341" style="stroke: #000000; stroke-width: 0.8"/>
      </g>
     </g>
     <g id="text_28">
      <!-- 0.02 -->
      <g transform="translate(354.548125 88.537528) scale(0.12 -0.12)">
       <use xlink:href="#MinionPro-Regular-30"/>
       <use xlink:href="#MinionPro-Regular-2e" x="47.999985"/>
       <use xlink:href="#MinionPro-Regular-30" x="70.799973"/>
       <use xlink:href="#MinionPro-Regular-32" x="118.799957"/>
      </g>
     </g>
    </g>
    <g id="ytick_14">
     <g id="line2d_27">
      <g>
       <use xlink:href="#m6c6f1f56b7" x="381.56375" y="43.519432" style="stroke: #000000; stroke-width: 0.8"/>
      </g>
     </g>
     <g id="text_29">
      <!-- 0.04 -->
      <g transform="translate(354.548125 47.791619) scale(0.12 -0.12)">
       <use xlink:href="#MinionPro-Regular-30"/>
       <use xlink:href="#MinionPro-Regular-2e" x="47.999985"/>
       <use xlink:href="#MinionPro-Regular-30" x="70.799973"/>
       <use xlink:href="#MinionPro-Regular-34" x="118.799957"/>
      </g>
     </g>
    </g>
    <g id="text_30">
     <!-- hypervolume -->
     <g transform="translate(339.732656 164.866719) rotate(-90) scale(0.15 -0.15)">
      <defs>
       <path id="MinionPro-Regular-68" d="M 3283 0 
L 3283 166 
C 2906 198 2861 237 2861 659 
L 2861 1779 
C 2861 2547 2496 2880 1978 2874 
C 1632 2874 1286 2637 1062 2406 
L 1062 4557 
C 813 4480 429 4378 122 4333 
L 122 4186 
C 544 4147 557 4115 557 3712 
L 557 659 
C 557 237 506 198 122 166 
L 115 0 
L 1472 0 
L 1472 166 
C 1094 205 1062 250 1062 659 
L 1062 2182 
C 1242 2387 1485 2509 1728 2509 
C 2157 2509 2355 2246 2355 1722 
L 2355 659 
C 2355 243 2304 205 1933 166 
L 1933 0 
L 3283 0 
z
" transform="scale(0.015625)"/>
       <path id="MinionPro-Regular-79" d="M 3059 2797 
L 1901 2797 
L 1901 2637 
C 2266 2586 2310 2515 2234 2272 
C 2099 1869 1824 1114 1645 678 
L 1062 2285 
C 979 2522 1011 2586 1306 2637 
L 1306 2797 
L 6 2797 
L 6 2637 
C 358 2586 422 2502 557 2150 
C 749 1696 1037 922 1293 192 
C 1331 83 1331 0 1299 -96 
C 1274 -179 1222 -314 1101 -538 
C 954 -826 826 -979 627 -1107 
C 518 -1178 461 -1235 461 -1338 
C 461 -1491 646 -1645 826 -1645 
C 915 -1645 992 -1613 1030 -1491 
C 1120 -1146 1261 -781 1690 243 
C 2131 1299 2330 1830 2490 2170 
C 2662 2534 2720 2586 3059 2637 
L 3059 2797 
z
" transform="scale(0.015625)"/>
       <path id="MinionPro-Regular-76" d="M 3053 2797 
L 1914 2797 
L 1914 2637 
C 2278 2592 2317 2522 2221 2214 
C 2080 1798 1875 1216 1651 685 
C 1466 1146 1210 1818 1043 2266 
C 941 2541 954 2592 1299 2637 
L 1299 2797 
L -13 2797 
L -13 2637 
C 333 2586 384 2541 531 2170 
C 832 1427 1126 698 1414 -70 
L 1587 -70 
C 1939 883 2278 1670 2490 2150 
C 2662 2534 2720 2592 3053 2637 
L 3053 2797 
z
" transform="scale(0.015625)"/>
       <path id="MinionPro-Regular-6c" d="M 1523 0 
L 1523 166 
C 1114 205 1062 243 1062 666 
L 1062 4557 
C 845 4480 448 4371 115 4333 
L 115 4179 
C 518 4147 557 4128 557 3693 
L 557 666 
C 557 243 499 205 96 166 
L 96 0 
L 1523 0 
z
" transform="scale(0.015625)"/>
       <path id="MinionPro-Regular-75" d="M 3315 314 
L 3136 326 
C 2893 339 2842 384 2842 704 
L 2842 2842 
C 2746 2822 2592 2797 2413 2778 
C 2227 2752 2010 2733 1837 2726 
L 1837 2579 
L 2067 2541 
C 2278 2509 2336 2470 2336 2125 
L 2336 634 
C 2118 422 1875 326 1645 326 
C 1357 326 1082 480 1082 1043 
L 1082 1907 
C 1082 2342 1082 2643 1101 2842 
C 992 2822 819 2797 646 2771 
C 474 2752 320 2733 186 2726 
L 186 2579 
L 365 2541 
C 525 2502 576 2470 576 2131 
L 576 877 
C 576 186 941 -77 1370 -77 
C 1542 -77 1677 -26 1862 83 
C 2042 192 2189 307 2336 416 
L 2336 -38 
L 2374 -77 
C 2496 -45 2656 6 2822 51 
C 2995 96 3174 134 3315 154 
L 3315 314 
z
" transform="scale(0.015625)"/>
       <path id="MinionPro-Regular-6d" d="M 5094 0 
L 5094 166 
C 4730 205 4678 230 4678 659 
L 4678 1894 
C 4678 2522 4365 2874 3866 2874 
C 3686 2874 3520 2797 3386 2707 
C 3226 2611 3040 2490 2854 2349 
C 2726 2682 2451 2874 2144 2874 
C 1939 2874 1786 2803 1619 2701 
C 1427 2579 1286 2464 1152 2374 
L 1152 2893 
C 870 2765 544 2682 262 2630 
L 262 2483 
C 634 2426 653 2394 653 1984 
L 653 659 
C 653 243 595 205 173 166 
L 173 0 
L 1523 0 
L 1523 166 
C 1210 205 1158 243 1158 659 
L 1158 2163 
C 1350 2323 1600 2496 1856 2496 
C 2246 2496 2413 2234 2413 1760 
L 2413 659 
C 2413 237 2355 205 1958 166 
L 1958 0 
L 3328 0 
L 3328 166 
C 2976 205 2918 243 2918 646 
L 2918 1894 
C 2918 2016 2912 2086 2899 2163 
C 3142 2368 3386 2496 3616 2496 
C 4019 2496 4179 2208 4179 1754 
L 4179 685 
C 4179 230 4109 205 3731 166 
L 3731 0 
L 5094 0 
z
" transform="scale(0.015625)"/>
      </defs>
      <use xlink:href="#MinionPro-Regular-68"/>
      <use xlink:href="#MinionPro-Regular-79" x="53.399994"/>
      <use xlink:href="#MinionPro-Regular-70" x="99.299988"/>
      <use xlink:href="#MinionPro-Regular-65" x="151.699982"/>
      <use xlink:href="#MinionPro-Regular-72" x="194.199966"/>
      <use xlink:href="#MinionPro-Regular-76" x="231.299957"/>
      <use xlink:href="#MinionPro-Regular-6f" x="277.599945"/>
      <use xlink:href="#MinionPro-Regular-6c" x="328.59993"/>
      <use xlink:href="#MinionPro-Regular-75" x="353.899918"/>
      <use xlink:href="#MinionPro-Regular-6d" x="406.999908"/>
      <use xlink:href="#MinionPro-Regular-65" x="488.899902"/>
     </g>
    </g>
   </g>
   <g id="line2d_28"/>
   <g id="patch_8">
    <path d="M 381.56375 237.0625 
L 381.56375 12.96 
" style="fill: none; stroke: #000000; stroke-width: 0.8; stroke-linejoin: miter; stroke-linecap: square"/>
   </g>
   <g id="patch_9">
    <path d="M 629.628885 237.0625 
L 629.628885 12.96 
" style="fill: none; stroke: #000000; stroke-width: 0.8; stroke-linejoin: miter; stroke-linecap: square"/>
   </g>
   <g id="patch_10">
    <path d="M 381.56375 237.0625 
L 629.628885 237.0625 
" style="fill: none; stroke: #000000; stroke-width: 0.8; stroke-linejoin: miter; stroke-linecap: square"/>
   </g>
   <g id="patch_11">
    <path d="M 381.56375 12.96 
L 629.628885 12.96 
" style="fill: none; stroke: #000000; stroke-width: 0.8; stroke-linejoin: miter; stroke-linecap: square"/>
   </g>
  </g>
 </g>
 <defs>
  <clipPath id="p2f3c7dde9b">
   <rect x="62.12" y="12.96" width="248.065135" height="224.1025"/>
  </clipPath>
 </defs>
</svg>
