<?xml version="1.0" encoding="utf-8" standalone="no"?>
<!DOCTYPE svg PUBLIC "-//W3C//DTD SVG 1.1//EN"
  "http://www.w3.org/Graphics/SVG/1.1/DTD/svg11.dtd">
<svg height="576pt" version="1.1" viewBox="0 0 864 576" width="864pt" xmlns="http://www.w3.org/2000/svg" xmlns:xlink="http://www.w3.org/1999/xlink">
 <metadata>
  <rdf:RDF xmlns:cc="http://creativecommons.org/ns#" xmlns:dc="http://purl.org/dc/elements/1.1/" xmlns:rdf="http://www.w3.org/1999/02/22-rdf-syntax-ns#">
   <cc:Work>
    <dc:type rdf:resource="http://purl.org/dc/dcmitype/StillImage"/>
    <dc:date>2022-07-30T02:15:10.423439</dc:date>
    <dc:format>image/svg+xml</dc:format>
    <dc:creator>
     <cc:Agent>
      <dc:title>Matplotlib v3.4.3, https://matplotlib.org/</dc:title>
     </cc:Agent>
    </dc:creator>
   </cc:Work>
  </rdf:RDF>
 </metadata>
 <defs>
  <style type="text/css">*{stroke-linecap:butt;stroke-linejoin:round;}</style>
 </defs>
 <g id="figure_1">
  <g id="patch_1">
   <path d="M 0 576 
L 864 576 
L 864 0 
L 0 0 
z
" style="fill:#ffffff;"/>
  </g>
  <g id="axes_1">
   <g id="patch_2">
    <path d="M 108 512.64 
L 777.6 512.64 
L 777.6 69.12 
L 108 69.12 
z
" style="fill:#ffffff;"/>
   </g>
   <g id="PolyCollection_1">
    <defs>
     <path d="M 138.436364 -93.40162 
L 138.436364 -196.267839 
L 193.775207 -195.476743 
L 249.11405 -192.830378 
L 304.452893 -148.638282 
L 359.791736 -94.816158 
L 415.130579 -125.414022 
L 470.469421 -218.383573 
L 525.808264 -213.145496 
L 581.147107 -193.583514 
L 636.48595 -191.874923 
L 691.824793 -191.687183 
L 747.163636 -191.658455 
L 747.163636 -191.628616 
L 747.163636 -191.628616 
L 691.824793 -191.639394 
L 636.48595 -191.752461 
L 581.147107 -192.442442 
L 525.808264 -207.021592 
L 470.469421 -190.756774 
L 415.130579 -105.879413 
L 359.791736 -87.687287 
L 304.452893 -83.52 
L 249.11405 -83.88625 
L 193.775207 -89.813222 
L 138.436364 -93.40162 
z
" id="mcf594f4fcf" style="stroke:#41ab5d;stroke-opacity:0.5;"/>
    </defs>
    <g clip-path="url(#pf95b0b07e0)">
     <use style="fill:#41ab5d;fill-opacity:0.5;stroke:#41ab5d;stroke-opacity:0.5;" x="0" xlink:href="#mcf594f4fcf" y="576"/>
    </g>
   </g>
   <g id="PolyCollection_2">
    <defs>
     <path d="M 138.436364 -91.65557 
L 138.436364 -101.185866 
L 193.775207 -93.416481 
L 249.11405 -90.716817 
L 304.452893 -90.578037 
L 359.791736 -96.490477 
L 415.130579 -126.841637 
L 470.469421 -270.197216 
L 525.808264 -486.72 
L 581.147107 -402.848923 
L 636.48595 -257.311462 
L 691.824793 -147.430948 
L 747.163636 -116.874472 
L 747.163636 -102.348316 
L 747.163636 -102.348316 
L 691.824793 -121.919525 
L 636.48595 -177.985456 
L 581.147107 -270.391586 
L 525.808264 -327.317583 
L 470.469421 -192.802206 
L 415.130579 -106.837693 
L 359.791736 -89.265091 
L 304.452893 -85.823611 
L 249.11405 -85.858656 
L 193.775207 -87.901018 
L 138.436364 -91.65557 
z
" id="m0864691995" style="stroke:#1470d6;stroke-opacity:0.3;"/>
    </defs>
    <g clip-path="url(#pf95b0b07e0)">
     <use style="fill:#1470d6;fill-opacity:0.3;stroke:#1470d6;stroke-opacity:0.3;" x="0" xlink:href="#m0864691995" y="576"/>
    </g>
   </g>
   <g id="matplotlib.axis_1">
    <g id="xtick_1">
     <g id="line2d_1">
      <defs>
       <path d="M 0 0 
L 0 3.5 
" id="m0a2c609416" style="stroke:#000000;stroke-width:0.8;"/>
      </defs>
      <g>
       <use style="stroke:#000000;stroke-width:0.8;" x="138.436364" xlink:href="#m0a2c609416" y="512.64"/>
      </g>
     </g>
     <g id="text_1">
      <!-- Jan -->
      <g transform="translate(130.545426 528.184375)scale(0.12 -0.12)">
       <defs>
        <path d="M 1939 4160 
L 282 4160 
L 282 3981 
C 800 3942 851 3898 851 3360 
L 851 1178 
C 851 640 838 269 781 -38 
C 717 -403 525 -698 166 -877 
L 250 -1056 
C 410 -1005 627 -883 845 -685 
C 1267 -294 1395 147 1395 966 
L 1395 3360 
C 1395 3898 1446 3942 1939 3981 
L 1939 4160 
z
" id="MinionPro-Regular-4a" transform="scale(0.015625)"/>
        <path d="M 2771 250 
L 2707 416 
C 2643 378 2554 346 2477 346 
C 2368 346 2253 442 2253 730 
L 2253 1920 
C 2253 2253 2189 2515 1965 2701 
C 1824 2816 1632 2874 1440 2874 
C 1075 2803 659 2554 480 2426 
C 358 2336 275 2266 275 2170 
C 275 2022 442 1894 557 1894 
C 646 1894 717 1939 742 2048 
C 794 2240 851 2381 934 2464 
C 998 2541 1094 2592 1222 2592 
C 1542 2592 1760 2330 1760 1869 
L 1760 1754 
C 1619 1638 1152 1466 768 1338 
C 416 1216 250 1018 250 704 
C 250 301 563 -77 1018 -77 
C 1210 -77 1517 160 1773 333 
C 1805 224 1843 134 1926 45 
C 1997 -19 2131 -77 2227 -77 
L 2771 250 
z
M 1760 538 
C 1638 422 1414 314 1248 307 
C 1050 307 794 467 794 800 
C 794 1030 934 1152 1184 1267 
C 1318 1331 1626 1466 1760 1536 
L 1760 538 
z
" id="MinionPro-Regular-61" transform="scale(0.015625)"/>
        <path d="M 3347 0 
L 3347 166 
C 2976 205 2944 230 2944 666 
L 2944 1901 
C 2944 2522 2624 2874 2118 2874 
C 1933 2874 1766 2797 1587 2682 
C 1427 2573 1286 2477 1158 2381 
L 1158 2893 
C 877 2765 576 2688 269 2630 
L 269 2483 
C 614 2419 653 2400 653 1990 
L 653 666 
C 653 243 621 211 186 166 
L 186 0 
L 1574 0 
L 1574 166 
C 1197 205 1158 230 1158 666 
L 1158 2170 
C 1350 2336 1600 2496 1856 2496 
C 2285 2496 2438 2208 2438 1766 
L 2438 698 
C 2438 256 2394 205 2016 166 
L 2016 0 
L 3347 0 
z
" id="MinionPro-Regular-6e" transform="scale(0.015625)"/>
       </defs>
       <use xlink:href="#MinionPro-Regular-4a"/>
       <use x="32.899994" xlink:href="#MinionPro-Regular-61"/>
       <use x="76.799988" xlink:href="#MinionPro-Regular-6e"/>
      </g>
     </g>
    </g>
    <g id="xtick_2">
     <g id="line2d_2">
      <g>
       <use style="stroke:#000000;stroke-width:0.8;" x="193.775207" xlink:href="#m0a2c609416" y="512.64"/>
      </g>
     </g>
     <g id="text_2">
      <!-- Feb -->
      <g transform="translate(185.003019 528.184375)scale(0.12 -0.12)">
       <defs>
        <path d="M 3155 3219 
C 3123 3520 3091 3930 3091 4160 
L 275 4160 
L 275 3981 
C 768 3942 819 3910 819 3354 
L 819 806 
C 819 256 768 218 256 179 
L 256 0 
L 1997 0 
L 1997 179 
C 1414 218 1363 256 1363 806 
L 1363 1965 
L 2022 1965 
C 2605 1965 2630 1888 2714 1453 
L 2893 1453 
L 2893 2682 
L 2714 2682 
C 2630 2272 2605 2214 2022 2214 
L 1363 2214 
L 1363 3738 
C 1363 3923 1382 3936 1568 3936 
L 2054 3936 
C 2541 3936 2682 3885 2784 3706 
C 2874 3571 2912 3450 2963 3194 
L 3155 3219 
z
" id="MinionPro-Regular-46" transform="scale(0.015625)"/>
        <path d="M 2426 678 
C 2195 461 1952 358 1696 358 
C 1248 358 749 717 742 1587 
C 1504 1613 2304 1677 2413 1696 
C 2528 1722 2560 1773 2560 1901 
C 2560 2400 2131 2874 1600 2874 
L 1594 2874 
C 1267 2874 922 2701 659 2406 
C 397 2118 237 1728 237 1286 
C 237 563 698 -77 1485 -77 
C 1683 -77 2125 38 2528 544 
L 2426 678 
z
M 1446 2637 
C 1798 2637 2016 2330 2010 1997 
C 2010 1907 1971 1869 1856 1869 
C 1485 1856 1133 1850 774 1850 
C 870 2368 1152 2637 1440 2637 
L 1446 2637 
z
" id="MinionPro-Regular-65" transform="scale(0.015625)"/>
        <path d="M 973 2586 
L 973 4557 
C 736 4467 346 4371 45 4333 
L 45 4186 
C 454 4147 467 4109 467 3712 
L 467 154 
C 819 -13 1146 -77 1408 -77 
C 2266 -77 3014 589 3014 1530 
C 3014 2285 2438 2874 1754 2874 
C 1683 2874 1594 2854 1491 2810 
L 973 2586 
z
M 973 2394 
C 1088 2464 1293 2515 1472 2515 
C 2003 2515 2451 2093 2451 1363 
C 2451 621 2112 166 1581 166 
C 1242 173 1050 397 1011 525 
C 986 582 973 646 973 742 
L 973 2394 
z
" id="MinionPro-Regular-62" transform="scale(0.015625)"/>
       </defs>
       <use xlink:href="#MinionPro-Regular-46"/>
       <use x="52.899994" xlink:href="#MinionPro-Regular-65"/>
       <use x="95.399979" xlink:href="#MinionPro-Regular-62"/>
      </g>
     </g>
    </g>
    <g id="xtick_3">
     <g id="line2d_3">
      <g>
       <use style="stroke:#000000;stroke-width:0.8;" x="249.11405" xlink:href="#m0a2c609416" y="512.64"/>
      </g>
     </g>
     <g id="text_3">
      <!-- Mar -->
      <g transform="translate(238.908425 528.184375)scale(0.12 -0.12)">
       <defs>
        <path d="M 5510 0 
L 5510 179 
C 4954 230 4934 262 4915 941 
L 4851 3258 
C 4832 3917 4877 3930 5440 3981 
L 5440 4160 
L 4352 4160 
L 2874 960 
L 1414 4160 
L 365 4160 
L 365 3981 
C 947 3923 979 3898 922 3066 
L 832 1734 
C 781 1069 742 787 710 563 
C 666 294 538 224 166 179 
L 166 0 
L 1658 0 
L 1658 179 
C 1235 224 1082 269 1069 576 
C 1062 832 1062 1114 1088 1638 
L 1184 3462 
L 1197 3462 
L 2630 45 
L 2758 45 
L 4320 3552 
L 4346 3552 
L 4365 941 
C 4371 262 4346 230 3827 179 
L 3827 0 
L 5510 0 
z
" id="MinionPro-Regular-4d" transform="scale(0.015625)"/>
        <path d="M 1158 2195 
L 1158 2893 
C 851 2758 570 2682 256 2630 
L 256 2490 
C 621 2438 653 2413 653 1990 
L 653 666 
C 653 243 608 205 211 166 
L 211 0 
L 1683 0 
L 1683 166 
C 1190 205 1158 243 1158 666 
L 1158 1837 
C 1299 2195 1504 2387 1670 2387 
C 1773 2387 1850 2349 1939 2253 
C 1978 2214 2035 2208 2112 2240 
C 2234 2298 2317 2426 2317 2554 
C 2317 2707 2163 2874 1946 2874 
C 1638 2874 1363 2515 1171 2195 
L 1158 2195 
z
" id="MinionPro-Regular-72" transform="scale(0.015625)"/>
       </defs>
       <use xlink:href="#MinionPro-Regular-4d"/>
       <use x="89.099991" xlink:href="#MinionPro-Regular-61"/>
       <use x="132.999985" xlink:href="#MinionPro-Regular-72"/>
      </g>
     </g>
    </g>
    <g id="xtick_4">
     <g id="line2d_4">
      <g>
       <use style="stroke:#000000;stroke-width:0.8;" x="304.452893" xlink:href="#m0a2c609416" y="512.64"/>
      </g>
     </g>
     <g id="text_4">
      <!-- Apr -->
      <g transform="translate(294.937268 528.184375)scale(0.12 -0.12)">
       <defs>
        <path d="M 4307 0 
L 4307 179 
C 3891 218 3808 275 3603 826 
C 3194 1939 2765 3155 2368 4256 
L 2170 4198 
L 845 838 
C 621 275 531 237 128 179 
L 128 0 
L 1517 0 
L 1517 179 
C 1037 224 979 288 1120 691 
C 1203 960 1299 1229 1402 1517 
L 2765 1517 
C 2906 1126 3034 781 3117 531 
C 3200 282 3142 230 2739 179 
L 2739 0 
L 4307 0 
z
M 2675 1792 
L 1498 1792 
C 1690 2317 1894 2874 2099 3424 
L 2112 3424 
L 2675 1792 
z
" id="MinionPro-Regular-41" transform="scale(0.015625)"/>
        <path d="M 1082 2432 
L 1082 2938 
C 781 2816 422 2707 154 2662 
L 154 2509 
C 550 2458 576 2445 576 2029 
L 576 -864 
C 576 -1286 518 -1325 109 -1363 
L 109 -1536 
L 1626 -1536 
L 1626 -1363 
C 1126 -1318 1082 -1286 1082 -800 
L 1082 38 
C 1165 -6 1338 -70 1523 -77 
C 2355 77 3117 698 3117 1664 
C 3117 2298 2694 2874 1984 2874 
C 1907 2874 1786 2842 1670 2778 
L 1082 2432 
z
M 1082 2221 
C 1254 2349 1517 2490 1722 2490 
C 2189 2490 2579 2106 2579 1421 
C 2579 698 2221 237 1683 237 
C 1466 237 1222 339 1082 486 
L 1082 2221 
z
" id="MinionPro-Regular-70" transform="scale(0.015625)"/>
       </defs>
       <use xlink:href="#MinionPro-Regular-41"/>
       <use x="69.099991" xlink:href="#MinionPro-Regular-70"/>
       <use x="121.499985" xlink:href="#MinionPro-Regular-72"/>
      </g>
     </g>
    </g>
    <g id="xtick_5">
     <g id="line2d_5">
      <g>
       <use style="stroke:#000000;stroke-width:0.8;" x="359.791736" xlink:href="#m0a2c609416" y="512.64"/>
      </g>
     </g>
     <g id="text_5">
      <!-- May -->
      <g transform="translate(349.057361 527.98)scale(0.12 -0.12)">
       <defs>
        <path d="M 3059 2797 
L 1901 2797 
L 1901 2637 
C 2266 2586 2310 2515 2234 2272 
C 2099 1869 1824 1114 1645 678 
L 1062 2285 
C 979 2522 1011 2586 1306 2637 
L 1306 2797 
L 6 2797 
L 6 2637 
C 358 2586 422 2502 557 2150 
C 749 1696 1037 922 1293 192 
C 1331 83 1331 0 1299 -96 
C 1274 -179 1222 -314 1101 -538 
C 954 -826 826 -979 627 -1107 
C 518 -1178 461 -1235 461 -1338 
C 461 -1491 646 -1645 826 -1645 
C 915 -1645 992 -1613 1030 -1491 
C 1120 -1146 1261 -781 1690 243 
C 2131 1299 2330 1830 2490 2170 
C 2662 2534 2720 2586 3059 2637 
L 3059 2797 
z
" id="MinionPro-Regular-79" transform="scale(0.015625)"/>
       </defs>
       <use xlink:href="#MinionPro-Regular-4d"/>
       <use x="89.099991" xlink:href="#MinionPro-Regular-61"/>
       <use x="132.999985" xlink:href="#MinionPro-Regular-79"/>
      </g>
     </g>
    </g>
    <g id="xtick_6">
     <g id="line2d_6">
      <g>
       <use style="stroke:#000000;stroke-width:0.8;" x="415.130579" xlink:href="#m0a2c609416" y="512.64"/>
      </g>
     </g>
     <g id="text_6">
      <!-- Jun -->
      <g transform="translate(406.688391 528.184375)scale(0.12 -0.12)">
       <defs>
        <path d="M 3315 314 
L 3136 326 
C 2893 339 2842 384 2842 704 
L 2842 2842 
C 2746 2822 2592 2797 2413 2778 
C 2227 2752 2010 2733 1837 2726 
L 1837 2579 
L 2067 2541 
C 2278 2509 2336 2470 2336 2125 
L 2336 634 
C 2118 422 1875 326 1645 326 
C 1357 326 1082 480 1082 1043 
L 1082 1907 
C 1082 2342 1082 2643 1101 2842 
C 992 2822 819 2797 646 2771 
C 474 2752 320 2733 186 2726 
L 186 2579 
L 365 2541 
C 525 2502 576 2470 576 2131 
L 576 877 
C 576 186 941 -77 1370 -77 
C 1542 -77 1677 -26 1862 83 
C 2042 192 2189 307 2336 416 
L 2336 -38 
L 2374 -77 
C 2496 -45 2656 6 2822 51 
C 2995 96 3174 134 3315 154 
L 3315 314 
z
" id="MinionPro-Regular-75" transform="scale(0.015625)"/>
       </defs>
       <use xlink:href="#MinionPro-Regular-4a"/>
       <use x="32.899994" xlink:href="#MinionPro-Regular-75"/>
       <use x="85.999985" xlink:href="#MinionPro-Regular-6e"/>
      </g>
     </g>
    </g>
    <g id="xtick_7">
     <g id="line2d_7">
      <g>
       <use style="stroke:#000000;stroke-width:0.8;" x="470.469421" xlink:href="#m0a2c609416" y="512.64"/>
      </g>
     </g>
     <g id="text_7">
      <!-- Jul -->
      <g transform="translate(463.791609 528.184375)scale(0.12 -0.12)">
       <defs>
        <path d="M 1523 0 
L 1523 166 
C 1114 205 1062 243 1062 666 
L 1062 4557 
C 845 4480 448 4371 115 4333 
L 115 4179 
C 518 4147 557 4128 557 3693 
L 557 666 
C 557 243 499 205 96 166 
L 96 0 
L 1523 0 
z
" id="MinionPro-Regular-6c" transform="scale(0.015625)"/>
       </defs>
       <use xlink:href="#MinionPro-Regular-4a"/>
       <use x="32.899994" xlink:href="#MinionPro-Regular-75"/>
       <use x="85.999985" xlink:href="#MinionPro-Regular-6c"/>
      </g>
     </g>
    </g>
    <g id="xtick_8">
     <g id="line2d_8">
      <g>
       <use style="stroke:#000000;stroke-width:0.8;" x="525.808264" xlink:href="#m0a2c609416" y="512.64"/>
      </g>
     </g>
     <g id="text_8">
      <!-- Aug -->
      <g transform="translate(515.669202 527.98)scale(0.12 -0.12)">
       <defs>
        <path d="M 2957 2803 
C 2726 2765 2400 2726 2086 2714 
C 1901 2816 1690 2874 1472 2874 
L 1466 2874 
C 979 2874 326 2541 326 1811 
C 326 1376 602 1075 890 954 
C 787 826 582 659 326 563 
C 320 499 339 390 397 294 
C 480 160 640 13 870 -58 
C 717 -173 467 -378 339 -506 
C 243 -602 186 -723 186 -864 
C 192 -1229 582 -1645 1293 -1645 
C 2144 -1645 2893 -1024 2893 -378 
C 2893 250 2368 378 1971 378 
C 1760 378 1530 371 1299 371 
C 1011 371 896 493 896 621 
C 896 710 998 826 1088 883 
C 1190 870 1306 851 1414 851 
C 1958 851 2534 1184 2534 1875 
C 2534 2106 2464 2304 2342 2445 
L 2707 2426 
C 2810 2477 2938 2650 2995 2752 
L 2957 2803 
z
M 1408 2682 
C 1773 2682 2010 2323 2010 1818 
C 2010 1312 1760 1062 1478 1056 
C 1120 1056 877 1414 877 1914 
C 877 2413 1126 2682 1402 2682 
L 1408 2682 
z
M 1549 -70 
C 1818 -70 2003 -90 2163 -154 
C 2349 -230 2458 -390 2458 -608 
C 2458 -1005 2144 -1318 1536 -1318 
C 1062 -1318 691 -1056 691 -710 
C 691 -525 819 -346 986 -211 
C 1101 -109 1242 -70 1542 -70 
L 1549 -70 
z
" id="MinionPro-Regular-67" transform="scale(0.015625)"/>
       </defs>
       <use xlink:href="#MinionPro-Regular-41"/>
       <use x="69.099991" xlink:href="#MinionPro-Regular-75"/>
       <use x="122.199982" xlink:href="#MinionPro-Regular-67"/>
      </g>
     </g>
    </g>
    <g id="xtick_9">
     <g id="line2d_9">
      <g>
       <use style="stroke:#000000;stroke-width:0.8;" x="581.147107" xlink:href="#m0a2c609416" y="512.64"/>
      </g>
     </g>
     <g id="text_9">
      <!-- Sep -->
      <g transform="translate(572.608357 528.184375)scale(0.12 -0.12)">
       <defs>
        <path d="M 2618 3226 
C 2566 3629 2534 3878 2509 4109 
C 2266 4186 1997 4256 1702 4256 
C 877 4256 384 3731 384 3117 
C 384 2394 1030 2074 1440 1856 
C 1920 1600 2272 1376 2272 902 
C 2272 435 1984 134 1504 134 
C 845 134 557 781 454 1171 
L 269 1126 
C 307 819 390 269 442 134 
C 499 102 595 58 755 0 
C 915 -45 1120 -96 1382 -96 
C 2234 -96 2803 442 2803 1114 
C 2803 1830 2195 2131 1696 2387 
C 1190 2650 883 2867 883 3334 
C 883 3680 1101 4038 1594 4038 
C 2150 4038 2317 3597 2432 3187 
L 2618 3226 
z
" id="MinionPro-Regular-53" transform="scale(0.015625)"/>
       </defs>
       <use xlink:href="#MinionPro-Regular-53"/>
       <use x="47.399994" xlink:href="#MinionPro-Regular-65"/>
       <use x="89.899979" xlink:href="#MinionPro-Regular-70"/>
      </g>
     </g>
    </g>
    <g id="xtick_10">
     <g id="line2d_10">
      <g>
       <use style="stroke:#000000;stroke-width:0.8;" x="636.48595" xlink:href="#m0a2c609416" y="512.64"/>
      </g>
     </g>
     <g id="text_10">
      <!-- Oct -->
      <g transform="translate(627.63595 528.184375)scale(0.12 -0.12)">
       <defs>
        <path d="M 2432 4256 
C 1088 4256 282 3187 282 2035 
C 282 806 1203 -96 2362 -96 
C 3533 -96 4499 749 4499 2131 
C 4499 3411 3520 4256 2438 4256 
L 2432 4256 
z
M 2304 4026 
C 3142 4026 3846 3309 3846 1958 
C 3846 730 3206 134 2496 134 
C 1594 134 934 1011 934 2214 
C 934 3411 1587 4026 2298 4026 
L 2304 4026 
z
" id="MinionPro-Regular-4f" transform="scale(0.015625)"/>
        <path d="M 2502 710 
C 2208 435 1997 358 1722 358 
C 1363 358 755 653 755 1542 
C 755 2214 1126 2566 1549 2566 
C 1773 2566 1997 2483 2189 2304 
C 2246 2253 2278 2234 2310 2234 
C 2381 2234 2522 2374 2522 2509 
C 2522 2579 2502 2637 2419 2707 
C 2317 2790 2106 2874 1850 2874 
L 1843 2874 
C 1600 2874 1216 2771 883 2515 
C 454 2182 243 1754 243 1261 
C 243 576 717 -77 1523 -77 
C 1901 -77 2330 205 2611 576 
L 2502 710 
z
" id="MinionPro-Regular-63" transform="scale(0.015625)"/>
        <path d="M 1907 230 
L 1850 397 
C 1760 352 1613 288 1453 288 
C 1293 288 1082 384 1082 902 
L 1082 2547 
L 1766 2547 
C 1843 2592 1862 2733 1805 2797 
L 1082 2797 
L 1082 3674 
L 992 3686 
L 576 3264 
L 576 2797 
L 282 2797 
L 109 2611 
L 134 2547 
L 576 2547 
L 576 685 
C 576 179 800 -77 1203 -77 
C 1261 -77 1363 -51 1472 6 
L 1907 230 
z
" id="MinionPro-Regular-74" transform="scale(0.015625)"/>
       </defs>
       <use xlink:href="#MinionPro-Regular-4f"/>
       <use x="74.699982" xlink:href="#MinionPro-Regular-63"/>
       <use x="116.999969" xlink:href="#MinionPro-Regular-74"/>
      </g>
     </g>
    </g>
    <g id="xtick_11">
     <g id="line2d_11">
      <g>
       <use style="stroke:#000000;stroke-width:0.8;" x="691.824793" xlink:href="#m0a2c609416" y="512.64"/>
      </g>
     </g>
     <g id="text_11">
      <!-- Nov -->
      <g transform="translate(681.529168 528.184375)scale(0.12 -0.12)">
       <defs>
        <path d="M 4602 4160 
L 3091 4160 
L 3091 3981 
C 3533 3955 3686 3872 3718 3584 
C 3738 3405 3763 3110 3763 2522 
L 3763 947 
L 3744 947 
L 1075 4160 
L 128 4160 
L 128 3981 
C 429 3955 570 3904 698 3744 
C 813 3590 826 3565 826 3098 
L 826 1690 
C 826 1101 806 794 787 595 
C 755 282 595 198 224 179 
L 224 0 
L 1741 0 
L 1741 179 
C 1306 205 1158 282 1126 608 
C 1107 794 1088 1101 1088 1690 
L 1088 3296 
L 1101 3296 
L 3827 -58 
L 4026 -58 
L 4026 2522 
C 4026 3117 4038 3405 4064 3597 
C 4090 3878 4243 3962 4602 3981 
L 4602 4160 
z
" id="MinionPro-Regular-4e" transform="scale(0.015625)"/>
        <path d="M 1638 2874 
C 1056 2874 237 2394 237 1338 
C 237 627 762 -77 1638 -77 
C 2272 -77 3027 416 3027 1446 
C 3027 2240 2432 2874 1645 2874 
L 1638 2874 
z
M 1574 2662 
C 2131 2662 2432 2054 2432 1306 
C 2432 429 2106 134 1709 134 
C 1184 134 832 736 832 1542 
C 832 2266 1178 2662 1568 2662 
L 1574 2662 
z
" id="MinionPro-Regular-6f" transform="scale(0.015625)"/>
        <path d="M 3053 2797 
L 1914 2797 
L 1914 2637 
C 2278 2592 2317 2522 2221 2214 
C 2080 1798 1875 1216 1651 685 
C 1466 1146 1210 1818 1043 2266 
C 941 2541 954 2592 1299 2637 
L 1299 2797 
L -13 2797 
L -13 2637 
C 333 2586 384 2541 531 2170 
C 832 1427 1126 698 1414 -70 
L 1587 -70 
C 1939 883 2278 1670 2490 2150 
C 2662 2534 2720 2592 3053 2637 
L 3053 2797 
z
" id="MinionPro-Regular-76" transform="scale(0.015625)"/>
       </defs>
       <use xlink:href="#MinionPro-Regular-4e"/>
       <use x="74.299988" xlink:href="#MinionPro-Regular-6f"/>
       <use x="125.299973" xlink:href="#MinionPro-Regular-76"/>
      </g>
     </g>
    </g>
    <g id="xtick_12">
     <g id="line2d_12">
      <g>
       <use style="stroke:#000000;stroke-width:0.8;" x="747.163636" xlink:href="#m0a2c609416" y="512.64"/>
      </g>
     </g>
     <g id="text_12">
      <!-- Dec -->
      <g transform="translate(737.665824 528.184375)scale(0.12 -0.12)">
       <defs>
        <path d="M 269 4160 
L 269 3974 
C 762 3936 813 3910 813 3360 
L 813 794 
C 813 250 762 211 211 173 
L 211 0 
L 1728 0 
C 2515 0 3149 160 3629 531 
C 4122 902 4416 1472 4416 2240 
C 4416 2842 4192 3309 3878 3616 
C 3482 3994 2880 4160 2067 4160 
L 269 4160 
z
M 1363 3501 
C 1363 3750 1382 3821 1446 3866 
C 1510 3910 1677 3942 1946 3942 
C 2374 3942 2746 3866 3034 3680 
C 3546 3379 3789 2810 3789 2150 
C 3789 1126 3238 230 2042 230 
C 1574 230 1363 352 1363 838 
L 1363 3501 
z
" id="MinionPro-Regular-44" transform="scale(0.015625)"/>
       </defs>
       <use xlink:href="#MinionPro-Regular-44"/>
       <use x="73.499985" xlink:href="#MinionPro-Regular-65"/>
       <use x="115.999969" xlink:href="#MinionPro-Regular-63"/>
      </g>
     </g>
    </g>
    <g id="text_13">
     <!-- Month -->
     <g transform="translate(420.50375 546.456875)scale(0.16 -0.16)">
      <defs>
       <path d="M 3283 0 
L 3283 166 
C 2906 198 2861 237 2861 659 
L 2861 1779 
C 2861 2547 2496 2880 1978 2874 
C 1632 2874 1286 2637 1062 2406 
L 1062 4557 
C 813 4480 429 4378 122 4333 
L 122 4186 
C 544 4147 557 4115 557 3712 
L 557 659 
C 557 237 506 198 122 166 
L 115 0 
L 1472 0 
L 1472 166 
C 1094 205 1062 250 1062 659 
L 1062 2182 
C 1242 2387 1485 2509 1728 2509 
C 2157 2509 2355 2246 2355 1722 
L 2355 659 
C 2355 243 2304 205 1933 166 
L 1933 0 
L 3283 0 
z
" id="MinionPro-Regular-68" transform="scale(0.015625)"/>
      </defs>
      <use xlink:href="#MinionPro-Regular-4d"/>
      <use x="89.099991" xlink:href="#MinionPro-Regular-6f"/>
      <use x="140.099976" xlink:href="#MinionPro-Regular-6e"/>
      <use x="194.799973" xlink:href="#MinionPro-Regular-74"/>
      <use x="225.299957" xlink:href="#MinionPro-Regular-68"/>
     </g>
    </g>
   </g>
   <g id="matplotlib.axis_2">
    <g id="ytick_1">
     <g id="line2d_13">
      <defs>
       <path d="M 0 0 
L -3.5 0 
" id="mf9290bbfcb" style="stroke:#000000;stroke-width:0.8;"/>
      </defs>
      <g>
       <use style="stroke:#000000;stroke-width:0.8;" x="108" xlink:href="#mf9290bbfcb" y="495.914808"/>
      </g>
     </g>
     <g id="text_14">
      <!-- 0 -->
      <g transform="translate(95.24 500.186995)scale(0.12 -0.12)">
       <defs>
        <path d="M 1536 4064 
C 576 4064 224 2925 224 1990 
C 224 979 570 -77 1536 -77 
C 2496 -77 2835 1062 2835 1997 
C 2835 2982 2496 4064 1542 4064 
L 1536 4064 
z
M 1530 3853 
C 2106 3853 2266 2906 2266 1997 
C 2266 1101 2112 141 1536 141 
C 979 141 794 1107 794 2003 
C 794 2893 947 3853 1523 3853 
L 1530 3853 
z
" id="MinionPro-Regular-30" transform="scale(0.015625)"/>
       </defs>
       <use xlink:href="#MinionPro-Regular-30"/>
      </g>
     </g>
    </g>
    <g id="ytick_2">
     <g id="line2d_14">
      <g>
       <use style="stroke:#000000;stroke-width:0.8;" x="108" xlink:href="#mf9290bbfcb" y="441.808258"/>
      </g>
     </g>
     <g id="text_15">
      <!-- 1000 -->
      <g transform="translate(77.96 446.080446)scale(0.12 -0.12)">
       <defs>
        <path d="M 2458 0 
L 2458 173 
C 1875 218 1837 269 1837 730 
L 1837 4064 
C 1485 3923 1107 3802 698 3731 
L 698 3584 
L 1005 3571 
C 1286 3558 1312 3526 1312 3194 
L 1312 730 
C 1312 269 1280 218 698 173 
L 698 0 
L 2458 0 
z
" id="MinionPro-Regular-31" transform="scale(0.015625)"/>
       </defs>
       <use xlink:href="#MinionPro-Regular-31"/>
       <use x="47.999985" xlink:href="#MinionPro-Regular-30"/>
       <use x="95.999969" xlink:href="#MinionPro-Regular-30"/>
       <use x="143.999954" xlink:href="#MinionPro-Regular-30"/>
      </g>
     </g>
    </g>
    <g id="ytick_3">
     <g id="line2d_15">
      <g>
       <use style="stroke:#000000;stroke-width:0.8;" x="108" xlink:href="#mf9290bbfcb" y="387.701709"/>
      </g>
     </g>
     <g id="text_16">
      <!-- 2000 -->
      <g transform="translate(77.96 391.973896)scale(0.12 -0.12)">
       <defs>
        <path d="M 2637 896 
C 2445 493 2362 467 2016 467 
L 819 467 
L 1728 1421 
C 2317 2048 2573 2426 2573 2982 
C 2573 3654 2061 4064 1498 4064 
C 1126 4064 826 3898 634 3686 
L 269 3168 
L 410 3040 
C 576 3290 845 3635 1280 3635 
C 1754 3635 2035 3322 2035 2784 
C 2035 2234 1632 1709 1235 1235 
C 915 864 557 499 198 147 
L 198 0 
L 2592 0 
C 2669 288 2733 570 2816 838 
L 2637 896 
z
" id="MinionPro-Regular-32" transform="scale(0.015625)"/>
       </defs>
       <use xlink:href="#MinionPro-Regular-32"/>
       <use x="47.999985" xlink:href="#MinionPro-Regular-30"/>
       <use x="95.999969" xlink:href="#MinionPro-Regular-30"/>
       <use x="143.999954" xlink:href="#MinionPro-Regular-30"/>
      </g>
     </g>
    </g>
    <g id="ytick_4">
     <g id="line2d_16">
      <g>
       <use style="stroke:#000000;stroke-width:0.8;" x="108" xlink:href="#mf9290bbfcb" y="333.595159"/>
      </g>
     </g>
     <g id="text_17">
      <!-- 3000 -->
      <g transform="translate(77.96 337.867347)scale(0.12 -0.12)">
       <defs>
        <path d="M 1824 2419 
C 2010 2547 2163 2662 2259 2765 
C 2381 2886 2458 3034 2458 3219 
C 2458 3706 2080 4064 1504 4064 
L 1498 4064 
C 1165 4064 870 3904 691 3706 
L 410 3302 
L 544 3174 
C 704 3411 960 3680 1312 3680 
C 1651 3680 1920 3475 1920 3078 
C 1920 2605 1485 2355 896 2170 
L 941 1984 
C 1043 2016 1197 2054 1350 2054 
C 1715 2054 2163 1818 2163 1229 
C 2163 595 1843 256 1389 256 
C 1024 256 762 435 595 582 
C 544 627 493 621 442 582 
C 384 538 301 454 294 371 
C 282 294 307 224 397 141 
C 480 64 742 -77 1037 -77 
C 1498 -77 2714 397 2714 1434 
C 2714 1901 2387 2298 1824 2406 
L 1824 2419 
z
" id="MinionPro-Regular-33" transform="scale(0.015625)"/>
       </defs>
       <use xlink:href="#MinionPro-Regular-33"/>
       <use x="47.999985" xlink:href="#MinionPro-Regular-30"/>
       <use x="95.999969" xlink:href="#MinionPro-Regular-30"/>
       <use x="143.999954" xlink:href="#MinionPro-Regular-30"/>
      </g>
     </g>
    </g>
    <g id="ytick_5">
     <g id="line2d_17">
      <g>
       <use style="stroke:#000000;stroke-width:0.8;" x="108" xlink:href="#mf9290bbfcb" y="279.48861"/>
      </g>
     </g>
     <g id="text_18">
      <!-- 4000 -->
      <g transform="translate(77.96 283.760797)scale(0.12 -0.12)">
       <defs>
        <path d="M 2918 1139 
L 2918 1440 
L 2304 1440 
L 2304 4045 
L 2048 4045 
C 1389 3174 736 2227 128 1318 
L 128 1139 
L 1792 1139 
L 1792 678 
C 1792 256 1766 218 1210 173 
L 1210 0 
L 2848 0 
L 2848 173 
C 2330 218 2304 250 2304 678 
L 2304 1139 
L 2918 1139 
z
M 1792 1440 
L 531 1440 
C 954 2150 1370 2758 1779 3334 
L 1792 3334 
L 1792 1440 
z
" id="MinionPro-Regular-34" transform="scale(0.015625)"/>
       </defs>
       <use xlink:href="#MinionPro-Regular-34"/>
       <use x="47.999985" xlink:href="#MinionPro-Regular-30"/>
       <use x="95.999969" xlink:href="#MinionPro-Regular-30"/>
       <use x="143.999954" xlink:href="#MinionPro-Regular-30"/>
      </g>
     </g>
    </g>
    <g id="ytick_6">
     <g id="line2d_18">
      <g>
       <use style="stroke:#000000;stroke-width:0.8;" x="108" xlink:href="#mf9290bbfcb" y="225.38206"/>
      </g>
     </g>
     <g id="text_19">
      <!-- 5000 -->
      <g transform="translate(77.96 229.654248)scale(0.12 -0.12)">
       <defs>
        <path d="M 973 3520 
L 2464 3520 
L 2630 3936 
L 2592 3987 
L 768 3987 
L 518 2035 
C 666 2093 909 2163 1178 2163 
C 1875 2163 2221 1760 2221 1197 
C 2221 717 1952 250 1408 250 
C 1018 250 755 454 621 576 
C 557 627 506 621 448 576 
C 378 512 320 429 314 365 
C 301 288 333 237 416 147 
C 512 58 781 -77 1075 -77 
C 1414 -70 1843 96 2189 378 
C 2579 698 2758 1062 2758 1446 
C 2758 1971 2342 2528 1523 2528 
C 1350 2528 1050 2426 806 2336 
L 973 3520 
z
" id="MinionPro-Regular-35" transform="scale(0.015625)"/>
       </defs>
       <use xlink:href="#MinionPro-Regular-35"/>
       <use x="47.999985" xlink:href="#MinionPro-Regular-30"/>
       <use x="95.999969" xlink:href="#MinionPro-Regular-30"/>
       <use x="143.999954" xlink:href="#MinionPro-Regular-30"/>
      </g>
     </g>
    </g>
    <g id="ytick_7">
     <g id="line2d_19">
      <g>
       <use style="stroke:#000000;stroke-width:0.8;" x="108" xlink:href="#mf9290bbfcb" y="171.275511"/>
      </g>
     </g>
     <g id="text_20">
      <!-- 6000 -->
      <g transform="translate(77.96 175.547698)scale(0.12 -0.12)">
       <defs>
        <path d="M 877 2195 
C 1069 3085 1664 3488 2054 3674 
C 2291 3782 2541 3859 2752 3898 
L 2707 4102 
C 2451 4058 2144 3987 1888 3898 
C 1210 3648 237 2925 237 1523 
C 237 538 800 -77 1549 -77 
C 2317 -77 2861 570 2861 1331 
C 2861 1990 2394 2515 1709 2515 
C 1581 2515 1446 2470 1306 2406 
L 877 2195 
z
M 1459 2157 
C 2042 2157 2310 1632 2310 1101 
C 2310 678 2157 141 1658 141 
C 1133 141 806 768 806 1536 
C 806 1702 813 1856 845 1978 
C 998 2061 1216 2157 1453 2157 
L 1459 2157 
z
" id="MinionPro-Regular-36" transform="scale(0.015625)"/>
       </defs>
       <use xlink:href="#MinionPro-Regular-36"/>
       <use x="47.999985" xlink:href="#MinionPro-Regular-30"/>
       <use x="95.999969" xlink:href="#MinionPro-Regular-30"/>
       <use x="143.999954" xlink:href="#MinionPro-Regular-30"/>
      </g>
     </g>
    </g>
    <g id="ytick_8">
     <g id="line2d_20">
      <g>
       <use style="stroke:#000000;stroke-width:0.8;" x="108" xlink:href="#mf9290bbfcb" y="117.168961"/>
      </g>
     </g>
     <g id="text_21">
      <!-- 7000 -->
      <g transform="translate(77.96 121.441149)scale(0.12 -0.12)">
       <defs>
        <path d="M 2861 3987 
L 416 3987 
C 390 3712 358 3392 301 3040 
L 486 3040 
C 640 3462 678 3520 1101 3520 
L 2483 3520 
C 1978 2406 1254 1088 582 -6 
L 627 -77 
L 1101 -13 
C 1715 1306 2310 2611 2912 3910 
L 2861 3987 
z
" id="MinionPro-Regular-37" transform="scale(0.015625)"/>
       </defs>
       <use xlink:href="#MinionPro-Regular-37"/>
       <use x="47.999985" xlink:href="#MinionPro-Regular-30"/>
       <use x="95.999969" xlink:href="#MinionPro-Regular-30"/>
       <use x="143.999954" xlink:href="#MinionPro-Regular-30"/>
      </g>
     </g>
    </g>
    <g id="text_22">
     <!-- Flow [m3/sec] -->
     <g transform="translate(70.12 336.7925)rotate(-90)scale(0.16 -0.16)">
      <defs>
       <path d="M 4454 2797 
L 3296 2797 
L 3296 2637 
C 3712 2579 3750 2541 3667 2208 
C 3552 1734 3373 1178 3232 736 
L 3219 736 
C 2950 1421 2688 2099 2451 2765 
L 2285 2765 
C 2016 2029 1779 1370 1542 755 
L 1530 755 
C 1370 1248 1210 1754 1062 2246 
C 966 2534 998 2573 1382 2637 
L 1382 2797 
L 58 2797 
L 58 2637 
C 365 2592 422 2547 538 2214 
C 800 1446 1043 691 1274 -70 
L 1459 -70 
C 1709 640 1971 1280 2214 1920 
C 2477 1248 2739 621 2995 -70 
L 3174 -70 
C 3469 800 3750 1651 3942 2157 
C 4077 2509 4134 2586 4454 2637 
L 4454 2797 
z
" id="MinionPro-Regular-77" transform="scale(0.015625)"/>
       <path id="MinionPro-Regular-20" transform="scale(0.015625)"/>
       <path d="M 1856 -1043 
L 1856 -864 
C 1171 -806 1158 -781 1158 -282 
L 1158 3738 
C 1158 4237 1178 4269 1856 4320 
L 1856 4499 
L 768 4499 
L 768 -1043 
L 1856 -1043 
z
" id="MinionPro-Regular-5b" transform="scale(0.015625)"/>
       <path d="M 5094 0 
L 5094 166 
C 4730 205 4678 230 4678 659 
L 4678 1894 
C 4678 2522 4365 2874 3866 2874 
C 3686 2874 3520 2797 3386 2707 
C 3226 2611 3040 2490 2854 2349 
C 2726 2682 2451 2874 2144 2874 
C 1939 2874 1786 2803 1619 2701 
C 1427 2579 1286 2464 1152 2374 
L 1152 2893 
C 870 2765 544 2682 262 2630 
L 262 2483 
C 634 2426 653 2394 653 1984 
L 653 659 
C 653 243 595 205 173 166 
L 173 0 
L 1523 0 
L 1523 166 
C 1210 205 1158 243 1158 659 
L 1158 2163 
C 1350 2323 1600 2496 1856 2496 
C 2246 2496 2413 2234 2413 1760 
L 2413 659 
C 2413 237 2355 205 1958 166 
L 1958 0 
L 3328 0 
L 3328 166 
C 2976 205 2918 243 2918 646 
L 2918 1894 
C 2918 2016 2912 2086 2899 2163 
C 3142 2368 3386 2496 3616 2496 
C 4019 2496 4179 2208 4179 1754 
L 4179 685 
C 4179 230 4109 205 3731 166 
L 3731 0 
L 5094 0 
z
" id="MinionPro-Regular-6d" transform="scale(0.015625)"/>
       <path d="M 1907 4256 
L 1549 4256 
L 160 -282 
L 518 -282 
L 1907 4256 
z
" id="MinionPro-Regular-2f" transform="scale(0.015625)"/>
       <path d="M 2048 2080 
C 2029 2240 1958 2618 1907 2765 
C 1773 2816 1600 2880 1338 2874 
C 749 2874 365 2496 365 2048 
C 365 1555 781 1344 1165 1165 
C 1485 1018 1670 864 1670 582 
C 1670 314 1453 134 1216 134 
C 832 134 544 506 429 928 
L 262 896 
C 262 666 320 230 365 141 
C 480 45 774 -77 1101 -77 
C 1613 -77 2157 224 2157 806 
C 2157 1248 1830 1478 1350 1677 
C 1062 1798 806 1952 806 2234 
C 806 2483 979 2675 1222 2675 
C 1536 2675 1760 2419 1882 2042 
L 2048 2080 
z
" id="MinionPro-Regular-73" transform="scale(0.015625)"/>
       <path d="M 1446 -1043 
L 1446 4499 
L 352 4499 
L 352 4326 
C 1037 4269 1056 4237 1056 3738 
L 1056 -269 
C 1056 -774 1037 -806 352 -864 
L 352 -1043 
L 1446 -1043 
z
" id="MinionPro-Regular-5d" transform="scale(0.015625)"/>
      </defs>
      <use xlink:href="#MinionPro-Regular-46"/>
      <use x="52.899994" xlink:href="#MinionPro-Regular-6c"/>
      <use x="78.199982" xlink:href="#MinionPro-Regular-6f"/>
      <use x="129.199966" xlink:href="#MinionPro-Regular-77"/>
      <use x="197.699951" xlink:href="#MinionPro-Regular-20"/>
      <use x="220.399948" xlink:href="#MinionPro-Regular-5b"/>
      <use x="254.899933" xlink:href="#MinionPro-Regular-6d"/>
      <use x="336.799927" xlink:href="#MinionPro-Regular-33"/>
      <use x="384.799911" xlink:href="#MinionPro-Regular-2f"/>
      <use x="417.899902" xlink:href="#MinionPro-Regular-73"/>
      <use x="454.599899" xlink:href="#MinionPro-Regular-65"/>
      <use x="497.099884" xlink:href="#MinionPro-Regular-63"/>
      <use x="539.399872" xlink:href="#MinionPro-Regular-5d"/>
     </g>
    </g>
   </g>
   <g id="LineCollection_1">
    <path clip-path="url(#pf95b0b07e0)" d="M 138.436364 262.174514 
L 747.163636 262.174514 
" style="fill:none;stroke:#808080;stroke-dasharray:3,4.95;stroke-dashoffset:0;stroke-width:3;"/>
   </g>
   <g id="line2d_21">
    <path clip-path="url(#pf95b0b07e0)" d="M 138.436364 386.559496 
L 193.775207 398.106122 
L 249.11405 468.196753 
L 304.452893 487.071938 
L 359.791736 485.091769 
L 415.130579 460.060568 
L 470.469421 364.523383 
L 525.808264 365.353096 
L 581.147107 383.016912 
L 636.48595 384.182796 
L 691.824793 384.33501 
L 747.163636 384.355156 
" style="fill:none;stroke:#41ab5d;stroke-linecap:square;stroke-width:4;"/>
   </g>
   <g id="line2d_22">
    <path clip-path="url(#pf95b0b07e0)" d="M 138.436364 480.130503 
L 193.775207 485.408486 
L 249.11405 488.092448 
L 304.452893 487.90533 
L 359.791736 483.458262 
L 415.130579 458.802473 
L 470.469421 344.050766 
L 525.808264 177.297947 
L 581.147107 262.149335 
L 636.48595 350.870111 
L 691.824793 442.694757 
L 747.163636 465.025381 
" style="fill:none;stroke:#1470d6;stroke-linecap:square;stroke-width:4;"/>
   </g>
   <g id="patch_3">
    <path d="M 108 512.64 
L 108 69.12 
" style="fill:none;stroke:#000000;stroke-linecap:square;stroke-linejoin:miter;stroke-width:0.8;"/>
   </g>
   <g id="patch_4">
    <path d="M 777.6 512.64 
L 777.6 69.12 
" style="fill:none;stroke:#000000;stroke-linecap:square;stroke-linejoin:miter;stroke-width:0.8;"/>
   </g>
   <g id="patch_5">
    <path d="M 108 512.64 
L 777.6 512.64 
" style="fill:none;stroke:#000000;stroke-linecap:square;stroke-linejoin:miter;stroke-width:0.8;"/>
   </g>
   <g id="patch_6">
    <path d="M 108 69.12 
L 777.6 69.12 
" style="fill:none;stroke:#000000;stroke-linecap:square;stroke-linejoin:miter;stroke-width:0.8;"/>
   </g>
   <g id="legend_1">
    <g id="patch_7">
     <path d="M 629.064375 130.993125 
L 769.2 130.993125 
Q 771.6 130.993125 771.6 128.593125 
L 771.6 77.52 
Q 771.6 75.12 769.2 75.12 
L 629.064375 75.12 
Q 626.664375 75.12 626.664375 77.52 
L 626.664375 128.593125 
Q 626.664375 130.993125 629.064375 130.993125 
z
" style="fill:#ffffff;opacity:0.8;stroke:#cccccc;stroke-linejoin:miter;"/>
    </g>
    <g id="line2d_23">
     <path d="M 631.464375 84.264375 
L 655.464375 84.264375 
" style="fill:none;stroke:#41ab5d;stroke-linecap:square;stroke-width:4;"/>
    </g>
    <g id="line2d_24"/>
    <g id="text_23">
     <!-- GERD Release -->
     <g transform="translate(665.064375 88.464375)scale(0.12 -0.12)">
      <defs>
       <path d="M 4429 1926 
L 2803 1926 
L 2803 1754 
C 3430 1702 3475 1664 3475 1203 
L 3475 659 
C 3475 390 3398 314 3270 243 
C 3130 173 2931 128 2714 128 
C 1478 128 934 1203 934 2125 
C 934 3309 1651 4026 2630 4026 
C 3238 4026 3725 3814 3878 3034 
L 4058 3072 
C 4006 3494 3974 3846 3955 4070 
C 3750 4115 3258 4256 2726 4256 
C 1472 4256 282 3533 282 2048 
C 282 781 1222 -96 2630 -96 
C 3142 -96 3667 45 4064 141 
C 4026 314 4019 518 4019 742 
L 4019 1286 
C 4019 1664 4045 1696 4429 1754 
L 4429 1926 
z
" id="MinionPro-Regular-47" transform="scale(0.015625)"/>
       <path d="M 3302 1037 
C 3219 781 3098 563 2989 435 
C 2848 269 2669 218 2182 218 
C 1862 218 1638 224 1517 301 
C 1402 384 1363 518 1363 819 
L 1363 2029 
L 1971 2029 
C 2528 2029 2573 1990 2656 1530 
L 2842 1530 
L 2842 2758 
L 2656 2758 
C 2573 2330 2541 2278 1965 2278 
L 1363 2278 
L 1363 3731 
C 1363 3923 1376 3936 1574 3936 
L 2061 3936 
C 2522 3936 2694 3891 2784 3757 
C 2867 3616 2931 3475 2989 3206 
L 3174 3238 
C 3155 3565 3123 4000 3123 4160 
L 269 4160 
L 269 3981 
C 768 3936 819 3917 819 3341 
L 819 794 
C 819 275 768 224 186 179 
L 186 0 
L 3270 0 
C 3328 198 3456 800 3494 1011 
L 3302 1037 
z
" id="MinionPro-Regular-45" transform="scale(0.015625)"/>
       <path d="M 4038 115 
C 3898 154 3750 224 3578 416 
C 3418 582 3290 749 3059 1082 
C 2867 1370 2598 1798 2490 2010 
C 2963 2214 3302 2554 3302 3104 
C 3302 3488 3136 3776 2880 3942 
C 2637 4102 2323 4160 1856 4160 
L 269 4160 
L 269 3981 
C 768 3936 819 3917 819 3373 
L 819 800 
C 819 256 762 218 237 179 
L 237 0 
L 1920 0 
L 1920 179 
C 1408 218 1350 256 1350 800 
L 1350 1818 
L 1555 1818 
C 1888 1818 1997 1741 2106 1562 
C 2298 1248 2528 851 2752 538 
C 3040 122 3309 -19 3789 -45 
C 3866 -51 3936 -51 4013 -51 
L 4038 115 
z
M 1350 2029 
L 1350 3603 
C 1350 3776 1376 3853 1421 3885 
C 1472 3923 1581 3949 1766 3949 
C 2253 3949 2707 3693 2707 3002 
C 2707 2656 2605 2400 2355 2208 
C 2195 2080 1984 2029 1658 2029 
L 1350 2029 
z
" id="MinionPro-Regular-52" transform="scale(0.015625)"/>
      </defs>
      <use xlink:href="#MinionPro-Regular-47"/>
      <use x="71.499985" xlink:href="#MinionPro-Regular-45"/>
      <use x="128.299973" xlink:href="#MinionPro-Regular-52"/>
      <use x="190.399963" xlink:href="#MinionPro-Regular-44"/>
      <use x="263.899948" xlink:href="#MinionPro-Regular-20"/>
      <use x="286.599945" xlink:href="#MinionPro-Regular-52"/>
      <use x="348.699936" xlink:href="#MinionPro-Regular-65"/>
      <use x="391.199921" xlink:href="#MinionPro-Regular-6c"/>
      <use x="416.499908" xlink:href="#MinionPro-Regular-65"/>
      <use x="458.999893" xlink:href="#MinionPro-Regular-61"/>
      <use x="502.899887" xlink:href="#MinionPro-Regular-73"/>
      <use x="539.599884" xlink:href="#MinionPro-Regular-65"/>
     </g>
    </g>
    <g id="line2d_25">
     <path d="M 631.464375 101.68875 
L 655.464375 101.68875 
" style="fill:none;stroke:#1470d6;stroke-linecap:square;stroke-width:4;"/>
    </g>
    <g id="line2d_26"/>
    <g id="text_24">
     <!-- Blue Nile Inflow -->
     <g transform="translate(665.064375 105.88875)scale(0.12 -0.12)">
      <defs>
       <path d="M 2381 2259 
C 2739 2355 3245 2605 3245 3213 
C 3245 3507 3117 3789 2886 3942 
C 2688 4083 2406 4160 1926 4160 
L 282 4160 
L 282 3981 
C 794 3942 819 3904 819 3373 
L 819 794 
C 819 256 781 218 230 179 
L 230 0 
L 1645 0 
C 2150 0 2573 77 2899 256 
C 3277 467 3514 794 3514 1222 
C 3514 1862 3014 2144 2381 2240 
L 2381 2259 
z
M 1357 2317 
L 1357 3571 
C 1357 3782 1382 3853 1440 3891 
C 1504 3930 1645 3955 1805 3955 
C 2413 3955 2656 3571 2656 3136 
C 2656 2598 2362 2317 1658 2317 
L 1357 2317 
z
M 1357 2106 
L 1651 2106 
C 2432 2106 2880 1818 2880 1158 
C 2880 493 2413 224 1888 218 
C 1478 218 1357 339 1357 800 
L 1357 2106 
z
" id="MinionPro-Regular-42" transform="scale(0.015625)"/>
       <path d="M 864 3430 
C 1050 3430 1190 3584 1190 3757 
C 1190 3949 1050 4090 870 4090 
C 698 4090 544 3949 544 3757 
C 544 3584 698 3430 864 3430 
z
M 1613 0 
L 1613 166 
C 1203 205 1158 243 1158 678 
L 1158 2886 
C 877 2771 576 2688 250 2637 
L 250 2483 
C 634 2426 653 2394 653 2003 
L 653 678 
C 653 243 608 205 205 166 
L 205 0 
L 1613 0 
z
" id="MinionPro-Regular-69" transform="scale(0.015625)"/>
       <path d="M 1939 0 
L 1939 179 
C 1414 218 1363 250 1363 800 
L 1363 3360 
C 1363 3904 1414 3942 1939 3981 
L 1939 4160 
L 243 4160 
L 243 3981 
C 768 3942 819 3904 819 3360 
L 819 800 
C 819 256 768 218 243 179 
L 243 0 
L 1939 0 
z
" id="MinionPro-Regular-49" transform="scale(0.015625)"/>
       <path d="M 346 2797 
L 173 2611 
L 198 2547 
L 646 2547 
L 646 659 
C 646 237 602 205 192 166 
L 192 0 
L 1702 0 
L 1702 160 
C 1197 211 1152 230 1152 704 
L 1152 2547 
L 1843 2547 
C 1914 2586 1946 2739 1907 2797 
L 1152 2797 
L 1152 3053 
C 1146 3597 1216 3904 1299 4026 
C 1370 4141 1472 4218 1638 4218 
C 1850 4218 2029 4096 2157 3981 
C 2214 3917 2272 3917 2330 3962 
C 2394 4013 2432 4064 2451 4115 
C 2483 4186 2477 4269 2419 4339 
C 2317 4461 2131 4550 1914 4557 
C 1664 4525 1434 4410 1210 4211 
C 864 3917 762 3603 717 3462 
C 672 3322 646 3136 646 2938 
L 646 2797 
L 346 2797 
z
" id="MinionPro-Regular-66" transform="scale(0.015625)"/>
      </defs>
      <use xlink:href="#MinionPro-Regular-42"/>
      <use x="58.799988" xlink:href="#MinionPro-Regular-6c"/>
      <use x="84.099976" xlink:href="#MinionPro-Regular-75"/>
      <use x="137.199966" xlink:href="#MinionPro-Regular-65"/>
      <use x="179.699951" xlink:href="#MinionPro-Regular-20"/>
      <use x="202.399948" xlink:href="#MinionPro-Regular-4e"/>
      <use x="276.699936" xlink:href="#MinionPro-Regular-69"/>
      <use x="303.499924" xlink:href="#MinionPro-Regular-6c"/>
      <use x="328.799911" xlink:href="#MinionPro-Regular-65"/>
      <use x="371.299896" xlink:href="#MinionPro-Regular-20"/>
      <use x="393.999893" xlink:href="#MinionPro-Regular-49"/>
      <use x="428.099884" xlink:href="#MinionPro-Regular-6e"/>
      <use x="482.799881" xlink:href="#MinionPro-Regular-66"/>
      <use x="512.399872" xlink:href="#MinionPro-Regular-6c"/>
      <use x="537.69986" xlink:href="#MinionPro-Regular-6f"/>
      <use x="588.699844" xlink:href="#MinionPro-Regular-77"/>
     </g>
    </g>
    <g id="line2d_27">
     <path d="M 631.464375 119.113125 
L 655.464375 119.113125 
" style="fill:none;stroke:#808080;stroke-dasharray:3,4.95;stroke-dashoffset:0;stroke-width:3;"/>
    </g>
    <g id="text_25">
     <!-- Max Turbine Release -->
     <g transform="translate(665.064375 123.313125)scale(0.12 -0.12)">
      <defs>
       <path d="M 3040 0 
L 3040 166 
C 2650 218 2573 275 2336 640 
L 1709 1587 
C 1920 1901 2080 2131 2208 2291 
C 2438 2560 2522 2592 2912 2637 
L 2912 2797 
L 1747 2797 
L 1747 2637 
C 2022 2605 2067 2573 1952 2368 
C 1837 2157 1709 1958 1581 1773 
L 1203 2362 
C 1088 2541 1107 2598 1382 2637 
L 1382 2797 
L 102 2797 
L 102 2637 
C 454 2592 538 2541 730 2227 
L 1286 1357 
C 1101 1069 928 813 749 589 
C 493 269 422 218 26 166 
L 26 0 
L 1222 0 
L 1222 166 
C 890 218 877 275 998 493 
C 1120 723 1267 960 1408 1171 
L 1882 422 
C 1990 250 1939 198 1664 166 
L 1664 0 
L 3040 0 
z
" id="MinionPro-Regular-78" transform="scale(0.015625)"/>
       <path d="M 3789 3187 
C 3757 3558 3725 4026 3725 4320 
L 3590 4320 
C 3488 4198 3437 4160 3264 4160 
L 736 4160 
C 557 4160 474 4173 384 4320 
L 256 4320 
C 243 3968 211 3552 179 3168 
L 365 3168 
C 442 3450 493 3629 570 3738 
C 653 3885 781 3936 1312 3936 
L 1709 3936 
L 1709 787 
C 1709 282 1658 218 1075 179 
L 1075 0 
L 2912 0 
L 2912 179 
C 2304 218 2253 282 2253 787 
L 2253 3936 
L 2707 3936 
C 3187 3936 3296 3891 3398 3738 
C 3475 3635 3533 3475 3603 3168 
L 3789 3187 
z
" id="MinionPro-Regular-54" transform="scale(0.015625)"/>
      </defs>
      <use xlink:href="#MinionPro-Regular-4d"/>
      <use x="89.099991" xlink:href="#MinionPro-Regular-61"/>
      <use x="132.999985" xlink:href="#MinionPro-Regular-78"/>
      <use x="180.199982" xlink:href="#MinionPro-Regular-20"/>
      <use x="202.899979" xlink:href="#MinionPro-Regular-54"/>
      <use x="264.599976" xlink:href="#MinionPro-Regular-75"/>
      <use x="317.699966" xlink:href="#MinionPro-Regular-72"/>
      <use x="354.799957" xlink:href="#MinionPro-Regular-62"/>
      <use x="405.599945" xlink:href="#MinionPro-Regular-69"/>
      <use x="432.399933" xlink:href="#MinionPro-Regular-6e"/>
      <use x="487.09993" xlink:href="#MinionPro-Regular-65"/>
      <use x="529.599915" xlink:href="#MinionPro-Regular-20"/>
      <use x="552.299911" xlink:href="#MinionPro-Regular-52"/>
      <use x="614.399902" xlink:href="#MinionPro-Regular-65"/>
      <use x="656.899887" xlink:href="#MinionPro-Regular-6c"/>
      <use x="682.199875" xlink:href="#MinionPro-Regular-65"/>
      <use x="724.69986" xlink:href="#MinionPro-Regular-61"/>
      <use x="768.599854" xlink:href="#MinionPro-Regular-73"/>
      <use x="805.29985" xlink:href="#MinionPro-Regular-65"/>
     </g>
    </g>
   </g>
  </g>
 </g>
 <defs>
  <clipPath id="pf95b0b07e0">
   <rect height="443.52" width="669.6" x="108" y="69.12"/>
  </clipPath>
 </defs>
</svg>
